G75*
%MOIN*%
%OFA0B0*%
%FSLAX25Y25*%
%IPPOS*%
%LPD*%
%AMOC8*
5,1,8,0,0,1.08239X$1,22.5*
%
%ADD10OC8,0.06000*%
%ADD11C,0.06000*%
%ADD12C,0.09370*%
%ADD13C,0.01000*%
%ADD14C,0.02000*%
%ADD15C,0.05000*%
%ADD16C,0.01200*%
D10*
X0197681Y0326539D03*
X0197681Y0336539D03*
X0197681Y0346539D03*
X0197681Y0356539D03*
X0197681Y0366539D03*
X0197681Y0376539D03*
X0419217Y0246343D03*
X0429217Y0246343D03*
X0429217Y0236343D03*
X0419217Y0236343D03*
X0419217Y0226343D03*
X0429217Y0226343D03*
X0429217Y0216343D03*
X0419217Y0216343D03*
X0419217Y0206343D03*
X0429217Y0206343D03*
X0429217Y0196343D03*
X0419217Y0196343D03*
X0419217Y0186343D03*
X0429217Y0186343D03*
X0429217Y0176343D03*
X0419217Y0176343D03*
X0419217Y0166343D03*
X0429217Y0166343D03*
X0429217Y0156343D03*
X0419217Y0156343D03*
X0419217Y0146343D03*
X0429217Y0146343D03*
X0429217Y0136343D03*
X0419217Y0136343D03*
X0419217Y0126343D03*
X0429217Y0126343D03*
X0429217Y0116343D03*
X0419217Y0116343D03*
X0419217Y0106343D03*
X0429217Y0106343D03*
X0429217Y0096343D03*
X0419217Y0096343D03*
X0419217Y0086343D03*
X0429217Y0086343D03*
X0429217Y0076343D03*
X0419217Y0076343D03*
X0429217Y0276343D03*
X0429217Y0286343D03*
X0429217Y0296343D03*
X0429217Y0306343D03*
X0429217Y0316343D03*
X0429217Y0326343D03*
D11*
X0389217Y0249343D02*
X0389217Y0243343D01*
X0379217Y0243343D02*
X0379217Y0249343D01*
X0369217Y0249343D02*
X0369217Y0243343D01*
X0359217Y0243343D02*
X0359217Y0249343D01*
X0349217Y0249343D02*
X0349217Y0243343D01*
X0339217Y0243343D02*
X0339217Y0249343D01*
X0329217Y0249343D02*
X0329217Y0243343D01*
X0319217Y0243343D02*
X0319217Y0249343D01*
X0299217Y0249343D02*
X0299217Y0243343D01*
X0289217Y0243343D02*
X0289217Y0249343D01*
X0279217Y0249343D02*
X0279217Y0243343D01*
X0269217Y0243343D02*
X0269217Y0249343D01*
X0259217Y0249343D02*
X0259217Y0243343D01*
X0249217Y0243343D02*
X0249217Y0249343D01*
X0239217Y0249343D02*
X0239217Y0243343D01*
X0229217Y0243343D02*
X0229217Y0249343D01*
X0214217Y0249343D02*
X0214217Y0243343D01*
X0204217Y0243343D02*
X0204217Y0249343D01*
X0194217Y0249343D02*
X0194217Y0243343D01*
X0184217Y0243343D02*
X0184217Y0249343D01*
X0174217Y0249343D02*
X0174217Y0243343D01*
X0164217Y0243343D02*
X0164217Y0249343D01*
X0154217Y0249343D02*
X0154217Y0243343D01*
X0144217Y0243343D02*
X0144217Y0249343D01*
X0179217Y0059343D02*
X0179217Y0053343D01*
X0189217Y0053343D02*
X0189217Y0059343D01*
X0199217Y0059343D02*
X0199217Y0053343D01*
X0209217Y0053343D02*
X0209217Y0059343D01*
X0219217Y0059343D02*
X0219217Y0053343D01*
X0229217Y0053343D02*
X0229217Y0059343D01*
X0249217Y0059343D02*
X0249217Y0053343D01*
X0259217Y0053343D02*
X0259217Y0059343D01*
X0269217Y0059343D02*
X0269217Y0053343D01*
X0279217Y0053343D02*
X0279217Y0059343D01*
X0289217Y0059343D02*
X0289217Y0053343D01*
X0299217Y0053343D02*
X0299217Y0059343D01*
X0309217Y0059343D02*
X0309217Y0053343D01*
X0319217Y0053343D02*
X0319217Y0059343D01*
X0339217Y0059343D02*
X0339217Y0053343D01*
X0349217Y0053343D02*
X0349217Y0059343D01*
X0359217Y0059343D02*
X0359217Y0053343D01*
X0369217Y0053343D02*
X0369217Y0059343D01*
X0379217Y0059343D02*
X0379217Y0053343D01*
X0389217Y0053343D02*
X0389217Y0059343D01*
X0399217Y0059343D02*
X0399217Y0053343D01*
X0409217Y0053343D02*
X0409217Y0059343D01*
D12*
X0384374Y0336461D02*
X0375004Y0336461D01*
X0375004Y0356146D02*
X0384374Y0356146D01*
X0384374Y0375831D02*
X0375004Y0375831D01*
X0374610Y0402406D02*
X0383980Y0402406D01*
X0383980Y0422091D02*
X0374610Y0422091D01*
D13*
X0025276Y0030329D02*
X0027966Y0027638D01*
X0031130Y0025524D01*
X0034645Y0024068D01*
X0038377Y0023326D01*
X0040280Y0023232D01*
X0446579Y0023232D01*
X0448500Y0023327D01*
X0452270Y0024077D01*
X0455821Y0025547D01*
X0459017Y0027683D01*
X0461735Y0030400D01*
X0463870Y0033596D01*
X0465341Y0037147D01*
X0466091Y0040917D01*
X0466185Y0042839D01*
X0466185Y0421881D01*
X0465988Y0422356D01*
X0465988Y0423350D01*
X0465874Y0425677D01*
X0464966Y0430242D01*
X0463185Y0434541D01*
X0460599Y0438411D01*
X0457309Y0441702D01*
X0453439Y0444287D01*
X0449139Y0446068D01*
X0444575Y0446976D01*
X0442248Y0447091D01*
X0172169Y0447091D01*
X0170371Y0446990D01*
X0166864Y0446189D01*
X0163623Y0444628D01*
X0160811Y0442386D01*
X0158568Y0439574D01*
X0157008Y0436333D01*
X0156207Y0432826D01*
X0156106Y0431028D01*
X0156106Y0297978D01*
X0154977Y0293031D01*
X0154977Y0293031D01*
X0152775Y0288459D01*
X0152775Y0288459D01*
X0149611Y0284491D01*
X0149611Y0284491D01*
X0145644Y0281327D01*
X0141071Y0279125D01*
X0136124Y0277996D01*
X0132592Y0277996D01*
X0055240Y0277996D01*
X0052245Y0277865D01*
X0046345Y0276825D01*
X0040715Y0274776D01*
X0035526Y0271780D01*
X0030937Y0267929D01*
X0027086Y0263340D01*
X0024090Y0258151D01*
X0022041Y0252522D01*
X0021001Y0246622D01*
X0020870Y0243626D01*
X0020870Y0042642D01*
X0020964Y0040739D01*
X0021706Y0037007D01*
X0023162Y0033492D01*
X0025276Y0030329D01*
X0025390Y0030214D02*
X0461549Y0030214D01*
X0462277Y0031213D02*
X0046188Y0031213D01*
X0045826Y0031004D02*
X0048288Y0032425D01*
X0050299Y0034436D01*
X0051721Y0036899D01*
X0052457Y0039645D01*
X0052457Y0042489D01*
X0051721Y0045235D01*
X0050299Y0047698D01*
X0048288Y0049708D01*
X0045826Y0051130D01*
X0043079Y0051866D01*
X0040236Y0051866D01*
X0037489Y0051130D01*
X0035027Y0049708D01*
X0033016Y0047698D01*
X0031594Y0045235D01*
X0030858Y0042489D01*
X0030858Y0039645D01*
X0031594Y0036899D01*
X0033016Y0034436D01*
X0035027Y0032425D01*
X0037489Y0031004D01*
X0040236Y0030268D01*
X0043079Y0030268D01*
X0045826Y0031004D01*
X0047918Y0032211D02*
X0462945Y0032211D01*
X0463612Y0033210D02*
X0049073Y0033210D01*
X0050071Y0034208D02*
X0445661Y0034208D01*
X0445757Y0034153D02*
X0448503Y0033417D01*
X0451347Y0033417D01*
X0454094Y0034153D01*
X0456556Y0035575D01*
X0458567Y0037586D01*
X0459988Y0040048D01*
X0460724Y0042795D01*
X0460724Y0045638D01*
X0459988Y0048385D01*
X0458567Y0050847D01*
X0456556Y0052858D01*
X0454094Y0054280D01*
X0451347Y0055016D01*
X0448503Y0055016D01*
X0445757Y0054280D01*
X0443294Y0052858D01*
X0441284Y0050847D01*
X0439862Y0048385D01*
X0439126Y0045638D01*
X0439126Y0042795D01*
X0439862Y0040048D01*
X0441284Y0037586D01*
X0443294Y0035575D01*
X0445757Y0034153D01*
X0443932Y0035207D02*
X0050744Y0035207D01*
X0051321Y0036205D02*
X0442664Y0036205D01*
X0441665Y0037204D02*
X0051803Y0037204D01*
X0052070Y0038203D02*
X0440928Y0038203D01*
X0440351Y0039201D02*
X0052338Y0039201D01*
X0052457Y0040200D02*
X0439821Y0040200D01*
X0439554Y0041198D02*
X0052457Y0041198D01*
X0052457Y0042197D02*
X0439286Y0042197D01*
X0439126Y0043195D02*
X0052267Y0043195D01*
X0052000Y0044194D02*
X0439126Y0044194D01*
X0439126Y0045192D02*
X0051732Y0045192D01*
X0051169Y0046191D02*
X0105379Y0046191D01*
X0105048Y0046279D02*
X0107795Y0045543D01*
X0110638Y0045543D01*
X0113385Y0046279D01*
X0115847Y0047701D01*
X0117858Y0049712D01*
X0119280Y0052174D01*
X0120016Y0054921D01*
X0120016Y0057764D01*
X0119280Y0060511D01*
X0117858Y0062973D01*
X0115847Y0064984D01*
X0113385Y0066406D01*
X0110638Y0067142D01*
X0107795Y0067142D01*
X0105048Y0066406D01*
X0102586Y0064984D01*
X0100575Y0062973D01*
X0099153Y0060511D01*
X0098417Y0057764D01*
X0098417Y0054921D01*
X0099153Y0052174D01*
X0100575Y0049712D01*
X0102586Y0047701D01*
X0105048Y0046279D01*
X0103472Y0047189D02*
X0050593Y0047189D01*
X0049809Y0048188D02*
X0102099Y0048188D01*
X0101101Y0049186D02*
X0048811Y0049186D01*
X0047464Y0050185D02*
X0100302Y0050185D01*
X0099725Y0051183D02*
X0045628Y0051183D01*
X0037687Y0051183D02*
X0020870Y0051183D01*
X0020870Y0050185D02*
X0035851Y0050185D01*
X0034504Y0049186D02*
X0020870Y0049186D01*
X0020870Y0048188D02*
X0033506Y0048188D01*
X0032722Y0047189D02*
X0020870Y0047189D01*
X0020870Y0046191D02*
X0032146Y0046191D01*
X0031583Y0045192D02*
X0020870Y0045192D01*
X0020870Y0044194D02*
X0031315Y0044194D01*
X0031048Y0043195D02*
X0020870Y0043195D01*
X0020892Y0042197D02*
X0030858Y0042197D01*
X0030858Y0041198D02*
X0020941Y0041198D01*
X0021071Y0040200D02*
X0030858Y0040200D01*
X0030977Y0039201D02*
X0021270Y0039201D01*
X0021468Y0038203D02*
X0031245Y0038203D01*
X0031512Y0037204D02*
X0021667Y0037204D01*
X0022038Y0036205D02*
X0031994Y0036205D01*
X0032571Y0035207D02*
X0022452Y0035207D01*
X0022865Y0034208D02*
X0033244Y0034208D01*
X0034242Y0033210D02*
X0023350Y0033210D01*
X0024018Y0032211D02*
X0035397Y0032211D01*
X0037127Y0031213D02*
X0024685Y0031213D01*
X0026388Y0029216D02*
X0460550Y0029216D01*
X0459552Y0028217D02*
X0027387Y0028217D01*
X0028594Y0027219D02*
X0458323Y0027219D01*
X0456828Y0026220D02*
X0030088Y0026220D01*
X0031860Y0025222D02*
X0455035Y0025222D01*
X0452625Y0024223D02*
X0034270Y0024223D01*
X0020870Y0052182D02*
X0099151Y0052182D01*
X0098884Y0053180D02*
X0020870Y0053180D01*
X0020870Y0054179D02*
X0098616Y0054179D01*
X0098417Y0055177D02*
X0020870Y0055177D01*
X0020870Y0056176D02*
X0098417Y0056176D01*
X0098417Y0057174D02*
X0020870Y0057174D01*
X0020870Y0058173D02*
X0098527Y0058173D01*
X0098794Y0059171D02*
X0020870Y0059171D01*
X0020870Y0060170D02*
X0099062Y0060170D01*
X0099533Y0061168D02*
X0020870Y0061168D01*
X0020870Y0062167D02*
X0100109Y0062167D01*
X0100767Y0063165D02*
X0020870Y0063165D01*
X0020870Y0064164D02*
X0101765Y0064164D01*
X0102894Y0065162D02*
X0020870Y0065162D01*
X0020870Y0066161D02*
X0104624Y0066161D01*
X0113809Y0066161D02*
X0424624Y0066161D01*
X0425048Y0066406D02*
X0422586Y0064984D01*
X0420575Y0062973D01*
X0419153Y0060511D01*
X0418417Y0057764D01*
X0418417Y0054921D01*
X0419153Y0052174D01*
X0420575Y0049712D01*
X0422586Y0047701D01*
X0425048Y0046279D01*
X0427795Y0045543D01*
X0430638Y0045543D01*
X0433385Y0046279D01*
X0435847Y0047701D01*
X0437858Y0049712D01*
X0439280Y0052174D01*
X0440016Y0054921D01*
X0440016Y0057764D01*
X0439280Y0060511D01*
X0437858Y0062973D01*
X0435847Y0064984D01*
X0433385Y0066406D01*
X0430638Y0067142D01*
X0427795Y0067142D01*
X0425048Y0066406D01*
X0422894Y0065162D02*
X0115539Y0065162D01*
X0116668Y0064164D02*
X0177791Y0064164D01*
X0178222Y0064343D02*
X0176384Y0063581D01*
X0174978Y0062175D01*
X0174217Y0060337D01*
X0174217Y0052348D01*
X0174978Y0050510D01*
X0176384Y0049104D01*
X0178222Y0048343D01*
X0180211Y0048343D01*
X0182049Y0049104D01*
X0183455Y0050510D01*
X0184217Y0052348D01*
X0184978Y0050510D01*
X0186384Y0049104D01*
X0188222Y0048343D01*
X0190211Y0048343D01*
X0192049Y0049104D01*
X0193455Y0050510D01*
X0194217Y0052348D01*
X0194978Y0050510D01*
X0196384Y0049104D01*
X0198222Y0048343D01*
X0200211Y0048343D01*
X0202049Y0049104D01*
X0203455Y0050510D01*
X0204217Y0052348D01*
X0204217Y0060337D01*
X0203455Y0062175D01*
X0202049Y0063581D01*
X0200211Y0064343D01*
X0198222Y0064343D01*
X0196384Y0063581D01*
X0194978Y0062175D01*
X0194217Y0060337D01*
X0194217Y0052348D01*
X0194217Y0060337D01*
X0193455Y0062175D01*
X0192049Y0063581D01*
X0190211Y0064343D01*
X0188222Y0064343D01*
X0186384Y0063581D01*
X0184978Y0062175D01*
X0184217Y0060337D01*
X0184217Y0052348D01*
X0184217Y0060337D01*
X0183455Y0062175D01*
X0182049Y0063581D01*
X0180211Y0064343D01*
X0178222Y0064343D01*
X0180643Y0064164D02*
X0187791Y0064164D01*
X0185968Y0063165D02*
X0182465Y0063165D01*
X0183459Y0062167D02*
X0184974Y0062167D01*
X0184561Y0061168D02*
X0183872Y0061168D01*
X0184217Y0060170D02*
X0184217Y0060170D01*
X0184217Y0059171D02*
X0184217Y0059171D01*
X0184217Y0058173D02*
X0184217Y0058173D01*
X0184217Y0057174D02*
X0184217Y0057174D01*
X0184217Y0056176D02*
X0184217Y0056176D01*
X0184217Y0055177D02*
X0184217Y0055177D01*
X0184217Y0054179D02*
X0184217Y0054179D01*
X0184217Y0053180D02*
X0184217Y0053180D01*
X0184148Y0052182D02*
X0184285Y0052182D01*
X0184699Y0051183D02*
X0183734Y0051183D01*
X0183130Y0050185D02*
X0185303Y0050185D01*
X0186302Y0049186D02*
X0182131Y0049186D01*
X0176302Y0049186D02*
X0117333Y0049186D01*
X0118131Y0050185D02*
X0175303Y0050185D01*
X0174699Y0051183D02*
X0118708Y0051183D01*
X0119282Y0052182D02*
X0174285Y0052182D01*
X0174217Y0053180D02*
X0119549Y0053180D01*
X0119817Y0054179D02*
X0174217Y0054179D01*
X0174217Y0055177D02*
X0120016Y0055177D01*
X0120016Y0056176D02*
X0174217Y0056176D01*
X0174217Y0057174D02*
X0120016Y0057174D01*
X0119906Y0058173D02*
X0174217Y0058173D01*
X0174217Y0059171D02*
X0119639Y0059171D01*
X0119371Y0060170D02*
X0174217Y0060170D01*
X0174561Y0061168D02*
X0118900Y0061168D01*
X0118324Y0062167D02*
X0174974Y0062167D01*
X0175968Y0063165D02*
X0117666Y0063165D01*
X0116334Y0048188D02*
X0422099Y0048188D01*
X0421101Y0049186D02*
X0412131Y0049186D01*
X0412049Y0049104D02*
X0413455Y0050510D01*
X0414217Y0052348D01*
X0414217Y0060337D01*
X0413455Y0062175D01*
X0412049Y0063581D01*
X0410211Y0064343D01*
X0408222Y0064343D01*
X0406384Y0063581D01*
X0404978Y0062175D01*
X0404217Y0060337D01*
X0404217Y0052348D01*
X0404978Y0050510D01*
X0406384Y0049104D01*
X0408222Y0048343D01*
X0410211Y0048343D01*
X0412049Y0049104D01*
X0413130Y0050185D02*
X0420302Y0050185D01*
X0419725Y0051183D02*
X0413734Y0051183D01*
X0414148Y0052182D02*
X0419151Y0052182D01*
X0418884Y0053180D02*
X0414217Y0053180D01*
X0414217Y0054179D02*
X0418616Y0054179D01*
X0418417Y0055177D02*
X0414217Y0055177D01*
X0414217Y0056176D02*
X0418417Y0056176D01*
X0418417Y0057174D02*
X0414217Y0057174D01*
X0414217Y0058173D02*
X0418527Y0058173D01*
X0418794Y0059171D02*
X0414217Y0059171D01*
X0414217Y0060170D02*
X0419062Y0060170D01*
X0419533Y0061168D02*
X0413872Y0061168D01*
X0413459Y0062167D02*
X0420109Y0062167D01*
X0420767Y0063165D02*
X0412465Y0063165D01*
X0410643Y0064164D02*
X0421765Y0064164D01*
X0421080Y0071843D02*
X0423717Y0074479D01*
X0423717Y0075843D01*
X0419717Y0075843D01*
X0419717Y0076842D01*
X0423717Y0076842D01*
X0423717Y0078206D01*
X0421080Y0080843D01*
X0419717Y0080843D01*
X0419717Y0076843D01*
X0418717Y0076843D01*
X0418717Y0080843D01*
X0417353Y0080843D01*
X0414717Y0078206D01*
X0414717Y0076842D01*
X0418716Y0076842D01*
X0418716Y0075843D01*
X0414717Y0075843D01*
X0414717Y0074479D01*
X0417353Y0071843D01*
X0418717Y0071843D01*
X0418717Y0075842D01*
X0419717Y0075842D01*
X0419717Y0071843D01*
X0421080Y0071843D01*
X0421390Y0072152D02*
X0427043Y0072152D01*
X0427353Y0071843D02*
X0424717Y0074479D01*
X0424717Y0075843D01*
X0428716Y0075843D01*
X0428716Y0076842D01*
X0424717Y0076842D01*
X0424717Y0078206D01*
X0427353Y0080843D01*
X0428717Y0080843D01*
X0428717Y0076843D01*
X0429717Y0076843D01*
X0429717Y0080843D01*
X0431080Y0080843D01*
X0433717Y0078206D01*
X0433717Y0076842D01*
X0429717Y0076842D01*
X0429717Y0075843D01*
X0433717Y0075843D01*
X0433717Y0074479D01*
X0431080Y0071843D01*
X0429717Y0071843D01*
X0429717Y0075842D01*
X0428717Y0075842D01*
X0428717Y0071843D01*
X0427353Y0071843D01*
X0428717Y0072152D02*
X0429717Y0072152D01*
X0429717Y0073150D02*
X0428717Y0073150D01*
X0428717Y0074149D02*
X0429717Y0074149D01*
X0429717Y0075147D02*
X0428717Y0075147D01*
X0428716Y0076146D02*
X0419717Y0076146D01*
X0419717Y0077144D02*
X0418717Y0077144D01*
X0418716Y0076146D02*
X0020870Y0076146D01*
X0020870Y0077144D02*
X0414717Y0077144D01*
X0414717Y0078143D02*
X0020870Y0078143D01*
X0020870Y0079141D02*
X0415652Y0079141D01*
X0416650Y0080140D02*
X0020870Y0080140D01*
X0020870Y0081138D02*
X0466185Y0081138D01*
X0466185Y0080140D02*
X0431783Y0080140D01*
X0431288Y0081343D02*
X0434217Y0084271D01*
X0434217Y0088414D01*
X0431288Y0091343D01*
X0434217Y0094271D01*
X0434217Y0098414D01*
X0431288Y0101343D01*
X0434217Y0104271D01*
X0434217Y0108414D01*
X0431288Y0111343D01*
X0434217Y0114271D01*
X0434217Y0118414D01*
X0431288Y0121343D01*
X0434217Y0124271D01*
X0434217Y0128414D01*
X0431288Y0131343D01*
X0434217Y0134271D01*
X0434217Y0138414D01*
X0431288Y0141343D01*
X0434217Y0144271D01*
X0434217Y0148414D01*
X0431288Y0151343D01*
X0434217Y0154271D01*
X0434217Y0158414D01*
X0431288Y0161343D01*
X0434217Y0164271D01*
X0434217Y0168414D01*
X0431288Y0171343D01*
X0434217Y0174271D01*
X0434217Y0178414D01*
X0431288Y0181343D01*
X0434217Y0184271D01*
X0434217Y0188414D01*
X0431288Y0191343D01*
X0434217Y0194271D01*
X0434217Y0198414D01*
X0431288Y0201343D01*
X0434217Y0204271D01*
X0434217Y0208414D01*
X0431288Y0211343D01*
X0434217Y0214271D01*
X0434217Y0218414D01*
X0431288Y0221343D01*
X0434217Y0224271D01*
X0434217Y0228414D01*
X0431288Y0231343D01*
X0434217Y0234271D01*
X0434217Y0238414D01*
X0431288Y0241343D01*
X0434217Y0244271D01*
X0434217Y0248414D01*
X0434210Y0248420D01*
X0439078Y0253289D01*
X0439922Y0254133D01*
X0440379Y0255236D01*
X0440379Y0300829D01*
X0439922Y0301932D01*
X0434217Y0307637D01*
X0434217Y0308414D01*
X0431288Y0311343D01*
X0431788Y0311843D01*
X0444600Y0311843D01*
X0446254Y0312528D01*
X0447835Y0314108D01*
X0448520Y0315762D01*
X0448520Y0386844D01*
X0447835Y0388498D01*
X0412402Y0423931D01*
X0411136Y0425197D01*
X0409482Y0425882D01*
X0389643Y0425882D01*
X0387767Y0427758D01*
X0385310Y0428776D01*
X0373280Y0428776D01*
X0370823Y0427758D01*
X0368943Y0425877D01*
X0367925Y0423420D01*
X0367925Y0420761D01*
X0368943Y0418304D01*
X0370823Y0416423D01*
X0373280Y0415406D01*
X0385310Y0415406D01*
X0387767Y0416423D01*
X0388226Y0416882D01*
X0406723Y0416882D01*
X0439520Y0384085D01*
X0439520Y0320843D01*
X0431788Y0320843D01*
X0431288Y0321343D01*
X0434217Y0324271D01*
X0434217Y0328414D01*
X0433717Y0328914D01*
X0433717Y0363064D01*
X0433559Y0363445D01*
X0433559Y0367159D01*
X0432874Y0368813D01*
X0397441Y0404246D01*
X0396175Y0405512D01*
X0394521Y0406197D01*
X0389643Y0406197D01*
X0387767Y0408073D01*
X0385310Y0409091D01*
X0373280Y0409091D01*
X0370823Y0408073D01*
X0368943Y0406192D01*
X0367925Y0403735D01*
X0367925Y0401076D01*
X0368943Y0398619D01*
X0370823Y0396738D01*
X0373280Y0395720D01*
X0385310Y0395720D01*
X0387767Y0396738D01*
X0388226Y0397197D01*
X0391762Y0397197D01*
X0424559Y0364400D01*
X0424559Y0361432D01*
X0424717Y0361051D01*
X0424717Y0328914D01*
X0424217Y0328414D01*
X0424217Y0324271D01*
X0427145Y0321343D01*
X0431288Y0321343D01*
X0427145Y0321343D01*
X0424217Y0318414D01*
X0424217Y0314271D01*
X0427145Y0311343D01*
X0431288Y0311343D01*
X0427145Y0311343D01*
X0424217Y0308414D01*
X0424217Y0304271D01*
X0427145Y0301343D01*
X0431288Y0301343D01*
X0431657Y0301712D01*
X0434379Y0298990D01*
X0434379Y0257075D01*
X0428646Y0251343D01*
X0427145Y0251343D01*
X0424217Y0248414D01*
X0424217Y0244271D01*
X0427145Y0241343D01*
X0431288Y0241343D01*
X0427145Y0241343D01*
X0424217Y0238414D01*
X0424217Y0234271D01*
X0427145Y0231343D01*
X0431288Y0231343D01*
X0427145Y0231343D01*
X0424217Y0228414D01*
X0424217Y0224271D01*
X0427145Y0221343D01*
X0431288Y0221343D01*
X0427145Y0221343D01*
X0424217Y0218414D01*
X0424217Y0214271D01*
X0427145Y0211343D01*
X0431288Y0211343D01*
X0427145Y0211343D01*
X0424217Y0208414D01*
X0424217Y0204271D01*
X0427145Y0201343D01*
X0431288Y0201343D01*
X0427145Y0201343D01*
X0424217Y0198414D01*
X0424217Y0194271D01*
X0427145Y0191343D01*
X0431288Y0191343D01*
X0427145Y0191343D01*
X0424217Y0188414D01*
X0424217Y0184271D01*
X0427145Y0181343D01*
X0431288Y0181343D01*
X0427145Y0181343D01*
X0424217Y0178414D01*
X0424217Y0174271D01*
X0427145Y0171343D01*
X0431288Y0171343D01*
X0427145Y0171343D01*
X0424217Y0168414D01*
X0424217Y0164271D01*
X0427145Y0161343D01*
X0431288Y0161343D01*
X0427145Y0161343D01*
X0424217Y0158414D01*
X0424217Y0154271D01*
X0427145Y0151343D01*
X0431288Y0151343D01*
X0427145Y0151343D01*
X0424217Y0148414D01*
X0424217Y0144271D01*
X0427145Y0141343D01*
X0431288Y0141343D01*
X0427145Y0141343D01*
X0424217Y0138414D01*
X0424217Y0134271D01*
X0427145Y0131343D01*
X0431288Y0131343D01*
X0427145Y0131343D01*
X0424217Y0128414D01*
X0424217Y0124271D01*
X0427145Y0121343D01*
X0431288Y0121343D01*
X0427145Y0121343D01*
X0424217Y0118414D01*
X0424217Y0114271D01*
X0427145Y0111343D01*
X0431288Y0111343D01*
X0427145Y0111343D01*
X0424217Y0108414D01*
X0424217Y0104271D01*
X0427145Y0101343D01*
X0431288Y0101343D01*
X0427145Y0101343D01*
X0424217Y0098414D01*
X0424217Y0094271D01*
X0427145Y0091343D01*
X0431288Y0091343D01*
X0427145Y0091343D01*
X0424217Y0088414D01*
X0424217Y0084271D01*
X0427145Y0081343D01*
X0431288Y0081343D01*
X0432082Y0082137D02*
X0466185Y0082137D01*
X0466185Y0083136D02*
X0433081Y0083136D01*
X0434079Y0084134D02*
X0466185Y0084134D01*
X0466185Y0085133D02*
X0434217Y0085133D01*
X0434217Y0086131D02*
X0466185Y0086131D01*
X0466185Y0087130D02*
X0434217Y0087130D01*
X0434217Y0088128D02*
X0466185Y0088128D01*
X0466185Y0089127D02*
X0433504Y0089127D01*
X0432505Y0090125D02*
X0466185Y0090125D01*
X0466185Y0091124D02*
X0431506Y0091124D01*
X0432067Y0092122D02*
X0466185Y0092122D01*
X0466185Y0093121D02*
X0433066Y0093121D01*
X0434064Y0094119D02*
X0466185Y0094119D01*
X0466185Y0095118D02*
X0434217Y0095118D01*
X0434217Y0096116D02*
X0466185Y0096116D01*
X0466185Y0097115D02*
X0434217Y0097115D01*
X0434217Y0098113D02*
X0466185Y0098113D01*
X0466185Y0099112D02*
X0433518Y0099112D01*
X0432520Y0100110D02*
X0466185Y0100110D01*
X0466185Y0101109D02*
X0431521Y0101109D01*
X0432052Y0102107D02*
X0466185Y0102107D01*
X0466185Y0103106D02*
X0433051Y0103106D01*
X0434049Y0104104D02*
X0466185Y0104104D01*
X0466185Y0105103D02*
X0434217Y0105103D01*
X0434217Y0106101D02*
X0466185Y0106101D01*
X0466185Y0107100D02*
X0434217Y0107100D01*
X0434217Y0108098D02*
X0466185Y0108098D01*
X0466185Y0109097D02*
X0433533Y0109097D01*
X0432535Y0110095D02*
X0466185Y0110095D01*
X0466185Y0111094D02*
X0431536Y0111094D01*
X0432037Y0112092D02*
X0466185Y0112092D01*
X0466185Y0113091D02*
X0433036Y0113091D01*
X0434034Y0114089D02*
X0466185Y0114089D01*
X0466185Y0115088D02*
X0434217Y0115088D01*
X0434217Y0116086D02*
X0466185Y0116086D01*
X0466185Y0117085D02*
X0434217Y0117085D01*
X0434217Y0118083D02*
X0466185Y0118083D01*
X0466185Y0119082D02*
X0433548Y0119082D01*
X0432550Y0120080D02*
X0466185Y0120080D01*
X0466185Y0121079D02*
X0431551Y0121079D01*
X0432023Y0122077D02*
X0466185Y0122077D01*
X0466185Y0123076D02*
X0433021Y0123076D01*
X0434020Y0124074D02*
X0466185Y0124074D01*
X0466185Y0125073D02*
X0434217Y0125073D01*
X0434217Y0126072D02*
X0466185Y0126072D01*
X0466185Y0127070D02*
X0434217Y0127070D01*
X0434217Y0128069D02*
X0466185Y0128069D01*
X0466185Y0129067D02*
X0433563Y0129067D01*
X0432565Y0130066D02*
X0466185Y0130066D01*
X0466185Y0131064D02*
X0431566Y0131064D01*
X0432008Y0132063D02*
X0466185Y0132063D01*
X0466185Y0133061D02*
X0433006Y0133061D01*
X0434005Y0134060D02*
X0466185Y0134060D01*
X0466185Y0135058D02*
X0434217Y0135058D01*
X0434217Y0136057D02*
X0466185Y0136057D01*
X0466185Y0137055D02*
X0434217Y0137055D01*
X0434217Y0138054D02*
X0466185Y0138054D01*
X0466185Y0139052D02*
X0433578Y0139052D01*
X0432579Y0140051D02*
X0466185Y0140051D01*
X0466185Y0141049D02*
X0431581Y0141049D01*
X0431993Y0142048D02*
X0466185Y0142048D01*
X0466185Y0143046D02*
X0432991Y0143046D01*
X0433990Y0144045D02*
X0466185Y0144045D01*
X0466185Y0145043D02*
X0434217Y0145043D01*
X0434217Y0146042D02*
X0466185Y0146042D01*
X0466185Y0147040D02*
X0434217Y0147040D01*
X0434217Y0148039D02*
X0466185Y0148039D01*
X0466185Y0149037D02*
X0433593Y0149037D01*
X0432594Y0150036D02*
X0466185Y0150036D01*
X0466185Y0151034D02*
X0431596Y0151034D01*
X0431978Y0152033D02*
X0466185Y0152033D01*
X0466185Y0153031D02*
X0432976Y0153031D01*
X0433975Y0154030D02*
X0466185Y0154030D01*
X0466185Y0155028D02*
X0434217Y0155028D01*
X0434217Y0156027D02*
X0466185Y0156027D01*
X0466185Y0157025D02*
X0434217Y0157025D01*
X0434217Y0158024D02*
X0466185Y0158024D01*
X0466185Y0159022D02*
X0433608Y0159022D01*
X0432609Y0160021D02*
X0466185Y0160021D01*
X0466185Y0161019D02*
X0431611Y0161019D01*
X0431963Y0162018D02*
X0466185Y0162018D01*
X0466185Y0163016D02*
X0432961Y0163016D01*
X0433960Y0164015D02*
X0466185Y0164015D01*
X0466185Y0165013D02*
X0434217Y0165013D01*
X0434217Y0166012D02*
X0466185Y0166012D01*
X0466185Y0167010D02*
X0434217Y0167010D01*
X0434217Y0168009D02*
X0466185Y0168009D01*
X0466185Y0169007D02*
X0433623Y0169007D01*
X0432624Y0170006D02*
X0466185Y0170006D01*
X0466185Y0171005D02*
X0431626Y0171005D01*
X0431948Y0172003D02*
X0466185Y0172003D01*
X0466185Y0173002D02*
X0432947Y0173002D01*
X0433945Y0174000D02*
X0466185Y0174000D01*
X0466185Y0174999D02*
X0434217Y0174999D01*
X0434217Y0175997D02*
X0466185Y0175997D01*
X0466185Y0176996D02*
X0434217Y0176996D01*
X0434217Y0177994D02*
X0466185Y0177994D01*
X0466185Y0178993D02*
X0433637Y0178993D01*
X0432639Y0179991D02*
X0466185Y0179991D01*
X0466185Y0180990D02*
X0431640Y0180990D01*
X0431933Y0181988D02*
X0466185Y0181988D01*
X0466185Y0182987D02*
X0432932Y0182987D01*
X0433930Y0183985D02*
X0466185Y0183985D01*
X0466185Y0184984D02*
X0434217Y0184984D01*
X0434217Y0185982D02*
X0466185Y0185982D01*
X0466185Y0186981D02*
X0434217Y0186981D01*
X0434217Y0187979D02*
X0466185Y0187979D01*
X0466185Y0188978D02*
X0433652Y0188978D01*
X0432654Y0189976D02*
X0466185Y0189976D01*
X0466185Y0190975D02*
X0431655Y0190975D01*
X0431918Y0191973D02*
X0466185Y0191973D01*
X0466185Y0192972D02*
X0432917Y0192972D01*
X0433915Y0193970D02*
X0466185Y0193970D01*
X0466185Y0194969D02*
X0434217Y0194969D01*
X0434217Y0195967D02*
X0466185Y0195967D01*
X0466185Y0196966D02*
X0434217Y0196966D01*
X0434217Y0197964D02*
X0466185Y0197964D01*
X0466185Y0198963D02*
X0433667Y0198963D01*
X0432669Y0199961D02*
X0466185Y0199961D01*
X0466185Y0200960D02*
X0431670Y0200960D01*
X0431903Y0201958D02*
X0466185Y0201958D01*
X0466185Y0202957D02*
X0432902Y0202957D01*
X0433900Y0203955D02*
X0466185Y0203955D01*
X0466185Y0204954D02*
X0434217Y0204954D01*
X0434217Y0205952D02*
X0466185Y0205952D01*
X0466185Y0206951D02*
X0434217Y0206951D01*
X0434217Y0207949D02*
X0466185Y0207949D01*
X0466185Y0208948D02*
X0433682Y0208948D01*
X0432684Y0209946D02*
X0466185Y0209946D01*
X0466185Y0210945D02*
X0431685Y0210945D01*
X0431889Y0211943D02*
X0466185Y0211943D01*
X0466185Y0212942D02*
X0432887Y0212942D01*
X0433886Y0213941D02*
X0466185Y0213941D01*
X0466185Y0214939D02*
X0434217Y0214939D01*
X0434217Y0215938D02*
X0466185Y0215938D01*
X0466185Y0216936D02*
X0434217Y0216936D01*
X0434217Y0217935D02*
X0466185Y0217935D01*
X0466185Y0218933D02*
X0433697Y0218933D01*
X0432699Y0219932D02*
X0466185Y0219932D01*
X0466185Y0220930D02*
X0431700Y0220930D01*
X0431874Y0221929D02*
X0466185Y0221929D01*
X0466185Y0222927D02*
X0432872Y0222927D01*
X0433871Y0223926D02*
X0466185Y0223926D01*
X0466185Y0224924D02*
X0434217Y0224924D01*
X0434217Y0225923D02*
X0466185Y0225923D01*
X0466185Y0226921D02*
X0434217Y0226921D01*
X0434217Y0227920D02*
X0466185Y0227920D01*
X0466185Y0228918D02*
X0433712Y0228918D01*
X0432713Y0229917D02*
X0466185Y0229917D01*
X0466185Y0230915D02*
X0431715Y0230915D01*
X0431859Y0231914D02*
X0466185Y0231914D01*
X0466185Y0232912D02*
X0432857Y0232912D01*
X0433856Y0233911D02*
X0466185Y0233911D01*
X0466185Y0234909D02*
X0434217Y0234909D01*
X0434217Y0235908D02*
X0466185Y0235908D01*
X0466185Y0236906D02*
X0434217Y0236906D01*
X0434217Y0237905D02*
X0466185Y0237905D01*
X0466185Y0238903D02*
X0433727Y0238903D01*
X0432728Y0239902D02*
X0466185Y0239902D01*
X0466185Y0240900D02*
X0431730Y0240900D01*
X0431844Y0241899D02*
X0466185Y0241899D01*
X0466185Y0242897D02*
X0432842Y0242897D01*
X0433841Y0243896D02*
X0466185Y0243896D01*
X0466185Y0244894D02*
X0434217Y0244894D01*
X0434217Y0245893D02*
X0466185Y0245893D01*
X0466185Y0246891D02*
X0434217Y0246891D01*
X0434217Y0247890D02*
X0466185Y0247890D01*
X0466185Y0248888D02*
X0434677Y0248888D01*
X0435676Y0249887D02*
X0466185Y0249887D01*
X0466185Y0250885D02*
X0436675Y0250885D01*
X0437673Y0251884D02*
X0466185Y0251884D01*
X0466185Y0252882D02*
X0438672Y0252882D01*
X0439670Y0253881D02*
X0466185Y0253881D01*
X0466185Y0254879D02*
X0440231Y0254879D01*
X0440379Y0255878D02*
X0466185Y0255878D01*
X0466185Y0256876D02*
X0440379Y0256876D01*
X0440379Y0257875D02*
X0466185Y0257875D01*
X0466185Y0258874D02*
X0440379Y0258874D01*
X0440379Y0259872D02*
X0466185Y0259872D01*
X0466185Y0260871D02*
X0440379Y0260871D01*
X0440379Y0261869D02*
X0466185Y0261869D01*
X0466185Y0262868D02*
X0440379Y0262868D01*
X0440379Y0263866D02*
X0466185Y0263866D01*
X0466185Y0264865D02*
X0440379Y0264865D01*
X0440379Y0265863D02*
X0466185Y0265863D01*
X0466185Y0266862D02*
X0440379Y0266862D01*
X0440379Y0267860D02*
X0466185Y0267860D01*
X0466185Y0268859D02*
X0440379Y0268859D01*
X0440379Y0269857D02*
X0466185Y0269857D01*
X0466185Y0270856D02*
X0440379Y0270856D01*
X0440379Y0271854D02*
X0466185Y0271854D01*
X0466185Y0272853D02*
X0440379Y0272853D01*
X0440379Y0273851D02*
X0466185Y0273851D01*
X0466185Y0274850D02*
X0440379Y0274850D01*
X0440379Y0275848D02*
X0466185Y0275848D01*
X0466185Y0276847D02*
X0440379Y0276847D01*
X0440379Y0277845D02*
X0466185Y0277845D01*
X0466185Y0278844D02*
X0440379Y0278844D01*
X0440379Y0279842D02*
X0466185Y0279842D01*
X0466185Y0280841D02*
X0440379Y0280841D01*
X0440379Y0281839D02*
X0466185Y0281839D01*
X0466185Y0282838D02*
X0440379Y0282838D01*
X0440379Y0283836D02*
X0466185Y0283836D01*
X0466185Y0284835D02*
X0440379Y0284835D01*
X0440379Y0285833D02*
X0466185Y0285833D01*
X0466185Y0286832D02*
X0440379Y0286832D01*
X0440379Y0287830D02*
X0466185Y0287830D01*
X0466185Y0288829D02*
X0440379Y0288829D01*
X0440379Y0289827D02*
X0466185Y0289827D01*
X0466185Y0290826D02*
X0440379Y0290826D01*
X0440379Y0291824D02*
X0466185Y0291824D01*
X0466185Y0292823D02*
X0440379Y0292823D01*
X0440379Y0293821D02*
X0466185Y0293821D01*
X0466185Y0294820D02*
X0440379Y0294820D01*
X0440379Y0295818D02*
X0466185Y0295818D01*
X0466185Y0296817D02*
X0440379Y0296817D01*
X0440379Y0297815D02*
X0466185Y0297815D01*
X0466185Y0298814D02*
X0440379Y0298814D01*
X0440379Y0299812D02*
X0466185Y0299812D01*
X0466185Y0300811D02*
X0440379Y0300811D01*
X0439973Y0301809D02*
X0466185Y0301809D01*
X0466185Y0302808D02*
X0439046Y0302808D01*
X0438047Y0303807D02*
X0466185Y0303807D01*
X0466185Y0304805D02*
X0437049Y0304805D01*
X0436050Y0305804D02*
X0466185Y0305804D01*
X0466185Y0306802D02*
X0435052Y0306802D01*
X0434217Y0307801D02*
X0466185Y0307801D01*
X0466185Y0308799D02*
X0433831Y0308799D01*
X0432833Y0309798D02*
X0466185Y0309798D01*
X0466185Y0310796D02*
X0431834Y0310796D01*
X0431740Y0311795D02*
X0466185Y0311795D01*
X0466185Y0312793D02*
X0446519Y0312793D01*
X0447518Y0313792D02*
X0466185Y0313792D01*
X0466185Y0314790D02*
X0448117Y0314790D01*
X0448520Y0315789D02*
X0466185Y0315789D01*
X0466185Y0316787D02*
X0448520Y0316787D01*
X0448520Y0317786D02*
X0466185Y0317786D01*
X0466185Y0318784D02*
X0448520Y0318784D01*
X0448520Y0319783D02*
X0466185Y0319783D01*
X0466185Y0320781D02*
X0448520Y0320781D01*
X0448520Y0321780D02*
X0466185Y0321780D01*
X0466185Y0322778D02*
X0448520Y0322778D01*
X0448520Y0323777D02*
X0466185Y0323777D01*
X0466185Y0324775D02*
X0448520Y0324775D01*
X0448520Y0325774D02*
X0466185Y0325774D01*
X0466185Y0326772D02*
X0448520Y0326772D01*
X0448520Y0327771D02*
X0466185Y0327771D01*
X0466185Y0328769D02*
X0448520Y0328769D01*
X0448520Y0329768D02*
X0466185Y0329768D01*
X0466185Y0330766D02*
X0448520Y0330766D01*
X0448520Y0331765D02*
X0466185Y0331765D01*
X0466185Y0332763D02*
X0448520Y0332763D01*
X0448520Y0333762D02*
X0466185Y0333762D01*
X0466185Y0334760D02*
X0448520Y0334760D01*
X0448520Y0335759D02*
X0466185Y0335759D01*
X0466185Y0336757D02*
X0448520Y0336757D01*
X0448520Y0337756D02*
X0466185Y0337756D01*
X0466185Y0338754D02*
X0448520Y0338754D01*
X0448520Y0339753D02*
X0466185Y0339753D01*
X0466185Y0340751D02*
X0448520Y0340751D01*
X0448520Y0341750D02*
X0466185Y0341750D01*
X0466185Y0342748D02*
X0448520Y0342748D01*
X0448520Y0343747D02*
X0466185Y0343747D01*
X0466185Y0344745D02*
X0448520Y0344745D01*
X0448520Y0345744D02*
X0466185Y0345744D01*
X0466185Y0346743D02*
X0448520Y0346743D01*
X0448520Y0347741D02*
X0466185Y0347741D01*
X0466185Y0348740D02*
X0448520Y0348740D01*
X0448520Y0349738D02*
X0466185Y0349738D01*
X0466185Y0350737D02*
X0448520Y0350737D01*
X0448520Y0351735D02*
X0466185Y0351735D01*
X0466185Y0352734D02*
X0448520Y0352734D01*
X0448520Y0353732D02*
X0466185Y0353732D01*
X0466185Y0354731D02*
X0448520Y0354731D01*
X0448520Y0355729D02*
X0466185Y0355729D01*
X0466185Y0356728D02*
X0448520Y0356728D01*
X0448520Y0357726D02*
X0466185Y0357726D01*
X0466185Y0358725D02*
X0448520Y0358725D01*
X0448520Y0359723D02*
X0466185Y0359723D01*
X0466185Y0360722D02*
X0448520Y0360722D01*
X0448520Y0361720D02*
X0466185Y0361720D01*
X0466185Y0362719D02*
X0448520Y0362719D01*
X0448520Y0363717D02*
X0466185Y0363717D01*
X0466185Y0364716D02*
X0448520Y0364716D01*
X0448520Y0365714D02*
X0466185Y0365714D01*
X0466185Y0366713D02*
X0448520Y0366713D01*
X0448520Y0367711D02*
X0466185Y0367711D01*
X0466185Y0368710D02*
X0448520Y0368710D01*
X0448520Y0369708D02*
X0466185Y0369708D01*
X0466185Y0370707D02*
X0448520Y0370707D01*
X0448520Y0371705D02*
X0466185Y0371705D01*
X0466185Y0372704D02*
X0448520Y0372704D01*
X0448520Y0373702D02*
X0466185Y0373702D01*
X0466185Y0374701D02*
X0448520Y0374701D01*
X0448520Y0375699D02*
X0466185Y0375699D01*
X0466185Y0376698D02*
X0448520Y0376698D01*
X0448520Y0377696D02*
X0466185Y0377696D01*
X0466185Y0378695D02*
X0448520Y0378695D01*
X0448520Y0379693D02*
X0466185Y0379693D01*
X0466185Y0380692D02*
X0448520Y0380692D01*
X0448520Y0381690D02*
X0466185Y0381690D01*
X0466185Y0382689D02*
X0448520Y0382689D01*
X0448520Y0383687D02*
X0466185Y0383687D01*
X0466185Y0384686D02*
X0448520Y0384686D01*
X0448520Y0385684D02*
X0466185Y0385684D01*
X0466185Y0386683D02*
X0448520Y0386683D01*
X0448173Y0387681D02*
X0466185Y0387681D01*
X0466185Y0388680D02*
X0447652Y0388680D01*
X0446654Y0389678D02*
X0466185Y0389678D01*
X0466185Y0390677D02*
X0445655Y0390677D01*
X0444657Y0391676D02*
X0466185Y0391676D01*
X0466185Y0392674D02*
X0443658Y0392674D01*
X0442660Y0393673D02*
X0466185Y0393673D01*
X0466185Y0394671D02*
X0441661Y0394671D01*
X0440663Y0395670D02*
X0466185Y0395670D01*
X0466185Y0396668D02*
X0439664Y0396668D01*
X0438666Y0397667D02*
X0466185Y0397667D01*
X0466185Y0398665D02*
X0437667Y0398665D01*
X0436669Y0399664D02*
X0466185Y0399664D01*
X0466185Y0400662D02*
X0435670Y0400662D01*
X0434672Y0401661D02*
X0466185Y0401661D01*
X0466185Y0402659D02*
X0433673Y0402659D01*
X0432675Y0403658D02*
X0466185Y0403658D01*
X0466185Y0404656D02*
X0431676Y0404656D01*
X0430678Y0405655D02*
X0466185Y0405655D01*
X0466185Y0406653D02*
X0429679Y0406653D01*
X0428681Y0407652D02*
X0466185Y0407652D01*
X0466185Y0408650D02*
X0427682Y0408650D01*
X0426684Y0409649D02*
X0466185Y0409649D01*
X0466185Y0410647D02*
X0425685Y0410647D01*
X0424687Y0411646D02*
X0466185Y0411646D01*
X0466185Y0412644D02*
X0423688Y0412644D01*
X0422690Y0413643D02*
X0466185Y0413643D01*
X0466185Y0414641D02*
X0421691Y0414641D01*
X0420693Y0415640D02*
X0466185Y0415640D01*
X0466185Y0416638D02*
X0419694Y0416638D01*
X0418696Y0417637D02*
X0466185Y0417637D01*
X0466185Y0418635D02*
X0417697Y0418635D01*
X0416699Y0419634D02*
X0442325Y0419634D01*
X0441032Y0419980D02*
X0443779Y0419244D01*
X0446623Y0419244D01*
X0449369Y0419980D01*
X0451832Y0421402D01*
X0453842Y0423412D01*
X0455264Y0425875D01*
X0456000Y0428622D01*
X0456000Y0431465D01*
X0455264Y0434212D01*
X0453842Y0436674D01*
X0451832Y0438685D01*
X0449369Y0440107D01*
X0446623Y0440843D01*
X0443779Y0440843D01*
X0441032Y0440107D01*
X0438570Y0438685D01*
X0436559Y0436674D01*
X0435138Y0434212D01*
X0434402Y0431465D01*
X0434402Y0428622D01*
X0435138Y0425875D01*
X0436559Y0423412D01*
X0438570Y0421402D01*
X0441032Y0419980D01*
X0439903Y0420632D02*
X0415700Y0420632D01*
X0414702Y0421631D02*
X0438341Y0421631D01*
X0437342Y0422629D02*
X0413703Y0422629D01*
X0412705Y0423628D02*
X0436435Y0423628D01*
X0435858Y0424626D02*
X0411706Y0424626D01*
X0412402Y0423931D02*
X0412402Y0423931D01*
X0410102Y0425625D02*
X0435282Y0425625D01*
X0434937Y0426623D02*
X0388902Y0426623D01*
X0387903Y0427622D02*
X0434669Y0427622D01*
X0434402Y0428620D02*
X0385685Y0428620D01*
X0387982Y0416638D02*
X0406966Y0416638D01*
X0407965Y0415640D02*
X0385876Y0415640D01*
X0386373Y0408650D02*
X0414954Y0408650D01*
X0413956Y0409649D02*
X0156106Y0409649D01*
X0156106Y0410647D02*
X0412957Y0410647D01*
X0411959Y0411646D02*
X0156106Y0411646D01*
X0156106Y0412644D02*
X0410960Y0412644D01*
X0409962Y0413643D02*
X0156106Y0413643D01*
X0156106Y0414641D02*
X0408963Y0414641D01*
X0415953Y0407652D02*
X0388188Y0407652D01*
X0389187Y0406653D02*
X0416951Y0406653D01*
X0417950Y0405655D02*
X0395830Y0405655D01*
X0397031Y0404656D02*
X0418948Y0404656D01*
X0419947Y0403658D02*
X0398029Y0403658D01*
X0399028Y0402659D02*
X0420945Y0402659D01*
X0421944Y0401661D02*
X0400026Y0401661D01*
X0401025Y0400662D02*
X0422942Y0400662D01*
X0423941Y0399664D02*
X0402023Y0399664D01*
X0403022Y0398665D02*
X0424939Y0398665D01*
X0425938Y0397667D02*
X0404020Y0397667D01*
X0405019Y0396668D02*
X0426936Y0396668D01*
X0427935Y0395670D02*
X0406017Y0395670D01*
X0407016Y0394671D02*
X0428933Y0394671D01*
X0429932Y0393673D02*
X0408014Y0393673D01*
X0409013Y0392674D02*
X0430930Y0392674D01*
X0431929Y0391676D02*
X0410011Y0391676D01*
X0411010Y0390677D02*
X0432928Y0390677D01*
X0433926Y0389678D02*
X0412008Y0389678D01*
X0413007Y0388680D02*
X0434925Y0388680D01*
X0435923Y0387681D02*
X0414005Y0387681D01*
X0415004Y0386683D02*
X0436922Y0386683D01*
X0437920Y0385684D02*
X0416002Y0385684D01*
X0417001Y0384686D02*
X0438919Y0384686D01*
X0439520Y0383687D02*
X0417999Y0383687D01*
X0418998Y0382689D02*
X0439520Y0382689D01*
X0439520Y0381690D02*
X0419996Y0381690D01*
X0420995Y0380692D02*
X0439520Y0380692D01*
X0439520Y0379693D02*
X0421993Y0379693D01*
X0422992Y0378695D02*
X0439520Y0378695D01*
X0439520Y0377696D02*
X0423990Y0377696D01*
X0424989Y0376698D02*
X0439520Y0376698D01*
X0439520Y0375699D02*
X0425987Y0375699D01*
X0426986Y0374701D02*
X0439520Y0374701D01*
X0439520Y0373702D02*
X0427984Y0373702D01*
X0428983Y0372704D02*
X0439520Y0372704D01*
X0439520Y0371705D02*
X0429981Y0371705D01*
X0430980Y0370707D02*
X0439520Y0370707D01*
X0439520Y0369708D02*
X0431979Y0369708D01*
X0432917Y0368710D02*
X0439520Y0368710D01*
X0439520Y0367711D02*
X0433330Y0367711D01*
X0433559Y0366713D02*
X0439520Y0366713D01*
X0439520Y0365714D02*
X0433559Y0365714D01*
X0433559Y0364716D02*
X0439520Y0364716D01*
X0439520Y0363717D02*
X0433559Y0363717D01*
X0433717Y0362719D02*
X0439520Y0362719D01*
X0439520Y0361720D02*
X0433717Y0361720D01*
X0433717Y0360722D02*
X0439520Y0360722D01*
X0439520Y0359723D02*
X0433717Y0359723D01*
X0433717Y0358725D02*
X0439520Y0358725D01*
X0439520Y0357726D02*
X0433717Y0357726D01*
X0433717Y0356728D02*
X0439520Y0356728D01*
X0439520Y0355729D02*
X0433717Y0355729D01*
X0433717Y0354731D02*
X0439520Y0354731D01*
X0439520Y0353732D02*
X0433717Y0353732D01*
X0433717Y0352734D02*
X0439520Y0352734D01*
X0439520Y0351735D02*
X0433717Y0351735D01*
X0433717Y0350737D02*
X0439520Y0350737D01*
X0439520Y0349738D02*
X0433717Y0349738D01*
X0433717Y0348740D02*
X0439520Y0348740D01*
X0439520Y0347741D02*
X0433717Y0347741D01*
X0433717Y0346743D02*
X0439520Y0346743D01*
X0439520Y0345744D02*
X0433717Y0345744D01*
X0433717Y0344745D02*
X0439520Y0344745D01*
X0439520Y0343747D02*
X0433717Y0343747D01*
X0433717Y0342748D02*
X0439520Y0342748D01*
X0439520Y0341750D02*
X0433717Y0341750D01*
X0433717Y0340751D02*
X0439520Y0340751D01*
X0439520Y0339753D02*
X0433717Y0339753D01*
X0433717Y0338754D02*
X0439520Y0338754D01*
X0439520Y0337756D02*
X0433717Y0337756D01*
X0433717Y0336757D02*
X0439520Y0336757D01*
X0439520Y0335759D02*
X0433717Y0335759D01*
X0433717Y0334760D02*
X0439520Y0334760D01*
X0439520Y0333762D02*
X0433717Y0333762D01*
X0433717Y0332763D02*
X0439520Y0332763D01*
X0439520Y0331765D02*
X0433717Y0331765D01*
X0433717Y0330766D02*
X0439520Y0330766D01*
X0439520Y0329768D02*
X0433717Y0329768D01*
X0433861Y0328769D02*
X0439520Y0328769D01*
X0439520Y0327771D02*
X0434217Y0327771D01*
X0434217Y0326772D02*
X0439520Y0326772D01*
X0439520Y0325774D02*
X0434217Y0325774D01*
X0434217Y0324775D02*
X0439520Y0324775D01*
X0439520Y0323777D02*
X0433722Y0323777D01*
X0432723Y0322778D02*
X0439520Y0322778D01*
X0439520Y0321780D02*
X0431725Y0321780D01*
X0426708Y0321780D02*
X0205118Y0321780D01*
X0204983Y0322105D02*
X0202650Y0324438D01*
X0202681Y0324468D01*
X0202681Y0328610D01*
X0199752Y0331539D01*
X0195610Y0331539D01*
X0192681Y0328610D01*
X0192681Y0324468D01*
X0195610Y0321539D01*
X0198195Y0321539D01*
X0200179Y0319555D01*
X0200179Y0286515D01*
X0200575Y0285559D01*
X0201306Y0284828D01*
X0234679Y0251455D01*
X0234217Y0250337D01*
X0234217Y0242348D01*
X0234978Y0240510D01*
X0236384Y0239104D01*
X0238222Y0238343D01*
X0240211Y0238343D01*
X0242049Y0239104D01*
X0243455Y0240510D01*
X0244217Y0242348D01*
X0244978Y0240510D01*
X0246384Y0239104D01*
X0248222Y0238343D01*
X0250211Y0238343D01*
X0252049Y0239104D01*
X0253455Y0240510D01*
X0254217Y0242348D01*
X0254978Y0240510D01*
X0256384Y0239104D01*
X0258222Y0238343D01*
X0260211Y0238343D01*
X0262049Y0239104D01*
X0263455Y0240510D01*
X0264217Y0242348D01*
X0264978Y0240510D01*
X0266384Y0239104D01*
X0268222Y0238343D01*
X0270211Y0238343D01*
X0272049Y0239104D01*
X0273455Y0240510D01*
X0274217Y0242348D01*
X0274978Y0240510D01*
X0276384Y0239104D01*
X0278222Y0238343D01*
X0280211Y0238343D01*
X0282049Y0239104D01*
X0283455Y0240510D01*
X0284217Y0242348D01*
X0284978Y0240510D01*
X0286384Y0239104D01*
X0288222Y0238343D01*
X0290211Y0238343D01*
X0292049Y0239104D01*
X0293455Y0240510D01*
X0294217Y0242348D01*
X0294978Y0240510D01*
X0296384Y0239104D01*
X0298222Y0238343D01*
X0300211Y0238343D01*
X0302049Y0239104D01*
X0303455Y0240510D01*
X0304217Y0242348D01*
X0304217Y0250337D01*
X0303455Y0252175D01*
X0302049Y0253581D01*
X0300211Y0254343D01*
X0298222Y0254343D01*
X0296384Y0253581D01*
X0294978Y0252175D01*
X0294217Y0250337D01*
X0294217Y0242348D01*
X0294217Y0250337D01*
X0293455Y0252175D01*
X0292049Y0253581D01*
X0290211Y0254343D01*
X0288222Y0254343D01*
X0286384Y0253581D01*
X0284978Y0252175D01*
X0284217Y0250337D01*
X0284217Y0242348D01*
X0284217Y0250337D01*
X0283455Y0252175D01*
X0282049Y0253581D01*
X0280211Y0254343D01*
X0278222Y0254343D01*
X0276384Y0253581D01*
X0274978Y0252175D01*
X0274217Y0250337D01*
X0274217Y0242348D01*
X0274217Y0250337D01*
X0273455Y0252175D01*
X0272049Y0253581D01*
X0270211Y0254343D01*
X0268222Y0254343D01*
X0266384Y0253581D01*
X0264978Y0252175D01*
X0264217Y0250337D01*
X0264217Y0242348D01*
X0264217Y0250337D01*
X0263455Y0252175D01*
X0262049Y0253581D01*
X0260211Y0254343D01*
X0258222Y0254343D01*
X0256384Y0253581D01*
X0254978Y0252175D01*
X0254217Y0250337D01*
X0254217Y0242348D01*
X0254217Y0250337D01*
X0253455Y0252175D01*
X0252049Y0253581D01*
X0250211Y0254343D01*
X0248222Y0254343D01*
X0246384Y0253581D01*
X0244978Y0252175D01*
X0244217Y0250337D01*
X0244217Y0242348D01*
X0244217Y0250337D01*
X0243455Y0252175D01*
X0242049Y0253581D01*
X0240211Y0254343D01*
X0239145Y0254343D01*
X0205379Y0288109D01*
X0205379Y0321149D01*
X0204983Y0322105D01*
X0204310Y0322778D02*
X0425710Y0322778D01*
X0424711Y0323777D02*
X0203311Y0323777D01*
X0202681Y0324775D02*
X0424217Y0324775D01*
X0424217Y0325774D02*
X0202681Y0325774D01*
X0202681Y0326772D02*
X0424217Y0326772D01*
X0424217Y0327771D02*
X0202681Y0327771D01*
X0202522Y0328769D02*
X0424572Y0328769D01*
X0424717Y0329768D02*
X0201524Y0329768D01*
X0200525Y0330766D02*
X0371282Y0330766D01*
X0371217Y0330793D02*
X0373674Y0329776D01*
X0385704Y0329776D01*
X0388161Y0330793D01*
X0390041Y0332674D01*
X0391059Y0335131D01*
X0391059Y0337790D01*
X0390041Y0340247D01*
X0388161Y0342128D01*
X0385704Y0343146D01*
X0373674Y0343146D01*
X0371217Y0342128D01*
X0369337Y0340247D01*
X0368319Y0337790D01*
X0368319Y0335131D01*
X0369337Y0332674D01*
X0371217Y0330793D01*
X0370246Y0331765D02*
X0199978Y0331765D01*
X0199752Y0331539D02*
X0202681Y0334468D01*
X0202681Y0338610D01*
X0199752Y0341539D01*
X0195610Y0341539D01*
X0192681Y0338610D01*
X0192681Y0336412D01*
X0187375Y0331105D01*
X0186979Y0330149D01*
X0186979Y0275715D01*
X0187375Y0274759D01*
X0188106Y0274028D01*
X0209972Y0252162D01*
X0209217Y0250337D01*
X0209217Y0242348D01*
X0209978Y0240510D01*
X0211384Y0239104D01*
X0213222Y0238343D01*
X0215211Y0238343D01*
X0217049Y0239104D01*
X0218455Y0240510D01*
X0219217Y0242348D01*
X0219217Y0250337D01*
X0218455Y0252175D01*
X0217049Y0253581D01*
X0215211Y0254343D01*
X0215145Y0254343D01*
X0192179Y0277309D01*
X0192179Y0328555D01*
X0195386Y0331763D01*
X0195610Y0331539D01*
X0199752Y0331539D01*
X0200976Y0332763D02*
X0369300Y0332763D01*
X0368886Y0333762D02*
X0201975Y0333762D01*
X0202681Y0334760D02*
X0368472Y0334760D01*
X0368319Y0335759D02*
X0202681Y0335759D01*
X0202681Y0336757D02*
X0368319Y0336757D01*
X0368319Y0337756D02*
X0202681Y0337756D01*
X0202537Y0338754D02*
X0368718Y0338754D01*
X0369132Y0339753D02*
X0201539Y0339753D01*
X0200540Y0340751D02*
X0369841Y0340751D01*
X0370839Y0341750D02*
X0199963Y0341750D01*
X0199752Y0341539D02*
X0202681Y0344468D01*
X0202681Y0348610D01*
X0199752Y0351539D01*
X0195610Y0351539D01*
X0192681Y0348610D01*
X0192681Y0346044D01*
X0178626Y0332150D01*
X0178619Y0332147D01*
X0178259Y0331787D01*
X0177896Y0331428D01*
X0177893Y0331421D01*
X0177888Y0331415D01*
X0177693Y0330945D01*
X0177495Y0330475D01*
X0177495Y0330467D01*
X0177492Y0330460D01*
X0177492Y0329950D01*
X0177489Y0329440D01*
X0177492Y0329433D01*
X0177492Y0275834D01*
X0177490Y0275828D01*
X0177492Y0275317D01*
X0177492Y0274805D01*
X0177494Y0274800D01*
X0177494Y0274794D01*
X0177692Y0274322D01*
X0177888Y0273849D01*
X0177892Y0273845D01*
X0177894Y0273840D01*
X0178258Y0273479D01*
X0178619Y0273118D01*
X0178624Y0273116D01*
X0199908Y0252007D01*
X0199217Y0250337D01*
X0199217Y0242348D01*
X0199978Y0240510D01*
X0201384Y0239104D01*
X0203222Y0238343D01*
X0205211Y0238343D01*
X0207049Y0239104D01*
X0208455Y0240510D01*
X0209217Y0242348D01*
X0209217Y0250337D01*
X0208455Y0252175D01*
X0207049Y0253581D01*
X0205211Y0254343D01*
X0204938Y0254343D01*
X0182692Y0276405D01*
X0182692Y0328857D01*
X0195566Y0341584D01*
X0195610Y0341539D01*
X0199752Y0341539D01*
X0200961Y0342748D02*
X0372715Y0342748D01*
X0373556Y0350113D02*
X0374517Y0349961D01*
X0379189Y0349961D01*
X0379189Y0355646D01*
X0368821Y0355646D01*
X0368971Y0354697D01*
X0369272Y0353771D01*
X0369714Y0352904D01*
X0370286Y0352116D01*
X0370975Y0351428D01*
X0371762Y0350856D01*
X0372630Y0350414D01*
X0373556Y0350113D01*
X0371996Y0350737D02*
X0200555Y0350737D01*
X0199752Y0351539D02*
X0202681Y0354468D01*
X0202681Y0358610D01*
X0199752Y0361539D01*
X0195610Y0361539D01*
X0192681Y0358610D01*
X0192681Y0354468D01*
X0195610Y0351539D01*
X0199752Y0351539D01*
X0199948Y0351735D02*
X0370668Y0351735D01*
X0369838Y0352734D02*
X0200946Y0352734D01*
X0201945Y0353732D02*
X0369292Y0353732D01*
X0368966Y0354731D02*
X0202681Y0354731D01*
X0202681Y0355729D02*
X0379189Y0355729D01*
X0379189Y0355646D02*
X0379189Y0356646D01*
X0379189Y0362331D01*
X0374517Y0362331D01*
X0373556Y0362178D01*
X0372630Y0361878D01*
X0371762Y0361436D01*
X0370975Y0360863D01*
X0370286Y0360175D01*
X0369714Y0359387D01*
X0369272Y0358520D01*
X0368971Y0357594D01*
X0368821Y0356646D01*
X0379189Y0356646D01*
X0380189Y0356646D01*
X0380189Y0362331D01*
X0384861Y0362331D01*
X0385822Y0362178D01*
X0386748Y0361878D01*
X0387616Y0361436D01*
X0388403Y0360863D01*
X0389092Y0360175D01*
X0389664Y0359387D01*
X0390106Y0358520D01*
X0390407Y0357594D01*
X0390557Y0356646D01*
X0380189Y0356646D01*
X0380189Y0355646D01*
X0390557Y0355646D01*
X0390407Y0354697D01*
X0390106Y0353771D01*
X0389664Y0352904D01*
X0389092Y0352116D01*
X0388403Y0351428D01*
X0387616Y0350856D01*
X0386748Y0350414D01*
X0385822Y0350113D01*
X0384861Y0349961D01*
X0380189Y0349961D01*
X0380189Y0355646D01*
X0379189Y0355646D01*
X0379189Y0354731D02*
X0380189Y0354731D01*
X0380189Y0355729D02*
X0424717Y0355729D01*
X0424717Y0354731D02*
X0390412Y0354731D01*
X0390086Y0353732D02*
X0424717Y0353732D01*
X0424717Y0352734D02*
X0389540Y0352734D01*
X0388710Y0351735D02*
X0424717Y0351735D01*
X0424717Y0350737D02*
X0387382Y0350737D01*
X0390544Y0356728D02*
X0424717Y0356728D01*
X0424717Y0357726D02*
X0390364Y0357726D01*
X0390002Y0358725D02*
X0424717Y0358725D01*
X0424717Y0359723D02*
X0389420Y0359723D01*
X0388545Y0360722D02*
X0424717Y0360722D01*
X0424559Y0361720D02*
X0387057Y0361720D01*
X0380189Y0361720D02*
X0379189Y0361720D01*
X0379189Y0360722D02*
X0380189Y0360722D01*
X0380189Y0359723D02*
X0379189Y0359723D01*
X0379189Y0358725D02*
X0380189Y0358725D01*
X0380189Y0357726D02*
X0379189Y0357726D01*
X0379189Y0356728D02*
X0380189Y0356728D01*
X0380189Y0353732D02*
X0379189Y0353732D01*
X0379189Y0352734D02*
X0380189Y0352734D01*
X0380189Y0351735D02*
X0379189Y0351735D01*
X0379189Y0350737D02*
X0380189Y0350737D01*
X0386663Y0342748D02*
X0424717Y0342748D01*
X0424717Y0341750D02*
X0388539Y0341750D01*
X0389537Y0340751D02*
X0424717Y0340751D01*
X0424717Y0339753D02*
X0390246Y0339753D01*
X0390660Y0338754D02*
X0424717Y0338754D01*
X0424717Y0337756D02*
X0391059Y0337756D01*
X0391059Y0336757D02*
X0424717Y0336757D01*
X0424717Y0335759D02*
X0391059Y0335759D01*
X0390906Y0334760D02*
X0424717Y0334760D01*
X0424717Y0333762D02*
X0390492Y0333762D01*
X0390078Y0332763D02*
X0424717Y0332763D01*
X0424717Y0331765D02*
X0389132Y0331765D01*
X0388096Y0330766D02*
X0424717Y0330766D01*
X0424717Y0343747D02*
X0201960Y0343747D01*
X0202681Y0344745D02*
X0424717Y0344745D01*
X0424717Y0345744D02*
X0202681Y0345744D01*
X0202681Y0346743D02*
X0424717Y0346743D01*
X0424717Y0347741D02*
X0202681Y0347741D01*
X0202552Y0348740D02*
X0424717Y0348740D01*
X0424717Y0349738D02*
X0201553Y0349738D01*
X0195414Y0351735D02*
X0156106Y0351735D01*
X0156106Y0350737D02*
X0194807Y0350737D01*
X0193809Y0349738D02*
X0156106Y0349738D01*
X0156106Y0348740D02*
X0192810Y0348740D01*
X0192681Y0347741D02*
X0156106Y0347741D01*
X0156106Y0346743D02*
X0192681Y0346743D01*
X0192377Y0345744D02*
X0156106Y0345744D01*
X0156106Y0344745D02*
X0191367Y0344745D01*
X0190357Y0343747D02*
X0156106Y0343747D01*
X0156106Y0342748D02*
X0189347Y0342748D01*
X0188337Y0341750D02*
X0156106Y0341750D01*
X0156106Y0340751D02*
X0187327Y0340751D01*
X0186317Y0339753D02*
X0156106Y0339753D01*
X0156106Y0338754D02*
X0185307Y0338754D01*
X0184297Y0337756D02*
X0156106Y0337756D01*
X0156106Y0336757D02*
X0183287Y0336757D01*
X0182277Y0335759D02*
X0156106Y0335759D01*
X0156106Y0334760D02*
X0181267Y0334760D01*
X0180257Y0333762D02*
X0156106Y0333762D01*
X0156106Y0332763D02*
X0179247Y0332763D01*
X0178237Y0331765D02*
X0156106Y0331765D01*
X0156106Y0330766D02*
X0177618Y0330766D01*
X0177491Y0329768D02*
X0156106Y0329768D01*
X0156106Y0328769D02*
X0177492Y0328769D01*
X0177492Y0327771D02*
X0156106Y0327771D01*
X0156106Y0326772D02*
X0177492Y0326772D01*
X0177492Y0325774D02*
X0156106Y0325774D01*
X0156106Y0324775D02*
X0177492Y0324775D01*
X0177492Y0323777D02*
X0156106Y0323777D01*
X0156106Y0322778D02*
X0177492Y0322778D01*
X0177492Y0321780D02*
X0156106Y0321780D01*
X0156106Y0320781D02*
X0177492Y0320781D01*
X0177492Y0319783D02*
X0156106Y0319783D01*
X0156106Y0318784D02*
X0177492Y0318784D01*
X0177492Y0317786D02*
X0156106Y0317786D01*
X0156106Y0316787D02*
X0177492Y0316787D01*
X0177492Y0315789D02*
X0156106Y0315789D01*
X0156106Y0314790D02*
X0177492Y0314790D01*
X0177492Y0313792D02*
X0156106Y0313792D01*
X0156106Y0312793D02*
X0177492Y0312793D01*
X0177492Y0311795D02*
X0156106Y0311795D01*
X0156106Y0310796D02*
X0177492Y0310796D01*
X0177492Y0309798D02*
X0156106Y0309798D01*
X0156106Y0308799D02*
X0177492Y0308799D01*
X0177492Y0307801D02*
X0156106Y0307801D01*
X0156106Y0306802D02*
X0177492Y0306802D01*
X0177492Y0305804D02*
X0156106Y0305804D01*
X0156106Y0304805D02*
X0177492Y0304805D01*
X0177492Y0303807D02*
X0156106Y0303807D01*
X0156106Y0302808D02*
X0177492Y0302808D01*
X0177492Y0301809D02*
X0156106Y0301809D01*
X0156106Y0300811D02*
X0177492Y0300811D01*
X0177492Y0299812D02*
X0156106Y0299812D01*
X0156106Y0298814D02*
X0177492Y0298814D01*
X0177492Y0297815D02*
X0156069Y0297815D01*
X0155841Y0296817D02*
X0177492Y0296817D01*
X0177492Y0295818D02*
X0155613Y0295818D01*
X0155385Y0294820D02*
X0177492Y0294820D01*
X0177492Y0293821D02*
X0155157Y0293821D01*
X0154877Y0292823D02*
X0177492Y0292823D01*
X0177492Y0291824D02*
X0154396Y0291824D01*
X0153915Y0290826D02*
X0177492Y0290826D01*
X0177492Y0289827D02*
X0153434Y0289827D01*
X0152953Y0288829D02*
X0177492Y0288829D01*
X0177492Y0287830D02*
X0152274Y0287830D01*
X0151478Y0286832D02*
X0177492Y0286832D01*
X0177492Y0285833D02*
X0150682Y0285833D01*
X0149885Y0284835D02*
X0177492Y0284835D01*
X0177492Y0283836D02*
X0148790Y0283836D01*
X0147538Y0282838D02*
X0177492Y0282838D01*
X0177492Y0281839D02*
X0146286Y0281839D01*
X0144634Y0280841D02*
X0177492Y0280841D01*
X0177492Y0279842D02*
X0142560Y0279842D01*
X0139838Y0278844D02*
X0177492Y0278844D01*
X0177492Y0277845D02*
X0052131Y0277845D01*
X0046468Y0276847D02*
X0177492Y0276847D01*
X0177492Y0275848D02*
X0043661Y0275848D01*
X0040918Y0274850D02*
X0177492Y0274850D01*
X0177887Y0273851D02*
X0039113Y0273851D01*
X0037384Y0272853D02*
X0178890Y0272853D01*
X0179897Y0271854D02*
X0035654Y0271854D01*
X0034424Y0270856D02*
X0180903Y0270856D01*
X0181910Y0269857D02*
X0042343Y0269857D01*
X0041898Y0269976D02*
X0039055Y0269976D01*
X0036308Y0269240D01*
X0033845Y0267819D01*
X0031835Y0265808D01*
X0030413Y0263345D01*
X0029677Y0260599D01*
X0029677Y0257755D01*
X0030413Y0255009D01*
X0031835Y0252546D01*
X0033845Y0250536D01*
X0036308Y0249114D01*
X0039055Y0248378D01*
X0041898Y0248378D01*
X0044645Y0249114D01*
X0047107Y0250536D01*
X0049118Y0252546D01*
X0050540Y0255009D01*
X0051276Y0257755D01*
X0051276Y0260599D01*
X0050540Y0263345D01*
X0049118Y0265808D01*
X0047107Y0267819D01*
X0044645Y0269240D01*
X0041898Y0269976D01*
X0038610Y0269857D02*
X0033234Y0269857D01*
X0032044Y0268859D02*
X0035647Y0268859D01*
X0033917Y0267860D02*
X0030879Y0267860D01*
X0030041Y0266862D02*
X0032888Y0266862D01*
X0031890Y0265863D02*
X0029203Y0265863D01*
X0028365Y0264865D02*
X0031290Y0264865D01*
X0030714Y0263866D02*
X0027527Y0263866D01*
X0026813Y0262868D02*
X0030285Y0262868D01*
X0030018Y0261869D02*
X0026237Y0261869D01*
X0025660Y0260871D02*
X0029750Y0260871D01*
X0029677Y0259872D02*
X0025084Y0259872D01*
X0024507Y0258874D02*
X0029677Y0258874D01*
X0029677Y0257875D02*
X0023990Y0257875D01*
X0023626Y0256876D02*
X0029913Y0256876D01*
X0030180Y0255878D02*
X0023263Y0255878D01*
X0022899Y0254879D02*
X0030488Y0254879D01*
X0031064Y0253881D02*
X0022536Y0253881D01*
X0022173Y0252882D02*
X0031641Y0252882D01*
X0032497Y0251884D02*
X0021929Y0251884D01*
X0021753Y0250885D02*
X0033496Y0250885D01*
X0034969Y0249887D02*
X0021577Y0249887D01*
X0021401Y0248888D02*
X0037150Y0248888D01*
X0043803Y0248888D02*
X0098719Y0248888D01*
X0098451Y0247890D02*
X0021224Y0247890D01*
X0021048Y0246891D02*
X0098417Y0246891D01*
X0098417Y0247764D02*
X0098417Y0244921D01*
X0099153Y0242174D01*
X0100575Y0239712D01*
X0102586Y0237701D01*
X0105048Y0236279D01*
X0107795Y0235543D01*
X0110638Y0235543D01*
X0113385Y0236279D01*
X0115847Y0237701D01*
X0117858Y0239712D01*
X0119280Y0242174D01*
X0120016Y0244921D01*
X0120016Y0247764D01*
X0119280Y0250511D01*
X0117858Y0252973D01*
X0115847Y0254984D01*
X0113385Y0256406D01*
X0110638Y0257142D01*
X0107795Y0257142D01*
X0105048Y0256406D01*
X0102586Y0254984D01*
X0100575Y0252973D01*
X0099153Y0250511D01*
X0098417Y0247764D01*
X0098417Y0245893D02*
X0020969Y0245893D01*
X0020925Y0244894D02*
X0098424Y0244894D01*
X0098692Y0243896D02*
X0020882Y0243896D01*
X0020870Y0242897D02*
X0098959Y0242897D01*
X0099312Y0241899D02*
X0020870Y0241899D01*
X0020870Y0240900D02*
X0099889Y0240900D01*
X0100465Y0239902D02*
X0020870Y0239902D01*
X0020870Y0238903D02*
X0101383Y0238903D01*
X0102382Y0237905D02*
X0020870Y0237905D01*
X0020870Y0236906D02*
X0103962Y0236906D01*
X0106435Y0235908D02*
X0020870Y0235908D01*
X0020870Y0234909D02*
X0414217Y0234909D01*
X0414217Y0234271D02*
X0414217Y0238414D01*
X0417145Y0241343D01*
X0421288Y0241343D01*
X0424217Y0244271D01*
X0424217Y0248414D01*
X0421288Y0251343D01*
X0417145Y0251343D01*
X0414710Y0248907D01*
X0414280Y0250511D01*
X0412858Y0252973D01*
X0410847Y0254984D01*
X0408385Y0256406D01*
X0405638Y0257142D01*
X0402795Y0257142D01*
X0400048Y0256406D01*
X0397586Y0254984D01*
X0395575Y0252973D01*
X0394153Y0250511D01*
X0394150Y0250498D01*
X0393497Y0252074D01*
X0412056Y0270632D01*
X0423496Y0270632D01*
X0424452Y0271028D01*
X0425956Y0272532D01*
X0427145Y0271343D01*
X0431288Y0271343D01*
X0434217Y0274271D01*
X0434217Y0278414D01*
X0431288Y0281343D01*
X0434217Y0284271D01*
X0434217Y0288414D01*
X0431288Y0291343D01*
X0427145Y0291343D01*
X0424217Y0288414D01*
X0424217Y0288347D01*
X0421302Y0285432D01*
X0409862Y0285432D01*
X0408906Y0285036D01*
X0408175Y0284305D01*
X0378205Y0254335D01*
X0376384Y0253581D01*
X0374978Y0252175D01*
X0374217Y0250337D01*
X0374217Y0242348D01*
X0374978Y0240510D01*
X0376384Y0239104D01*
X0378222Y0238343D01*
X0380211Y0238343D01*
X0382049Y0239104D01*
X0383455Y0240510D01*
X0384217Y0242348D01*
X0384978Y0240510D01*
X0386384Y0239104D01*
X0388222Y0238343D01*
X0390211Y0238343D01*
X0392049Y0239104D01*
X0393455Y0240510D01*
X0394150Y0242187D01*
X0394153Y0242174D01*
X0395575Y0239712D01*
X0397586Y0237701D01*
X0400048Y0236279D01*
X0402795Y0235543D01*
X0405638Y0235543D01*
X0408385Y0236279D01*
X0410847Y0237701D01*
X0412858Y0239712D01*
X0414280Y0242174D01*
X0414710Y0243778D01*
X0417145Y0241343D01*
X0421288Y0241343D01*
X0424217Y0238414D01*
X0424217Y0234271D01*
X0421288Y0231343D01*
X0417145Y0231343D01*
X0414217Y0234271D01*
X0414577Y0233911D02*
X0020870Y0233911D01*
X0020870Y0232912D02*
X0415576Y0232912D01*
X0416574Y0231914D02*
X0020870Y0231914D01*
X0020870Y0230915D02*
X0416718Y0230915D01*
X0417145Y0231343D02*
X0414217Y0228414D01*
X0414217Y0224271D01*
X0417145Y0221343D01*
X0421288Y0221343D01*
X0424217Y0224271D01*
X0424217Y0228414D01*
X0421288Y0231343D01*
X0417145Y0231343D01*
X0415720Y0229917D02*
X0020870Y0229917D01*
X0020870Y0228918D02*
X0414721Y0228918D01*
X0414217Y0227920D02*
X0020870Y0227920D01*
X0020870Y0226921D02*
X0414217Y0226921D01*
X0414217Y0225923D02*
X0020870Y0225923D01*
X0020870Y0224924D02*
X0414217Y0224924D01*
X0414562Y0223926D02*
X0020870Y0223926D01*
X0020870Y0222927D02*
X0415561Y0222927D01*
X0416559Y0221929D02*
X0020870Y0221929D01*
X0020870Y0220930D02*
X0416733Y0220930D01*
X0417145Y0221343D02*
X0414217Y0218414D01*
X0414217Y0214271D01*
X0417145Y0211343D01*
X0421288Y0211343D01*
X0424217Y0214271D01*
X0424217Y0218414D01*
X0421288Y0221343D01*
X0417145Y0221343D01*
X0415735Y0219932D02*
X0020870Y0219932D01*
X0020870Y0218933D02*
X0414736Y0218933D01*
X0414217Y0217935D02*
X0020870Y0217935D01*
X0020870Y0216936D02*
X0414217Y0216936D01*
X0414217Y0215938D02*
X0020870Y0215938D01*
X0020870Y0214939D02*
X0414217Y0214939D01*
X0414547Y0213941D02*
X0020870Y0213941D01*
X0020870Y0212942D02*
X0415546Y0212942D01*
X0416545Y0211943D02*
X0020870Y0211943D01*
X0020870Y0210945D02*
X0416748Y0210945D01*
X0417145Y0211343D02*
X0414217Y0208414D01*
X0414217Y0204271D01*
X0417145Y0201343D01*
X0421288Y0201343D01*
X0424217Y0204271D01*
X0424217Y0208414D01*
X0421288Y0211343D01*
X0417145Y0211343D01*
X0415749Y0209946D02*
X0020870Y0209946D01*
X0020870Y0208948D02*
X0414751Y0208948D01*
X0414217Y0207949D02*
X0020870Y0207949D01*
X0020870Y0206951D02*
X0414217Y0206951D01*
X0414217Y0205952D02*
X0020870Y0205952D01*
X0020870Y0204954D02*
X0414217Y0204954D01*
X0414533Y0203955D02*
X0020870Y0203955D01*
X0020870Y0202957D02*
X0415531Y0202957D01*
X0416530Y0201958D02*
X0020870Y0201958D01*
X0020870Y0200960D02*
X0416763Y0200960D01*
X0417145Y0201343D02*
X0414217Y0198414D01*
X0414217Y0194271D01*
X0417145Y0191343D01*
X0421288Y0191343D01*
X0424217Y0194271D01*
X0424217Y0198414D01*
X0421288Y0201343D01*
X0417145Y0201343D01*
X0415764Y0199961D02*
X0020870Y0199961D01*
X0020870Y0198963D02*
X0414766Y0198963D01*
X0414217Y0197964D02*
X0020870Y0197964D01*
X0020870Y0196966D02*
X0414217Y0196966D01*
X0414217Y0195967D02*
X0020870Y0195967D01*
X0020870Y0194969D02*
X0414217Y0194969D01*
X0414518Y0193970D02*
X0020870Y0193970D01*
X0020870Y0192972D02*
X0415516Y0192972D01*
X0416515Y0191973D02*
X0020870Y0191973D01*
X0020870Y0190975D02*
X0416778Y0190975D01*
X0417145Y0191343D02*
X0414217Y0188414D01*
X0414217Y0184271D01*
X0417145Y0181343D01*
X0421288Y0181343D01*
X0424217Y0184271D01*
X0424217Y0188414D01*
X0421288Y0191343D01*
X0417145Y0191343D01*
X0415779Y0189976D02*
X0020870Y0189976D01*
X0020870Y0188978D02*
X0414781Y0188978D01*
X0414217Y0187979D02*
X0020870Y0187979D01*
X0020870Y0186981D02*
X0414217Y0186981D01*
X0414217Y0185982D02*
X0020870Y0185982D01*
X0020870Y0184984D02*
X0414217Y0184984D01*
X0414503Y0183985D02*
X0020870Y0183985D01*
X0020870Y0182987D02*
X0415501Y0182987D01*
X0416500Y0181988D02*
X0020870Y0181988D01*
X0020870Y0180990D02*
X0416793Y0180990D01*
X0417145Y0181343D02*
X0414217Y0178414D01*
X0414217Y0174271D01*
X0417145Y0171343D01*
X0421288Y0171343D01*
X0424217Y0174271D01*
X0424217Y0178414D01*
X0421288Y0181343D01*
X0417145Y0181343D01*
X0415794Y0179991D02*
X0020870Y0179991D01*
X0020870Y0178993D02*
X0414796Y0178993D01*
X0414217Y0177994D02*
X0020870Y0177994D01*
X0020870Y0176996D02*
X0414217Y0176996D01*
X0414217Y0175997D02*
X0020870Y0175997D01*
X0020870Y0174999D02*
X0414217Y0174999D01*
X0414488Y0174000D02*
X0020870Y0174000D01*
X0020870Y0173002D02*
X0415486Y0173002D01*
X0416485Y0172003D02*
X0020870Y0172003D01*
X0020870Y0171005D02*
X0416807Y0171005D01*
X0417145Y0171343D02*
X0414217Y0168414D01*
X0414217Y0164271D01*
X0417145Y0161343D01*
X0421288Y0161343D01*
X0424217Y0164271D01*
X0424217Y0168414D01*
X0421288Y0171343D01*
X0417145Y0171343D01*
X0415809Y0170006D02*
X0020870Y0170006D01*
X0020870Y0169007D02*
X0414810Y0169007D01*
X0414217Y0168009D02*
X0020870Y0168009D01*
X0020870Y0167010D02*
X0414217Y0167010D01*
X0414217Y0166012D02*
X0020870Y0166012D01*
X0020870Y0165013D02*
X0414217Y0165013D01*
X0414473Y0164015D02*
X0344741Y0164015D01*
X0345996Y0163495D02*
X0342895Y0164780D01*
X0339538Y0164780D01*
X0336437Y0163495D01*
X0334064Y0161122D01*
X0332780Y0158021D01*
X0332780Y0154664D01*
X0334064Y0151563D01*
X0336437Y0149190D01*
X0339538Y0147906D01*
X0342895Y0147906D01*
X0345996Y0149190D01*
X0348369Y0151563D01*
X0349654Y0154664D01*
X0349654Y0158021D01*
X0348369Y0161122D01*
X0345996Y0163495D01*
X0346474Y0163016D02*
X0415472Y0163016D01*
X0416470Y0162018D02*
X0347473Y0162018D01*
X0348411Y0161019D02*
X0416822Y0161019D01*
X0417145Y0161343D02*
X0414217Y0158414D01*
X0414217Y0154271D01*
X0417145Y0151343D01*
X0421288Y0151343D01*
X0424217Y0154271D01*
X0424217Y0158414D01*
X0421288Y0161343D01*
X0417145Y0161343D01*
X0415824Y0160021D02*
X0348825Y0160021D01*
X0349239Y0159022D02*
X0414825Y0159022D01*
X0414217Y0158024D02*
X0349652Y0158024D01*
X0349654Y0157025D02*
X0414217Y0157025D01*
X0414217Y0156027D02*
X0349654Y0156027D01*
X0349654Y0155028D02*
X0414217Y0155028D01*
X0414458Y0154030D02*
X0349391Y0154030D01*
X0348977Y0153031D02*
X0415457Y0153031D01*
X0416455Y0152033D02*
X0348564Y0152033D01*
X0347840Y0151034D02*
X0416837Y0151034D01*
X0417145Y0151343D02*
X0414217Y0148414D01*
X0414217Y0144271D01*
X0417145Y0141343D01*
X0421288Y0141343D01*
X0424217Y0144271D01*
X0424217Y0148414D01*
X0421288Y0151343D01*
X0417145Y0151343D01*
X0415839Y0150036D02*
X0346842Y0150036D01*
X0345627Y0149037D02*
X0414840Y0149037D01*
X0414217Y0148039D02*
X0343216Y0148039D01*
X0339217Y0148039D02*
X0020870Y0148039D01*
X0020870Y0149037D02*
X0336806Y0149037D01*
X0335592Y0150036D02*
X0020870Y0150036D01*
X0020870Y0151034D02*
X0334593Y0151034D01*
X0333870Y0152033D02*
X0020870Y0152033D01*
X0020870Y0153031D02*
X0333456Y0153031D01*
X0333042Y0154030D02*
X0020870Y0154030D01*
X0020870Y0155028D02*
X0332780Y0155028D01*
X0332780Y0156027D02*
X0020870Y0156027D01*
X0020870Y0157025D02*
X0332780Y0157025D01*
X0332781Y0158024D02*
X0020870Y0158024D01*
X0020870Y0159022D02*
X0333194Y0159022D01*
X0333608Y0160021D02*
X0020870Y0160021D01*
X0020870Y0161019D02*
X0334022Y0161019D01*
X0334960Y0162018D02*
X0020870Y0162018D01*
X0020870Y0163016D02*
X0335959Y0163016D01*
X0337692Y0164015D02*
X0020870Y0164015D01*
X0020870Y0147040D02*
X0414217Y0147040D01*
X0414217Y0146042D02*
X0020870Y0146042D01*
X0020870Y0145043D02*
X0414217Y0145043D01*
X0414443Y0144045D02*
X0020870Y0144045D01*
X0020870Y0143046D02*
X0415442Y0143046D01*
X0416440Y0142048D02*
X0020870Y0142048D01*
X0020870Y0141049D02*
X0416852Y0141049D01*
X0417145Y0141343D02*
X0414217Y0138414D01*
X0414217Y0134271D01*
X0417145Y0131343D01*
X0421288Y0131343D01*
X0424217Y0134271D01*
X0424217Y0138414D01*
X0421288Y0141343D01*
X0417145Y0141343D01*
X0415854Y0140051D02*
X0020870Y0140051D01*
X0020870Y0139052D02*
X0414855Y0139052D01*
X0414217Y0138054D02*
X0020870Y0138054D01*
X0020870Y0137055D02*
X0414217Y0137055D01*
X0414217Y0136057D02*
X0020870Y0136057D01*
X0020870Y0135058D02*
X0414217Y0135058D01*
X0414428Y0134060D02*
X0020870Y0134060D01*
X0020870Y0133061D02*
X0415427Y0133061D01*
X0416425Y0132063D02*
X0020870Y0132063D01*
X0020870Y0131064D02*
X0416867Y0131064D01*
X0417145Y0131343D02*
X0414217Y0128414D01*
X0414217Y0124271D01*
X0417145Y0121343D01*
X0421288Y0121343D01*
X0424217Y0124271D01*
X0424217Y0128414D01*
X0421288Y0131343D01*
X0417145Y0131343D01*
X0415869Y0130066D02*
X0020870Y0130066D01*
X0020870Y0129067D02*
X0414870Y0129067D01*
X0414217Y0128069D02*
X0020870Y0128069D01*
X0020870Y0127070D02*
X0414217Y0127070D01*
X0414217Y0126072D02*
X0020870Y0126072D01*
X0020870Y0125073D02*
X0414217Y0125073D01*
X0414414Y0124074D02*
X0020870Y0124074D01*
X0020870Y0123076D02*
X0415412Y0123076D01*
X0416411Y0122077D02*
X0020870Y0122077D01*
X0020870Y0121079D02*
X0416882Y0121079D01*
X0417145Y0121343D02*
X0414217Y0118414D01*
X0414217Y0114271D01*
X0417145Y0111343D01*
X0421288Y0111343D01*
X0424217Y0114271D01*
X0424217Y0118414D01*
X0421288Y0121343D01*
X0417145Y0121343D01*
X0415883Y0120080D02*
X0020870Y0120080D01*
X0020870Y0119082D02*
X0414885Y0119082D01*
X0414217Y0118083D02*
X0020870Y0118083D01*
X0020870Y0117085D02*
X0414217Y0117085D01*
X0414217Y0116086D02*
X0020870Y0116086D01*
X0020870Y0115088D02*
X0414217Y0115088D01*
X0414399Y0114089D02*
X0020870Y0114089D01*
X0020870Y0113091D02*
X0415397Y0113091D01*
X0416396Y0112092D02*
X0020870Y0112092D01*
X0020870Y0111094D02*
X0416897Y0111094D01*
X0417145Y0111343D02*
X0414217Y0108414D01*
X0414217Y0104271D01*
X0417145Y0101343D01*
X0421288Y0101343D01*
X0424217Y0104271D01*
X0424217Y0108414D01*
X0421288Y0111343D01*
X0417145Y0111343D01*
X0415898Y0110095D02*
X0020870Y0110095D01*
X0020870Y0109097D02*
X0414900Y0109097D01*
X0414217Y0108098D02*
X0020870Y0108098D01*
X0020870Y0107100D02*
X0414217Y0107100D01*
X0414217Y0106101D02*
X0020870Y0106101D01*
X0020870Y0105103D02*
X0414217Y0105103D01*
X0414384Y0104104D02*
X0020870Y0104104D01*
X0020870Y0103106D02*
X0415382Y0103106D01*
X0416381Y0102107D02*
X0020870Y0102107D01*
X0020870Y0101109D02*
X0416912Y0101109D01*
X0417145Y0101343D02*
X0414217Y0098414D01*
X0414217Y0094271D01*
X0417145Y0091343D01*
X0421288Y0091343D01*
X0424217Y0094271D01*
X0424217Y0098414D01*
X0421288Y0101343D01*
X0417145Y0101343D01*
X0415913Y0100110D02*
X0020870Y0100110D01*
X0020870Y0099112D02*
X0414915Y0099112D01*
X0414217Y0098113D02*
X0020870Y0098113D01*
X0020870Y0097115D02*
X0414217Y0097115D01*
X0414217Y0096116D02*
X0020870Y0096116D01*
X0020870Y0095118D02*
X0414217Y0095118D01*
X0414369Y0094119D02*
X0020870Y0094119D01*
X0020870Y0093121D02*
X0415367Y0093121D01*
X0416366Y0092122D02*
X0020870Y0092122D01*
X0020870Y0091124D02*
X0416927Y0091124D01*
X0417145Y0091343D02*
X0414217Y0088414D01*
X0414217Y0084271D01*
X0417145Y0081343D01*
X0421288Y0081343D01*
X0424217Y0084271D01*
X0424217Y0088414D01*
X0421288Y0091343D01*
X0417145Y0091343D01*
X0415928Y0090125D02*
X0020870Y0090125D01*
X0020870Y0089127D02*
X0414930Y0089127D01*
X0414217Y0088128D02*
X0020870Y0088128D01*
X0020870Y0087130D02*
X0414217Y0087130D01*
X0414217Y0086131D02*
X0020870Y0086131D01*
X0020870Y0085133D02*
X0414217Y0085133D01*
X0414354Y0084134D02*
X0020870Y0084134D01*
X0020870Y0083136D02*
X0415352Y0083136D01*
X0416351Y0082137D02*
X0020870Y0082137D01*
X0020870Y0075147D02*
X0414717Y0075147D01*
X0415046Y0074149D02*
X0020870Y0074149D01*
X0020870Y0073150D02*
X0416045Y0073150D01*
X0417043Y0072152D02*
X0020870Y0072152D01*
X0020870Y0071153D02*
X0466185Y0071153D01*
X0466185Y0070155D02*
X0020870Y0070155D01*
X0020870Y0069156D02*
X0466185Y0069156D01*
X0466185Y0068158D02*
X0020870Y0068158D01*
X0020870Y0067159D02*
X0466185Y0067159D01*
X0466185Y0066161D02*
X0433809Y0066161D01*
X0435539Y0065162D02*
X0466185Y0065162D01*
X0466185Y0064164D02*
X0436668Y0064164D01*
X0437666Y0063165D02*
X0466185Y0063165D01*
X0466185Y0062167D02*
X0438324Y0062167D01*
X0438900Y0061168D02*
X0466185Y0061168D01*
X0466185Y0060170D02*
X0439371Y0060170D01*
X0439639Y0059171D02*
X0466185Y0059171D01*
X0466185Y0058173D02*
X0439906Y0058173D01*
X0440016Y0057174D02*
X0466185Y0057174D01*
X0466185Y0056176D02*
X0440016Y0056176D01*
X0440016Y0055177D02*
X0466185Y0055177D01*
X0466185Y0054179D02*
X0454269Y0054179D01*
X0455998Y0053180D02*
X0466185Y0053180D01*
X0466185Y0052182D02*
X0457232Y0052182D01*
X0458231Y0051183D02*
X0466185Y0051183D01*
X0466185Y0050185D02*
X0458949Y0050185D01*
X0459526Y0049186D02*
X0466185Y0049186D01*
X0466185Y0048188D02*
X0460041Y0048188D01*
X0460309Y0047189D02*
X0466185Y0047189D01*
X0466185Y0046191D02*
X0460576Y0046191D01*
X0460724Y0045192D02*
X0466185Y0045192D01*
X0466185Y0044194D02*
X0460724Y0044194D01*
X0460724Y0043195D02*
X0466185Y0043195D01*
X0466154Y0042197D02*
X0460564Y0042197D01*
X0460297Y0041198D02*
X0466104Y0041198D01*
X0465948Y0040200D02*
X0460029Y0040200D01*
X0459499Y0039201D02*
X0465749Y0039201D01*
X0465551Y0038203D02*
X0458923Y0038203D01*
X0458185Y0037204D02*
X0465352Y0037204D01*
X0464951Y0036205D02*
X0457187Y0036205D01*
X0455919Y0035207D02*
X0464537Y0035207D01*
X0464124Y0034208D02*
X0454189Y0034208D01*
X0439274Y0046191D02*
X0433054Y0046191D01*
X0434961Y0047189D02*
X0439542Y0047189D01*
X0439809Y0048188D02*
X0436334Y0048188D01*
X0437333Y0049186D02*
X0440325Y0049186D01*
X0440901Y0050185D02*
X0438131Y0050185D01*
X0438708Y0051183D02*
X0441619Y0051183D01*
X0442618Y0052182D02*
X0439282Y0052182D01*
X0439549Y0053180D02*
X0443852Y0053180D01*
X0445582Y0054179D02*
X0439817Y0054179D01*
X0425379Y0046191D02*
X0113054Y0046191D01*
X0114961Y0047189D02*
X0423472Y0047189D01*
X0406302Y0049186D02*
X0402131Y0049186D01*
X0402049Y0049104D02*
X0403455Y0050510D01*
X0404217Y0052348D01*
X0404217Y0060337D01*
X0403455Y0062175D01*
X0402049Y0063581D01*
X0400211Y0064343D01*
X0398222Y0064343D01*
X0396384Y0063581D01*
X0394978Y0062175D01*
X0394217Y0060337D01*
X0394217Y0052348D01*
X0394978Y0050510D01*
X0396384Y0049104D01*
X0398222Y0048343D01*
X0400211Y0048343D01*
X0402049Y0049104D01*
X0403130Y0050185D02*
X0405303Y0050185D01*
X0404699Y0051183D02*
X0403734Y0051183D01*
X0404148Y0052182D02*
X0404285Y0052182D01*
X0404217Y0053180D02*
X0404217Y0053180D01*
X0404217Y0054179D02*
X0404217Y0054179D01*
X0404217Y0055177D02*
X0404217Y0055177D01*
X0404217Y0056176D02*
X0404217Y0056176D01*
X0404217Y0057174D02*
X0404217Y0057174D01*
X0404217Y0058173D02*
X0404217Y0058173D01*
X0404217Y0059171D02*
X0404217Y0059171D01*
X0404217Y0060170D02*
X0404217Y0060170D01*
X0403872Y0061168D02*
X0404561Y0061168D01*
X0404974Y0062167D02*
X0403459Y0062167D01*
X0402465Y0063165D02*
X0405968Y0063165D01*
X0407791Y0064164D02*
X0400643Y0064164D01*
X0397791Y0064164D02*
X0390643Y0064164D01*
X0390211Y0064343D02*
X0388222Y0064343D01*
X0386384Y0063581D01*
X0384978Y0062175D01*
X0384217Y0060337D01*
X0384217Y0052348D01*
X0384978Y0050510D01*
X0386384Y0049104D01*
X0388222Y0048343D01*
X0390211Y0048343D01*
X0392049Y0049104D01*
X0393455Y0050510D01*
X0394217Y0052348D01*
X0394217Y0060337D01*
X0393455Y0062175D01*
X0392049Y0063581D01*
X0390211Y0064343D01*
X0387791Y0064164D02*
X0380643Y0064164D01*
X0380211Y0064343D02*
X0378222Y0064343D01*
X0376384Y0063581D01*
X0374978Y0062175D01*
X0374217Y0060337D01*
X0374217Y0052348D01*
X0374978Y0050510D01*
X0376384Y0049104D01*
X0378222Y0048343D01*
X0380211Y0048343D01*
X0382049Y0049104D01*
X0383455Y0050510D01*
X0384217Y0052348D01*
X0384217Y0060337D01*
X0383455Y0062175D01*
X0382049Y0063581D01*
X0380211Y0064343D01*
X0377791Y0064164D02*
X0370643Y0064164D01*
X0370211Y0064343D02*
X0368222Y0064343D01*
X0366384Y0063581D01*
X0364978Y0062175D01*
X0364217Y0060337D01*
X0364217Y0052348D01*
X0364978Y0050510D01*
X0366384Y0049104D01*
X0368222Y0048343D01*
X0370211Y0048343D01*
X0372049Y0049104D01*
X0373455Y0050510D01*
X0374217Y0052348D01*
X0374217Y0060337D01*
X0373455Y0062175D01*
X0372049Y0063581D01*
X0370211Y0064343D01*
X0367791Y0064164D02*
X0360643Y0064164D01*
X0360211Y0064343D02*
X0358222Y0064343D01*
X0356384Y0063581D01*
X0354978Y0062175D01*
X0354217Y0060337D01*
X0354217Y0052348D01*
X0354978Y0050510D01*
X0356384Y0049104D01*
X0358222Y0048343D01*
X0360211Y0048343D01*
X0362049Y0049104D01*
X0363455Y0050510D01*
X0364217Y0052348D01*
X0364217Y0060337D01*
X0363455Y0062175D01*
X0362049Y0063581D01*
X0360211Y0064343D01*
X0357791Y0064164D02*
X0350643Y0064164D01*
X0350211Y0064343D02*
X0348222Y0064343D01*
X0346384Y0063581D01*
X0344978Y0062175D01*
X0344217Y0060337D01*
X0344217Y0052348D01*
X0344978Y0050510D01*
X0346384Y0049104D01*
X0348222Y0048343D01*
X0350211Y0048343D01*
X0352049Y0049104D01*
X0353455Y0050510D01*
X0354217Y0052348D01*
X0354217Y0060337D01*
X0353455Y0062175D01*
X0352049Y0063581D01*
X0350211Y0064343D01*
X0347791Y0064164D02*
X0340643Y0064164D01*
X0340211Y0064343D02*
X0342049Y0063581D01*
X0343455Y0062175D01*
X0344217Y0060337D01*
X0344217Y0052348D01*
X0343455Y0050510D01*
X0342049Y0049104D01*
X0340211Y0048343D01*
X0338222Y0048343D01*
X0336384Y0049104D01*
X0334978Y0050510D01*
X0334217Y0052348D01*
X0334217Y0060337D01*
X0334978Y0062175D01*
X0336384Y0063581D01*
X0338222Y0064343D01*
X0340211Y0064343D01*
X0337791Y0064164D02*
X0320643Y0064164D01*
X0320211Y0064343D02*
X0318222Y0064343D01*
X0316384Y0063581D01*
X0314978Y0062175D01*
X0314217Y0060337D01*
X0314217Y0052348D01*
X0314978Y0050510D01*
X0316384Y0049104D01*
X0318222Y0048343D01*
X0320211Y0048343D01*
X0322049Y0049104D01*
X0323455Y0050510D01*
X0324217Y0052348D01*
X0324217Y0060337D01*
X0323455Y0062175D01*
X0322049Y0063581D01*
X0320211Y0064343D01*
X0317791Y0064164D02*
X0310643Y0064164D01*
X0310211Y0064343D02*
X0308222Y0064343D01*
X0306384Y0063581D01*
X0304978Y0062175D01*
X0304217Y0060337D01*
X0304217Y0052348D01*
X0304978Y0050510D01*
X0306384Y0049104D01*
X0308222Y0048343D01*
X0310211Y0048343D01*
X0312049Y0049104D01*
X0313455Y0050510D01*
X0314217Y0052348D01*
X0314217Y0060337D01*
X0313455Y0062175D01*
X0312049Y0063581D01*
X0310211Y0064343D01*
X0307791Y0064164D02*
X0300643Y0064164D01*
X0300211Y0064343D02*
X0298222Y0064343D01*
X0296384Y0063581D01*
X0294978Y0062175D01*
X0294217Y0060337D01*
X0294217Y0052348D01*
X0294978Y0050510D01*
X0296384Y0049104D01*
X0298222Y0048343D01*
X0300211Y0048343D01*
X0302049Y0049104D01*
X0303455Y0050510D01*
X0304217Y0052348D01*
X0304217Y0060337D01*
X0303455Y0062175D01*
X0302049Y0063581D01*
X0300211Y0064343D01*
X0297791Y0064164D02*
X0290643Y0064164D01*
X0290211Y0064343D02*
X0288222Y0064343D01*
X0286384Y0063581D01*
X0284978Y0062175D01*
X0284217Y0060337D01*
X0284217Y0052348D01*
X0284978Y0050510D01*
X0286384Y0049104D01*
X0288222Y0048343D01*
X0290211Y0048343D01*
X0292049Y0049104D01*
X0293455Y0050510D01*
X0294217Y0052348D01*
X0294217Y0060337D01*
X0293455Y0062175D01*
X0292049Y0063581D01*
X0290211Y0064343D01*
X0287791Y0064164D02*
X0280643Y0064164D01*
X0280211Y0064343D02*
X0278222Y0064343D01*
X0276384Y0063581D01*
X0274978Y0062175D01*
X0274217Y0060337D01*
X0274217Y0052348D01*
X0274978Y0050510D01*
X0276384Y0049104D01*
X0278222Y0048343D01*
X0280211Y0048343D01*
X0282049Y0049104D01*
X0283455Y0050510D01*
X0284217Y0052348D01*
X0284217Y0060337D01*
X0283455Y0062175D01*
X0282049Y0063581D01*
X0280211Y0064343D01*
X0277791Y0064164D02*
X0270643Y0064164D01*
X0270211Y0064343D02*
X0268222Y0064343D01*
X0266384Y0063581D01*
X0264978Y0062175D01*
X0264217Y0060337D01*
X0264217Y0052348D01*
X0264978Y0050510D01*
X0266384Y0049104D01*
X0268222Y0048343D01*
X0270211Y0048343D01*
X0272049Y0049104D01*
X0273455Y0050510D01*
X0274217Y0052348D01*
X0274217Y0060337D01*
X0273455Y0062175D01*
X0272049Y0063581D01*
X0270211Y0064343D01*
X0267791Y0064164D02*
X0260643Y0064164D01*
X0260211Y0064343D02*
X0258222Y0064343D01*
X0256384Y0063581D01*
X0254978Y0062175D01*
X0254217Y0060337D01*
X0254217Y0052348D01*
X0254978Y0050510D01*
X0256384Y0049104D01*
X0258222Y0048343D01*
X0260211Y0048343D01*
X0262049Y0049104D01*
X0263455Y0050510D01*
X0264217Y0052348D01*
X0264217Y0060337D01*
X0263455Y0062175D01*
X0262049Y0063581D01*
X0260211Y0064343D01*
X0257791Y0064164D02*
X0250643Y0064164D01*
X0250211Y0064343D02*
X0248222Y0064343D01*
X0246384Y0063581D01*
X0244978Y0062175D01*
X0244217Y0060337D01*
X0244217Y0052348D01*
X0244978Y0050510D01*
X0246384Y0049104D01*
X0248222Y0048343D01*
X0250211Y0048343D01*
X0252049Y0049104D01*
X0253455Y0050510D01*
X0254217Y0052348D01*
X0254217Y0060337D01*
X0253455Y0062175D01*
X0252049Y0063581D01*
X0250211Y0064343D01*
X0247791Y0064164D02*
X0230643Y0064164D01*
X0230211Y0064343D02*
X0228222Y0064343D01*
X0226384Y0063581D01*
X0224978Y0062175D01*
X0224217Y0060337D01*
X0224217Y0052348D01*
X0224978Y0050510D01*
X0226384Y0049104D01*
X0228222Y0048343D01*
X0230211Y0048343D01*
X0232049Y0049104D01*
X0233455Y0050510D01*
X0234217Y0052348D01*
X0234217Y0060337D01*
X0233455Y0062175D01*
X0232049Y0063581D01*
X0230211Y0064343D01*
X0227791Y0064164D02*
X0200643Y0064164D01*
X0202465Y0063165D02*
X0206822Y0063165D01*
X0206858Y0063191D02*
X0206285Y0062775D01*
X0205784Y0062274D01*
X0205368Y0061701D01*
X0205046Y0061070D01*
X0204827Y0060396D01*
X0204717Y0059697D01*
X0204717Y0056842D01*
X0208716Y0056842D01*
X0208716Y0055843D01*
X0204717Y0055843D01*
X0204717Y0052988D01*
X0204827Y0052289D01*
X0205046Y0051615D01*
X0205368Y0050984D01*
X0205784Y0050411D01*
X0206285Y0049910D01*
X0206858Y0049494D01*
X0207489Y0049172D01*
X0208163Y0048953D01*
X0208717Y0048866D01*
X0208717Y0055842D01*
X0209717Y0055842D01*
X0209717Y0055843D02*
X0209717Y0056842D01*
X0213717Y0056842D01*
X0213717Y0059697D01*
X0213606Y0060396D01*
X0213387Y0061070D01*
X0213065Y0061701D01*
X0212649Y0062274D01*
X0212148Y0062775D01*
X0211575Y0063191D01*
X0210944Y0063513D01*
X0210270Y0063732D01*
X0209717Y0063819D01*
X0209717Y0056843D01*
X0208717Y0056843D01*
X0208717Y0063819D01*
X0208163Y0063732D01*
X0207489Y0063513D01*
X0206858Y0063191D01*
X0205706Y0062167D02*
X0203459Y0062167D01*
X0203872Y0061168D02*
X0205096Y0061168D01*
X0204791Y0060170D02*
X0204217Y0060170D01*
X0204217Y0059171D02*
X0204717Y0059171D01*
X0204717Y0058173D02*
X0204217Y0058173D01*
X0204217Y0057174D02*
X0204717Y0057174D01*
X0204217Y0056176D02*
X0208716Y0056176D01*
X0208717Y0057174D02*
X0209717Y0057174D01*
X0209717Y0056176D02*
X0218716Y0056176D01*
X0218716Y0055843D02*
X0214717Y0055843D01*
X0214717Y0052988D01*
X0214827Y0052289D01*
X0215046Y0051615D01*
X0215368Y0050984D01*
X0215784Y0050411D01*
X0216285Y0049910D01*
X0216858Y0049494D01*
X0217489Y0049172D01*
X0218163Y0048953D01*
X0218717Y0048866D01*
X0218717Y0055842D01*
X0219717Y0055842D01*
X0219717Y0055843D02*
X0219717Y0056842D01*
X0223717Y0056842D01*
X0223717Y0059697D01*
X0223606Y0060396D01*
X0223387Y0061070D01*
X0223065Y0061701D01*
X0222649Y0062274D01*
X0222148Y0062775D01*
X0221575Y0063191D01*
X0220944Y0063513D01*
X0220270Y0063732D01*
X0219717Y0063819D01*
X0219717Y0056843D01*
X0218717Y0056843D01*
X0218717Y0063819D01*
X0218163Y0063732D01*
X0217489Y0063513D01*
X0216858Y0063191D01*
X0216285Y0062775D01*
X0215784Y0062274D01*
X0215368Y0061701D01*
X0215046Y0061070D01*
X0214827Y0060396D01*
X0214717Y0059697D01*
X0214717Y0056842D01*
X0218716Y0056842D01*
X0218716Y0055843D01*
X0218717Y0055177D02*
X0219717Y0055177D01*
X0219717Y0055842D02*
X0219717Y0048866D01*
X0220270Y0048953D01*
X0220944Y0049172D01*
X0221575Y0049494D01*
X0222148Y0049910D01*
X0222649Y0050411D01*
X0223065Y0050984D01*
X0223387Y0051615D01*
X0223606Y0052289D01*
X0223717Y0052988D01*
X0223717Y0055843D01*
X0219717Y0055843D01*
X0219717Y0056176D02*
X0224217Y0056176D01*
X0224217Y0057174D02*
X0223717Y0057174D01*
X0223717Y0058173D02*
X0224217Y0058173D01*
X0224217Y0059171D02*
X0223717Y0059171D01*
X0223642Y0060170D02*
X0224217Y0060170D01*
X0224561Y0061168D02*
X0223337Y0061168D01*
X0222727Y0062167D02*
X0224974Y0062167D01*
X0225968Y0063165D02*
X0221611Y0063165D01*
X0219717Y0063165D02*
X0218717Y0063165D01*
X0218717Y0062167D02*
X0219717Y0062167D01*
X0219717Y0061168D02*
X0218717Y0061168D01*
X0218717Y0060170D02*
X0219717Y0060170D01*
X0219717Y0059171D02*
X0218717Y0059171D01*
X0218717Y0058173D02*
X0219717Y0058173D01*
X0219717Y0057174D02*
X0218717Y0057174D01*
X0218717Y0054179D02*
X0219717Y0054179D01*
X0219717Y0053180D02*
X0218717Y0053180D01*
X0218717Y0052182D02*
X0219717Y0052182D01*
X0219717Y0051183D02*
X0218717Y0051183D01*
X0218717Y0050185D02*
X0219717Y0050185D01*
X0219717Y0049186D02*
X0218717Y0049186D01*
X0217462Y0049186D02*
X0210971Y0049186D01*
X0210944Y0049172D02*
X0211575Y0049494D01*
X0212148Y0049910D01*
X0212649Y0050411D01*
X0213065Y0050984D01*
X0213387Y0051615D01*
X0213606Y0052289D01*
X0213717Y0052988D01*
X0213717Y0055843D01*
X0209717Y0055843D01*
X0209717Y0055842D02*
X0209717Y0048866D01*
X0210270Y0048953D01*
X0210944Y0049172D01*
X0209717Y0049186D02*
X0208717Y0049186D01*
X0208717Y0050185D02*
X0209717Y0050185D01*
X0209717Y0051183D02*
X0208717Y0051183D01*
X0208717Y0052182D02*
X0209717Y0052182D01*
X0209717Y0053180D02*
X0208717Y0053180D01*
X0208717Y0054179D02*
X0209717Y0054179D01*
X0209717Y0055177D02*
X0208717Y0055177D01*
X0208717Y0058173D02*
X0209717Y0058173D01*
X0209717Y0059171D02*
X0208717Y0059171D01*
X0208717Y0060170D02*
X0209717Y0060170D01*
X0209717Y0061168D02*
X0208717Y0061168D01*
X0208717Y0062167D02*
X0209717Y0062167D01*
X0209717Y0063165D02*
X0208717Y0063165D01*
X0211611Y0063165D02*
X0216822Y0063165D01*
X0215706Y0062167D02*
X0212727Y0062167D01*
X0213337Y0061168D02*
X0215096Y0061168D01*
X0214791Y0060170D02*
X0213642Y0060170D01*
X0213717Y0059171D02*
X0214717Y0059171D01*
X0214717Y0058173D02*
X0213717Y0058173D01*
X0213717Y0057174D02*
X0214717Y0057174D01*
X0214717Y0055177D02*
X0213717Y0055177D01*
X0213717Y0054179D02*
X0214717Y0054179D01*
X0214717Y0053180D02*
X0213717Y0053180D01*
X0213571Y0052182D02*
X0214862Y0052182D01*
X0215266Y0051183D02*
X0213167Y0051183D01*
X0212423Y0050185D02*
X0216010Y0050185D01*
X0220971Y0049186D02*
X0226302Y0049186D01*
X0225303Y0050185D02*
X0222423Y0050185D01*
X0223167Y0051183D02*
X0224699Y0051183D01*
X0224285Y0052182D02*
X0223571Y0052182D01*
X0223717Y0053180D02*
X0224217Y0053180D01*
X0224217Y0054179D02*
X0223717Y0054179D01*
X0223717Y0055177D02*
X0224217Y0055177D01*
X0232131Y0049186D02*
X0246302Y0049186D01*
X0245303Y0050185D02*
X0233130Y0050185D01*
X0233734Y0051183D02*
X0244699Y0051183D01*
X0244285Y0052182D02*
X0234148Y0052182D01*
X0234217Y0053180D02*
X0244217Y0053180D01*
X0244217Y0054179D02*
X0234217Y0054179D01*
X0234217Y0055177D02*
X0244217Y0055177D01*
X0244217Y0056176D02*
X0234217Y0056176D01*
X0234217Y0057174D02*
X0244217Y0057174D01*
X0244217Y0058173D02*
X0234217Y0058173D01*
X0234217Y0059171D02*
X0244217Y0059171D01*
X0244217Y0060170D02*
X0234217Y0060170D01*
X0233872Y0061168D02*
X0244561Y0061168D01*
X0244974Y0062167D02*
X0233459Y0062167D01*
X0232465Y0063165D02*
X0245968Y0063165D01*
X0252465Y0063165D02*
X0255968Y0063165D01*
X0254974Y0062167D02*
X0253459Y0062167D01*
X0253872Y0061168D02*
X0254561Y0061168D01*
X0254217Y0060170D02*
X0254217Y0060170D01*
X0254217Y0059171D02*
X0254217Y0059171D01*
X0254217Y0058173D02*
X0254217Y0058173D01*
X0254217Y0057174D02*
X0254217Y0057174D01*
X0254217Y0056176D02*
X0254217Y0056176D01*
X0254217Y0055177D02*
X0254217Y0055177D01*
X0254217Y0054179D02*
X0254217Y0054179D01*
X0254217Y0053180D02*
X0254217Y0053180D01*
X0254148Y0052182D02*
X0254285Y0052182D01*
X0254699Y0051183D02*
X0253734Y0051183D01*
X0253130Y0050185D02*
X0255303Y0050185D01*
X0256302Y0049186D02*
X0252131Y0049186D01*
X0262131Y0049186D02*
X0266302Y0049186D01*
X0265303Y0050185D02*
X0263130Y0050185D01*
X0263734Y0051183D02*
X0264699Y0051183D01*
X0264285Y0052182D02*
X0264148Y0052182D01*
X0264217Y0053180D02*
X0264217Y0053180D01*
X0264217Y0054179D02*
X0264217Y0054179D01*
X0264217Y0055177D02*
X0264217Y0055177D01*
X0264217Y0056176D02*
X0264217Y0056176D01*
X0264217Y0057174D02*
X0264217Y0057174D01*
X0264217Y0058173D02*
X0264217Y0058173D01*
X0264217Y0059171D02*
X0264217Y0059171D01*
X0264217Y0060170D02*
X0264217Y0060170D01*
X0263872Y0061168D02*
X0264561Y0061168D01*
X0264974Y0062167D02*
X0263459Y0062167D01*
X0262465Y0063165D02*
X0265968Y0063165D01*
X0272465Y0063165D02*
X0275968Y0063165D01*
X0274974Y0062167D02*
X0273459Y0062167D01*
X0273872Y0061168D02*
X0274561Y0061168D01*
X0274217Y0060170D02*
X0274217Y0060170D01*
X0274217Y0059171D02*
X0274217Y0059171D01*
X0274217Y0058173D02*
X0274217Y0058173D01*
X0274217Y0057174D02*
X0274217Y0057174D01*
X0274217Y0056176D02*
X0274217Y0056176D01*
X0274217Y0055177D02*
X0274217Y0055177D01*
X0274217Y0054179D02*
X0274217Y0054179D01*
X0274217Y0053180D02*
X0274217Y0053180D01*
X0274148Y0052182D02*
X0274285Y0052182D01*
X0274699Y0051183D02*
X0273734Y0051183D01*
X0273130Y0050185D02*
X0275303Y0050185D01*
X0276302Y0049186D02*
X0272131Y0049186D01*
X0282131Y0049186D02*
X0286302Y0049186D01*
X0285303Y0050185D02*
X0283130Y0050185D01*
X0283734Y0051183D02*
X0284699Y0051183D01*
X0284285Y0052182D02*
X0284148Y0052182D01*
X0284217Y0053180D02*
X0284217Y0053180D01*
X0284217Y0054179D02*
X0284217Y0054179D01*
X0284217Y0055177D02*
X0284217Y0055177D01*
X0284217Y0056176D02*
X0284217Y0056176D01*
X0284217Y0057174D02*
X0284217Y0057174D01*
X0284217Y0058173D02*
X0284217Y0058173D01*
X0284217Y0059171D02*
X0284217Y0059171D01*
X0284217Y0060170D02*
X0284217Y0060170D01*
X0283872Y0061168D02*
X0284561Y0061168D01*
X0284974Y0062167D02*
X0283459Y0062167D01*
X0282465Y0063165D02*
X0285968Y0063165D01*
X0292465Y0063165D02*
X0295968Y0063165D01*
X0294974Y0062167D02*
X0293459Y0062167D01*
X0293872Y0061168D02*
X0294561Y0061168D01*
X0294217Y0060170D02*
X0294217Y0060170D01*
X0294217Y0059171D02*
X0294217Y0059171D01*
X0294217Y0058173D02*
X0294217Y0058173D01*
X0294217Y0057174D02*
X0294217Y0057174D01*
X0294217Y0056176D02*
X0294217Y0056176D01*
X0294217Y0055177D02*
X0294217Y0055177D01*
X0294217Y0054179D02*
X0294217Y0054179D01*
X0294217Y0053180D02*
X0294217Y0053180D01*
X0294148Y0052182D02*
X0294285Y0052182D01*
X0294699Y0051183D02*
X0293734Y0051183D01*
X0293130Y0050185D02*
X0295303Y0050185D01*
X0296302Y0049186D02*
X0292131Y0049186D01*
X0302131Y0049186D02*
X0306302Y0049186D01*
X0305303Y0050185D02*
X0303130Y0050185D01*
X0303734Y0051183D02*
X0304699Y0051183D01*
X0304285Y0052182D02*
X0304148Y0052182D01*
X0304217Y0053180D02*
X0304217Y0053180D01*
X0304217Y0054179D02*
X0304217Y0054179D01*
X0304217Y0055177D02*
X0304217Y0055177D01*
X0304217Y0056176D02*
X0304217Y0056176D01*
X0304217Y0057174D02*
X0304217Y0057174D01*
X0304217Y0058173D02*
X0304217Y0058173D01*
X0304217Y0059171D02*
X0304217Y0059171D01*
X0304217Y0060170D02*
X0304217Y0060170D01*
X0303872Y0061168D02*
X0304561Y0061168D01*
X0304974Y0062167D02*
X0303459Y0062167D01*
X0302465Y0063165D02*
X0305968Y0063165D01*
X0312465Y0063165D02*
X0315968Y0063165D01*
X0314974Y0062167D02*
X0313459Y0062167D01*
X0313872Y0061168D02*
X0314561Y0061168D01*
X0314217Y0060170D02*
X0314217Y0060170D01*
X0314217Y0059171D02*
X0314217Y0059171D01*
X0314217Y0058173D02*
X0314217Y0058173D01*
X0314217Y0057174D02*
X0314217Y0057174D01*
X0314217Y0056176D02*
X0314217Y0056176D01*
X0314217Y0055177D02*
X0314217Y0055177D01*
X0314217Y0054179D02*
X0314217Y0054179D01*
X0314217Y0053180D02*
X0314217Y0053180D01*
X0314148Y0052182D02*
X0314285Y0052182D01*
X0314699Y0051183D02*
X0313734Y0051183D01*
X0313130Y0050185D02*
X0315303Y0050185D01*
X0316302Y0049186D02*
X0312131Y0049186D01*
X0322131Y0049186D02*
X0336302Y0049186D01*
X0335303Y0050185D02*
X0323130Y0050185D01*
X0323734Y0051183D02*
X0334699Y0051183D01*
X0334285Y0052182D02*
X0324148Y0052182D01*
X0324217Y0053180D02*
X0334217Y0053180D01*
X0334217Y0054179D02*
X0324217Y0054179D01*
X0324217Y0055177D02*
X0334217Y0055177D01*
X0334217Y0056176D02*
X0324217Y0056176D01*
X0324217Y0057174D02*
X0334217Y0057174D01*
X0334217Y0058173D02*
X0324217Y0058173D01*
X0324217Y0059171D02*
X0334217Y0059171D01*
X0334217Y0060170D02*
X0324217Y0060170D01*
X0323872Y0061168D02*
X0334561Y0061168D01*
X0334974Y0062167D02*
X0323459Y0062167D01*
X0322465Y0063165D02*
X0335968Y0063165D01*
X0342465Y0063165D02*
X0345968Y0063165D01*
X0344974Y0062167D02*
X0343459Y0062167D01*
X0343872Y0061168D02*
X0344561Y0061168D01*
X0344217Y0060170D02*
X0344217Y0060170D01*
X0344217Y0059171D02*
X0344217Y0059171D01*
X0344217Y0058173D02*
X0344217Y0058173D01*
X0344217Y0057174D02*
X0344217Y0057174D01*
X0344217Y0056176D02*
X0344217Y0056176D01*
X0344217Y0055177D02*
X0344217Y0055177D01*
X0344217Y0054179D02*
X0344217Y0054179D01*
X0344217Y0053180D02*
X0344217Y0053180D01*
X0344148Y0052182D02*
X0344285Y0052182D01*
X0344699Y0051183D02*
X0343734Y0051183D01*
X0343130Y0050185D02*
X0345303Y0050185D01*
X0346302Y0049186D02*
X0342131Y0049186D01*
X0352131Y0049186D02*
X0356302Y0049186D01*
X0355303Y0050185D02*
X0353130Y0050185D01*
X0353734Y0051183D02*
X0354699Y0051183D01*
X0354285Y0052182D02*
X0354148Y0052182D01*
X0354217Y0053180D02*
X0354217Y0053180D01*
X0354217Y0054179D02*
X0354217Y0054179D01*
X0354217Y0055177D02*
X0354217Y0055177D01*
X0354217Y0056176D02*
X0354217Y0056176D01*
X0354217Y0057174D02*
X0354217Y0057174D01*
X0354217Y0058173D02*
X0354217Y0058173D01*
X0354217Y0059171D02*
X0354217Y0059171D01*
X0354217Y0060170D02*
X0354217Y0060170D01*
X0353872Y0061168D02*
X0354561Y0061168D01*
X0354974Y0062167D02*
X0353459Y0062167D01*
X0352465Y0063165D02*
X0355968Y0063165D01*
X0362465Y0063165D02*
X0365968Y0063165D01*
X0364974Y0062167D02*
X0363459Y0062167D01*
X0363872Y0061168D02*
X0364561Y0061168D01*
X0364217Y0060170D02*
X0364217Y0060170D01*
X0364217Y0059171D02*
X0364217Y0059171D01*
X0364217Y0058173D02*
X0364217Y0058173D01*
X0364217Y0057174D02*
X0364217Y0057174D01*
X0364217Y0056176D02*
X0364217Y0056176D01*
X0364217Y0055177D02*
X0364217Y0055177D01*
X0364217Y0054179D02*
X0364217Y0054179D01*
X0364217Y0053180D02*
X0364217Y0053180D01*
X0364148Y0052182D02*
X0364285Y0052182D01*
X0364699Y0051183D02*
X0363734Y0051183D01*
X0363130Y0050185D02*
X0365303Y0050185D01*
X0366302Y0049186D02*
X0362131Y0049186D01*
X0372131Y0049186D02*
X0376302Y0049186D01*
X0375303Y0050185D02*
X0373130Y0050185D01*
X0373734Y0051183D02*
X0374699Y0051183D01*
X0374285Y0052182D02*
X0374148Y0052182D01*
X0374217Y0053180D02*
X0374217Y0053180D01*
X0374217Y0054179D02*
X0374217Y0054179D01*
X0374217Y0055177D02*
X0374217Y0055177D01*
X0374217Y0056176D02*
X0374217Y0056176D01*
X0374217Y0057174D02*
X0374217Y0057174D01*
X0374217Y0058173D02*
X0374217Y0058173D01*
X0374217Y0059171D02*
X0374217Y0059171D01*
X0374217Y0060170D02*
X0374217Y0060170D01*
X0373872Y0061168D02*
X0374561Y0061168D01*
X0374974Y0062167D02*
X0373459Y0062167D01*
X0372465Y0063165D02*
X0375968Y0063165D01*
X0382465Y0063165D02*
X0385968Y0063165D01*
X0384974Y0062167D02*
X0383459Y0062167D01*
X0383872Y0061168D02*
X0384561Y0061168D01*
X0384217Y0060170D02*
X0384217Y0060170D01*
X0384217Y0059171D02*
X0384217Y0059171D01*
X0384217Y0058173D02*
X0384217Y0058173D01*
X0384217Y0057174D02*
X0384217Y0057174D01*
X0384217Y0056176D02*
X0384217Y0056176D01*
X0384217Y0055177D02*
X0384217Y0055177D01*
X0384217Y0054179D02*
X0384217Y0054179D01*
X0384217Y0053180D02*
X0384217Y0053180D01*
X0384148Y0052182D02*
X0384285Y0052182D01*
X0384699Y0051183D02*
X0383734Y0051183D01*
X0383130Y0050185D02*
X0385303Y0050185D01*
X0386302Y0049186D02*
X0382131Y0049186D01*
X0392131Y0049186D02*
X0396302Y0049186D01*
X0395303Y0050185D02*
X0393130Y0050185D01*
X0393734Y0051183D02*
X0394699Y0051183D01*
X0394285Y0052182D02*
X0394148Y0052182D01*
X0394217Y0053180D02*
X0394217Y0053180D01*
X0394217Y0054179D02*
X0394217Y0054179D01*
X0394217Y0055177D02*
X0394217Y0055177D01*
X0394217Y0056176D02*
X0394217Y0056176D01*
X0394217Y0057174D02*
X0394217Y0057174D01*
X0394217Y0058173D02*
X0394217Y0058173D01*
X0394217Y0059171D02*
X0394217Y0059171D01*
X0394217Y0060170D02*
X0394217Y0060170D01*
X0393872Y0061168D02*
X0394561Y0061168D01*
X0394974Y0062167D02*
X0393459Y0062167D01*
X0392465Y0063165D02*
X0395968Y0063165D01*
X0418717Y0072152D02*
X0419717Y0072152D01*
X0419717Y0073150D02*
X0418717Y0073150D01*
X0418717Y0074149D02*
X0419717Y0074149D01*
X0419717Y0075147D02*
X0418717Y0075147D01*
X0418717Y0078143D02*
X0419717Y0078143D01*
X0419717Y0079141D02*
X0418717Y0079141D01*
X0418717Y0080140D02*
X0419717Y0080140D01*
X0421783Y0080140D02*
X0426650Y0080140D01*
X0425652Y0079141D02*
X0422782Y0079141D01*
X0423717Y0078143D02*
X0424717Y0078143D01*
X0424717Y0077144D02*
X0423717Y0077144D01*
X0423717Y0075147D02*
X0424717Y0075147D01*
X0425046Y0074149D02*
X0423387Y0074149D01*
X0422388Y0073150D02*
X0426045Y0073150D01*
X0429717Y0076146D02*
X0466185Y0076146D01*
X0466185Y0077144D02*
X0433717Y0077144D01*
X0433717Y0078143D02*
X0466185Y0078143D01*
X0466185Y0079141D02*
X0432782Y0079141D01*
X0429717Y0079141D02*
X0428717Y0079141D01*
X0428717Y0078143D02*
X0429717Y0078143D01*
X0429717Y0077144D02*
X0428717Y0077144D01*
X0428717Y0080140D02*
X0429717Y0080140D01*
X0426351Y0082137D02*
X0422082Y0082137D01*
X0423081Y0083136D02*
X0425352Y0083136D01*
X0424354Y0084134D02*
X0424079Y0084134D01*
X0424217Y0085133D02*
X0424217Y0085133D01*
X0424217Y0086131D02*
X0424217Y0086131D01*
X0424217Y0087130D02*
X0424217Y0087130D01*
X0424217Y0088128D02*
X0424217Y0088128D01*
X0423504Y0089127D02*
X0424930Y0089127D01*
X0425928Y0090125D02*
X0422505Y0090125D01*
X0421506Y0091124D02*
X0426927Y0091124D01*
X0426366Y0092122D02*
X0422067Y0092122D01*
X0423066Y0093121D02*
X0425367Y0093121D01*
X0424369Y0094119D02*
X0424064Y0094119D01*
X0424217Y0095118D02*
X0424217Y0095118D01*
X0424217Y0096116D02*
X0424217Y0096116D01*
X0424217Y0097115D02*
X0424217Y0097115D01*
X0424217Y0098113D02*
X0424217Y0098113D01*
X0424915Y0099112D02*
X0423518Y0099112D01*
X0422520Y0100110D02*
X0425913Y0100110D01*
X0426912Y0101109D02*
X0421521Y0101109D01*
X0422052Y0102107D02*
X0426381Y0102107D01*
X0425382Y0103106D02*
X0423051Y0103106D01*
X0424049Y0104104D02*
X0424384Y0104104D01*
X0424217Y0105103D02*
X0424217Y0105103D01*
X0424217Y0106101D02*
X0424217Y0106101D01*
X0424217Y0107100D02*
X0424217Y0107100D01*
X0424217Y0108098D02*
X0424217Y0108098D01*
X0423533Y0109097D02*
X0424900Y0109097D01*
X0425898Y0110095D02*
X0422535Y0110095D01*
X0421536Y0111094D02*
X0426897Y0111094D01*
X0426396Y0112092D02*
X0422037Y0112092D01*
X0423036Y0113091D02*
X0425397Y0113091D01*
X0424399Y0114089D02*
X0424034Y0114089D01*
X0424217Y0115088D02*
X0424217Y0115088D01*
X0424217Y0116086D02*
X0424217Y0116086D01*
X0424217Y0117085D02*
X0424217Y0117085D01*
X0424217Y0118083D02*
X0424217Y0118083D01*
X0424885Y0119082D02*
X0423548Y0119082D01*
X0422550Y0120080D02*
X0425883Y0120080D01*
X0426882Y0121079D02*
X0421551Y0121079D01*
X0422023Y0122077D02*
X0426411Y0122077D01*
X0425412Y0123076D02*
X0423021Y0123076D01*
X0424020Y0124074D02*
X0424414Y0124074D01*
X0424217Y0125073D02*
X0424217Y0125073D01*
X0424217Y0126072D02*
X0424217Y0126072D01*
X0424217Y0127070D02*
X0424217Y0127070D01*
X0424217Y0128069D02*
X0424217Y0128069D01*
X0424870Y0129067D02*
X0423563Y0129067D01*
X0422565Y0130066D02*
X0425869Y0130066D01*
X0426867Y0131064D02*
X0421566Y0131064D01*
X0422008Y0132063D02*
X0426425Y0132063D01*
X0425427Y0133061D02*
X0423006Y0133061D01*
X0424005Y0134060D02*
X0424428Y0134060D01*
X0424217Y0135058D02*
X0424217Y0135058D01*
X0424217Y0136057D02*
X0424217Y0136057D01*
X0424217Y0137055D02*
X0424217Y0137055D01*
X0424217Y0138054D02*
X0424217Y0138054D01*
X0424855Y0139052D02*
X0423578Y0139052D01*
X0422579Y0140051D02*
X0425854Y0140051D01*
X0426852Y0141049D02*
X0421581Y0141049D01*
X0421993Y0142048D02*
X0426440Y0142048D01*
X0425442Y0143046D02*
X0422991Y0143046D01*
X0423990Y0144045D02*
X0424443Y0144045D01*
X0424217Y0145043D02*
X0424217Y0145043D01*
X0424217Y0146042D02*
X0424217Y0146042D01*
X0424217Y0147040D02*
X0424217Y0147040D01*
X0424217Y0148039D02*
X0424217Y0148039D01*
X0424840Y0149037D02*
X0423593Y0149037D01*
X0422594Y0150036D02*
X0425839Y0150036D01*
X0426837Y0151034D02*
X0421596Y0151034D01*
X0421978Y0152033D02*
X0426455Y0152033D01*
X0425457Y0153031D02*
X0422976Y0153031D01*
X0423975Y0154030D02*
X0424458Y0154030D01*
X0424217Y0155028D02*
X0424217Y0155028D01*
X0424217Y0156027D02*
X0424217Y0156027D01*
X0424217Y0157025D02*
X0424217Y0157025D01*
X0424217Y0158024D02*
X0424217Y0158024D01*
X0424825Y0159022D02*
X0423608Y0159022D01*
X0422609Y0160021D02*
X0425824Y0160021D01*
X0426822Y0161019D02*
X0421611Y0161019D01*
X0421963Y0162018D02*
X0426470Y0162018D01*
X0425472Y0163016D02*
X0422961Y0163016D01*
X0423960Y0164015D02*
X0424473Y0164015D01*
X0424217Y0165013D02*
X0424217Y0165013D01*
X0424217Y0166012D02*
X0424217Y0166012D01*
X0424217Y0167010D02*
X0424217Y0167010D01*
X0424217Y0168009D02*
X0424217Y0168009D01*
X0424810Y0169007D02*
X0423623Y0169007D01*
X0422624Y0170006D02*
X0425809Y0170006D01*
X0426807Y0171005D02*
X0421626Y0171005D01*
X0421948Y0172003D02*
X0426485Y0172003D01*
X0425486Y0173002D02*
X0422947Y0173002D01*
X0423945Y0174000D02*
X0424488Y0174000D01*
X0424217Y0174999D02*
X0424217Y0174999D01*
X0424217Y0175997D02*
X0424217Y0175997D01*
X0424217Y0176996D02*
X0424217Y0176996D01*
X0424217Y0177994D02*
X0424217Y0177994D01*
X0424796Y0178993D02*
X0423637Y0178993D01*
X0422639Y0179991D02*
X0425794Y0179991D01*
X0426793Y0180990D02*
X0421640Y0180990D01*
X0421933Y0181988D02*
X0426500Y0181988D01*
X0425501Y0182987D02*
X0422932Y0182987D01*
X0423930Y0183985D02*
X0424503Y0183985D01*
X0424217Y0184984D02*
X0424217Y0184984D01*
X0424217Y0185982D02*
X0424217Y0185982D01*
X0424217Y0186981D02*
X0424217Y0186981D01*
X0424217Y0187979D02*
X0424217Y0187979D01*
X0423652Y0188978D02*
X0424781Y0188978D01*
X0425779Y0189976D02*
X0422654Y0189976D01*
X0421655Y0190975D02*
X0426778Y0190975D01*
X0426515Y0191973D02*
X0421918Y0191973D01*
X0422917Y0192972D02*
X0425516Y0192972D01*
X0424518Y0193970D02*
X0423915Y0193970D01*
X0424217Y0194969D02*
X0424217Y0194969D01*
X0424217Y0195967D02*
X0424217Y0195967D01*
X0424217Y0196966D02*
X0424217Y0196966D01*
X0424217Y0197964D02*
X0424217Y0197964D01*
X0424766Y0198963D02*
X0423667Y0198963D01*
X0422669Y0199961D02*
X0425764Y0199961D01*
X0426763Y0200960D02*
X0421670Y0200960D01*
X0421903Y0201958D02*
X0426530Y0201958D01*
X0425531Y0202957D02*
X0422902Y0202957D01*
X0423900Y0203955D02*
X0424533Y0203955D01*
X0424217Y0204954D02*
X0424217Y0204954D01*
X0424217Y0205952D02*
X0424217Y0205952D01*
X0424217Y0206951D02*
X0424217Y0206951D01*
X0424217Y0207949D02*
X0424217Y0207949D01*
X0424751Y0208948D02*
X0423682Y0208948D01*
X0422684Y0209946D02*
X0425749Y0209946D01*
X0426748Y0210945D02*
X0421685Y0210945D01*
X0421889Y0211943D02*
X0426545Y0211943D01*
X0425546Y0212942D02*
X0422887Y0212942D01*
X0423886Y0213941D02*
X0424547Y0213941D01*
X0424217Y0214939D02*
X0424217Y0214939D01*
X0424217Y0215938D02*
X0424217Y0215938D01*
X0424217Y0216936D02*
X0424217Y0216936D01*
X0424217Y0217935D02*
X0424217Y0217935D01*
X0424736Y0218933D02*
X0423697Y0218933D01*
X0422699Y0219932D02*
X0425735Y0219932D01*
X0426733Y0220930D02*
X0421700Y0220930D01*
X0421874Y0221929D02*
X0426559Y0221929D01*
X0425561Y0222927D02*
X0422872Y0222927D01*
X0423871Y0223926D02*
X0424562Y0223926D01*
X0424217Y0224924D02*
X0424217Y0224924D01*
X0424217Y0225923D02*
X0424217Y0225923D01*
X0424217Y0226921D02*
X0424217Y0226921D01*
X0424217Y0227920D02*
X0424217Y0227920D01*
X0423712Y0228918D02*
X0424721Y0228918D01*
X0425720Y0229917D02*
X0422713Y0229917D01*
X0421715Y0230915D02*
X0426718Y0230915D01*
X0426574Y0231914D02*
X0421859Y0231914D01*
X0422857Y0232912D02*
X0425576Y0232912D01*
X0424577Y0233911D02*
X0423856Y0233911D01*
X0424217Y0234909D02*
X0424217Y0234909D01*
X0424217Y0235908D02*
X0424217Y0235908D01*
X0424217Y0236906D02*
X0424217Y0236906D01*
X0424217Y0237905D02*
X0424217Y0237905D01*
X0423727Y0238903D02*
X0424706Y0238903D01*
X0425705Y0239902D02*
X0422728Y0239902D01*
X0421730Y0240900D02*
X0426703Y0240900D01*
X0426589Y0241899D02*
X0421844Y0241899D01*
X0422842Y0242897D02*
X0425591Y0242897D01*
X0424592Y0243896D02*
X0423841Y0243896D01*
X0424217Y0244894D02*
X0424217Y0244894D01*
X0424217Y0245893D02*
X0424217Y0245893D01*
X0424217Y0246891D02*
X0424217Y0246891D01*
X0424217Y0247890D02*
X0424217Y0247890D01*
X0424691Y0248888D02*
X0423742Y0248888D01*
X0422743Y0249887D02*
X0425690Y0249887D01*
X0426688Y0250885D02*
X0421745Y0250885D01*
X0416688Y0250885D02*
X0414064Y0250885D01*
X0414447Y0249887D02*
X0415690Y0249887D01*
X0413487Y0251884D02*
X0429188Y0251884D01*
X0430186Y0252882D02*
X0412911Y0252882D01*
X0411950Y0253881D02*
X0431185Y0253881D01*
X0432183Y0254879D02*
X0410952Y0254879D01*
X0409299Y0255878D02*
X0433182Y0255878D01*
X0434180Y0256876D02*
X0406628Y0256876D01*
X0401805Y0256876D02*
X0398300Y0256876D01*
X0399134Y0255878D02*
X0397301Y0255878D01*
X0397481Y0254879D02*
X0396303Y0254879D01*
X0396483Y0253881D02*
X0395304Y0253881D01*
X0395523Y0252882D02*
X0394306Y0252882D01*
X0394946Y0251884D02*
X0393576Y0251884D01*
X0393989Y0250885D02*
X0394370Y0250885D01*
X0389947Y0255878D02*
X0387101Y0255878D01*
X0386103Y0254879D02*
X0388949Y0254879D01*
X0388412Y0254343D02*
X0388222Y0254343D01*
X0386384Y0253581D01*
X0384978Y0252175D01*
X0384217Y0250337D01*
X0384217Y0242348D01*
X0384217Y0250337D01*
X0383455Y0252175D01*
X0383427Y0252203D01*
X0411456Y0280232D01*
X0422896Y0280232D01*
X0423852Y0280628D01*
X0425856Y0282632D01*
X0427145Y0281343D01*
X0431288Y0281343D01*
X0427145Y0281343D01*
X0424217Y0278414D01*
X0424217Y0278147D01*
X0421902Y0275832D01*
X0410462Y0275832D01*
X0409506Y0275436D01*
X0408775Y0274705D01*
X0388412Y0254343D01*
X0387108Y0253881D02*
X0385104Y0253881D01*
X0385685Y0252882D02*
X0384106Y0252882D01*
X0383576Y0251884D02*
X0384857Y0251884D01*
X0384444Y0250885D02*
X0383989Y0250885D01*
X0384217Y0249887D02*
X0384217Y0249887D01*
X0384217Y0248888D02*
X0384217Y0248888D01*
X0384217Y0247890D02*
X0384217Y0247890D01*
X0384217Y0246891D02*
X0384217Y0246891D01*
X0384217Y0245893D02*
X0384217Y0245893D01*
X0384217Y0244894D02*
X0384217Y0244894D01*
X0384217Y0243896D02*
X0384217Y0243896D01*
X0384217Y0242897D02*
X0384217Y0242897D01*
X0384030Y0241899D02*
X0384403Y0241899D01*
X0384816Y0240900D02*
X0383617Y0240900D01*
X0382847Y0239902D02*
X0385586Y0239902D01*
X0386868Y0238903D02*
X0381565Y0238903D01*
X0376868Y0238903D02*
X0371565Y0238903D01*
X0372049Y0239104D02*
X0373455Y0240510D01*
X0374217Y0242348D01*
X0374217Y0250337D01*
X0373455Y0252175D01*
X0372049Y0253581D01*
X0370211Y0254343D01*
X0368222Y0254343D01*
X0366384Y0253581D01*
X0364978Y0252175D01*
X0364217Y0250337D01*
X0364217Y0242348D01*
X0364978Y0240510D01*
X0366384Y0239104D01*
X0368222Y0238343D01*
X0370211Y0238343D01*
X0372049Y0239104D01*
X0372847Y0239902D02*
X0375586Y0239902D01*
X0374816Y0240900D02*
X0373617Y0240900D01*
X0374030Y0241899D02*
X0374403Y0241899D01*
X0374217Y0242897D02*
X0374217Y0242897D01*
X0374217Y0243896D02*
X0374217Y0243896D01*
X0374217Y0244894D02*
X0374217Y0244894D01*
X0374217Y0245893D02*
X0374217Y0245893D01*
X0374217Y0246891D02*
X0374217Y0246891D01*
X0374217Y0247890D02*
X0374217Y0247890D01*
X0374217Y0248888D02*
X0374217Y0248888D01*
X0374217Y0249887D02*
X0374217Y0249887D01*
X0373989Y0250885D02*
X0374444Y0250885D01*
X0374857Y0251884D02*
X0373576Y0251884D01*
X0372748Y0252882D02*
X0375685Y0252882D01*
X0377108Y0253881D02*
X0371325Y0253881D01*
X0367108Y0253881D02*
X0361325Y0253881D01*
X0362049Y0253581D02*
X0360211Y0254343D01*
X0358222Y0254343D01*
X0356384Y0253581D01*
X0354978Y0252175D01*
X0354217Y0250337D01*
X0354217Y0242348D01*
X0354978Y0240510D01*
X0356384Y0239104D01*
X0358222Y0238343D01*
X0360211Y0238343D01*
X0362049Y0239104D01*
X0363455Y0240510D01*
X0364217Y0242348D01*
X0364217Y0250337D01*
X0363455Y0252175D01*
X0362049Y0253581D01*
X0362748Y0252882D02*
X0365685Y0252882D01*
X0364857Y0251884D02*
X0363576Y0251884D01*
X0363989Y0250885D02*
X0364444Y0250885D01*
X0364217Y0249887D02*
X0364217Y0249887D01*
X0364217Y0248888D02*
X0364217Y0248888D01*
X0364217Y0247890D02*
X0364217Y0247890D01*
X0364217Y0246891D02*
X0364217Y0246891D01*
X0364217Y0245893D02*
X0364217Y0245893D01*
X0364217Y0244894D02*
X0364217Y0244894D01*
X0364217Y0243896D02*
X0364217Y0243896D01*
X0364217Y0242897D02*
X0364217Y0242897D01*
X0364030Y0241899D02*
X0364403Y0241899D01*
X0364816Y0240900D02*
X0363617Y0240900D01*
X0362847Y0239902D02*
X0365586Y0239902D01*
X0366868Y0238903D02*
X0361565Y0238903D01*
X0356868Y0238903D02*
X0351565Y0238903D01*
X0352049Y0239104D02*
X0353455Y0240510D01*
X0354217Y0242348D01*
X0354217Y0250337D01*
X0353455Y0252175D01*
X0352049Y0253581D01*
X0350211Y0254343D01*
X0348222Y0254343D01*
X0346384Y0253581D01*
X0344978Y0252175D01*
X0344217Y0250337D01*
X0344217Y0242348D01*
X0344978Y0240510D01*
X0346384Y0239104D01*
X0348222Y0238343D01*
X0350211Y0238343D01*
X0352049Y0239104D01*
X0352847Y0239902D02*
X0355586Y0239902D01*
X0354816Y0240900D02*
X0353617Y0240900D01*
X0354030Y0241899D02*
X0354403Y0241899D01*
X0354217Y0242897D02*
X0354217Y0242897D01*
X0354217Y0243896D02*
X0354217Y0243896D01*
X0354217Y0244894D02*
X0354217Y0244894D01*
X0354217Y0245893D02*
X0354217Y0245893D01*
X0354217Y0246891D02*
X0354217Y0246891D01*
X0354217Y0247890D02*
X0354217Y0247890D01*
X0354217Y0248888D02*
X0354217Y0248888D01*
X0354217Y0249887D02*
X0354217Y0249887D01*
X0353989Y0250885D02*
X0354444Y0250885D01*
X0354857Y0251884D02*
X0353576Y0251884D01*
X0352748Y0252882D02*
X0355685Y0252882D01*
X0357108Y0253881D02*
X0351325Y0253881D01*
X0347108Y0253881D02*
X0341325Y0253881D01*
X0342049Y0253581D02*
X0340211Y0254343D01*
X0338222Y0254343D01*
X0336384Y0253581D01*
X0334978Y0252175D01*
X0334217Y0250337D01*
X0334217Y0242348D01*
X0334978Y0240510D01*
X0336384Y0239104D01*
X0338222Y0238343D01*
X0340211Y0238343D01*
X0342049Y0239104D01*
X0343455Y0240510D01*
X0344217Y0242348D01*
X0344217Y0250337D01*
X0343455Y0252175D01*
X0342049Y0253581D01*
X0342748Y0252882D02*
X0345685Y0252882D01*
X0344857Y0251884D02*
X0343576Y0251884D01*
X0343989Y0250885D02*
X0344444Y0250885D01*
X0344217Y0249887D02*
X0344217Y0249887D01*
X0344217Y0248888D02*
X0344217Y0248888D01*
X0344217Y0247890D02*
X0344217Y0247890D01*
X0344217Y0246891D02*
X0344217Y0246891D01*
X0344217Y0245893D02*
X0344217Y0245893D01*
X0344217Y0244894D02*
X0344217Y0244894D01*
X0344217Y0243896D02*
X0344217Y0243896D01*
X0344217Y0242897D02*
X0344217Y0242897D01*
X0344030Y0241899D02*
X0344403Y0241899D01*
X0344816Y0240900D02*
X0343617Y0240900D01*
X0342847Y0239902D02*
X0345586Y0239902D01*
X0346868Y0238903D02*
X0341565Y0238903D01*
X0336868Y0238903D02*
X0331565Y0238903D01*
X0332049Y0239104D02*
X0333455Y0240510D01*
X0334217Y0242348D01*
X0334217Y0250337D01*
X0333455Y0252175D01*
X0332049Y0253581D01*
X0330211Y0254343D01*
X0328222Y0254343D01*
X0326384Y0253581D01*
X0324978Y0252175D01*
X0324217Y0250337D01*
X0324217Y0242348D01*
X0324978Y0240510D01*
X0326384Y0239104D01*
X0328222Y0238343D01*
X0330211Y0238343D01*
X0332049Y0239104D01*
X0332847Y0239902D02*
X0335586Y0239902D01*
X0334816Y0240900D02*
X0333617Y0240900D01*
X0334030Y0241899D02*
X0334403Y0241899D01*
X0334217Y0242897D02*
X0334217Y0242897D01*
X0334217Y0243896D02*
X0334217Y0243896D01*
X0334217Y0244894D02*
X0334217Y0244894D01*
X0334217Y0245893D02*
X0334217Y0245893D01*
X0334217Y0246891D02*
X0334217Y0246891D01*
X0334217Y0247890D02*
X0334217Y0247890D01*
X0334217Y0248888D02*
X0334217Y0248888D01*
X0334217Y0249887D02*
X0334217Y0249887D01*
X0333989Y0250885D02*
X0334444Y0250885D01*
X0334857Y0251884D02*
X0333576Y0251884D01*
X0332748Y0252882D02*
X0335685Y0252882D01*
X0337108Y0253881D02*
X0331325Y0253881D01*
X0327108Y0253881D02*
X0321325Y0253881D01*
X0322049Y0253581D02*
X0320211Y0254343D01*
X0318222Y0254343D01*
X0316384Y0253581D01*
X0314978Y0252175D01*
X0314217Y0250337D01*
X0314217Y0242348D01*
X0314978Y0240510D01*
X0316384Y0239104D01*
X0318222Y0238343D01*
X0320211Y0238343D01*
X0322049Y0239104D01*
X0323455Y0240510D01*
X0324217Y0242348D01*
X0324217Y0250337D01*
X0323455Y0252175D01*
X0322049Y0253581D01*
X0322748Y0252882D02*
X0325685Y0252882D01*
X0324857Y0251884D02*
X0323576Y0251884D01*
X0323989Y0250885D02*
X0324444Y0250885D01*
X0324217Y0249887D02*
X0324217Y0249887D01*
X0324217Y0248888D02*
X0324217Y0248888D01*
X0324217Y0247890D02*
X0324217Y0247890D01*
X0324217Y0246891D02*
X0324217Y0246891D01*
X0324217Y0245893D02*
X0324217Y0245893D01*
X0324217Y0244894D02*
X0324217Y0244894D01*
X0324217Y0243896D02*
X0324217Y0243896D01*
X0324217Y0242897D02*
X0324217Y0242897D01*
X0324030Y0241899D02*
X0324403Y0241899D01*
X0324816Y0240900D02*
X0323617Y0240900D01*
X0322847Y0239902D02*
X0325586Y0239902D01*
X0326868Y0238903D02*
X0321565Y0238903D01*
X0316868Y0238903D02*
X0301565Y0238903D01*
X0302847Y0239902D02*
X0315586Y0239902D01*
X0314816Y0240900D02*
X0303617Y0240900D01*
X0304030Y0241899D02*
X0314403Y0241899D01*
X0314217Y0242897D02*
X0304217Y0242897D01*
X0304217Y0243896D02*
X0314217Y0243896D01*
X0314217Y0244894D02*
X0304217Y0244894D01*
X0304217Y0245893D02*
X0314217Y0245893D01*
X0314217Y0246891D02*
X0304217Y0246891D01*
X0304217Y0247890D02*
X0314217Y0247890D01*
X0314217Y0248888D02*
X0304217Y0248888D01*
X0304217Y0249887D02*
X0314217Y0249887D01*
X0314444Y0250885D02*
X0303989Y0250885D01*
X0303576Y0251884D02*
X0314857Y0251884D01*
X0315685Y0252882D02*
X0302748Y0252882D01*
X0301325Y0253881D02*
X0317108Y0253881D01*
X0297108Y0253881D02*
X0291325Y0253881D01*
X0292748Y0252882D02*
X0295685Y0252882D01*
X0294857Y0251884D02*
X0293576Y0251884D01*
X0293989Y0250885D02*
X0294444Y0250885D01*
X0294217Y0249887D02*
X0294217Y0249887D01*
X0294217Y0248888D02*
X0294217Y0248888D01*
X0294217Y0247890D02*
X0294217Y0247890D01*
X0294217Y0246891D02*
X0294217Y0246891D01*
X0294217Y0245893D02*
X0294217Y0245893D01*
X0294217Y0244894D02*
X0294217Y0244894D01*
X0294217Y0243896D02*
X0294217Y0243896D01*
X0294217Y0242897D02*
X0294217Y0242897D01*
X0294030Y0241899D02*
X0294403Y0241899D01*
X0294816Y0240900D02*
X0293617Y0240900D01*
X0292847Y0239902D02*
X0295586Y0239902D01*
X0296868Y0238903D02*
X0291565Y0238903D01*
X0286868Y0238903D02*
X0281565Y0238903D01*
X0282847Y0239902D02*
X0285586Y0239902D01*
X0284816Y0240900D02*
X0283617Y0240900D01*
X0284030Y0241899D02*
X0284403Y0241899D01*
X0284217Y0242897D02*
X0284217Y0242897D01*
X0284217Y0243896D02*
X0284217Y0243896D01*
X0284217Y0244894D02*
X0284217Y0244894D01*
X0284217Y0245893D02*
X0284217Y0245893D01*
X0284217Y0246891D02*
X0284217Y0246891D01*
X0284217Y0247890D02*
X0284217Y0247890D01*
X0284217Y0248888D02*
X0284217Y0248888D01*
X0284217Y0249887D02*
X0284217Y0249887D01*
X0283989Y0250885D02*
X0284444Y0250885D01*
X0284857Y0251884D02*
X0283576Y0251884D01*
X0282748Y0252882D02*
X0285685Y0252882D01*
X0287108Y0253881D02*
X0281325Y0253881D01*
X0277108Y0253881D02*
X0271325Y0253881D01*
X0272748Y0252882D02*
X0275685Y0252882D01*
X0274857Y0251884D02*
X0273576Y0251884D01*
X0273989Y0250885D02*
X0274444Y0250885D01*
X0274217Y0249887D02*
X0274217Y0249887D01*
X0274217Y0248888D02*
X0274217Y0248888D01*
X0274217Y0247890D02*
X0274217Y0247890D01*
X0274217Y0246891D02*
X0274217Y0246891D01*
X0274217Y0245893D02*
X0274217Y0245893D01*
X0274217Y0244894D02*
X0274217Y0244894D01*
X0274217Y0243896D02*
X0274217Y0243896D01*
X0274217Y0242897D02*
X0274217Y0242897D01*
X0274030Y0241899D02*
X0274403Y0241899D01*
X0274816Y0240900D02*
X0273617Y0240900D01*
X0272847Y0239902D02*
X0275586Y0239902D01*
X0276868Y0238903D02*
X0271565Y0238903D01*
X0266868Y0238903D02*
X0261565Y0238903D01*
X0262847Y0239902D02*
X0265586Y0239902D01*
X0264816Y0240900D02*
X0263617Y0240900D01*
X0264030Y0241899D02*
X0264403Y0241899D01*
X0264217Y0242897D02*
X0264217Y0242897D01*
X0264217Y0243896D02*
X0264217Y0243896D01*
X0264217Y0244894D02*
X0264217Y0244894D01*
X0264217Y0245893D02*
X0264217Y0245893D01*
X0264217Y0246891D02*
X0264217Y0246891D01*
X0264217Y0247890D02*
X0264217Y0247890D01*
X0264217Y0248888D02*
X0264217Y0248888D01*
X0264217Y0249887D02*
X0264217Y0249887D01*
X0263989Y0250885D02*
X0264444Y0250885D01*
X0264857Y0251884D02*
X0263576Y0251884D01*
X0262748Y0252882D02*
X0265685Y0252882D01*
X0267108Y0253881D02*
X0261325Y0253881D01*
X0257108Y0253881D02*
X0251325Y0253881D01*
X0252748Y0252882D02*
X0255685Y0252882D01*
X0254857Y0251884D02*
X0253576Y0251884D01*
X0253989Y0250885D02*
X0254444Y0250885D01*
X0254217Y0249887D02*
X0254217Y0249887D01*
X0254217Y0248888D02*
X0254217Y0248888D01*
X0254217Y0247890D02*
X0254217Y0247890D01*
X0254217Y0246891D02*
X0254217Y0246891D01*
X0254217Y0245893D02*
X0254217Y0245893D01*
X0254217Y0244894D02*
X0254217Y0244894D01*
X0254217Y0243896D02*
X0254217Y0243896D01*
X0254217Y0242897D02*
X0254217Y0242897D01*
X0254030Y0241899D02*
X0254403Y0241899D01*
X0254816Y0240900D02*
X0253617Y0240900D01*
X0252847Y0239902D02*
X0255586Y0239902D01*
X0256868Y0238903D02*
X0251565Y0238903D01*
X0246868Y0238903D02*
X0241565Y0238903D01*
X0242847Y0239902D02*
X0245586Y0239902D01*
X0244816Y0240900D02*
X0243617Y0240900D01*
X0244030Y0241899D02*
X0244403Y0241899D01*
X0244217Y0242897D02*
X0244217Y0242897D01*
X0244217Y0243896D02*
X0244217Y0243896D01*
X0244217Y0244894D02*
X0244217Y0244894D01*
X0244217Y0245893D02*
X0244217Y0245893D01*
X0244217Y0246891D02*
X0244217Y0246891D01*
X0244217Y0247890D02*
X0244217Y0247890D01*
X0244217Y0248888D02*
X0244217Y0248888D01*
X0244217Y0249887D02*
X0244217Y0249887D01*
X0243989Y0250885D02*
X0244444Y0250885D01*
X0244857Y0251884D02*
X0243576Y0251884D01*
X0242748Y0252882D02*
X0245685Y0252882D01*
X0247108Y0253881D02*
X0241325Y0253881D01*
X0238608Y0254879D02*
X0378749Y0254879D01*
X0379748Y0255878D02*
X0237610Y0255878D01*
X0236611Y0256876D02*
X0380746Y0256876D01*
X0381745Y0257875D02*
X0235613Y0257875D01*
X0234614Y0258874D02*
X0382743Y0258874D01*
X0383742Y0259872D02*
X0233616Y0259872D01*
X0232617Y0260871D02*
X0384740Y0260871D01*
X0385739Y0261869D02*
X0231619Y0261869D01*
X0230620Y0262868D02*
X0386737Y0262868D01*
X0387736Y0263866D02*
X0229622Y0263866D01*
X0228623Y0264865D02*
X0388734Y0264865D01*
X0389733Y0265863D02*
X0227625Y0265863D01*
X0226626Y0266862D02*
X0390731Y0266862D01*
X0391730Y0267860D02*
X0225628Y0267860D01*
X0224629Y0268859D02*
X0392728Y0268859D01*
X0393727Y0269857D02*
X0223631Y0269857D01*
X0222632Y0270856D02*
X0394725Y0270856D01*
X0395724Y0271854D02*
X0221634Y0271854D01*
X0220635Y0272853D02*
X0396722Y0272853D01*
X0397721Y0273851D02*
X0219637Y0273851D01*
X0218638Y0274850D02*
X0398719Y0274850D01*
X0399718Y0275848D02*
X0217640Y0275848D01*
X0216641Y0276847D02*
X0400716Y0276847D01*
X0401715Y0277845D02*
X0215643Y0277845D01*
X0214644Y0278844D02*
X0402713Y0278844D01*
X0403712Y0279842D02*
X0213646Y0279842D01*
X0212647Y0280841D02*
X0404710Y0280841D01*
X0405709Y0281839D02*
X0211649Y0281839D01*
X0210650Y0282838D02*
X0406707Y0282838D01*
X0407706Y0283836D02*
X0209652Y0283836D01*
X0208653Y0284835D02*
X0408704Y0284835D01*
X0411066Y0279842D02*
X0425645Y0279842D01*
X0424647Y0278844D02*
X0410067Y0278844D01*
X0409069Y0277845D02*
X0423915Y0277845D01*
X0422916Y0276847D02*
X0408070Y0276847D01*
X0407072Y0275848D02*
X0421918Y0275848D01*
X0425278Y0271854D02*
X0426634Y0271854D01*
X0424035Y0270856D02*
X0434379Y0270856D01*
X0434379Y0271854D02*
X0431799Y0271854D01*
X0432798Y0272853D02*
X0434379Y0272853D01*
X0434379Y0273851D02*
X0433796Y0273851D01*
X0434217Y0274850D02*
X0434379Y0274850D01*
X0434379Y0275848D02*
X0434217Y0275848D01*
X0434217Y0276847D02*
X0434379Y0276847D01*
X0434379Y0277845D02*
X0434217Y0277845D01*
X0434379Y0278844D02*
X0433786Y0278844D01*
X0434379Y0279842D02*
X0432788Y0279842D01*
X0431789Y0280841D02*
X0434379Y0280841D01*
X0434379Y0281839D02*
X0431784Y0281839D01*
X0432783Y0282838D02*
X0434379Y0282838D01*
X0434379Y0283836D02*
X0433781Y0283836D01*
X0434217Y0284835D02*
X0434379Y0284835D01*
X0434379Y0285833D02*
X0434217Y0285833D01*
X0434217Y0286832D02*
X0434379Y0286832D01*
X0434379Y0287830D02*
X0434217Y0287830D01*
X0434379Y0288829D02*
X0433801Y0288829D01*
X0434379Y0289827D02*
X0432803Y0289827D01*
X0431804Y0290826D02*
X0434379Y0290826D01*
X0434379Y0291824D02*
X0205379Y0291824D01*
X0205379Y0290826D02*
X0426629Y0290826D01*
X0427353Y0291843D02*
X0428717Y0291843D01*
X0428717Y0295842D01*
X0429717Y0295842D01*
X0429717Y0295843D02*
X0429717Y0296842D01*
X0433717Y0296842D01*
X0433717Y0298206D01*
X0431080Y0300843D01*
X0429717Y0300843D01*
X0429717Y0296843D01*
X0428717Y0296843D01*
X0428717Y0300843D01*
X0427353Y0300843D01*
X0424717Y0298206D01*
X0424717Y0296842D01*
X0428716Y0296842D01*
X0428716Y0295843D01*
X0424717Y0295843D01*
X0424717Y0294479D01*
X0427353Y0291843D01*
X0426372Y0292823D02*
X0205379Y0292823D01*
X0205379Y0293821D02*
X0425374Y0293821D01*
X0424717Y0294820D02*
X0205379Y0294820D01*
X0205379Y0295818D02*
X0424717Y0295818D01*
X0424717Y0297815D02*
X0205379Y0297815D01*
X0205379Y0296817D02*
X0428716Y0296817D01*
X0428717Y0297815D02*
X0429717Y0297815D01*
X0429717Y0296817D02*
X0434379Y0296817D01*
X0434379Y0297815D02*
X0433717Y0297815D01*
X0433109Y0298814D02*
X0434379Y0298814D01*
X0433556Y0299812D02*
X0432111Y0299812D01*
X0432557Y0300811D02*
X0431112Y0300811D01*
X0429717Y0300811D02*
X0428717Y0300811D01*
X0428717Y0299812D02*
X0429717Y0299812D01*
X0429717Y0298814D02*
X0428717Y0298814D01*
X0427321Y0300811D02*
X0205379Y0300811D01*
X0205379Y0301809D02*
X0426678Y0301809D01*
X0425680Y0302808D02*
X0205379Y0302808D01*
X0205379Y0303807D02*
X0424681Y0303807D01*
X0424217Y0304805D02*
X0205379Y0304805D01*
X0205379Y0305804D02*
X0424217Y0305804D01*
X0424217Y0306802D02*
X0205379Y0306802D01*
X0205379Y0307801D02*
X0424217Y0307801D01*
X0424602Y0308799D02*
X0205379Y0308799D01*
X0205379Y0309798D02*
X0425601Y0309798D01*
X0426599Y0310796D02*
X0205379Y0310796D01*
X0205379Y0311795D02*
X0426693Y0311795D01*
X0425695Y0312793D02*
X0205379Y0312793D01*
X0205379Y0313792D02*
X0424696Y0313792D01*
X0424217Y0314790D02*
X0205379Y0314790D01*
X0205379Y0315789D02*
X0424217Y0315789D01*
X0424217Y0316787D02*
X0205379Y0316787D01*
X0205379Y0317786D02*
X0424217Y0317786D01*
X0424587Y0318784D02*
X0205379Y0318784D01*
X0205379Y0319783D02*
X0425586Y0319783D01*
X0426584Y0320781D02*
X0205379Y0320781D01*
X0199951Y0319783D02*
X0192179Y0319783D01*
X0192179Y0320781D02*
X0198953Y0320781D01*
X0200179Y0318784D02*
X0192179Y0318784D01*
X0192179Y0317786D02*
X0200179Y0317786D01*
X0200179Y0316787D02*
X0192179Y0316787D01*
X0192179Y0315789D02*
X0200179Y0315789D01*
X0200179Y0314790D02*
X0192179Y0314790D01*
X0192179Y0313792D02*
X0200179Y0313792D01*
X0200179Y0312793D02*
X0192179Y0312793D01*
X0192179Y0311795D02*
X0200179Y0311795D01*
X0200179Y0310796D02*
X0192179Y0310796D01*
X0192179Y0309798D02*
X0200179Y0309798D01*
X0200179Y0308799D02*
X0192179Y0308799D01*
X0192179Y0307801D02*
X0200179Y0307801D01*
X0200179Y0306802D02*
X0192179Y0306802D01*
X0192179Y0305804D02*
X0200179Y0305804D01*
X0200179Y0304805D02*
X0192179Y0304805D01*
X0192179Y0303807D02*
X0200179Y0303807D01*
X0200179Y0302808D02*
X0192179Y0302808D01*
X0192179Y0301809D02*
X0200179Y0301809D01*
X0200179Y0300811D02*
X0192179Y0300811D01*
X0192179Y0299812D02*
X0200179Y0299812D01*
X0200179Y0298814D02*
X0192179Y0298814D01*
X0192179Y0297815D02*
X0200179Y0297815D01*
X0200179Y0296817D02*
X0192179Y0296817D01*
X0192179Y0295818D02*
X0200179Y0295818D01*
X0200179Y0294820D02*
X0192179Y0294820D01*
X0192179Y0293821D02*
X0200179Y0293821D01*
X0200179Y0292823D02*
X0192179Y0292823D01*
X0192179Y0291824D02*
X0200179Y0291824D01*
X0200179Y0290826D02*
X0192179Y0290826D01*
X0192179Y0289827D02*
X0200179Y0289827D01*
X0200179Y0288829D02*
X0192179Y0288829D01*
X0192179Y0287830D02*
X0200179Y0287830D01*
X0200179Y0286832D02*
X0192179Y0286832D01*
X0192179Y0285833D02*
X0200461Y0285833D01*
X0201299Y0284835D02*
X0192179Y0284835D01*
X0192179Y0283836D02*
X0202298Y0283836D01*
X0203296Y0282838D02*
X0192179Y0282838D01*
X0192179Y0281839D02*
X0204295Y0281839D01*
X0205293Y0280841D02*
X0192179Y0280841D01*
X0192179Y0279842D02*
X0206292Y0279842D01*
X0207290Y0278844D02*
X0192179Y0278844D01*
X0192179Y0277845D02*
X0208289Y0277845D01*
X0209287Y0276847D02*
X0192641Y0276847D01*
X0193640Y0275848D02*
X0210286Y0275848D01*
X0211284Y0274850D02*
X0194638Y0274850D01*
X0195637Y0273851D02*
X0212283Y0273851D01*
X0213281Y0272853D02*
X0196635Y0272853D01*
X0197634Y0271854D02*
X0214280Y0271854D01*
X0215278Y0270856D02*
X0198632Y0270856D01*
X0199631Y0269857D02*
X0216277Y0269857D01*
X0217275Y0268859D02*
X0200629Y0268859D01*
X0201628Y0267860D02*
X0218274Y0267860D01*
X0219272Y0266862D02*
X0202626Y0266862D01*
X0203625Y0265863D02*
X0220271Y0265863D01*
X0221269Y0264865D02*
X0204623Y0264865D01*
X0205622Y0263866D02*
X0222268Y0263866D01*
X0223267Y0262868D02*
X0206620Y0262868D01*
X0207619Y0261869D02*
X0224265Y0261869D01*
X0225264Y0260871D02*
X0208617Y0260871D01*
X0209616Y0259872D02*
X0226262Y0259872D01*
X0227261Y0258874D02*
X0210614Y0258874D01*
X0211613Y0257875D02*
X0228259Y0257875D01*
X0229258Y0256876D02*
X0212611Y0256876D01*
X0213610Y0255878D02*
X0230256Y0255878D01*
X0231255Y0254879D02*
X0214608Y0254879D01*
X0216325Y0253881D02*
X0227108Y0253881D01*
X0226384Y0253581D02*
X0228222Y0254343D01*
X0230211Y0254343D01*
X0232049Y0253581D01*
X0233455Y0252175D01*
X0234217Y0250337D01*
X0234217Y0242348D01*
X0233455Y0240510D01*
X0232049Y0239104D01*
X0230211Y0238343D01*
X0228222Y0238343D01*
X0226384Y0239104D01*
X0224978Y0240510D01*
X0224217Y0242348D01*
X0224217Y0250337D01*
X0224978Y0252175D01*
X0226384Y0253581D01*
X0225685Y0252882D02*
X0217748Y0252882D01*
X0218576Y0251884D02*
X0224857Y0251884D01*
X0224444Y0250885D02*
X0218989Y0250885D01*
X0219217Y0249887D02*
X0224217Y0249887D01*
X0224217Y0248888D02*
X0219217Y0248888D01*
X0219217Y0247890D02*
X0224217Y0247890D01*
X0224217Y0246891D02*
X0219217Y0246891D01*
X0219217Y0245893D02*
X0224217Y0245893D01*
X0224217Y0244894D02*
X0219217Y0244894D01*
X0219217Y0243896D02*
X0224217Y0243896D01*
X0224217Y0242897D02*
X0219217Y0242897D01*
X0219030Y0241899D02*
X0224403Y0241899D01*
X0224816Y0240900D02*
X0218617Y0240900D01*
X0217847Y0239902D02*
X0225586Y0239902D01*
X0226868Y0238903D02*
X0216565Y0238903D01*
X0211868Y0238903D02*
X0206565Y0238903D01*
X0207847Y0239902D02*
X0210586Y0239902D01*
X0209816Y0240900D02*
X0208617Y0240900D01*
X0209030Y0241899D02*
X0209403Y0241899D01*
X0209217Y0242897D02*
X0209217Y0242897D01*
X0209217Y0243896D02*
X0209217Y0243896D01*
X0209217Y0244894D02*
X0209217Y0244894D01*
X0209217Y0245893D02*
X0209217Y0245893D01*
X0209217Y0246891D02*
X0209217Y0246891D01*
X0209217Y0247890D02*
X0209217Y0247890D01*
X0209217Y0248888D02*
X0209217Y0248888D01*
X0209217Y0249887D02*
X0209217Y0249887D01*
X0208989Y0250885D02*
X0209444Y0250885D01*
X0209857Y0251884D02*
X0208576Y0251884D01*
X0209252Y0252882D02*
X0207748Y0252882D01*
X0208253Y0253881D02*
X0206325Y0253881D01*
X0207255Y0254879D02*
X0204397Y0254879D01*
X0203390Y0255878D02*
X0206256Y0255878D01*
X0205258Y0256876D02*
X0202383Y0256876D01*
X0201376Y0257875D02*
X0204259Y0257875D01*
X0203261Y0258874D02*
X0200370Y0258874D01*
X0199363Y0259872D02*
X0202262Y0259872D01*
X0201264Y0260871D02*
X0198356Y0260871D01*
X0197349Y0261869D02*
X0200265Y0261869D01*
X0199267Y0262868D02*
X0196342Y0262868D01*
X0195336Y0263866D02*
X0198268Y0263866D01*
X0197269Y0264865D02*
X0194329Y0264865D01*
X0193322Y0265863D02*
X0196271Y0265863D01*
X0195272Y0266862D02*
X0192315Y0266862D01*
X0191308Y0267860D02*
X0194274Y0267860D01*
X0193275Y0268859D02*
X0190302Y0268859D01*
X0189295Y0269857D02*
X0192277Y0269857D01*
X0191278Y0270856D02*
X0188288Y0270856D01*
X0187281Y0271854D02*
X0190280Y0271854D01*
X0189281Y0272853D02*
X0186274Y0272853D01*
X0185267Y0273851D02*
X0188283Y0273851D01*
X0187337Y0274850D02*
X0184261Y0274850D01*
X0183254Y0275848D02*
X0186979Y0275848D01*
X0186979Y0276847D02*
X0182692Y0276847D01*
X0182692Y0277845D02*
X0186979Y0277845D01*
X0186979Y0278844D02*
X0182692Y0278844D01*
X0182692Y0279842D02*
X0186979Y0279842D01*
X0186979Y0280841D02*
X0182692Y0280841D01*
X0182692Y0281839D02*
X0186979Y0281839D01*
X0186979Y0282838D02*
X0182692Y0282838D01*
X0182692Y0283836D02*
X0186979Y0283836D01*
X0186979Y0284835D02*
X0182692Y0284835D01*
X0182692Y0285833D02*
X0186979Y0285833D01*
X0186979Y0286832D02*
X0182692Y0286832D01*
X0182692Y0287830D02*
X0186979Y0287830D01*
X0186979Y0288829D02*
X0182692Y0288829D01*
X0182692Y0289827D02*
X0186979Y0289827D01*
X0186979Y0290826D02*
X0182692Y0290826D01*
X0182692Y0291824D02*
X0186979Y0291824D01*
X0186979Y0292823D02*
X0182692Y0292823D01*
X0182692Y0293821D02*
X0186979Y0293821D01*
X0186979Y0294820D02*
X0182692Y0294820D01*
X0182692Y0295818D02*
X0186979Y0295818D01*
X0186979Y0296817D02*
X0182692Y0296817D01*
X0182692Y0297815D02*
X0186979Y0297815D01*
X0186979Y0298814D02*
X0182692Y0298814D01*
X0182692Y0299812D02*
X0186979Y0299812D01*
X0186979Y0300811D02*
X0182692Y0300811D01*
X0182692Y0301809D02*
X0186979Y0301809D01*
X0186979Y0302808D02*
X0182692Y0302808D01*
X0182692Y0303807D02*
X0186979Y0303807D01*
X0186979Y0304805D02*
X0182692Y0304805D01*
X0182692Y0305804D02*
X0186979Y0305804D01*
X0186979Y0306802D02*
X0182692Y0306802D01*
X0182692Y0307801D02*
X0186979Y0307801D01*
X0186979Y0308799D02*
X0182692Y0308799D01*
X0182692Y0309798D02*
X0186979Y0309798D01*
X0186979Y0310796D02*
X0182692Y0310796D01*
X0182692Y0311795D02*
X0186979Y0311795D01*
X0186979Y0312793D02*
X0182692Y0312793D01*
X0182692Y0313792D02*
X0186979Y0313792D01*
X0186979Y0314790D02*
X0182692Y0314790D01*
X0182692Y0315789D02*
X0186979Y0315789D01*
X0186979Y0316787D02*
X0182692Y0316787D01*
X0182692Y0317786D02*
X0186979Y0317786D01*
X0186979Y0318784D02*
X0182692Y0318784D01*
X0182692Y0319783D02*
X0186979Y0319783D01*
X0186979Y0320781D02*
X0182692Y0320781D01*
X0182692Y0321780D02*
X0186979Y0321780D01*
X0186979Y0322778D02*
X0182692Y0322778D01*
X0182692Y0323777D02*
X0186979Y0323777D01*
X0186979Y0324775D02*
X0182692Y0324775D01*
X0182692Y0325774D02*
X0186979Y0325774D01*
X0186979Y0326772D02*
X0182692Y0326772D01*
X0182692Y0327771D02*
X0186979Y0327771D01*
X0186979Y0328769D02*
X0182692Y0328769D01*
X0183614Y0329768D02*
X0186979Y0329768D01*
X0187234Y0330766D02*
X0184624Y0330766D01*
X0185634Y0331765D02*
X0188034Y0331765D01*
X0189033Y0332763D02*
X0186644Y0332763D01*
X0187654Y0333762D02*
X0190031Y0333762D01*
X0191030Y0334760D02*
X0188664Y0334760D01*
X0189674Y0335759D02*
X0192028Y0335759D01*
X0192681Y0336757D02*
X0190684Y0336757D01*
X0191694Y0337756D02*
X0192681Y0337756D01*
X0192704Y0338754D02*
X0192825Y0338754D01*
X0193714Y0339753D02*
X0193824Y0339753D01*
X0194724Y0340751D02*
X0194822Y0340751D01*
X0194837Y0330766D02*
X0194390Y0330766D01*
X0193838Y0329768D02*
X0193391Y0329768D01*
X0192840Y0328769D02*
X0192393Y0328769D01*
X0192179Y0327771D02*
X0192681Y0327771D01*
X0192681Y0326772D02*
X0192179Y0326772D01*
X0192179Y0325774D02*
X0192681Y0325774D01*
X0192681Y0324775D02*
X0192179Y0324775D01*
X0192179Y0323777D02*
X0193373Y0323777D01*
X0194371Y0322778D02*
X0192179Y0322778D01*
X0192179Y0321780D02*
X0195370Y0321780D01*
X0205379Y0299812D02*
X0426323Y0299812D01*
X0425324Y0298814D02*
X0205379Y0298814D01*
X0205379Y0289827D02*
X0425630Y0289827D01*
X0424632Y0288829D02*
X0205379Y0288829D01*
X0205658Y0287830D02*
X0423700Y0287830D01*
X0422701Y0286832D02*
X0206656Y0286832D01*
X0207655Y0285833D02*
X0421703Y0285833D01*
X0425063Y0281839D02*
X0426649Y0281839D01*
X0426644Y0280841D02*
X0424064Y0280841D01*
X0429717Y0291843D02*
X0431080Y0291843D01*
X0433717Y0294479D01*
X0433717Y0295843D01*
X0429717Y0295843D01*
X0429717Y0295842D02*
X0429717Y0291843D01*
X0429717Y0292823D02*
X0428717Y0292823D01*
X0428717Y0293821D02*
X0429717Y0293821D01*
X0429717Y0294820D02*
X0428717Y0294820D01*
X0428717Y0295818D02*
X0429717Y0295818D01*
X0432061Y0292823D02*
X0434379Y0292823D01*
X0434379Y0293821D02*
X0433059Y0293821D01*
X0433717Y0294820D02*
X0434379Y0294820D01*
X0434379Y0295818D02*
X0433717Y0295818D01*
X0434379Y0269857D02*
X0411281Y0269857D01*
X0410282Y0268859D02*
X0434379Y0268859D01*
X0434379Y0267860D02*
X0409284Y0267860D01*
X0408285Y0266862D02*
X0434379Y0266862D01*
X0434379Y0265863D02*
X0407286Y0265863D01*
X0406288Y0264865D02*
X0434379Y0264865D01*
X0434379Y0263866D02*
X0405289Y0263866D01*
X0404291Y0262868D02*
X0434379Y0262868D01*
X0434379Y0261869D02*
X0403292Y0261869D01*
X0402294Y0260871D02*
X0434379Y0260871D01*
X0434379Y0259872D02*
X0401295Y0259872D01*
X0400297Y0258874D02*
X0434379Y0258874D01*
X0434379Y0257875D02*
X0399298Y0257875D01*
X0395939Y0261869D02*
X0393092Y0261869D01*
X0392094Y0260871D02*
X0394940Y0260871D01*
X0393942Y0259872D02*
X0391095Y0259872D01*
X0390097Y0258874D02*
X0392943Y0258874D01*
X0391945Y0257875D02*
X0389098Y0257875D01*
X0388100Y0256876D02*
X0390946Y0256876D01*
X0394091Y0262868D02*
X0396937Y0262868D01*
X0397936Y0263866D02*
X0395089Y0263866D01*
X0396088Y0264865D02*
X0398934Y0264865D01*
X0399933Y0265863D02*
X0397086Y0265863D01*
X0398085Y0266862D02*
X0400931Y0266862D01*
X0401930Y0267860D02*
X0399084Y0267860D01*
X0400082Y0268859D02*
X0402928Y0268859D01*
X0403927Y0269857D02*
X0401081Y0269857D01*
X0402079Y0270856D02*
X0404925Y0270856D01*
X0405924Y0271854D02*
X0403078Y0271854D01*
X0404076Y0272853D02*
X0406922Y0272853D01*
X0407921Y0273851D02*
X0405075Y0273851D01*
X0406073Y0274850D02*
X0408919Y0274850D01*
X0414474Y0242897D02*
X0415591Y0242897D01*
X0416589Y0241899D02*
X0414121Y0241899D01*
X0413544Y0240900D02*
X0416703Y0240900D01*
X0415705Y0239902D02*
X0412968Y0239902D01*
X0412050Y0238903D02*
X0414706Y0238903D01*
X0414217Y0237905D02*
X0411051Y0237905D01*
X0409471Y0236906D02*
X0414217Y0236906D01*
X0414217Y0235908D02*
X0406998Y0235908D01*
X0401435Y0235908D02*
X0111998Y0235908D01*
X0114471Y0236906D02*
X0398962Y0236906D01*
X0397382Y0237905D02*
X0116051Y0237905D01*
X0117050Y0238903D02*
X0141868Y0238903D01*
X0141384Y0239104D02*
X0143222Y0238343D01*
X0145211Y0238343D01*
X0147049Y0239104D01*
X0148455Y0240510D01*
X0149217Y0242348D01*
X0149217Y0250337D01*
X0148455Y0252175D01*
X0147049Y0253581D01*
X0145211Y0254343D01*
X0143222Y0254343D01*
X0141384Y0253581D01*
X0139978Y0252175D01*
X0139217Y0250337D01*
X0139217Y0242348D01*
X0139978Y0240510D01*
X0141384Y0239104D01*
X0140586Y0239902D02*
X0117968Y0239902D01*
X0118544Y0240900D02*
X0139816Y0240900D01*
X0139403Y0241899D02*
X0119121Y0241899D01*
X0119474Y0242897D02*
X0139217Y0242897D01*
X0139217Y0243896D02*
X0119741Y0243896D01*
X0120009Y0244894D02*
X0139217Y0244894D01*
X0139217Y0245893D02*
X0120016Y0245893D01*
X0120016Y0246891D02*
X0139217Y0246891D01*
X0139217Y0247890D02*
X0119982Y0247890D01*
X0119715Y0248888D02*
X0139217Y0248888D01*
X0139217Y0249887D02*
X0119447Y0249887D01*
X0119064Y0250885D02*
X0139444Y0250885D01*
X0139857Y0251884D02*
X0118487Y0251884D01*
X0117911Y0252882D02*
X0140685Y0252882D01*
X0142108Y0253881D02*
X0116950Y0253881D01*
X0115952Y0254879D02*
X0197012Y0254879D01*
X0196325Y0253881D02*
X0198019Y0253881D01*
X0197049Y0253581D02*
X0195211Y0254343D01*
X0193222Y0254343D01*
X0191384Y0253581D01*
X0189978Y0252175D01*
X0189217Y0250337D01*
X0189217Y0242348D01*
X0189978Y0240510D01*
X0191384Y0239104D01*
X0193222Y0238343D01*
X0195211Y0238343D01*
X0197049Y0239104D01*
X0198455Y0240510D01*
X0199217Y0242348D01*
X0199217Y0250337D01*
X0198455Y0252175D01*
X0197049Y0253581D01*
X0197748Y0252882D02*
X0199026Y0252882D01*
X0198576Y0251884D02*
X0199857Y0251884D01*
X0199444Y0250885D02*
X0198989Y0250885D01*
X0199217Y0249887D02*
X0199217Y0249887D01*
X0199217Y0248888D02*
X0199217Y0248888D01*
X0199217Y0247890D02*
X0199217Y0247890D01*
X0199217Y0246891D02*
X0199217Y0246891D01*
X0199217Y0245893D02*
X0199217Y0245893D01*
X0199217Y0244894D02*
X0199217Y0244894D01*
X0199217Y0243896D02*
X0199217Y0243896D01*
X0199217Y0242897D02*
X0199217Y0242897D01*
X0199030Y0241899D02*
X0199403Y0241899D01*
X0199816Y0240900D02*
X0198617Y0240900D01*
X0197847Y0239902D02*
X0200586Y0239902D01*
X0201868Y0238903D02*
X0196565Y0238903D01*
X0191868Y0238903D02*
X0186565Y0238903D01*
X0187049Y0239104D02*
X0188455Y0240510D01*
X0189217Y0242348D01*
X0189217Y0250337D01*
X0188455Y0252175D01*
X0187049Y0253581D01*
X0185211Y0254343D01*
X0183222Y0254343D01*
X0181384Y0253581D01*
X0179978Y0252175D01*
X0179217Y0250337D01*
X0179217Y0242348D01*
X0179978Y0240510D01*
X0181384Y0239104D01*
X0183222Y0238343D01*
X0185211Y0238343D01*
X0187049Y0239104D01*
X0187847Y0239902D02*
X0190586Y0239902D01*
X0189816Y0240900D02*
X0188617Y0240900D01*
X0189030Y0241899D02*
X0189403Y0241899D01*
X0189217Y0242897D02*
X0189217Y0242897D01*
X0189217Y0243896D02*
X0189217Y0243896D01*
X0189217Y0244894D02*
X0189217Y0244894D01*
X0189217Y0245893D02*
X0189217Y0245893D01*
X0189217Y0246891D02*
X0189217Y0246891D01*
X0189217Y0247890D02*
X0189217Y0247890D01*
X0189217Y0248888D02*
X0189217Y0248888D01*
X0189217Y0249887D02*
X0189217Y0249887D01*
X0188989Y0250885D02*
X0189444Y0250885D01*
X0189857Y0251884D02*
X0188576Y0251884D01*
X0187748Y0252882D02*
X0190685Y0252882D01*
X0192108Y0253881D02*
X0186325Y0253881D01*
X0182108Y0253881D02*
X0176325Y0253881D01*
X0177049Y0253581D02*
X0175211Y0254343D01*
X0173222Y0254343D01*
X0171384Y0253581D01*
X0169978Y0252175D01*
X0169217Y0250337D01*
X0169217Y0242348D01*
X0169978Y0240510D01*
X0171384Y0239104D01*
X0173222Y0238343D01*
X0175211Y0238343D01*
X0177049Y0239104D01*
X0178455Y0240510D01*
X0179217Y0242348D01*
X0179217Y0250337D01*
X0178455Y0252175D01*
X0177049Y0253581D01*
X0177748Y0252882D02*
X0180685Y0252882D01*
X0179857Y0251884D02*
X0178576Y0251884D01*
X0178989Y0250885D02*
X0179444Y0250885D01*
X0179217Y0249887D02*
X0179217Y0249887D01*
X0179217Y0248888D02*
X0179217Y0248888D01*
X0179217Y0247890D02*
X0179217Y0247890D01*
X0179217Y0246891D02*
X0179217Y0246891D01*
X0179217Y0245893D02*
X0179217Y0245893D01*
X0179217Y0244894D02*
X0179217Y0244894D01*
X0179217Y0243896D02*
X0179217Y0243896D01*
X0179217Y0242897D02*
X0179217Y0242897D01*
X0179030Y0241899D02*
X0179403Y0241899D01*
X0179816Y0240900D02*
X0178617Y0240900D01*
X0177847Y0239902D02*
X0180586Y0239902D01*
X0181868Y0238903D02*
X0176565Y0238903D01*
X0171868Y0238903D02*
X0166565Y0238903D01*
X0167049Y0239104D02*
X0168455Y0240510D01*
X0169217Y0242348D01*
X0169217Y0250337D01*
X0168455Y0252175D01*
X0167049Y0253581D01*
X0165211Y0254343D01*
X0163222Y0254343D01*
X0161384Y0253581D01*
X0159978Y0252175D01*
X0159217Y0250337D01*
X0159217Y0242348D01*
X0159978Y0240510D01*
X0161384Y0239104D01*
X0163222Y0238343D01*
X0165211Y0238343D01*
X0167049Y0239104D01*
X0167847Y0239902D02*
X0170586Y0239902D01*
X0169816Y0240900D02*
X0168617Y0240900D01*
X0169030Y0241899D02*
X0169403Y0241899D01*
X0169217Y0242897D02*
X0169217Y0242897D01*
X0169217Y0243896D02*
X0169217Y0243896D01*
X0169217Y0244894D02*
X0169217Y0244894D01*
X0169217Y0245893D02*
X0169217Y0245893D01*
X0169217Y0246891D02*
X0169217Y0246891D01*
X0169217Y0247890D02*
X0169217Y0247890D01*
X0169217Y0248888D02*
X0169217Y0248888D01*
X0169217Y0249887D02*
X0169217Y0249887D01*
X0168989Y0250885D02*
X0169444Y0250885D01*
X0169857Y0251884D02*
X0168576Y0251884D01*
X0167748Y0252882D02*
X0170685Y0252882D01*
X0172108Y0253881D02*
X0166325Y0253881D01*
X0162108Y0253881D02*
X0146325Y0253881D01*
X0147748Y0252882D02*
X0151433Y0252882D01*
X0151285Y0252775D02*
X0150784Y0252274D01*
X0150368Y0251701D01*
X0150046Y0251070D01*
X0149827Y0250396D01*
X0149717Y0249697D01*
X0149717Y0246842D01*
X0153716Y0246842D01*
X0153716Y0245843D01*
X0149717Y0245843D01*
X0149717Y0242988D01*
X0149827Y0242289D01*
X0150046Y0241615D01*
X0150368Y0240984D01*
X0150784Y0240411D01*
X0151285Y0239910D01*
X0151858Y0239494D01*
X0152489Y0239172D01*
X0153163Y0238953D01*
X0153717Y0238866D01*
X0153717Y0245842D01*
X0154717Y0245842D01*
X0154717Y0245843D02*
X0154717Y0246842D01*
X0158717Y0246842D01*
X0158717Y0249697D01*
X0158606Y0250396D01*
X0158387Y0251070D01*
X0158065Y0251701D01*
X0157649Y0252274D01*
X0157148Y0252775D01*
X0156575Y0253191D01*
X0155944Y0253513D01*
X0155270Y0253732D01*
X0154717Y0253819D01*
X0154717Y0246843D01*
X0153717Y0246843D01*
X0153717Y0253819D01*
X0153163Y0253732D01*
X0152489Y0253513D01*
X0151858Y0253191D01*
X0151285Y0252775D01*
X0150501Y0251884D02*
X0148576Y0251884D01*
X0148989Y0250885D02*
X0149986Y0250885D01*
X0149747Y0249887D02*
X0149217Y0249887D01*
X0149217Y0248888D02*
X0149717Y0248888D01*
X0149717Y0247890D02*
X0149217Y0247890D01*
X0149217Y0246891D02*
X0149717Y0246891D01*
X0149217Y0245893D02*
X0153716Y0245893D01*
X0153717Y0246891D02*
X0154717Y0246891D01*
X0154717Y0245893D02*
X0159217Y0245893D01*
X0158717Y0245843D02*
X0154717Y0245843D01*
X0154717Y0245842D02*
X0154717Y0238866D01*
X0155270Y0238953D01*
X0155944Y0239172D01*
X0156575Y0239494D01*
X0157148Y0239910D01*
X0157649Y0240411D01*
X0158065Y0240984D01*
X0158387Y0241615D01*
X0158606Y0242289D01*
X0158717Y0242988D01*
X0158717Y0245843D01*
X0158717Y0244894D02*
X0159217Y0244894D01*
X0159217Y0243896D02*
X0158717Y0243896D01*
X0158702Y0242897D02*
X0159217Y0242897D01*
X0159403Y0241899D02*
X0158479Y0241899D01*
X0158004Y0240900D02*
X0159816Y0240900D01*
X0160586Y0239902D02*
X0157137Y0239902D01*
X0154954Y0238903D02*
X0161868Y0238903D01*
X0154717Y0238903D02*
X0153717Y0238903D01*
X0153479Y0238903D02*
X0146565Y0238903D01*
X0147847Y0239902D02*
X0151296Y0239902D01*
X0150429Y0240900D02*
X0148617Y0240900D01*
X0149030Y0241899D02*
X0149954Y0241899D01*
X0149731Y0242897D02*
X0149217Y0242897D01*
X0149217Y0243896D02*
X0149717Y0243896D01*
X0149717Y0244894D02*
X0149217Y0244894D01*
X0153717Y0244894D02*
X0154717Y0244894D01*
X0154717Y0243896D02*
X0153717Y0243896D01*
X0153717Y0242897D02*
X0154717Y0242897D01*
X0154717Y0241899D02*
X0153717Y0241899D01*
X0153717Y0240900D02*
X0154717Y0240900D01*
X0154717Y0239902D02*
X0153717Y0239902D01*
X0153717Y0247890D02*
X0154717Y0247890D01*
X0154717Y0248888D02*
X0153717Y0248888D01*
X0153717Y0249887D02*
X0154717Y0249887D01*
X0154717Y0250885D02*
X0153717Y0250885D01*
X0153717Y0251884D02*
X0154717Y0251884D01*
X0154717Y0252882D02*
X0153717Y0252882D01*
X0157000Y0252882D02*
X0160685Y0252882D01*
X0159857Y0251884D02*
X0157932Y0251884D01*
X0158447Y0250885D02*
X0159444Y0250885D01*
X0159217Y0249887D02*
X0158686Y0249887D01*
X0158717Y0248888D02*
X0159217Y0248888D01*
X0159217Y0247890D02*
X0158717Y0247890D01*
X0158717Y0246891D02*
X0159217Y0246891D01*
X0182917Y0268859D02*
X0045306Y0268859D01*
X0047035Y0267860D02*
X0183924Y0267860D01*
X0184931Y0266862D02*
X0048064Y0266862D01*
X0049063Y0265863D02*
X0185937Y0265863D01*
X0186944Y0264865D02*
X0049663Y0264865D01*
X0050239Y0263866D02*
X0187951Y0263866D01*
X0188958Y0262868D02*
X0050668Y0262868D01*
X0050935Y0261869D02*
X0189965Y0261869D01*
X0190971Y0260871D02*
X0051203Y0260871D01*
X0051276Y0259872D02*
X0191978Y0259872D01*
X0192985Y0258874D02*
X0051276Y0258874D01*
X0051276Y0257875D02*
X0193992Y0257875D01*
X0194999Y0256876D02*
X0111628Y0256876D01*
X0114299Y0255878D02*
X0196005Y0255878D01*
X0231325Y0253881D02*
X0232253Y0253881D01*
X0232748Y0252882D02*
X0233252Y0252882D01*
X0233576Y0251884D02*
X0234250Y0251884D01*
X0234444Y0250885D02*
X0233989Y0250885D01*
X0234217Y0249887D02*
X0234217Y0249887D01*
X0234217Y0248888D02*
X0234217Y0248888D01*
X0234217Y0247890D02*
X0234217Y0247890D01*
X0234217Y0246891D02*
X0234217Y0246891D01*
X0234217Y0245893D02*
X0234217Y0245893D01*
X0234217Y0244894D02*
X0234217Y0244894D01*
X0234217Y0243896D02*
X0234217Y0243896D01*
X0234217Y0242897D02*
X0234217Y0242897D01*
X0234030Y0241899D02*
X0234403Y0241899D01*
X0234816Y0240900D02*
X0233617Y0240900D01*
X0232847Y0239902D02*
X0235586Y0239902D01*
X0236868Y0238903D02*
X0231565Y0238903D01*
X0194416Y0352734D02*
X0156106Y0352734D01*
X0156106Y0353732D02*
X0193417Y0353732D01*
X0192681Y0354731D02*
X0156106Y0354731D01*
X0156106Y0355729D02*
X0192681Y0355729D01*
X0192681Y0356728D02*
X0156106Y0356728D01*
X0156106Y0357726D02*
X0192681Y0357726D01*
X0192795Y0358725D02*
X0156106Y0358725D01*
X0156106Y0359723D02*
X0193794Y0359723D01*
X0194792Y0360722D02*
X0156106Y0360722D01*
X0156106Y0361720D02*
X0195429Y0361720D01*
X0195610Y0361539D02*
X0199752Y0361539D01*
X0202681Y0364468D01*
X0202681Y0368610D01*
X0199752Y0371539D01*
X0195610Y0371539D01*
X0192681Y0368610D01*
X0192681Y0364468D01*
X0195610Y0361539D01*
X0194431Y0362719D02*
X0156106Y0362719D01*
X0156106Y0363717D02*
X0193432Y0363717D01*
X0192681Y0364716D02*
X0156106Y0364716D01*
X0156106Y0365714D02*
X0192681Y0365714D01*
X0192681Y0366713D02*
X0156106Y0366713D01*
X0156106Y0367711D02*
X0192681Y0367711D01*
X0192780Y0368710D02*
X0156106Y0368710D01*
X0156106Y0369708D02*
X0193779Y0369708D01*
X0194777Y0370707D02*
X0156106Y0370707D01*
X0156106Y0371705D02*
X0195444Y0371705D01*
X0195610Y0371539D02*
X0199752Y0371539D01*
X0202681Y0374468D01*
X0202681Y0378610D01*
X0199752Y0381539D01*
X0195610Y0381539D01*
X0192681Y0378610D01*
X0192681Y0374468D01*
X0195610Y0371539D01*
X0194446Y0372704D02*
X0156106Y0372704D01*
X0156106Y0373702D02*
X0193447Y0373702D01*
X0192681Y0374701D02*
X0156106Y0374701D01*
X0156106Y0375699D02*
X0192681Y0375699D01*
X0192681Y0376698D02*
X0156106Y0376698D01*
X0156106Y0377696D02*
X0192681Y0377696D01*
X0192766Y0378695D02*
X0156106Y0378695D01*
X0156106Y0379693D02*
X0193764Y0379693D01*
X0194763Y0380692D02*
X0156106Y0380692D01*
X0156106Y0381690D02*
X0371682Y0381690D01*
X0371217Y0381498D02*
X0369337Y0379617D01*
X0368319Y0377160D01*
X0368319Y0374501D01*
X0369337Y0372044D01*
X0371217Y0370163D01*
X0373674Y0369146D01*
X0385704Y0369146D01*
X0388161Y0370163D01*
X0390041Y0372044D01*
X0391059Y0374501D01*
X0391059Y0377160D01*
X0390041Y0379617D01*
X0388161Y0381498D01*
X0385704Y0382516D01*
X0373674Y0382516D01*
X0371217Y0381498D01*
X0370411Y0380692D02*
X0200600Y0380692D01*
X0201598Y0379693D02*
X0369413Y0379693D01*
X0368954Y0378695D02*
X0202597Y0378695D01*
X0202681Y0377696D02*
X0368541Y0377696D01*
X0368319Y0376698D02*
X0202681Y0376698D01*
X0202681Y0375699D02*
X0368319Y0375699D01*
X0368319Y0374701D02*
X0202681Y0374701D01*
X0201915Y0373702D02*
X0368650Y0373702D01*
X0369063Y0372704D02*
X0200917Y0372704D01*
X0199918Y0371705D02*
X0369675Y0371705D01*
X0370674Y0370707D02*
X0200585Y0370707D01*
X0201583Y0369708D02*
X0372316Y0369708D01*
X0372321Y0361720D02*
X0199933Y0361720D01*
X0200570Y0360722D02*
X0370833Y0360722D01*
X0369958Y0359723D02*
X0201568Y0359723D01*
X0202567Y0358725D02*
X0369376Y0358725D01*
X0369014Y0357726D02*
X0202681Y0357726D01*
X0202681Y0356728D02*
X0368834Y0356728D01*
X0387062Y0369708D02*
X0419251Y0369708D01*
X0420249Y0368710D02*
X0202582Y0368710D01*
X0202681Y0367711D02*
X0421248Y0367711D01*
X0422246Y0366713D02*
X0202681Y0366713D01*
X0202681Y0365714D02*
X0423245Y0365714D01*
X0424243Y0364716D02*
X0202681Y0364716D01*
X0201930Y0363717D02*
X0424559Y0363717D01*
X0424559Y0362719D02*
X0200931Y0362719D01*
X0156106Y0382689D02*
X0406270Y0382689D01*
X0405271Y0383687D02*
X0156106Y0383687D01*
X0156106Y0384686D02*
X0404273Y0384686D01*
X0403274Y0385684D02*
X0156106Y0385684D01*
X0156106Y0386683D02*
X0402276Y0386683D01*
X0401277Y0387681D02*
X0156106Y0387681D01*
X0156106Y0388680D02*
X0400279Y0388680D01*
X0399280Y0389678D02*
X0156106Y0389678D01*
X0156106Y0390677D02*
X0398282Y0390677D01*
X0397283Y0391676D02*
X0156106Y0391676D01*
X0156106Y0392674D02*
X0396285Y0392674D01*
X0395286Y0393673D02*
X0156106Y0393673D01*
X0156106Y0394671D02*
X0394288Y0394671D01*
X0393289Y0395670D02*
X0156106Y0395670D01*
X0156106Y0396668D02*
X0370993Y0396668D01*
X0369895Y0397667D02*
X0156106Y0397667D01*
X0156106Y0398665D02*
X0368924Y0398665D01*
X0368510Y0399664D02*
X0156106Y0399664D01*
X0156106Y0400662D02*
X0368097Y0400662D01*
X0367925Y0401661D02*
X0156106Y0401661D01*
X0156106Y0402659D02*
X0367925Y0402659D01*
X0367925Y0403658D02*
X0156106Y0403658D01*
X0156106Y0404656D02*
X0368307Y0404656D01*
X0368720Y0405655D02*
X0156106Y0405655D01*
X0156106Y0406653D02*
X0369404Y0406653D01*
X0370402Y0407652D02*
X0156106Y0407652D01*
X0156106Y0408650D02*
X0372217Y0408650D01*
X0372715Y0415640D02*
X0156106Y0415640D01*
X0156106Y0416638D02*
X0370608Y0416638D01*
X0369610Y0417637D02*
X0156106Y0417637D01*
X0156106Y0418635D02*
X0368806Y0418635D01*
X0368392Y0419634D02*
X0156106Y0419634D01*
X0156106Y0420632D02*
X0367978Y0420632D01*
X0367925Y0421631D02*
X0180073Y0421631D01*
X0181259Y0421949D02*
X0183721Y0423370D01*
X0185732Y0425381D01*
X0187154Y0427843D01*
X0187890Y0430590D01*
X0187890Y0433434D01*
X0187154Y0436180D01*
X0185732Y0438643D01*
X0183721Y0440653D01*
X0181259Y0442075D01*
X0178512Y0442811D01*
X0175669Y0442811D01*
X0172922Y0442075D01*
X0170460Y0440653D01*
X0168449Y0438643D01*
X0167027Y0436180D01*
X0166291Y0433434D01*
X0166291Y0430590D01*
X0167027Y0427843D01*
X0168449Y0425381D01*
X0170460Y0423370D01*
X0172922Y0421949D01*
X0175669Y0421213D01*
X0178512Y0421213D01*
X0181259Y0421949D01*
X0182438Y0422629D02*
X0367925Y0422629D01*
X0368011Y0423628D02*
X0183979Y0423628D01*
X0184978Y0424626D02*
X0368425Y0424626D01*
X0368838Y0425625D02*
X0185873Y0425625D01*
X0186449Y0426623D02*
X0369689Y0426623D01*
X0370688Y0427622D02*
X0187026Y0427622D01*
X0187362Y0428620D02*
X0372906Y0428620D01*
X0387598Y0396668D02*
X0392291Y0396668D01*
X0387696Y0381690D02*
X0407268Y0381690D01*
X0408267Y0380692D02*
X0388967Y0380692D01*
X0389965Y0379693D02*
X0409265Y0379693D01*
X0410264Y0378695D02*
X0390423Y0378695D01*
X0390837Y0377696D02*
X0411262Y0377696D01*
X0412261Y0376698D02*
X0391059Y0376698D01*
X0391059Y0375699D02*
X0413260Y0375699D01*
X0414258Y0374701D02*
X0391059Y0374701D01*
X0390728Y0373702D02*
X0415257Y0373702D01*
X0416255Y0372704D02*
X0390315Y0372704D01*
X0389703Y0371705D02*
X0417254Y0371705D01*
X0418252Y0370707D02*
X0388704Y0370707D01*
X0434402Y0429619D02*
X0187630Y0429619D01*
X0187890Y0430617D02*
X0434402Y0430617D01*
X0434442Y0431616D02*
X0187890Y0431616D01*
X0187890Y0432614D02*
X0434710Y0432614D01*
X0434977Y0433613D02*
X0187842Y0433613D01*
X0187574Y0434612D02*
X0435368Y0434612D01*
X0435945Y0435610D02*
X0187307Y0435610D01*
X0186906Y0436609D02*
X0436521Y0436609D01*
X0437492Y0437607D02*
X0186330Y0437607D01*
X0185754Y0438606D02*
X0438491Y0438606D01*
X0440162Y0439604D02*
X0184771Y0439604D01*
X0183772Y0440603D02*
X0442884Y0440603D01*
X0447518Y0440603D02*
X0458408Y0440603D01*
X0457409Y0441601D02*
X0182080Y0441601D01*
X0179301Y0442600D02*
X0455965Y0442600D01*
X0454471Y0443598D02*
X0162331Y0443598D01*
X0161079Y0442600D02*
X0174880Y0442600D01*
X0172101Y0441601D02*
X0160185Y0441601D01*
X0159389Y0440603D02*
X0170409Y0440603D01*
X0169410Y0439604D02*
X0158593Y0439604D01*
X0158102Y0438606D02*
X0168428Y0438606D01*
X0167851Y0437607D02*
X0157621Y0437607D01*
X0157140Y0436609D02*
X0167275Y0436609D01*
X0166875Y0435610D02*
X0156843Y0435610D01*
X0156615Y0434612D02*
X0166607Y0434612D01*
X0166339Y0433613D02*
X0156387Y0433613D01*
X0156195Y0432614D02*
X0166291Y0432614D01*
X0166291Y0431616D02*
X0156139Y0431616D01*
X0156106Y0430617D02*
X0166291Y0430617D01*
X0166552Y0429619D02*
X0156106Y0429619D01*
X0156106Y0428620D02*
X0166819Y0428620D01*
X0167155Y0427622D02*
X0156106Y0427622D01*
X0156106Y0426623D02*
X0167732Y0426623D01*
X0168308Y0425625D02*
X0156106Y0425625D01*
X0156106Y0424626D02*
X0169204Y0424626D01*
X0170202Y0423628D02*
X0156106Y0423628D01*
X0156106Y0422629D02*
X0171743Y0422629D01*
X0174108Y0421631D02*
X0156106Y0421631D01*
X0163583Y0444597D02*
X0452692Y0444597D01*
X0450282Y0445595D02*
X0165631Y0445595D01*
X0168636Y0446594D02*
X0446498Y0446594D01*
X0450239Y0439604D02*
X0459406Y0439604D01*
X0460405Y0438606D02*
X0451911Y0438606D01*
X0452909Y0437607D02*
X0461137Y0437607D01*
X0461804Y0436609D02*
X0453880Y0436609D01*
X0454457Y0435610D02*
X0462471Y0435610D01*
X0463138Y0434612D02*
X0455033Y0434612D01*
X0455424Y0433613D02*
X0463570Y0433613D01*
X0463983Y0432614D02*
X0455692Y0432614D01*
X0455960Y0431616D02*
X0464397Y0431616D01*
X0464810Y0430617D02*
X0456000Y0430617D01*
X0456000Y0429619D02*
X0465090Y0429619D01*
X0465288Y0428620D02*
X0456000Y0428620D01*
X0455732Y0427622D02*
X0465487Y0427622D01*
X0465686Y0426623D02*
X0455465Y0426623D01*
X0455120Y0425625D02*
X0465876Y0425625D01*
X0465925Y0424626D02*
X0454543Y0424626D01*
X0453967Y0423628D02*
X0465975Y0423628D01*
X0465988Y0422629D02*
X0453059Y0422629D01*
X0452061Y0421631D02*
X0466185Y0421631D01*
X0466185Y0420632D02*
X0450499Y0420632D01*
X0448077Y0419634D02*
X0466185Y0419634D01*
X0394312Y0241899D02*
X0394030Y0241899D01*
X0393617Y0240900D02*
X0394889Y0240900D01*
X0395465Y0239902D02*
X0392847Y0239902D01*
X0391565Y0238903D02*
X0396383Y0238903D01*
X0433717Y0075147D02*
X0466185Y0075147D01*
X0466185Y0074149D02*
X0433387Y0074149D01*
X0432388Y0073150D02*
X0466185Y0073150D01*
X0466185Y0072152D02*
X0431390Y0072152D01*
X0207462Y0049186D02*
X0202131Y0049186D01*
X0203130Y0050185D02*
X0206010Y0050185D01*
X0205266Y0051183D02*
X0203734Y0051183D01*
X0204148Y0052182D02*
X0204862Y0052182D01*
X0204717Y0053180D02*
X0204217Y0053180D01*
X0204217Y0054179D02*
X0204717Y0054179D01*
X0204717Y0055177D02*
X0204217Y0055177D01*
X0196302Y0049186D02*
X0192131Y0049186D01*
X0193130Y0050185D02*
X0195303Y0050185D01*
X0194699Y0051183D02*
X0193734Y0051183D01*
X0194148Y0052182D02*
X0194285Y0052182D01*
X0194217Y0053180D02*
X0194217Y0053180D01*
X0194217Y0054179D02*
X0194217Y0054179D01*
X0194217Y0055177D02*
X0194217Y0055177D01*
X0194217Y0056176D02*
X0194217Y0056176D01*
X0194217Y0057174D02*
X0194217Y0057174D01*
X0194217Y0058173D02*
X0194217Y0058173D01*
X0194217Y0059171D02*
X0194217Y0059171D01*
X0194217Y0060170D02*
X0194217Y0060170D01*
X0193872Y0061168D02*
X0194561Y0061168D01*
X0194974Y0062167D02*
X0193459Y0062167D01*
X0192465Y0063165D02*
X0195968Y0063165D01*
X0197791Y0064164D02*
X0190643Y0064164D01*
X0098986Y0249887D02*
X0045984Y0249887D01*
X0047457Y0250885D02*
X0099370Y0250885D01*
X0099946Y0251884D02*
X0048456Y0251884D01*
X0049312Y0252882D02*
X0100523Y0252882D01*
X0101483Y0253881D02*
X0049888Y0253881D01*
X0050465Y0254879D02*
X0102481Y0254879D01*
X0104134Y0255878D02*
X0050773Y0255878D01*
X0051040Y0256876D02*
X0106805Y0256876D01*
D14*
X0429217Y0246343D02*
X0429579Y0246832D01*
X0429579Y0248032D01*
X0437379Y0255832D01*
X0437379Y0300232D01*
X0431379Y0306232D01*
X0429579Y0306232D01*
X0429217Y0306343D01*
D15*
X0429217Y0316343D02*
X0443705Y0316343D01*
X0444020Y0316657D01*
X0444020Y0385949D01*
X0408587Y0421382D01*
X0380004Y0421382D01*
X0379295Y0422091D01*
X0379295Y0402406D02*
X0380004Y0401697D01*
X0393626Y0401697D01*
X0429059Y0366264D01*
X0429059Y0362327D01*
X0429217Y0362169D01*
X0429217Y0326343D01*
D16*
X0428379Y0287032D02*
X0426579Y0287032D01*
X0422379Y0282832D01*
X0410379Y0282832D01*
X0379779Y0252232D01*
X0379779Y0246832D01*
X0379217Y0246343D01*
X0389217Y0246343D02*
X0389379Y0246832D01*
X0389379Y0251632D01*
X0410979Y0273232D01*
X0422979Y0273232D01*
X0426579Y0276832D01*
X0428979Y0276832D01*
X0429217Y0276343D01*
X0429217Y0286343D02*
X0428979Y0286432D01*
X0428379Y0287032D01*
X0238779Y0251032D02*
X0238779Y0246832D01*
X0239217Y0246343D01*
X0238779Y0251032D02*
X0202779Y0287032D01*
X0202779Y0320632D01*
X0197379Y0326032D01*
X0197681Y0326539D01*
X0189579Y0329632D02*
X0196179Y0336232D01*
X0197379Y0336232D01*
X0197681Y0336539D01*
X0197681Y0346539D02*
X0197379Y0347032D01*
X0180092Y0329943D01*
X0180092Y0275322D01*
X0203979Y0251632D01*
X0203979Y0246832D01*
X0204217Y0246343D01*
X0214179Y0246832D02*
X0214217Y0246343D01*
X0214179Y0246832D02*
X0214179Y0251632D01*
X0189579Y0276232D01*
X0189579Y0329632D01*
M02*
