G75*
%MOIN*%
%OFA0B0*%
%FSLAX25Y25*%
%IPPOS*%
%LPD*%
%AMOC8*
5,1,8,0,0,1.08239X$1,22.5*
%
%ADD10C,0.01000*%
%ADD11C,0.00000*%
D10*
X0040280Y0018232D02*
X0446579Y0018232D01*
X0446579Y0018233D02*
X0447174Y0018240D01*
X0447768Y0018262D01*
X0448361Y0018298D01*
X0448954Y0018348D01*
X0449545Y0018412D01*
X0450134Y0018491D01*
X0450722Y0018584D01*
X0451306Y0018691D01*
X0451889Y0018813D01*
X0452468Y0018948D01*
X0453043Y0019097D01*
X0453615Y0019260D01*
X0454183Y0019437D01*
X0454746Y0019628D01*
X0455304Y0019832D01*
X0455858Y0020050D01*
X0456406Y0020280D01*
X0456948Y0020524D01*
X0457484Y0020782D01*
X0458014Y0021051D01*
X0458537Y0021334D01*
X0459053Y0021629D01*
X0459562Y0021937D01*
X0460063Y0022257D01*
X0460557Y0022589D01*
X0461042Y0022932D01*
X0461519Y0023288D01*
X0461987Y0023654D01*
X0462446Y0024032D01*
X0462896Y0024421D01*
X0463336Y0024821D01*
X0463767Y0025231D01*
X0464187Y0025651D01*
X0464597Y0026082D01*
X0464997Y0026522D01*
X0465386Y0026972D01*
X0465764Y0027431D01*
X0466130Y0027899D01*
X0466486Y0028376D01*
X0466829Y0028861D01*
X0467161Y0029355D01*
X0467481Y0029856D01*
X0467789Y0030365D01*
X0468084Y0030881D01*
X0468367Y0031404D01*
X0468636Y0031934D01*
X0468894Y0032470D01*
X0469138Y0033012D01*
X0469368Y0033560D01*
X0469586Y0034114D01*
X0469790Y0034672D01*
X0469981Y0035235D01*
X0470158Y0035803D01*
X0470321Y0036375D01*
X0470470Y0036950D01*
X0470605Y0037529D01*
X0470727Y0038112D01*
X0470834Y0038696D01*
X0470927Y0039284D01*
X0471006Y0039873D01*
X0471070Y0040464D01*
X0471120Y0041057D01*
X0471156Y0041650D01*
X0471178Y0042244D01*
X0471185Y0042839D01*
X0471185Y0423547D01*
X0470988Y0423350D02*
X0470980Y0424044D01*
X0470954Y0424739D01*
X0470913Y0425432D01*
X0470854Y0426124D01*
X0470778Y0426814D01*
X0470686Y0427503D01*
X0470578Y0428189D01*
X0470453Y0428872D01*
X0470311Y0429552D01*
X0470153Y0430228D01*
X0469979Y0430900D01*
X0469788Y0431568D01*
X0469581Y0432231D01*
X0469359Y0432889D01*
X0469120Y0433541D01*
X0468866Y0434188D01*
X0468597Y0434828D01*
X0468312Y0435461D01*
X0468011Y0436087D01*
X0467696Y0436706D01*
X0467366Y0437317D01*
X0467021Y0437920D01*
X0466662Y0438514D01*
X0466288Y0439100D01*
X0465901Y0439676D01*
X0465499Y0440243D01*
X0465084Y0440800D01*
X0464656Y0441347D01*
X0464214Y0441883D01*
X0463760Y0442408D01*
X0463293Y0442922D01*
X0462814Y0443425D01*
X0462323Y0443916D01*
X0461820Y0444395D01*
X0461306Y0444862D01*
X0460781Y0445316D01*
X0460245Y0445758D01*
X0459698Y0446186D01*
X0459141Y0446601D01*
X0458574Y0447003D01*
X0457998Y0447390D01*
X0457412Y0447764D01*
X0456818Y0448123D01*
X0456215Y0448468D01*
X0455604Y0448798D01*
X0454985Y0449113D01*
X0454359Y0449414D01*
X0453726Y0449699D01*
X0453086Y0449968D01*
X0452439Y0450222D01*
X0451787Y0450461D01*
X0451129Y0450683D01*
X0450466Y0450890D01*
X0449798Y0451081D01*
X0449126Y0451255D01*
X0448450Y0451413D01*
X0447770Y0451555D01*
X0447087Y0451680D01*
X0446401Y0451788D01*
X0445712Y0451880D01*
X0445022Y0451956D01*
X0444330Y0452015D01*
X0443637Y0452056D01*
X0442942Y0452082D01*
X0442248Y0452090D01*
X0442248Y0452091D02*
X0172169Y0452091D01*
X0171660Y0452085D01*
X0171151Y0452066D01*
X0170643Y0452036D01*
X0170136Y0451993D01*
X0169630Y0451937D01*
X0169126Y0451870D01*
X0168623Y0451790D01*
X0168122Y0451699D01*
X0167624Y0451595D01*
X0167128Y0451479D01*
X0166636Y0451351D01*
X0166146Y0451212D01*
X0165660Y0451060D01*
X0165178Y0450897D01*
X0164700Y0450722D01*
X0164226Y0450536D01*
X0163757Y0450338D01*
X0163293Y0450129D01*
X0162834Y0449909D01*
X0162381Y0449678D01*
X0161933Y0449436D01*
X0161491Y0449184D01*
X0161055Y0448920D01*
X0160626Y0448647D01*
X0160204Y0448363D01*
X0159788Y0448068D01*
X0159380Y0447764D01*
X0158980Y0447450D01*
X0158587Y0447127D01*
X0158202Y0446794D01*
X0157825Y0446452D01*
X0157456Y0446101D01*
X0157096Y0445741D01*
X0156745Y0445372D01*
X0156403Y0444995D01*
X0156070Y0444610D01*
X0155747Y0444217D01*
X0155433Y0443817D01*
X0155129Y0443409D01*
X0154834Y0442993D01*
X0154550Y0442571D01*
X0154277Y0442142D01*
X0154013Y0441706D01*
X0153761Y0441264D01*
X0153519Y0440816D01*
X0153288Y0440363D01*
X0153068Y0439904D01*
X0152859Y0439440D01*
X0152661Y0438971D01*
X0152475Y0438497D01*
X0152300Y0438019D01*
X0152137Y0437537D01*
X0151985Y0437051D01*
X0151846Y0436561D01*
X0151718Y0436069D01*
X0151602Y0435573D01*
X0151498Y0435075D01*
X0151407Y0434574D01*
X0151327Y0434071D01*
X0151260Y0433567D01*
X0151204Y0433061D01*
X0151161Y0432554D01*
X0151131Y0432046D01*
X0151112Y0431537D01*
X0151106Y0431028D01*
X0151106Y0300516D01*
X0151107Y0300516D02*
X0151102Y0300093D01*
X0151087Y0299670D01*
X0151061Y0299247D01*
X0151025Y0298825D01*
X0150979Y0298404D01*
X0150923Y0297985D01*
X0150857Y0297566D01*
X0150781Y0297150D01*
X0150694Y0296735D01*
X0150598Y0296323D01*
X0150492Y0295913D01*
X0150375Y0295506D01*
X0150250Y0295102D01*
X0150114Y0294701D01*
X0149968Y0294303D01*
X0149814Y0293909D01*
X0149649Y0293519D01*
X0149475Y0293133D01*
X0149292Y0292751D01*
X0149100Y0292374D01*
X0148899Y0292002D01*
X0148689Y0291634D01*
X0148470Y0291272D01*
X0148242Y0290915D01*
X0148006Y0290564D01*
X0147761Y0290218D01*
X0147508Y0289879D01*
X0147247Y0289545D01*
X0146978Y0289218D01*
X0146701Y0288898D01*
X0146416Y0288585D01*
X0146124Y0288278D01*
X0145825Y0287979D01*
X0145518Y0287687D01*
X0145205Y0287402D01*
X0144885Y0287125D01*
X0144558Y0286856D01*
X0144224Y0286595D01*
X0143885Y0286342D01*
X0143539Y0286097D01*
X0143188Y0285861D01*
X0142831Y0285633D01*
X0142469Y0285414D01*
X0142101Y0285204D01*
X0141729Y0285003D01*
X0141352Y0284811D01*
X0140970Y0284628D01*
X0140584Y0284454D01*
X0140194Y0284289D01*
X0139800Y0284135D01*
X0139402Y0283989D01*
X0139001Y0283853D01*
X0138597Y0283728D01*
X0138190Y0283611D01*
X0137780Y0283505D01*
X0137368Y0283409D01*
X0136953Y0283322D01*
X0136537Y0283246D01*
X0136118Y0283180D01*
X0135699Y0283124D01*
X0135278Y0283078D01*
X0134856Y0283042D01*
X0134433Y0283016D01*
X0134010Y0283001D01*
X0133587Y0282996D01*
X0055240Y0282996D01*
X0054289Y0282985D01*
X0053338Y0282950D01*
X0052388Y0282893D01*
X0051440Y0282812D01*
X0050494Y0282709D01*
X0049551Y0282583D01*
X0048612Y0282434D01*
X0047676Y0282263D01*
X0046745Y0282068D01*
X0045818Y0281852D01*
X0044897Y0281613D01*
X0043982Y0281352D01*
X0043074Y0281069D01*
X0042173Y0280764D01*
X0041279Y0280438D01*
X0040394Y0280089D01*
X0039517Y0279720D01*
X0038649Y0279330D01*
X0037792Y0278918D01*
X0036944Y0278486D01*
X0036107Y0278034D01*
X0035281Y0277562D01*
X0034467Y0277070D01*
X0033665Y0276558D01*
X0032875Y0276027D01*
X0032099Y0275477D01*
X0031336Y0274909D01*
X0030587Y0274322D01*
X0029853Y0273717D01*
X0029133Y0273095D01*
X0028428Y0272455D01*
X0027740Y0271799D01*
X0027067Y0271126D01*
X0026411Y0270438D01*
X0025771Y0269733D01*
X0025149Y0269013D01*
X0024544Y0268279D01*
X0023957Y0267530D01*
X0023389Y0266767D01*
X0022839Y0265991D01*
X0022308Y0265201D01*
X0021796Y0264399D01*
X0021304Y0263585D01*
X0020832Y0262759D01*
X0020380Y0261922D01*
X0019948Y0261074D01*
X0019536Y0260217D01*
X0019146Y0259349D01*
X0018777Y0258472D01*
X0018428Y0257587D01*
X0018102Y0256693D01*
X0017797Y0255792D01*
X0017514Y0254884D01*
X0017253Y0253969D01*
X0017014Y0253048D01*
X0016798Y0252121D01*
X0016603Y0251190D01*
X0016432Y0250254D01*
X0016283Y0249315D01*
X0016157Y0248372D01*
X0016054Y0247426D01*
X0015973Y0246478D01*
X0015916Y0245528D01*
X0015881Y0244577D01*
X0015870Y0243626D01*
X0015870Y0042642D01*
X0015871Y0042642D02*
X0015878Y0042052D01*
X0015900Y0041463D01*
X0015935Y0040874D01*
X0015985Y0040286D01*
X0016049Y0039700D01*
X0016127Y0039115D01*
X0016219Y0038533D01*
X0016326Y0037952D01*
X0016446Y0037375D01*
X0016580Y0036801D01*
X0016728Y0036230D01*
X0016890Y0035662D01*
X0017066Y0035099D01*
X0017255Y0034540D01*
X0017457Y0033986D01*
X0017673Y0033437D01*
X0017902Y0032894D01*
X0018144Y0032356D01*
X0018399Y0031824D01*
X0018667Y0031299D01*
X0018947Y0030780D01*
X0019240Y0030268D01*
X0019545Y0029763D01*
X0019863Y0029266D01*
X0020192Y0028776D01*
X0020533Y0028295D01*
X0020885Y0027822D01*
X0021249Y0027357D01*
X0021624Y0026902D01*
X0022010Y0026456D01*
X0022406Y0026019D01*
X0022813Y0025592D01*
X0023230Y0025175D01*
X0023657Y0024768D01*
X0024094Y0024372D01*
X0024540Y0023986D01*
X0024995Y0023611D01*
X0025460Y0023247D01*
X0025933Y0022895D01*
X0026414Y0022554D01*
X0026904Y0022225D01*
X0027401Y0021907D01*
X0027906Y0021602D01*
X0028418Y0021309D01*
X0028937Y0021029D01*
X0029462Y0020761D01*
X0029994Y0020506D01*
X0030532Y0020264D01*
X0031075Y0020035D01*
X0031624Y0019819D01*
X0032178Y0019617D01*
X0032737Y0019428D01*
X0033300Y0019252D01*
X0033868Y0019090D01*
X0034439Y0018942D01*
X0035013Y0018808D01*
X0035590Y0018688D01*
X0036171Y0018581D01*
X0036753Y0018489D01*
X0037338Y0018411D01*
X0037924Y0018347D01*
X0038512Y0018297D01*
X0039101Y0018262D01*
X0039690Y0018240D01*
X0040280Y0018233D01*
D11*
X0035358Y0041067D02*
X0035360Y0041225D01*
X0035366Y0041383D01*
X0035376Y0041541D01*
X0035390Y0041699D01*
X0035408Y0041856D01*
X0035429Y0042013D01*
X0035455Y0042169D01*
X0035485Y0042325D01*
X0035518Y0042480D01*
X0035556Y0042633D01*
X0035597Y0042786D01*
X0035642Y0042938D01*
X0035691Y0043089D01*
X0035744Y0043238D01*
X0035800Y0043386D01*
X0035860Y0043532D01*
X0035924Y0043677D01*
X0035992Y0043820D01*
X0036063Y0043962D01*
X0036137Y0044102D01*
X0036215Y0044239D01*
X0036297Y0044375D01*
X0036381Y0044509D01*
X0036470Y0044640D01*
X0036561Y0044769D01*
X0036656Y0044896D01*
X0036753Y0045021D01*
X0036854Y0045143D01*
X0036958Y0045262D01*
X0037065Y0045379D01*
X0037175Y0045493D01*
X0037288Y0045604D01*
X0037403Y0045713D01*
X0037521Y0045818D01*
X0037642Y0045920D01*
X0037765Y0046020D01*
X0037891Y0046116D01*
X0038019Y0046209D01*
X0038149Y0046299D01*
X0038282Y0046385D01*
X0038417Y0046469D01*
X0038553Y0046548D01*
X0038692Y0046625D01*
X0038833Y0046697D01*
X0038975Y0046767D01*
X0039119Y0046832D01*
X0039265Y0046894D01*
X0039412Y0046952D01*
X0039561Y0047007D01*
X0039711Y0047058D01*
X0039862Y0047105D01*
X0040014Y0047148D01*
X0040167Y0047187D01*
X0040322Y0047223D01*
X0040477Y0047254D01*
X0040633Y0047282D01*
X0040789Y0047306D01*
X0040946Y0047326D01*
X0041104Y0047342D01*
X0041261Y0047354D01*
X0041420Y0047362D01*
X0041578Y0047366D01*
X0041736Y0047366D01*
X0041894Y0047362D01*
X0042053Y0047354D01*
X0042210Y0047342D01*
X0042368Y0047326D01*
X0042525Y0047306D01*
X0042681Y0047282D01*
X0042837Y0047254D01*
X0042992Y0047223D01*
X0043147Y0047187D01*
X0043300Y0047148D01*
X0043452Y0047105D01*
X0043603Y0047058D01*
X0043753Y0047007D01*
X0043902Y0046952D01*
X0044049Y0046894D01*
X0044195Y0046832D01*
X0044339Y0046767D01*
X0044481Y0046697D01*
X0044622Y0046625D01*
X0044761Y0046548D01*
X0044897Y0046469D01*
X0045032Y0046385D01*
X0045165Y0046299D01*
X0045295Y0046209D01*
X0045423Y0046116D01*
X0045549Y0046020D01*
X0045672Y0045920D01*
X0045793Y0045818D01*
X0045911Y0045713D01*
X0046026Y0045604D01*
X0046139Y0045493D01*
X0046249Y0045379D01*
X0046356Y0045262D01*
X0046460Y0045143D01*
X0046561Y0045021D01*
X0046658Y0044896D01*
X0046753Y0044769D01*
X0046844Y0044640D01*
X0046933Y0044509D01*
X0047017Y0044375D01*
X0047099Y0044239D01*
X0047177Y0044102D01*
X0047251Y0043962D01*
X0047322Y0043820D01*
X0047390Y0043677D01*
X0047454Y0043532D01*
X0047514Y0043386D01*
X0047570Y0043238D01*
X0047623Y0043089D01*
X0047672Y0042938D01*
X0047717Y0042786D01*
X0047758Y0042633D01*
X0047796Y0042480D01*
X0047829Y0042325D01*
X0047859Y0042169D01*
X0047885Y0042013D01*
X0047906Y0041856D01*
X0047924Y0041699D01*
X0047938Y0041541D01*
X0047948Y0041383D01*
X0047954Y0041225D01*
X0047956Y0041067D01*
X0047954Y0040909D01*
X0047948Y0040751D01*
X0047938Y0040593D01*
X0047924Y0040435D01*
X0047906Y0040278D01*
X0047885Y0040121D01*
X0047859Y0039965D01*
X0047829Y0039809D01*
X0047796Y0039654D01*
X0047758Y0039501D01*
X0047717Y0039348D01*
X0047672Y0039196D01*
X0047623Y0039045D01*
X0047570Y0038896D01*
X0047514Y0038748D01*
X0047454Y0038602D01*
X0047390Y0038457D01*
X0047322Y0038314D01*
X0047251Y0038172D01*
X0047177Y0038032D01*
X0047099Y0037895D01*
X0047017Y0037759D01*
X0046933Y0037625D01*
X0046844Y0037494D01*
X0046753Y0037365D01*
X0046658Y0037238D01*
X0046561Y0037113D01*
X0046460Y0036991D01*
X0046356Y0036872D01*
X0046249Y0036755D01*
X0046139Y0036641D01*
X0046026Y0036530D01*
X0045911Y0036421D01*
X0045793Y0036316D01*
X0045672Y0036214D01*
X0045549Y0036114D01*
X0045423Y0036018D01*
X0045295Y0035925D01*
X0045165Y0035835D01*
X0045032Y0035749D01*
X0044897Y0035665D01*
X0044761Y0035586D01*
X0044622Y0035509D01*
X0044481Y0035437D01*
X0044339Y0035367D01*
X0044195Y0035302D01*
X0044049Y0035240D01*
X0043902Y0035182D01*
X0043753Y0035127D01*
X0043603Y0035076D01*
X0043452Y0035029D01*
X0043300Y0034986D01*
X0043147Y0034947D01*
X0042992Y0034911D01*
X0042837Y0034880D01*
X0042681Y0034852D01*
X0042525Y0034828D01*
X0042368Y0034808D01*
X0042210Y0034792D01*
X0042053Y0034780D01*
X0041894Y0034772D01*
X0041736Y0034768D01*
X0041578Y0034768D01*
X0041420Y0034772D01*
X0041261Y0034780D01*
X0041104Y0034792D01*
X0040946Y0034808D01*
X0040789Y0034828D01*
X0040633Y0034852D01*
X0040477Y0034880D01*
X0040322Y0034911D01*
X0040167Y0034947D01*
X0040014Y0034986D01*
X0039862Y0035029D01*
X0039711Y0035076D01*
X0039561Y0035127D01*
X0039412Y0035182D01*
X0039265Y0035240D01*
X0039119Y0035302D01*
X0038975Y0035367D01*
X0038833Y0035437D01*
X0038692Y0035509D01*
X0038553Y0035586D01*
X0038417Y0035665D01*
X0038282Y0035749D01*
X0038149Y0035835D01*
X0038019Y0035925D01*
X0037891Y0036018D01*
X0037765Y0036114D01*
X0037642Y0036214D01*
X0037521Y0036316D01*
X0037403Y0036421D01*
X0037288Y0036530D01*
X0037175Y0036641D01*
X0037065Y0036755D01*
X0036958Y0036872D01*
X0036854Y0036991D01*
X0036753Y0037113D01*
X0036656Y0037238D01*
X0036561Y0037365D01*
X0036470Y0037494D01*
X0036381Y0037625D01*
X0036297Y0037759D01*
X0036215Y0037895D01*
X0036137Y0038032D01*
X0036063Y0038172D01*
X0035992Y0038314D01*
X0035924Y0038457D01*
X0035860Y0038602D01*
X0035800Y0038748D01*
X0035744Y0038896D01*
X0035691Y0039045D01*
X0035642Y0039196D01*
X0035597Y0039348D01*
X0035556Y0039501D01*
X0035518Y0039654D01*
X0035485Y0039809D01*
X0035455Y0039965D01*
X0035429Y0040121D01*
X0035408Y0040278D01*
X0035390Y0040435D01*
X0035376Y0040593D01*
X0035366Y0040751D01*
X0035360Y0040909D01*
X0035358Y0041067D01*
X0102918Y0056343D02*
X0102920Y0056501D01*
X0102926Y0056659D01*
X0102936Y0056817D01*
X0102950Y0056975D01*
X0102968Y0057132D01*
X0102989Y0057289D01*
X0103015Y0057445D01*
X0103045Y0057601D01*
X0103078Y0057756D01*
X0103116Y0057909D01*
X0103157Y0058062D01*
X0103202Y0058214D01*
X0103251Y0058365D01*
X0103304Y0058514D01*
X0103360Y0058662D01*
X0103420Y0058808D01*
X0103484Y0058953D01*
X0103552Y0059096D01*
X0103623Y0059238D01*
X0103697Y0059378D01*
X0103775Y0059515D01*
X0103857Y0059651D01*
X0103941Y0059785D01*
X0104030Y0059916D01*
X0104121Y0060045D01*
X0104216Y0060172D01*
X0104313Y0060297D01*
X0104414Y0060419D01*
X0104518Y0060538D01*
X0104625Y0060655D01*
X0104735Y0060769D01*
X0104848Y0060880D01*
X0104963Y0060989D01*
X0105081Y0061094D01*
X0105202Y0061196D01*
X0105325Y0061296D01*
X0105451Y0061392D01*
X0105579Y0061485D01*
X0105709Y0061575D01*
X0105842Y0061661D01*
X0105977Y0061745D01*
X0106113Y0061824D01*
X0106252Y0061901D01*
X0106393Y0061973D01*
X0106535Y0062043D01*
X0106679Y0062108D01*
X0106825Y0062170D01*
X0106972Y0062228D01*
X0107121Y0062283D01*
X0107271Y0062334D01*
X0107422Y0062381D01*
X0107574Y0062424D01*
X0107727Y0062463D01*
X0107882Y0062499D01*
X0108037Y0062530D01*
X0108193Y0062558D01*
X0108349Y0062582D01*
X0108506Y0062602D01*
X0108664Y0062618D01*
X0108821Y0062630D01*
X0108980Y0062638D01*
X0109138Y0062642D01*
X0109296Y0062642D01*
X0109454Y0062638D01*
X0109613Y0062630D01*
X0109770Y0062618D01*
X0109928Y0062602D01*
X0110085Y0062582D01*
X0110241Y0062558D01*
X0110397Y0062530D01*
X0110552Y0062499D01*
X0110707Y0062463D01*
X0110860Y0062424D01*
X0111012Y0062381D01*
X0111163Y0062334D01*
X0111313Y0062283D01*
X0111462Y0062228D01*
X0111609Y0062170D01*
X0111755Y0062108D01*
X0111899Y0062043D01*
X0112041Y0061973D01*
X0112182Y0061901D01*
X0112321Y0061824D01*
X0112457Y0061745D01*
X0112592Y0061661D01*
X0112725Y0061575D01*
X0112855Y0061485D01*
X0112983Y0061392D01*
X0113109Y0061296D01*
X0113232Y0061196D01*
X0113353Y0061094D01*
X0113471Y0060989D01*
X0113586Y0060880D01*
X0113699Y0060769D01*
X0113809Y0060655D01*
X0113916Y0060538D01*
X0114020Y0060419D01*
X0114121Y0060297D01*
X0114218Y0060172D01*
X0114313Y0060045D01*
X0114404Y0059916D01*
X0114493Y0059785D01*
X0114577Y0059651D01*
X0114659Y0059515D01*
X0114737Y0059378D01*
X0114811Y0059238D01*
X0114882Y0059096D01*
X0114950Y0058953D01*
X0115014Y0058808D01*
X0115074Y0058662D01*
X0115130Y0058514D01*
X0115183Y0058365D01*
X0115232Y0058214D01*
X0115277Y0058062D01*
X0115318Y0057909D01*
X0115356Y0057756D01*
X0115389Y0057601D01*
X0115419Y0057445D01*
X0115445Y0057289D01*
X0115466Y0057132D01*
X0115484Y0056975D01*
X0115498Y0056817D01*
X0115508Y0056659D01*
X0115514Y0056501D01*
X0115516Y0056343D01*
X0115514Y0056185D01*
X0115508Y0056027D01*
X0115498Y0055869D01*
X0115484Y0055711D01*
X0115466Y0055554D01*
X0115445Y0055397D01*
X0115419Y0055241D01*
X0115389Y0055085D01*
X0115356Y0054930D01*
X0115318Y0054777D01*
X0115277Y0054624D01*
X0115232Y0054472D01*
X0115183Y0054321D01*
X0115130Y0054172D01*
X0115074Y0054024D01*
X0115014Y0053878D01*
X0114950Y0053733D01*
X0114882Y0053590D01*
X0114811Y0053448D01*
X0114737Y0053308D01*
X0114659Y0053171D01*
X0114577Y0053035D01*
X0114493Y0052901D01*
X0114404Y0052770D01*
X0114313Y0052641D01*
X0114218Y0052514D01*
X0114121Y0052389D01*
X0114020Y0052267D01*
X0113916Y0052148D01*
X0113809Y0052031D01*
X0113699Y0051917D01*
X0113586Y0051806D01*
X0113471Y0051697D01*
X0113353Y0051592D01*
X0113232Y0051490D01*
X0113109Y0051390D01*
X0112983Y0051294D01*
X0112855Y0051201D01*
X0112725Y0051111D01*
X0112592Y0051025D01*
X0112457Y0050941D01*
X0112321Y0050862D01*
X0112182Y0050785D01*
X0112041Y0050713D01*
X0111899Y0050643D01*
X0111755Y0050578D01*
X0111609Y0050516D01*
X0111462Y0050458D01*
X0111313Y0050403D01*
X0111163Y0050352D01*
X0111012Y0050305D01*
X0110860Y0050262D01*
X0110707Y0050223D01*
X0110552Y0050187D01*
X0110397Y0050156D01*
X0110241Y0050128D01*
X0110085Y0050104D01*
X0109928Y0050084D01*
X0109770Y0050068D01*
X0109613Y0050056D01*
X0109454Y0050048D01*
X0109296Y0050044D01*
X0109138Y0050044D01*
X0108980Y0050048D01*
X0108821Y0050056D01*
X0108664Y0050068D01*
X0108506Y0050084D01*
X0108349Y0050104D01*
X0108193Y0050128D01*
X0108037Y0050156D01*
X0107882Y0050187D01*
X0107727Y0050223D01*
X0107574Y0050262D01*
X0107422Y0050305D01*
X0107271Y0050352D01*
X0107121Y0050403D01*
X0106972Y0050458D01*
X0106825Y0050516D01*
X0106679Y0050578D01*
X0106535Y0050643D01*
X0106393Y0050713D01*
X0106252Y0050785D01*
X0106113Y0050862D01*
X0105977Y0050941D01*
X0105842Y0051025D01*
X0105709Y0051111D01*
X0105579Y0051201D01*
X0105451Y0051294D01*
X0105325Y0051390D01*
X0105202Y0051490D01*
X0105081Y0051592D01*
X0104963Y0051697D01*
X0104848Y0051806D01*
X0104735Y0051917D01*
X0104625Y0052031D01*
X0104518Y0052148D01*
X0104414Y0052267D01*
X0104313Y0052389D01*
X0104216Y0052514D01*
X0104121Y0052641D01*
X0104030Y0052770D01*
X0103941Y0052901D01*
X0103857Y0053035D01*
X0103775Y0053171D01*
X0103697Y0053308D01*
X0103623Y0053448D01*
X0103552Y0053590D01*
X0103484Y0053733D01*
X0103420Y0053878D01*
X0103360Y0054024D01*
X0103304Y0054172D01*
X0103251Y0054321D01*
X0103202Y0054472D01*
X0103157Y0054624D01*
X0103116Y0054777D01*
X0103078Y0054930D01*
X0103045Y0055085D01*
X0103015Y0055241D01*
X0102989Y0055397D01*
X0102968Y0055554D01*
X0102950Y0055711D01*
X0102936Y0055869D01*
X0102926Y0056027D01*
X0102920Y0056185D01*
X0102918Y0056343D01*
X0102918Y0246343D02*
X0102920Y0246501D01*
X0102926Y0246659D01*
X0102936Y0246817D01*
X0102950Y0246975D01*
X0102968Y0247132D01*
X0102989Y0247289D01*
X0103015Y0247445D01*
X0103045Y0247601D01*
X0103078Y0247756D01*
X0103116Y0247909D01*
X0103157Y0248062D01*
X0103202Y0248214D01*
X0103251Y0248365D01*
X0103304Y0248514D01*
X0103360Y0248662D01*
X0103420Y0248808D01*
X0103484Y0248953D01*
X0103552Y0249096D01*
X0103623Y0249238D01*
X0103697Y0249378D01*
X0103775Y0249515D01*
X0103857Y0249651D01*
X0103941Y0249785D01*
X0104030Y0249916D01*
X0104121Y0250045D01*
X0104216Y0250172D01*
X0104313Y0250297D01*
X0104414Y0250419D01*
X0104518Y0250538D01*
X0104625Y0250655D01*
X0104735Y0250769D01*
X0104848Y0250880D01*
X0104963Y0250989D01*
X0105081Y0251094D01*
X0105202Y0251196D01*
X0105325Y0251296D01*
X0105451Y0251392D01*
X0105579Y0251485D01*
X0105709Y0251575D01*
X0105842Y0251661D01*
X0105977Y0251745D01*
X0106113Y0251824D01*
X0106252Y0251901D01*
X0106393Y0251973D01*
X0106535Y0252043D01*
X0106679Y0252108D01*
X0106825Y0252170D01*
X0106972Y0252228D01*
X0107121Y0252283D01*
X0107271Y0252334D01*
X0107422Y0252381D01*
X0107574Y0252424D01*
X0107727Y0252463D01*
X0107882Y0252499D01*
X0108037Y0252530D01*
X0108193Y0252558D01*
X0108349Y0252582D01*
X0108506Y0252602D01*
X0108664Y0252618D01*
X0108821Y0252630D01*
X0108980Y0252638D01*
X0109138Y0252642D01*
X0109296Y0252642D01*
X0109454Y0252638D01*
X0109613Y0252630D01*
X0109770Y0252618D01*
X0109928Y0252602D01*
X0110085Y0252582D01*
X0110241Y0252558D01*
X0110397Y0252530D01*
X0110552Y0252499D01*
X0110707Y0252463D01*
X0110860Y0252424D01*
X0111012Y0252381D01*
X0111163Y0252334D01*
X0111313Y0252283D01*
X0111462Y0252228D01*
X0111609Y0252170D01*
X0111755Y0252108D01*
X0111899Y0252043D01*
X0112041Y0251973D01*
X0112182Y0251901D01*
X0112321Y0251824D01*
X0112457Y0251745D01*
X0112592Y0251661D01*
X0112725Y0251575D01*
X0112855Y0251485D01*
X0112983Y0251392D01*
X0113109Y0251296D01*
X0113232Y0251196D01*
X0113353Y0251094D01*
X0113471Y0250989D01*
X0113586Y0250880D01*
X0113699Y0250769D01*
X0113809Y0250655D01*
X0113916Y0250538D01*
X0114020Y0250419D01*
X0114121Y0250297D01*
X0114218Y0250172D01*
X0114313Y0250045D01*
X0114404Y0249916D01*
X0114493Y0249785D01*
X0114577Y0249651D01*
X0114659Y0249515D01*
X0114737Y0249378D01*
X0114811Y0249238D01*
X0114882Y0249096D01*
X0114950Y0248953D01*
X0115014Y0248808D01*
X0115074Y0248662D01*
X0115130Y0248514D01*
X0115183Y0248365D01*
X0115232Y0248214D01*
X0115277Y0248062D01*
X0115318Y0247909D01*
X0115356Y0247756D01*
X0115389Y0247601D01*
X0115419Y0247445D01*
X0115445Y0247289D01*
X0115466Y0247132D01*
X0115484Y0246975D01*
X0115498Y0246817D01*
X0115508Y0246659D01*
X0115514Y0246501D01*
X0115516Y0246343D01*
X0115514Y0246185D01*
X0115508Y0246027D01*
X0115498Y0245869D01*
X0115484Y0245711D01*
X0115466Y0245554D01*
X0115445Y0245397D01*
X0115419Y0245241D01*
X0115389Y0245085D01*
X0115356Y0244930D01*
X0115318Y0244777D01*
X0115277Y0244624D01*
X0115232Y0244472D01*
X0115183Y0244321D01*
X0115130Y0244172D01*
X0115074Y0244024D01*
X0115014Y0243878D01*
X0114950Y0243733D01*
X0114882Y0243590D01*
X0114811Y0243448D01*
X0114737Y0243308D01*
X0114659Y0243171D01*
X0114577Y0243035D01*
X0114493Y0242901D01*
X0114404Y0242770D01*
X0114313Y0242641D01*
X0114218Y0242514D01*
X0114121Y0242389D01*
X0114020Y0242267D01*
X0113916Y0242148D01*
X0113809Y0242031D01*
X0113699Y0241917D01*
X0113586Y0241806D01*
X0113471Y0241697D01*
X0113353Y0241592D01*
X0113232Y0241490D01*
X0113109Y0241390D01*
X0112983Y0241294D01*
X0112855Y0241201D01*
X0112725Y0241111D01*
X0112592Y0241025D01*
X0112457Y0240941D01*
X0112321Y0240862D01*
X0112182Y0240785D01*
X0112041Y0240713D01*
X0111899Y0240643D01*
X0111755Y0240578D01*
X0111609Y0240516D01*
X0111462Y0240458D01*
X0111313Y0240403D01*
X0111163Y0240352D01*
X0111012Y0240305D01*
X0110860Y0240262D01*
X0110707Y0240223D01*
X0110552Y0240187D01*
X0110397Y0240156D01*
X0110241Y0240128D01*
X0110085Y0240104D01*
X0109928Y0240084D01*
X0109770Y0240068D01*
X0109613Y0240056D01*
X0109454Y0240048D01*
X0109296Y0240044D01*
X0109138Y0240044D01*
X0108980Y0240048D01*
X0108821Y0240056D01*
X0108664Y0240068D01*
X0108506Y0240084D01*
X0108349Y0240104D01*
X0108193Y0240128D01*
X0108037Y0240156D01*
X0107882Y0240187D01*
X0107727Y0240223D01*
X0107574Y0240262D01*
X0107422Y0240305D01*
X0107271Y0240352D01*
X0107121Y0240403D01*
X0106972Y0240458D01*
X0106825Y0240516D01*
X0106679Y0240578D01*
X0106535Y0240643D01*
X0106393Y0240713D01*
X0106252Y0240785D01*
X0106113Y0240862D01*
X0105977Y0240941D01*
X0105842Y0241025D01*
X0105709Y0241111D01*
X0105579Y0241201D01*
X0105451Y0241294D01*
X0105325Y0241390D01*
X0105202Y0241490D01*
X0105081Y0241592D01*
X0104963Y0241697D01*
X0104848Y0241806D01*
X0104735Y0241917D01*
X0104625Y0242031D01*
X0104518Y0242148D01*
X0104414Y0242267D01*
X0104313Y0242389D01*
X0104216Y0242514D01*
X0104121Y0242641D01*
X0104030Y0242770D01*
X0103941Y0242901D01*
X0103857Y0243035D01*
X0103775Y0243171D01*
X0103697Y0243308D01*
X0103623Y0243448D01*
X0103552Y0243590D01*
X0103484Y0243733D01*
X0103420Y0243878D01*
X0103360Y0244024D01*
X0103304Y0244172D01*
X0103251Y0244321D01*
X0103202Y0244472D01*
X0103157Y0244624D01*
X0103116Y0244777D01*
X0103078Y0244930D01*
X0103045Y0245085D01*
X0103015Y0245241D01*
X0102989Y0245397D01*
X0102968Y0245554D01*
X0102950Y0245711D01*
X0102936Y0245869D01*
X0102926Y0246027D01*
X0102920Y0246185D01*
X0102918Y0246343D01*
X0034177Y0259177D02*
X0034179Y0259335D01*
X0034185Y0259493D01*
X0034195Y0259651D01*
X0034209Y0259809D01*
X0034227Y0259966D01*
X0034248Y0260123D01*
X0034274Y0260279D01*
X0034304Y0260435D01*
X0034337Y0260590D01*
X0034375Y0260743D01*
X0034416Y0260896D01*
X0034461Y0261048D01*
X0034510Y0261199D01*
X0034563Y0261348D01*
X0034619Y0261496D01*
X0034679Y0261642D01*
X0034743Y0261787D01*
X0034811Y0261930D01*
X0034882Y0262072D01*
X0034956Y0262212D01*
X0035034Y0262349D01*
X0035116Y0262485D01*
X0035200Y0262619D01*
X0035289Y0262750D01*
X0035380Y0262879D01*
X0035475Y0263006D01*
X0035572Y0263131D01*
X0035673Y0263253D01*
X0035777Y0263372D01*
X0035884Y0263489D01*
X0035994Y0263603D01*
X0036107Y0263714D01*
X0036222Y0263823D01*
X0036340Y0263928D01*
X0036461Y0264030D01*
X0036584Y0264130D01*
X0036710Y0264226D01*
X0036838Y0264319D01*
X0036968Y0264409D01*
X0037101Y0264495D01*
X0037236Y0264579D01*
X0037372Y0264658D01*
X0037511Y0264735D01*
X0037652Y0264807D01*
X0037794Y0264877D01*
X0037938Y0264942D01*
X0038084Y0265004D01*
X0038231Y0265062D01*
X0038380Y0265117D01*
X0038530Y0265168D01*
X0038681Y0265215D01*
X0038833Y0265258D01*
X0038986Y0265297D01*
X0039141Y0265333D01*
X0039296Y0265364D01*
X0039452Y0265392D01*
X0039608Y0265416D01*
X0039765Y0265436D01*
X0039923Y0265452D01*
X0040080Y0265464D01*
X0040239Y0265472D01*
X0040397Y0265476D01*
X0040555Y0265476D01*
X0040713Y0265472D01*
X0040872Y0265464D01*
X0041029Y0265452D01*
X0041187Y0265436D01*
X0041344Y0265416D01*
X0041500Y0265392D01*
X0041656Y0265364D01*
X0041811Y0265333D01*
X0041966Y0265297D01*
X0042119Y0265258D01*
X0042271Y0265215D01*
X0042422Y0265168D01*
X0042572Y0265117D01*
X0042721Y0265062D01*
X0042868Y0265004D01*
X0043014Y0264942D01*
X0043158Y0264877D01*
X0043300Y0264807D01*
X0043441Y0264735D01*
X0043580Y0264658D01*
X0043716Y0264579D01*
X0043851Y0264495D01*
X0043984Y0264409D01*
X0044114Y0264319D01*
X0044242Y0264226D01*
X0044368Y0264130D01*
X0044491Y0264030D01*
X0044612Y0263928D01*
X0044730Y0263823D01*
X0044845Y0263714D01*
X0044958Y0263603D01*
X0045068Y0263489D01*
X0045175Y0263372D01*
X0045279Y0263253D01*
X0045380Y0263131D01*
X0045477Y0263006D01*
X0045572Y0262879D01*
X0045663Y0262750D01*
X0045752Y0262619D01*
X0045836Y0262485D01*
X0045918Y0262349D01*
X0045996Y0262212D01*
X0046070Y0262072D01*
X0046141Y0261930D01*
X0046209Y0261787D01*
X0046273Y0261642D01*
X0046333Y0261496D01*
X0046389Y0261348D01*
X0046442Y0261199D01*
X0046491Y0261048D01*
X0046536Y0260896D01*
X0046577Y0260743D01*
X0046615Y0260590D01*
X0046648Y0260435D01*
X0046678Y0260279D01*
X0046704Y0260123D01*
X0046725Y0259966D01*
X0046743Y0259809D01*
X0046757Y0259651D01*
X0046767Y0259493D01*
X0046773Y0259335D01*
X0046775Y0259177D01*
X0046773Y0259019D01*
X0046767Y0258861D01*
X0046757Y0258703D01*
X0046743Y0258545D01*
X0046725Y0258388D01*
X0046704Y0258231D01*
X0046678Y0258075D01*
X0046648Y0257919D01*
X0046615Y0257764D01*
X0046577Y0257611D01*
X0046536Y0257458D01*
X0046491Y0257306D01*
X0046442Y0257155D01*
X0046389Y0257006D01*
X0046333Y0256858D01*
X0046273Y0256712D01*
X0046209Y0256567D01*
X0046141Y0256424D01*
X0046070Y0256282D01*
X0045996Y0256142D01*
X0045918Y0256005D01*
X0045836Y0255869D01*
X0045752Y0255735D01*
X0045663Y0255604D01*
X0045572Y0255475D01*
X0045477Y0255348D01*
X0045380Y0255223D01*
X0045279Y0255101D01*
X0045175Y0254982D01*
X0045068Y0254865D01*
X0044958Y0254751D01*
X0044845Y0254640D01*
X0044730Y0254531D01*
X0044612Y0254426D01*
X0044491Y0254324D01*
X0044368Y0254224D01*
X0044242Y0254128D01*
X0044114Y0254035D01*
X0043984Y0253945D01*
X0043851Y0253859D01*
X0043716Y0253775D01*
X0043580Y0253696D01*
X0043441Y0253619D01*
X0043300Y0253547D01*
X0043158Y0253477D01*
X0043014Y0253412D01*
X0042868Y0253350D01*
X0042721Y0253292D01*
X0042572Y0253237D01*
X0042422Y0253186D01*
X0042271Y0253139D01*
X0042119Y0253096D01*
X0041966Y0253057D01*
X0041811Y0253021D01*
X0041656Y0252990D01*
X0041500Y0252962D01*
X0041344Y0252938D01*
X0041187Y0252918D01*
X0041029Y0252902D01*
X0040872Y0252890D01*
X0040713Y0252882D01*
X0040555Y0252878D01*
X0040397Y0252878D01*
X0040239Y0252882D01*
X0040080Y0252890D01*
X0039923Y0252902D01*
X0039765Y0252918D01*
X0039608Y0252938D01*
X0039452Y0252962D01*
X0039296Y0252990D01*
X0039141Y0253021D01*
X0038986Y0253057D01*
X0038833Y0253096D01*
X0038681Y0253139D01*
X0038530Y0253186D01*
X0038380Y0253237D01*
X0038231Y0253292D01*
X0038084Y0253350D01*
X0037938Y0253412D01*
X0037794Y0253477D01*
X0037652Y0253547D01*
X0037511Y0253619D01*
X0037372Y0253696D01*
X0037236Y0253775D01*
X0037101Y0253859D01*
X0036968Y0253945D01*
X0036838Y0254035D01*
X0036710Y0254128D01*
X0036584Y0254224D01*
X0036461Y0254324D01*
X0036340Y0254426D01*
X0036222Y0254531D01*
X0036107Y0254640D01*
X0035994Y0254751D01*
X0035884Y0254865D01*
X0035777Y0254982D01*
X0035673Y0255101D01*
X0035572Y0255223D01*
X0035475Y0255348D01*
X0035380Y0255475D01*
X0035289Y0255604D01*
X0035200Y0255735D01*
X0035116Y0255869D01*
X0035034Y0256005D01*
X0034956Y0256142D01*
X0034882Y0256282D01*
X0034811Y0256424D01*
X0034743Y0256567D01*
X0034679Y0256712D01*
X0034619Y0256858D01*
X0034563Y0257006D01*
X0034510Y0257155D01*
X0034461Y0257306D01*
X0034416Y0257458D01*
X0034375Y0257611D01*
X0034337Y0257764D01*
X0034304Y0257919D01*
X0034274Y0258075D01*
X0034248Y0258231D01*
X0034227Y0258388D01*
X0034209Y0258545D01*
X0034195Y0258703D01*
X0034185Y0258861D01*
X0034179Y0259019D01*
X0034177Y0259177D01*
X0170792Y0432012D02*
X0170794Y0432170D01*
X0170800Y0432328D01*
X0170810Y0432486D01*
X0170824Y0432644D01*
X0170842Y0432801D01*
X0170863Y0432958D01*
X0170889Y0433114D01*
X0170919Y0433270D01*
X0170952Y0433425D01*
X0170990Y0433578D01*
X0171031Y0433731D01*
X0171076Y0433883D01*
X0171125Y0434034D01*
X0171178Y0434183D01*
X0171234Y0434331D01*
X0171294Y0434477D01*
X0171358Y0434622D01*
X0171426Y0434765D01*
X0171497Y0434907D01*
X0171571Y0435047D01*
X0171649Y0435184D01*
X0171731Y0435320D01*
X0171815Y0435454D01*
X0171904Y0435585D01*
X0171995Y0435714D01*
X0172090Y0435841D01*
X0172187Y0435966D01*
X0172288Y0436088D01*
X0172392Y0436207D01*
X0172499Y0436324D01*
X0172609Y0436438D01*
X0172722Y0436549D01*
X0172837Y0436658D01*
X0172955Y0436763D01*
X0173076Y0436865D01*
X0173199Y0436965D01*
X0173325Y0437061D01*
X0173453Y0437154D01*
X0173583Y0437244D01*
X0173716Y0437330D01*
X0173851Y0437414D01*
X0173987Y0437493D01*
X0174126Y0437570D01*
X0174267Y0437642D01*
X0174409Y0437712D01*
X0174553Y0437777D01*
X0174699Y0437839D01*
X0174846Y0437897D01*
X0174995Y0437952D01*
X0175145Y0438003D01*
X0175296Y0438050D01*
X0175448Y0438093D01*
X0175601Y0438132D01*
X0175756Y0438168D01*
X0175911Y0438199D01*
X0176067Y0438227D01*
X0176223Y0438251D01*
X0176380Y0438271D01*
X0176538Y0438287D01*
X0176695Y0438299D01*
X0176854Y0438307D01*
X0177012Y0438311D01*
X0177170Y0438311D01*
X0177328Y0438307D01*
X0177487Y0438299D01*
X0177644Y0438287D01*
X0177802Y0438271D01*
X0177959Y0438251D01*
X0178115Y0438227D01*
X0178271Y0438199D01*
X0178426Y0438168D01*
X0178581Y0438132D01*
X0178734Y0438093D01*
X0178886Y0438050D01*
X0179037Y0438003D01*
X0179187Y0437952D01*
X0179336Y0437897D01*
X0179483Y0437839D01*
X0179629Y0437777D01*
X0179773Y0437712D01*
X0179915Y0437642D01*
X0180056Y0437570D01*
X0180195Y0437493D01*
X0180331Y0437414D01*
X0180466Y0437330D01*
X0180599Y0437244D01*
X0180729Y0437154D01*
X0180857Y0437061D01*
X0180983Y0436965D01*
X0181106Y0436865D01*
X0181227Y0436763D01*
X0181345Y0436658D01*
X0181460Y0436549D01*
X0181573Y0436438D01*
X0181683Y0436324D01*
X0181790Y0436207D01*
X0181894Y0436088D01*
X0181995Y0435966D01*
X0182092Y0435841D01*
X0182187Y0435714D01*
X0182278Y0435585D01*
X0182367Y0435454D01*
X0182451Y0435320D01*
X0182533Y0435184D01*
X0182611Y0435047D01*
X0182685Y0434907D01*
X0182756Y0434765D01*
X0182824Y0434622D01*
X0182888Y0434477D01*
X0182948Y0434331D01*
X0183004Y0434183D01*
X0183057Y0434034D01*
X0183106Y0433883D01*
X0183151Y0433731D01*
X0183192Y0433578D01*
X0183230Y0433425D01*
X0183263Y0433270D01*
X0183293Y0433114D01*
X0183319Y0432958D01*
X0183340Y0432801D01*
X0183358Y0432644D01*
X0183372Y0432486D01*
X0183382Y0432328D01*
X0183388Y0432170D01*
X0183390Y0432012D01*
X0183388Y0431854D01*
X0183382Y0431696D01*
X0183372Y0431538D01*
X0183358Y0431380D01*
X0183340Y0431223D01*
X0183319Y0431066D01*
X0183293Y0430910D01*
X0183263Y0430754D01*
X0183230Y0430599D01*
X0183192Y0430446D01*
X0183151Y0430293D01*
X0183106Y0430141D01*
X0183057Y0429990D01*
X0183004Y0429841D01*
X0182948Y0429693D01*
X0182888Y0429547D01*
X0182824Y0429402D01*
X0182756Y0429259D01*
X0182685Y0429117D01*
X0182611Y0428977D01*
X0182533Y0428840D01*
X0182451Y0428704D01*
X0182367Y0428570D01*
X0182278Y0428439D01*
X0182187Y0428310D01*
X0182092Y0428183D01*
X0181995Y0428058D01*
X0181894Y0427936D01*
X0181790Y0427817D01*
X0181683Y0427700D01*
X0181573Y0427586D01*
X0181460Y0427475D01*
X0181345Y0427366D01*
X0181227Y0427261D01*
X0181106Y0427159D01*
X0180983Y0427059D01*
X0180857Y0426963D01*
X0180729Y0426870D01*
X0180599Y0426780D01*
X0180466Y0426694D01*
X0180331Y0426610D01*
X0180195Y0426531D01*
X0180056Y0426454D01*
X0179915Y0426382D01*
X0179773Y0426312D01*
X0179629Y0426247D01*
X0179483Y0426185D01*
X0179336Y0426127D01*
X0179187Y0426072D01*
X0179037Y0426021D01*
X0178886Y0425974D01*
X0178734Y0425931D01*
X0178581Y0425892D01*
X0178426Y0425856D01*
X0178271Y0425825D01*
X0178115Y0425797D01*
X0177959Y0425773D01*
X0177802Y0425753D01*
X0177644Y0425737D01*
X0177487Y0425725D01*
X0177328Y0425717D01*
X0177170Y0425713D01*
X0177012Y0425713D01*
X0176854Y0425717D01*
X0176695Y0425725D01*
X0176538Y0425737D01*
X0176380Y0425753D01*
X0176223Y0425773D01*
X0176067Y0425797D01*
X0175911Y0425825D01*
X0175756Y0425856D01*
X0175601Y0425892D01*
X0175448Y0425931D01*
X0175296Y0425974D01*
X0175145Y0426021D01*
X0174995Y0426072D01*
X0174846Y0426127D01*
X0174699Y0426185D01*
X0174553Y0426247D01*
X0174409Y0426312D01*
X0174267Y0426382D01*
X0174126Y0426454D01*
X0173987Y0426531D01*
X0173851Y0426610D01*
X0173716Y0426694D01*
X0173583Y0426780D01*
X0173453Y0426870D01*
X0173325Y0426963D01*
X0173199Y0427059D01*
X0173076Y0427159D01*
X0172955Y0427261D01*
X0172837Y0427366D01*
X0172722Y0427475D01*
X0172609Y0427586D01*
X0172499Y0427700D01*
X0172392Y0427817D01*
X0172288Y0427936D01*
X0172187Y0428058D01*
X0172090Y0428183D01*
X0171995Y0428310D01*
X0171904Y0428439D01*
X0171815Y0428570D01*
X0171731Y0428704D01*
X0171649Y0428840D01*
X0171571Y0428977D01*
X0171497Y0429117D01*
X0171426Y0429259D01*
X0171358Y0429402D01*
X0171294Y0429547D01*
X0171234Y0429693D01*
X0171178Y0429841D01*
X0171125Y0429990D01*
X0171076Y0430141D01*
X0171031Y0430293D01*
X0170990Y0430446D01*
X0170952Y0430599D01*
X0170919Y0430754D01*
X0170889Y0430910D01*
X0170863Y0431066D01*
X0170842Y0431223D01*
X0170824Y0431380D01*
X0170810Y0431538D01*
X0170800Y0431696D01*
X0170794Y0431854D01*
X0170792Y0432012D01*
X0397918Y0246343D02*
X0397920Y0246501D01*
X0397926Y0246659D01*
X0397936Y0246817D01*
X0397950Y0246975D01*
X0397968Y0247132D01*
X0397989Y0247289D01*
X0398015Y0247445D01*
X0398045Y0247601D01*
X0398078Y0247756D01*
X0398116Y0247909D01*
X0398157Y0248062D01*
X0398202Y0248214D01*
X0398251Y0248365D01*
X0398304Y0248514D01*
X0398360Y0248662D01*
X0398420Y0248808D01*
X0398484Y0248953D01*
X0398552Y0249096D01*
X0398623Y0249238D01*
X0398697Y0249378D01*
X0398775Y0249515D01*
X0398857Y0249651D01*
X0398941Y0249785D01*
X0399030Y0249916D01*
X0399121Y0250045D01*
X0399216Y0250172D01*
X0399313Y0250297D01*
X0399414Y0250419D01*
X0399518Y0250538D01*
X0399625Y0250655D01*
X0399735Y0250769D01*
X0399848Y0250880D01*
X0399963Y0250989D01*
X0400081Y0251094D01*
X0400202Y0251196D01*
X0400325Y0251296D01*
X0400451Y0251392D01*
X0400579Y0251485D01*
X0400709Y0251575D01*
X0400842Y0251661D01*
X0400977Y0251745D01*
X0401113Y0251824D01*
X0401252Y0251901D01*
X0401393Y0251973D01*
X0401535Y0252043D01*
X0401679Y0252108D01*
X0401825Y0252170D01*
X0401972Y0252228D01*
X0402121Y0252283D01*
X0402271Y0252334D01*
X0402422Y0252381D01*
X0402574Y0252424D01*
X0402727Y0252463D01*
X0402882Y0252499D01*
X0403037Y0252530D01*
X0403193Y0252558D01*
X0403349Y0252582D01*
X0403506Y0252602D01*
X0403664Y0252618D01*
X0403821Y0252630D01*
X0403980Y0252638D01*
X0404138Y0252642D01*
X0404296Y0252642D01*
X0404454Y0252638D01*
X0404613Y0252630D01*
X0404770Y0252618D01*
X0404928Y0252602D01*
X0405085Y0252582D01*
X0405241Y0252558D01*
X0405397Y0252530D01*
X0405552Y0252499D01*
X0405707Y0252463D01*
X0405860Y0252424D01*
X0406012Y0252381D01*
X0406163Y0252334D01*
X0406313Y0252283D01*
X0406462Y0252228D01*
X0406609Y0252170D01*
X0406755Y0252108D01*
X0406899Y0252043D01*
X0407041Y0251973D01*
X0407182Y0251901D01*
X0407321Y0251824D01*
X0407457Y0251745D01*
X0407592Y0251661D01*
X0407725Y0251575D01*
X0407855Y0251485D01*
X0407983Y0251392D01*
X0408109Y0251296D01*
X0408232Y0251196D01*
X0408353Y0251094D01*
X0408471Y0250989D01*
X0408586Y0250880D01*
X0408699Y0250769D01*
X0408809Y0250655D01*
X0408916Y0250538D01*
X0409020Y0250419D01*
X0409121Y0250297D01*
X0409218Y0250172D01*
X0409313Y0250045D01*
X0409404Y0249916D01*
X0409493Y0249785D01*
X0409577Y0249651D01*
X0409659Y0249515D01*
X0409737Y0249378D01*
X0409811Y0249238D01*
X0409882Y0249096D01*
X0409950Y0248953D01*
X0410014Y0248808D01*
X0410074Y0248662D01*
X0410130Y0248514D01*
X0410183Y0248365D01*
X0410232Y0248214D01*
X0410277Y0248062D01*
X0410318Y0247909D01*
X0410356Y0247756D01*
X0410389Y0247601D01*
X0410419Y0247445D01*
X0410445Y0247289D01*
X0410466Y0247132D01*
X0410484Y0246975D01*
X0410498Y0246817D01*
X0410508Y0246659D01*
X0410514Y0246501D01*
X0410516Y0246343D01*
X0410514Y0246185D01*
X0410508Y0246027D01*
X0410498Y0245869D01*
X0410484Y0245711D01*
X0410466Y0245554D01*
X0410445Y0245397D01*
X0410419Y0245241D01*
X0410389Y0245085D01*
X0410356Y0244930D01*
X0410318Y0244777D01*
X0410277Y0244624D01*
X0410232Y0244472D01*
X0410183Y0244321D01*
X0410130Y0244172D01*
X0410074Y0244024D01*
X0410014Y0243878D01*
X0409950Y0243733D01*
X0409882Y0243590D01*
X0409811Y0243448D01*
X0409737Y0243308D01*
X0409659Y0243171D01*
X0409577Y0243035D01*
X0409493Y0242901D01*
X0409404Y0242770D01*
X0409313Y0242641D01*
X0409218Y0242514D01*
X0409121Y0242389D01*
X0409020Y0242267D01*
X0408916Y0242148D01*
X0408809Y0242031D01*
X0408699Y0241917D01*
X0408586Y0241806D01*
X0408471Y0241697D01*
X0408353Y0241592D01*
X0408232Y0241490D01*
X0408109Y0241390D01*
X0407983Y0241294D01*
X0407855Y0241201D01*
X0407725Y0241111D01*
X0407592Y0241025D01*
X0407457Y0240941D01*
X0407321Y0240862D01*
X0407182Y0240785D01*
X0407041Y0240713D01*
X0406899Y0240643D01*
X0406755Y0240578D01*
X0406609Y0240516D01*
X0406462Y0240458D01*
X0406313Y0240403D01*
X0406163Y0240352D01*
X0406012Y0240305D01*
X0405860Y0240262D01*
X0405707Y0240223D01*
X0405552Y0240187D01*
X0405397Y0240156D01*
X0405241Y0240128D01*
X0405085Y0240104D01*
X0404928Y0240084D01*
X0404770Y0240068D01*
X0404613Y0240056D01*
X0404454Y0240048D01*
X0404296Y0240044D01*
X0404138Y0240044D01*
X0403980Y0240048D01*
X0403821Y0240056D01*
X0403664Y0240068D01*
X0403506Y0240084D01*
X0403349Y0240104D01*
X0403193Y0240128D01*
X0403037Y0240156D01*
X0402882Y0240187D01*
X0402727Y0240223D01*
X0402574Y0240262D01*
X0402422Y0240305D01*
X0402271Y0240352D01*
X0402121Y0240403D01*
X0401972Y0240458D01*
X0401825Y0240516D01*
X0401679Y0240578D01*
X0401535Y0240643D01*
X0401393Y0240713D01*
X0401252Y0240785D01*
X0401113Y0240862D01*
X0400977Y0240941D01*
X0400842Y0241025D01*
X0400709Y0241111D01*
X0400579Y0241201D01*
X0400451Y0241294D01*
X0400325Y0241390D01*
X0400202Y0241490D01*
X0400081Y0241592D01*
X0399963Y0241697D01*
X0399848Y0241806D01*
X0399735Y0241917D01*
X0399625Y0242031D01*
X0399518Y0242148D01*
X0399414Y0242267D01*
X0399313Y0242389D01*
X0399216Y0242514D01*
X0399121Y0242641D01*
X0399030Y0242770D01*
X0398941Y0242901D01*
X0398857Y0243035D01*
X0398775Y0243171D01*
X0398697Y0243308D01*
X0398623Y0243448D01*
X0398552Y0243590D01*
X0398484Y0243733D01*
X0398420Y0243878D01*
X0398360Y0244024D01*
X0398304Y0244172D01*
X0398251Y0244321D01*
X0398202Y0244472D01*
X0398157Y0244624D01*
X0398116Y0244777D01*
X0398078Y0244930D01*
X0398045Y0245085D01*
X0398015Y0245241D01*
X0397989Y0245397D01*
X0397968Y0245554D01*
X0397950Y0245711D01*
X0397936Y0245869D01*
X0397926Y0246027D01*
X0397920Y0246185D01*
X0397918Y0246343D01*
X0337280Y0156343D02*
X0337282Y0156468D01*
X0337288Y0156593D01*
X0337298Y0156717D01*
X0337312Y0156841D01*
X0337329Y0156965D01*
X0337351Y0157088D01*
X0337377Y0157210D01*
X0337406Y0157332D01*
X0337439Y0157452D01*
X0337477Y0157571D01*
X0337517Y0157690D01*
X0337562Y0157806D01*
X0337610Y0157921D01*
X0337662Y0158035D01*
X0337718Y0158147D01*
X0337777Y0158257D01*
X0337839Y0158365D01*
X0337905Y0158472D01*
X0337974Y0158576D01*
X0338047Y0158677D01*
X0338122Y0158777D01*
X0338201Y0158874D01*
X0338283Y0158968D01*
X0338368Y0159060D01*
X0338455Y0159149D01*
X0338546Y0159235D01*
X0338639Y0159318D01*
X0338735Y0159399D01*
X0338833Y0159476D01*
X0338933Y0159550D01*
X0339036Y0159621D01*
X0339141Y0159688D01*
X0339249Y0159753D01*
X0339358Y0159813D01*
X0339469Y0159871D01*
X0339582Y0159924D01*
X0339696Y0159974D01*
X0339812Y0160021D01*
X0339929Y0160063D01*
X0340048Y0160102D01*
X0340168Y0160138D01*
X0340289Y0160169D01*
X0340411Y0160197D01*
X0340533Y0160220D01*
X0340657Y0160240D01*
X0340781Y0160256D01*
X0340905Y0160268D01*
X0341030Y0160276D01*
X0341155Y0160280D01*
X0341279Y0160280D01*
X0341404Y0160276D01*
X0341529Y0160268D01*
X0341653Y0160256D01*
X0341777Y0160240D01*
X0341901Y0160220D01*
X0342023Y0160197D01*
X0342145Y0160169D01*
X0342266Y0160138D01*
X0342386Y0160102D01*
X0342505Y0160063D01*
X0342622Y0160021D01*
X0342738Y0159974D01*
X0342852Y0159924D01*
X0342965Y0159871D01*
X0343076Y0159813D01*
X0343186Y0159753D01*
X0343293Y0159688D01*
X0343398Y0159621D01*
X0343501Y0159550D01*
X0343601Y0159476D01*
X0343699Y0159399D01*
X0343795Y0159318D01*
X0343888Y0159235D01*
X0343979Y0159149D01*
X0344066Y0159060D01*
X0344151Y0158968D01*
X0344233Y0158874D01*
X0344312Y0158777D01*
X0344387Y0158677D01*
X0344460Y0158576D01*
X0344529Y0158472D01*
X0344595Y0158365D01*
X0344657Y0158257D01*
X0344716Y0158147D01*
X0344772Y0158035D01*
X0344824Y0157921D01*
X0344872Y0157806D01*
X0344917Y0157690D01*
X0344957Y0157571D01*
X0344995Y0157452D01*
X0345028Y0157332D01*
X0345057Y0157210D01*
X0345083Y0157088D01*
X0345105Y0156965D01*
X0345122Y0156841D01*
X0345136Y0156717D01*
X0345146Y0156593D01*
X0345152Y0156468D01*
X0345154Y0156343D01*
X0345152Y0156218D01*
X0345146Y0156093D01*
X0345136Y0155969D01*
X0345122Y0155845D01*
X0345105Y0155721D01*
X0345083Y0155598D01*
X0345057Y0155476D01*
X0345028Y0155354D01*
X0344995Y0155234D01*
X0344957Y0155115D01*
X0344917Y0154996D01*
X0344872Y0154880D01*
X0344824Y0154765D01*
X0344772Y0154651D01*
X0344716Y0154539D01*
X0344657Y0154429D01*
X0344595Y0154321D01*
X0344529Y0154214D01*
X0344460Y0154110D01*
X0344387Y0154009D01*
X0344312Y0153909D01*
X0344233Y0153812D01*
X0344151Y0153718D01*
X0344066Y0153626D01*
X0343979Y0153537D01*
X0343888Y0153451D01*
X0343795Y0153368D01*
X0343699Y0153287D01*
X0343601Y0153210D01*
X0343501Y0153136D01*
X0343398Y0153065D01*
X0343293Y0152998D01*
X0343185Y0152933D01*
X0343076Y0152873D01*
X0342965Y0152815D01*
X0342852Y0152762D01*
X0342738Y0152712D01*
X0342622Y0152665D01*
X0342505Y0152623D01*
X0342386Y0152584D01*
X0342266Y0152548D01*
X0342145Y0152517D01*
X0342023Y0152489D01*
X0341901Y0152466D01*
X0341777Y0152446D01*
X0341653Y0152430D01*
X0341529Y0152418D01*
X0341404Y0152410D01*
X0341279Y0152406D01*
X0341155Y0152406D01*
X0341030Y0152410D01*
X0340905Y0152418D01*
X0340781Y0152430D01*
X0340657Y0152446D01*
X0340533Y0152466D01*
X0340411Y0152489D01*
X0340289Y0152517D01*
X0340168Y0152548D01*
X0340048Y0152584D01*
X0339929Y0152623D01*
X0339812Y0152665D01*
X0339696Y0152712D01*
X0339582Y0152762D01*
X0339469Y0152815D01*
X0339358Y0152873D01*
X0339248Y0152933D01*
X0339141Y0152998D01*
X0339036Y0153065D01*
X0338933Y0153136D01*
X0338833Y0153210D01*
X0338735Y0153287D01*
X0338639Y0153368D01*
X0338546Y0153451D01*
X0338455Y0153537D01*
X0338368Y0153626D01*
X0338283Y0153718D01*
X0338201Y0153812D01*
X0338122Y0153909D01*
X0338047Y0154009D01*
X0337974Y0154110D01*
X0337905Y0154214D01*
X0337839Y0154321D01*
X0337777Y0154429D01*
X0337718Y0154539D01*
X0337662Y0154651D01*
X0337610Y0154765D01*
X0337562Y0154880D01*
X0337517Y0154996D01*
X0337477Y0155115D01*
X0337439Y0155234D01*
X0337406Y0155354D01*
X0337377Y0155476D01*
X0337351Y0155598D01*
X0337329Y0155721D01*
X0337312Y0155845D01*
X0337298Y0155969D01*
X0337288Y0156093D01*
X0337282Y0156218D01*
X0337280Y0156343D01*
X0422918Y0056343D02*
X0422920Y0056501D01*
X0422926Y0056659D01*
X0422936Y0056817D01*
X0422950Y0056975D01*
X0422968Y0057132D01*
X0422989Y0057289D01*
X0423015Y0057445D01*
X0423045Y0057601D01*
X0423078Y0057756D01*
X0423116Y0057909D01*
X0423157Y0058062D01*
X0423202Y0058214D01*
X0423251Y0058365D01*
X0423304Y0058514D01*
X0423360Y0058662D01*
X0423420Y0058808D01*
X0423484Y0058953D01*
X0423552Y0059096D01*
X0423623Y0059238D01*
X0423697Y0059378D01*
X0423775Y0059515D01*
X0423857Y0059651D01*
X0423941Y0059785D01*
X0424030Y0059916D01*
X0424121Y0060045D01*
X0424216Y0060172D01*
X0424313Y0060297D01*
X0424414Y0060419D01*
X0424518Y0060538D01*
X0424625Y0060655D01*
X0424735Y0060769D01*
X0424848Y0060880D01*
X0424963Y0060989D01*
X0425081Y0061094D01*
X0425202Y0061196D01*
X0425325Y0061296D01*
X0425451Y0061392D01*
X0425579Y0061485D01*
X0425709Y0061575D01*
X0425842Y0061661D01*
X0425977Y0061745D01*
X0426113Y0061824D01*
X0426252Y0061901D01*
X0426393Y0061973D01*
X0426535Y0062043D01*
X0426679Y0062108D01*
X0426825Y0062170D01*
X0426972Y0062228D01*
X0427121Y0062283D01*
X0427271Y0062334D01*
X0427422Y0062381D01*
X0427574Y0062424D01*
X0427727Y0062463D01*
X0427882Y0062499D01*
X0428037Y0062530D01*
X0428193Y0062558D01*
X0428349Y0062582D01*
X0428506Y0062602D01*
X0428664Y0062618D01*
X0428821Y0062630D01*
X0428980Y0062638D01*
X0429138Y0062642D01*
X0429296Y0062642D01*
X0429454Y0062638D01*
X0429613Y0062630D01*
X0429770Y0062618D01*
X0429928Y0062602D01*
X0430085Y0062582D01*
X0430241Y0062558D01*
X0430397Y0062530D01*
X0430552Y0062499D01*
X0430707Y0062463D01*
X0430860Y0062424D01*
X0431012Y0062381D01*
X0431163Y0062334D01*
X0431313Y0062283D01*
X0431462Y0062228D01*
X0431609Y0062170D01*
X0431755Y0062108D01*
X0431899Y0062043D01*
X0432041Y0061973D01*
X0432182Y0061901D01*
X0432321Y0061824D01*
X0432457Y0061745D01*
X0432592Y0061661D01*
X0432725Y0061575D01*
X0432855Y0061485D01*
X0432983Y0061392D01*
X0433109Y0061296D01*
X0433232Y0061196D01*
X0433353Y0061094D01*
X0433471Y0060989D01*
X0433586Y0060880D01*
X0433699Y0060769D01*
X0433809Y0060655D01*
X0433916Y0060538D01*
X0434020Y0060419D01*
X0434121Y0060297D01*
X0434218Y0060172D01*
X0434313Y0060045D01*
X0434404Y0059916D01*
X0434493Y0059785D01*
X0434577Y0059651D01*
X0434659Y0059515D01*
X0434737Y0059378D01*
X0434811Y0059238D01*
X0434882Y0059096D01*
X0434950Y0058953D01*
X0435014Y0058808D01*
X0435074Y0058662D01*
X0435130Y0058514D01*
X0435183Y0058365D01*
X0435232Y0058214D01*
X0435277Y0058062D01*
X0435318Y0057909D01*
X0435356Y0057756D01*
X0435389Y0057601D01*
X0435419Y0057445D01*
X0435445Y0057289D01*
X0435466Y0057132D01*
X0435484Y0056975D01*
X0435498Y0056817D01*
X0435508Y0056659D01*
X0435514Y0056501D01*
X0435516Y0056343D01*
X0435514Y0056185D01*
X0435508Y0056027D01*
X0435498Y0055869D01*
X0435484Y0055711D01*
X0435466Y0055554D01*
X0435445Y0055397D01*
X0435419Y0055241D01*
X0435389Y0055085D01*
X0435356Y0054930D01*
X0435318Y0054777D01*
X0435277Y0054624D01*
X0435232Y0054472D01*
X0435183Y0054321D01*
X0435130Y0054172D01*
X0435074Y0054024D01*
X0435014Y0053878D01*
X0434950Y0053733D01*
X0434882Y0053590D01*
X0434811Y0053448D01*
X0434737Y0053308D01*
X0434659Y0053171D01*
X0434577Y0053035D01*
X0434493Y0052901D01*
X0434404Y0052770D01*
X0434313Y0052641D01*
X0434218Y0052514D01*
X0434121Y0052389D01*
X0434020Y0052267D01*
X0433916Y0052148D01*
X0433809Y0052031D01*
X0433699Y0051917D01*
X0433586Y0051806D01*
X0433471Y0051697D01*
X0433353Y0051592D01*
X0433232Y0051490D01*
X0433109Y0051390D01*
X0432983Y0051294D01*
X0432855Y0051201D01*
X0432725Y0051111D01*
X0432592Y0051025D01*
X0432457Y0050941D01*
X0432321Y0050862D01*
X0432182Y0050785D01*
X0432041Y0050713D01*
X0431899Y0050643D01*
X0431755Y0050578D01*
X0431609Y0050516D01*
X0431462Y0050458D01*
X0431313Y0050403D01*
X0431163Y0050352D01*
X0431012Y0050305D01*
X0430860Y0050262D01*
X0430707Y0050223D01*
X0430552Y0050187D01*
X0430397Y0050156D01*
X0430241Y0050128D01*
X0430085Y0050104D01*
X0429928Y0050084D01*
X0429770Y0050068D01*
X0429613Y0050056D01*
X0429454Y0050048D01*
X0429296Y0050044D01*
X0429138Y0050044D01*
X0428980Y0050048D01*
X0428821Y0050056D01*
X0428664Y0050068D01*
X0428506Y0050084D01*
X0428349Y0050104D01*
X0428193Y0050128D01*
X0428037Y0050156D01*
X0427882Y0050187D01*
X0427727Y0050223D01*
X0427574Y0050262D01*
X0427422Y0050305D01*
X0427271Y0050352D01*
X0427121Y0050403D01*
X0426972Y0050458D01*
X0426825Y0050516D01*
X0426679Y0050578D01*
X0426535Y0050643D01*
X0426393Y0050713D01*
X0426252Y0050785D01*
X0426113Y0050862D01*
X0425977Y0050941D01*
X0425842Y0051025D01*
X0425709Y0051111D01*
X0425579Y0051201D01*
X0425451Y0051294D01*
X0425325Y0051390D01*
X0425202Y0051490D01*
X0425081Y0051592D01*
X0424963Y0051697D01*
X0424848Y0051806D01*
X0424735Y0051917D01*
X0424625Y0052031D01*
X0424518Y0052148D01*
X0424414Y0052267D01*
X0424313Y0052389D01*
X0424216Y0052514D01*
X0424121Y0052641D01*
X0424030Y0052770D01*
X0423941Y0052901D01*
X0423857Y0053035D01*
X0423775Y0053171D01*
X0423697Y0053308D01*
X0423623Y0053448D01*
X0423552Y0053590D01*
X0423484Y0053733D01*
X0423420Y0053878D01*
X0423360Y0054024D01*
X0423304Y0054172D01*
X0423251Y0054321D01*
X0423202Y0054472D01*
X0423157Y0054624D01*
X0423116Y0054777D01*
X0423078Y0054930D01*
X0423045Y0055085D01*
X0423015Y0055241D01*
X0422989Y0055397D01*
X0422968Y0055554D01*
X0422950Y0055711D01*
X0422936Y0055869D01*
X0422926Y0056027D01*
X0422920Y0056185D01*
X0422918Y0056343D01*
X0443626Y0044217D02*
X0443628Y0044375D01*
X0443634Y0044533D01*
X0443644Y0044691D01*
X0443658Y0044849D01*
X0443676Y0045006D01*
X0443697Y0045163D01*
X0443723Y0045319D01*
X0443753Y0045475D01*
X0443786Y0045630D01*
X0443824Y0045783D01*
X0443865Y0045936D01*
X0443910Y0046088D01*
X0443959Y0046239D01*
X0444012Y0046388D01*
X0444068Y0046536D01*
X0444128Y0046682D01*
X0444192Y0046827D01*
X0444260Y0046970D01*
X0444331Y0047112D01*
X0444405Y0047252D01*
X0444483Y0047389D01*
X0444565Y0047525D01*
X0444649Y0047659D01*
X0444738Y0047790D01*
X0444829Y0047919D01*
X0444924Y0048046D01*
X0445021Y0048171D01*
X0445122Y0048293D01*
X0445226Y0048412D01*
X0445333Y0048529D01*
X0445443Y0048643D01*
X0445556Y0048754D01*
X0445671Y0048863D01*
X0445789Y0048968D01*
X0445910Y0049070D01*
X0446033Y0049170D01*
X0446159Y0049266D01*
X0446287Y0049359D01*
X0446417Y0049449D01*
X0446550Y0049535D01*
X0446685Y0049619D01*
X0446821Y0049698D01*
X0446960Y0049775D01*
X0447101Y0049847D01*
X0447243Y0049917D01*
X0447387Y0049982D01*
X0447533Y0050044D01*
X0447680Y0050102D01*
X0447829Y0050157D01*
X0447979Y0050208D01*
X0448130Y0050255D01*
X0448282Y0050298D01*
X0448435Y0050337D01*
X0448590Y0050373D01*
X0448745Y0050404D01*
X0448901Y0050432D01*
X0449057Y0050456D01*
X0449214Y0050476D01*
X0449372Y0050492D01*
X0449529Y0050504D01*
X0449688Y0050512D01*
X0449846Y0050516D01*
X0450004Y0050516D01*
X0450162Y0050512D01*
X0450321Y0050504D01*
X0450478Y0050492D01*
X0450636Y0050476D01*
X0450793Y0050456D01*
X0450949Y0050432D01*
X0451105Y0050404D01*
X0451260Y0050373D01*
X0451415Y0050337D01*
X0451568Y0050298D01*
X0451720Y0050255D01*
X0451871Y0050208D01*
X0452021Y0050157D01*
X0452170Y0050102D01*
X0452317Y0050044D01*
X0452463Y0049982D01*
X0452607Y0049917D01*
X0452749Y0049847D01*
X0452890Y0049775D01*
X0453029Y0049698D01*
X0453165Y0049619D01*
X0453300Y0049535D01*
X0453433Y0049449D01*
X0453563Y0049359D01*
X0453691Y0049266D01*
X0453817Y0049170D01*
X0453940Y0049070D01*
X0454061Y0048968D01*
X0454179Y0048863D01*
X0454294Y0048754D01*
X0454407Y0048643D01*
X0454517Y0048529D01*
X0454624Y0048412D01*
X0454728Y0048293D01*
X0454829Y0048171D01*
X0454926Y0048046D01*
X0455021Y0047919D01*
X0455112Y0047790D01*
X0455201Y0047659D01*
X0455285Y0047525D01*
X0455367Y0047389D01*
X0455445Y0047252D01*
X0455519Y0047112D01*
X0455590Y0046970D01*
X0455658Y0046827D01*
X0455722Y0046682D01*
X0455782Y0046536D01*
X0455838Y0046388D01*
X0455891Y0046239D01*
X0455940Y0046088D01*
X0455985Y0045936D01*
X0456026Y0045783D01*
X0456064Y0045630D01*
X0456097Y0045475D01*
X0456127Y0045319D01*
X0456153Y0045163D01*
X0456174Y0045006D01*
X0456192Y0044849D01*
X0456206Y0044691D01*
X0456216Y0044533D01*
X0456222Y0044375D01*
X0456224Y0044217D01*
X0456222Y0044059D01*
X0456216Y0043901D01*
X0456206Y0043743D01*
X0456192Y0043585D01*
X0456174Y0043428D01*
X0456153Y0043271D01*
X0456127Y0043115D01*
X0456097Y0042959D01*
X0456064Y0042804D01*
X0456026Y0042651D01*
X0455985Y0042498D01*
X0455940Y0042346D01*
X0455891Y0042195D01*
X0455838Y0042046D01*
X0455782Y0041898D01*
X0455722Y0041752D01*
X0455658Y0041607D01*
X0455590Y0041464D01*
X0455519Y0041322D01*
X0455445Y0041182D01*
X0455367Y0041045D01*
X0455285Y0040909D01*
X0455201Y0040775D01*
X0455112Y0040644D01*
X0455021Y0040515D01*
X0454926Y0040388D01*
X0454829Y0040263D01*
X0454728Y0040141D01*
X0454624Y0040022D01*
X0454517Y0039905D01*
X0454407Y0039791D01*
X0454294Y0039680D01*
X0454179Y0039571D01*
X0454061Y0039466D01*
X0453940Y0039364D01*
X0453817Y0039264D01*
X0453691Y0039168D01*
X0453563Y0039075D01*
X0453433Y0038985D01*
X0453300Y0038899D01*
X0453165Y0038815D01*
X0453029Y0038736D01*
X0452890Y0038659D01*
X0452749Y0038587D01*
X0452607Y0038517D01*
X0452463Y0038452D01*
X0452317Y0038390D01*
X0452170Y0038332D01*
X0452021Y0038277D01*
X0451871Y0038226D01*
X0451720Y0038179D01*
X0451568Y0038136D01*
X0451415Y0038097D01*
X0451260Y0038061D01*
X0451105Y0038030D01*
X0450949Y0038002D01*
X0450793Y0037978D01*
X0450636Y0037958D01*
X0450478Y0037942D01*
X0450321Y0037930D01*
X0450162Y0037922D01*
X0450004Y0037918D01*
X0449846Y0037918D01*
X0449688Y0037922D01*
X0449529Y0037930D01*
X0449372Y0037942D01*
X0449214Y0037958D01*
X0449057Y0037978D01*
X0448901Y0038002D01*
X0448745Y0038030D01*
X0448590Y0038061D01*
X0448435Y0038097D01*
X0448282Y0038136D01*
X0448130Y0038179D01*
X0447979Y0038226D01*
X0447829Y0038277D01*
X0447680Y0038332D01*
X0447533Y0038390D01*
X0447387Y0038452D01*
X0447243Y0038517D01*
X0447101Y0038587D01*
X0446960Y0038659D01*
X0446821Y0038736D01*
X0446685Y0038815D01*
X0446550Y0038899D01*
X0446417Y0038985D01*
X0446287Y0039075D01*
X0446159Y0039168D01*
X0446033Y0039264D01*
X0445910Y0039364D01*
X0445789Y0039466D01*
X0445671Y0039571D01*
X0445556Y0039680D01*
X0445443Y0039791D01*
X0445333Y0039905D01*
X0445226Y0040022D01*
X0445122Y0040141D01*
X0445021Y0040263D01*
X0444924Y0040388D01*
X0444829Y0040515D01*
X0444738Y0040644D01*
X0444649Y0040775D01*
X0444565Y0040909D01*
X0444483Y0041045D01*
X0444405Y0041182D01*
X0444331Y0041322D01*
X0444260Y0041464D01*
X0444192Y0041607D01*
X0444128Y0041752D01*
X0444068Y0041898D01*
X0444012Y0042046D01*
X0443959Y0042195D01*
X0443910Y0042346D01*
X0443865Y0042498D01*
X0443824Y0042651D01*
X0443786Y0042804D01*
X0443753Y0042959D01*
X0443723Y0043115D01*
X0443697Y0043271D01*
X0443676Y0043428D01*
X0443658Y0043585D01*
X0443644Y0043743D01*
X0443634Y0043901D01*
X0443628Y0044059D01*
X0443626Y0044217D01*
X0438902Y0430043D02*
X0438904Y0430201D01*
X0438910Y0430359D01*
X0438920Y0430517D01*
X0438934Y0430675D01*
X0438952Y0430832D01*
X0438973Y0430989D01*
X0438999Y0431145D01*
X0439029Y0431301D01*
X0439062Y0431456D01*
X0439100Y0431609D01*
X0439141Y0431762D01*
X0439186Y0431914D01*
X0439235Y0432065D01*
X0439288Y0432214D01*
X0439344Y0432362D01*
X0439404Y0432508D01*
X0439468Y0432653D01*
X0439536Y0432796D01*
X0439607Y0432938D01*
X0439681Y0433078D01*
X0439759Y0433215D01*
X0439841Y0433351D01*
X0439925Y0433485D01*
X0440014Y0433616D01*
X0440105Y0433745D01*
X0440200Y0433872D01*
X0440297Y0433997D01*
X0440398Y0434119D01*
X0440502Y0434238D01*
X0440609Y0434355D01*
X0440719Y0434469D01*
X0440832Y0434580D01*
X0440947Y0434689D01*
X0441065Y0434794D01*
X0441186Y0434896D01*
X0441309Y0434996D01*
X0441435Y0435092D01*
X0441563Y0435185D01*
X0441693Y0435275D01*
X0441826Y0435361D01*
X0441961Y0435445D01*
X0442097Y0435524D01*
X0442236Y0435601D01*
X0442377Y0435673D01*
X0442519Y0435743D01*
X0442663Y0435808D01*
X0442809Y0435870D01*
X0442956Y0435928D01*
X0443105Y0435983D01*
X0443255Y0436034D01*
X0443406Y0436081D01*
X0443558Y0436124D01*
X0443711Y0436163D01*
X0443866Y0436199D01*
X0444021Y0436230D01*
X0444177Y0436258D01*
X0444333Y0436282D01*
X0444490Y0436302D01*
X0444648Y0436318D01*
X0444805Y0436330D01*
X0444964Y0436338D01*
X0445122Y0436342D01*
X0445280Y0436342D01*
X0445438Y0436338D01*
X0445597Y0436330D01*
X0445754Y0436318D01*
X0445912Y0436302D01*
X0446069Y0436282D01*
X0446225Y0436258D01*
X0446381Y0436230D01*
X0446536Y0436199D01*
X0446691Y0436163D01*
X0446844Y0436124D01*
X0446996Y0436081D01*
X0447147Y0436034D01*
X0447297Y0435983D01*
X0447446Y0435928D01*
X0447593Y0435870D01*
X0447739Y0435808D01*
X0447883Y0435743D01*
X0448025Y0435673D01*
X0448166Y0435601D01*
X0448305Y0435524D01*
X0448441Y0435445D01*
X0448576Y0435361D01*
X0448709Y0435275D01*
X0448839Y0435185D01*
X0448967Y0435092D01*
X0449093Y0434996D01*
X0449216Y0434896D01*
X0449337Y0434794D01*
X0449455Y0434689D01*
X0449570Y0434580D01*
X0449683Y0434469D01*
X0449793Y0434355D01*
X0449900Y0434238D01*
X0450004Y0434119D01*
X0450105Y0433997D01*
X0450202Y0433872D01*
X0450297Y0433745D01*
X0450388Y0433616D01*
X0450477Y0433485D01*
X0450561Y0433351D01*
X0450643Y0433215D01*
X0450721Y0433078D01*
X0450795Y0432938D01*
X0450866Y0432796D01*
X0450934Y0432653D01*
X0450998Y0432508D01*
X0451058Y0432362D01*
X0451114Y0432214D01*
X0451167Y0432065D01*
X0451216Y0431914D01*
X0451261Y0431762D01*
X0451302Y0431609D01*
X0451340Y0431456D01*
X0451373Y0431301D01*
X0451403Y0431145D01*
X0451429Y0430989D01*
X0451450Y0430832D01*
X0451468Y0430675D01*
X0451482Y0430517D01*
X0451492Y0430359D01*
X0451498Y0430201D01*
X0451500Y0430043D01*
X0451498Y0429885D01*
X0451492Y0429727D01*
X0451482Y0429569D01*
X0451468Y0429411D01*
X0451450Y0429254D01*
X0451429Y0429097D01*
X0451403Y0428941D01*
X0451373Y0428785D01*
X0451340Y0428630D01*
X0451302Y0428477D01*
X0451261Y0428324D01*
X0451216Y0428172D01*
X0451167Y0428021D01*
X0451114Y0427872D01*
X0451058Y0427724D01*
X0450998Y0427578D01*
X0450934Y0427433D01*
X0450866Y0427290D01*
X0450795Y0427148D01*
X0450721Y0427008D01*
X0450643Y0426871D01*
X0450561Y0426735D01*
X0450477Y0426601D01*
X0450388Y0426470D01*
X0450297Y0426341D01*
X0450202Y0426214D01*
X0450105Y0426089D01*
X0450004Y0425967D01*
X0449900Y0425848D01*
X0449793Y0425731D01*
X0449683Y0425617D01*
X0449570Y0425506D01*
X0449455Y0425397D01*
X0449337Y0425292D01*
X0449216Y0425190D01*
X0449093Y0425090D01*
X0448967Y0424994D01*
X0448839Y0424901D01*
X0448709Y0424811D01*
X0448576Y0424725D01*
X0448441Y0424641D01*
X0448305Y0424562D01*
X0448166Y0424485D01*
X0448025Y0424413D01*
X0447883Y0424343D01*
X0447739Y0424278D01*
X0447593Y0424216D01*
X0447446Y0424158D01*
X0447297Y0424103D01*
X0447147Y0424052D01*
X0446996Y0424005D01*
X0446844Y0423962D01*
X0446691Y0423923D01*
X0446536Y0423887D01*
X0446381Y0423856D01*
X0446225Y0423828D01*
X0446069Y0423804D01*
X0445912Y0423784D01*
X0445754Y0423768D01*
X0445597Y0423756D01*
X0445438Y0423748D01*
X0445280Y0423744D01*
X0445122Y0423744D01*
X0444964Y0423748D01*
X0444805Y0423756D01*
X0444648Y0423768D01*
X0444490Y0423784D01*
X0444333Y0423804D01*
X0444177Y0423828D01*
X0444021Y0423856D01*
X0443866Y0423887D01*
X0443711Y0423923D01*
X0443558Y0423962D01*
X0443406Y0424005D01*
X0443255Y0424052D01*
X0443105Y0424103D01*
X0442956Y0424158D01*
X0442809Y0424216D01*
X0442663Y0424278D01*
X0442519Y0424343D01*
X0442377Y0424413D01*
X0442236Y0424485D01*
X0442097Y0424562D01*
X0441961Y0424641D01*
X0441826Y0424725D01*
X0441693Y0424811D01*
X0441563Y0424901D01*
X0441435Y0424994D01*
X0441309Y0425090D01*
X0441186Y0425190D01*
X0441065Y0425292D01*
X0440947Y0425397D01*
X0440832Y0425506D01*
X0440719Y0425617D01*
X0440609Y0425731D01*
X0440502Y0425848D01*
X0440398Y0425967D01*
X0440297Y0426089D01*
X0440200Y0426214D01*
X0440105Y0426341D01*
X0440014Y0426470D01*
X0439925Y0426601D01*
X0439841Y0426735D01*
X0439759Y0426871D01*
X0439681Y0427008D01*
X0439607Y0427148D01*
X0439536Y0427290D01*
X0439468Y0427433D01*
X0439404Y0427578D01*
X0439344Y0427724D01*
X0439288Y0427872D01*
X0439235Y0428021D01*
X0439186Y0428172D01*
X0439141Y0428324D01*
X0439100Y0428477D01*
X0439062Y0428630D01*
X0439029Y0428785D01*
X0438999Y0428941D01*
X0438973Y0429097D01*
X0438952Y0429254D01*
X0438934Y0429411D01*
X0438920Y0429569D01*
X0438910Y0429727D01*
X0438904Y0429885D01*
X0438902Y0430043D01*
M02*
