G75*
%MOIN*%
%OFA0B0*%
%FSLAX25Y25*%
%IPPOS*%
%LPD*%
%AMOC8*
5,1,8,0,0,1.08239X$1,22.5*
%
%ADD10C,0.00000*%
D10*
X0048543Y0001300D02*
X0046969Y0370198D01*
X0504055Y0370198D01*
X0505630Y0001300D01*
X0048543Y0001300D01*
X0058701Y0115906D02*
X0058703Y0116064D01*
X0058709Y0116222D01*
X0058719Y0116380D01*
X0058733Y0116538D01*
X0058751Y0116695D01*
X0058772Y0116852D01*
X0058798Y0117008D01*
X0058828Y0117164D01*
X0058861Y0117319D01*
X0058899Y0117472D01*
X0058940Y0117625D01*
X0058985Y0117777D01*
X0059034Y0117928D01*
X0059087Y0118077D01*
X0059143Y0118225D01*
X0059203Y0118371D01*
X0059267Y0118516D01*
X0059335Y0118659D01*
X0059406Y0118801D01*
X0059480Y0118941D01*
X0059558Y0119078D01*
X0059640Y0119214D01*
X0059724Y0119348D01*
X0059813Y0119479D01*
X0059904Y0119608D01*
X0059999Y0119735D01*
X0060096Y0119860D01*
X0060197Y0119982D01*
X0060301Y0120101D01*
X0060408Y0120218D01*
X0060518Y0120332D01*
X0060631Y0120443D01*
X0060746Y0120552D01*
X0060864Y0120657D01*
X0060985Y0120759D01*
X0061108Y0120859D01*
X0061234Y0120955D01*
X0061362Y0121048D01*
X0061492Y0121138D01*
X0061625Y0121224D01*
X0061760Y0121308D01*
X0061896Y0121387D01*
X0062035Y0121464D01*
X0062176Y0121536D01*
X0062318Y0121606D01*
X0062462Y0121671D01*
X0062608Y0121733D01*
X0062755Y0121791D01*
X0062904Y0121846D01*
X0063054Y0121897D01*
X0063205Y0121944D01*
X0063357Y0121987D01*
X0063510Y0122026D01*
X0063665Y0122062D01*
X0063820Y0122093D01*
X0063976Y0122121D01*
X0064132Y0122145D01*
X0064289Y0122165D01*
X0064447Y0122181D01*
X0064604Y0122193D01*
X0064763Y0122201D01*
X0064921Y0122205D01*
X0065079Y0122205D01*
X0065237Y0122201D01*
X0065396Y0122193D01*
X0065553Y0122181D01*
X0065711Y0122165D01*
X0065868Y0122145D01*
X0066024Y0122121D01*
X0066180Y0122093D01*
X0066335Y0122062D01*
X0066490Y0122026D01*
X0066643Y0121987D01*
X0066795Y0121944D01*
X0066946Y0121897D01*
X0067096Y0121846D01*
X0067245Y0121791D01*
X0067392Y0121733D01*
X0067538Y0121671D01*
X0067682Y0121606D01*
X0067824Y0121536D01*
X0067965Y0121464D01*
X0068104Y0121387D01*
X0068240Y0121308D01*
X0068375Y0121224D01*
X0068508Y0121138D01*
X0068638Y0121048D01*
X0068766Y0120955D01*
X0068892Y0120859D01*
X0069015Y0120759D01*
X0069136Y0120657D01*
X0069254Y0120552D01*
X0069369Y0120443D01*
X0069482Y0120332D01*
X0069592Y0120218D01*
X0069699Y0120101D01*
X0069803Y0119982D01*
X0069904Y0119860D01*
X0070001Y0119735D01*
X0070096Y0119608D01*
X0070187Y0119479D01*
X0070276Y0119348D01*
X0070360Y0119214D01*
X0070442Y0119078D01*
X0070520Y0118941D01*
X0070594Y0118801D01*
X0070665Y0118659D01*
X0070733Y0118516D01*
X0070797Y0118371D01*
X0070857Y0118225D01*
X0070913Y0118077D01*
X0070966Y0117928D01*
X0071015Y0117777D01*
X0071060Y0117625D01*
X0071101Y0117472D01*
X0071139Y0117319D01*
X0071172Y0117164D01*
X0071202Y0117008D01*
X0071228Y0116852D01*
X0071249Y0116695D01*
X0071267Y0116538D01*
X0071281Y0116380D01*
X0071291Y0116222D01*
X0071297Y0116064D01*
X0071299Y0115906D01*
X0071297Y0115748D01*
X0071291Y0115590D01*
X0071281Y0115432D01*
X0071267Y0115274D01*
X0071249Y0115117D01*
X0071228Y0114960D01*
X0071202Y0114804D01*
X0071172Y0114648D01*
X0071139Y0114493D01*
X0071101Y0114340D01*
X0071060Y0114187D01*
X0071015Y0114035D01*
X0070966Y0113884D01*
X0070913Y0113735D01*
X0070857Y0113587D01*
X0070797Y0113441D01*
X0070733Y0113296D01*
X0070665Y0113153D01*
X0070594Y0113011D01*
X0070520Y0112871D01*
X0070442Y0112734D01*
X0070360Y0112598D01*
X0070276Y0112464D01*
X0070187Y0112333D01*
X0070096Y0112204D01*
X0070001Y0112077D01*
X0069904Y0111952D01*
X0069803Y0111830D01*
X0069699Y0111711D01*
X0069592Y0111594D01*
X0069482Y0111480D01*
X0069369Y0111369D01*
X0069254Y0111260D01*
X0069136Y0111155D01*
X0069015Y0111053D01*
X0068892Y0110953D01*
X0068766Y0110857D01*
X0068638Y0110764D01*
X0068508Y0110674D01*
X0068375Y0110588D01*
X0068240Y0110504D01*
X0068104Y0110425D01*
X0067965Y0110348D01*
X0067824Y0110276D01*
X0067682Y0110206D01*
X0067538Y0110141D01*
X0067392Y0110079D01*
X0067245Y0110021D01*
X0067096Y0109966D01*
X0066946Y0109915D01*
X0066795Y0109868D01*
X0066643Y0109825D01*
X0066490Y0109786D01*
X0066335Y0109750D01*
X0066180Y0109719D01*
X0066024Y0109691D01*
X0065868Y0109667D01*
X0065711Y0109647D01*
X0065553Y0109631D01*
X0065396Y0109619D01*
X0065237Y0109611D01*
X0065079Y0109607D01*
X0064921Y0109607D01*
X0064763Y0109611D01*
X0064604Y0109619D01*
X0064447Y0109631D01*
X0064289Y0109647D01*
X0064132Y0109667D01*
X0063976Y0109691D01*
X0063820Y0109719D01*
X0063665Y0109750D01*
X0063510Y0109786D01*
X0063357Y0109825D01*
X0063205Y0109868D01*
X0063054Y0109915D01*
X0062904Y0109966D01*
X0062755Y0110021D01*
X0062608Y0110079D01*
X0062462Y0110141D01*
X0062318Y0110206D01*
X0062176Y0110276D01*
X0062035Y0110348D01*
X0061896Y0110425D01*
X0061760Y0110504D01*
X0061625Y0110588D01*
X0061492Y0110674D01*
X0061362Y0110764D01*
X0061234Y0110857D01*
X0061108Y0110953D01*
X0060985Y0111053D01*
X0060864Y0111155D01*
X0060746Y0111260D01*
X0060631Y0111369D01*
X0060518Y0111480D01*
X0060408Y0111594D01*
X0060301Y0111711D01*
X0060197Y0111830D01*
X0060096Y0111952D01*
X0059999Y0112077D01*
X0059904Y0112204D01*
X0059813Y0112333D01*
X0059724Y0112464D01*
X0059640Y0112598D01*
X0059558Y0112734D01*
X0059480Y0112871D01*
X0059406Y0113011D01*
X0059335Y0113153D01*
X0059267Y0113296D01*
X0059203Y0113441D01*
X0059143Y0113587D01*
X0059087Y0113735D01*
X0059034Y0113884D01*
X0058985Y0114035D01*
X0058940Y0114187D01*
X0058899Y0114340D01*
X0058861Y0114493D01*
X0058828Y0114648D01*
X0058798Y0114804D01*
X0058772Y0114960D01*
X0058751Y0115117D01*
X0058733Y0115274D01*
X0058719Y0115432D01*
X0058709Y0115590D01*
X0058703Y0115748D01*
X0058701Y0115906D01*
X0058701Y0305906D02*
X0058703Y0306064D01*
X0058709Y0306222D01*
X0058719Y0306380D01*
X0058733Y0306538D01*
X0058751Y0306695D01*
X0058772Y0306852D01*
X0058798Y0307008D01*
X0058828Y0307164D01*
X0058861Y0307319D01*
X0058899Y0307472D01*
X0058940Y0307625D01*
X0058985Y0307777D01*
X0059034Y0307928D01*
X0059087Y0308077D01*
X0059143Y0308225D01*
X0059203Y0308371D01*
X0059267Y0308516D01*
X0059335Y0308659D01*
X0059406Y0308801D01*
X0059480Y0308941D01*
X0059558Y0309078D01*
X0059640Y0309214D01*
X0059724Y0309348D01*
X0059813Y0309479D01*
X0059904Y0309608D01*
X0059999Y0309735D01*
X0060096Y0309860D01*
X0060197Y0309982D01*
X0060301Y0310101D01*
X0060408Y0310218D01*
X0060518Y0310332D01*
X0060631Y0310443D01*
X0060746Y0310552D01*
X0060864Y0310657D01*
X0060985Y0310759D01*
X0061108Y0310859D01*
X0061234Y0310955D01*
X0061362Y0311048D01*
X0061492Y0311138D01*
X0061625Y0311224D01*
X0061760Y0311308D01*
X0061896Y0311387D01*
X0062035Y0311464D01*
X0062176Y0311536D01*
X0062318Y0311606D01*
X0062462Y0311671D01*
X0062608Y0311733D01*
X0062755Y0311791D01*
X0062904Y0311846D01*
X0063054Y0311897D01*
X0063205Y0311944D01*
X0063357Y0311987D01*
X0063510Y0312026D01*
X0063665Y0312062D01*
X0063820Y0312093D01*
X0063976Y0312121D01*
X0064132Y0312145D01*
X0064289Y0312165D01*
X0064447Y0312181D01*
X0064604Y0312193D01*
X0064763Y0312201D01*
X0064921Y0312205D01*
X0065079Y0312205D01*
X0065237Y0312201D01*
X0065396Y0312193D01*
X0065553Y0312181D01*
X0065711Y0312165D01*
X0065868Y0312145D01*
X0066024Y0312121D01*
X0066180Y0312093D01*
X0066335Y0312062D01*
X0066490Y0312026D01*
X0066643Y0311987D01*
X0066795Y0311944D01*
X0066946Y0311897D01*
X0067096Y0311846D01*
X0067245Y0311791D01*
X0067392Y0311733D01*
X0067538Y0311671D01*
X0067682Y0311606D01*
X0067824Y0311536D01*
X0067965Y0311464D01*
X0068104Y0311387D01*
X0068240Y0311308D01*
X0068375Y0311224D01*
X0068508Y0311138D01*
X0068638Y0311048D01*
X0068766Y0310955D01*
X0068892Y0310859D01*
X0069015Y0310759D01*
X0069136Y0310657D01*
X0069254Y0310552D01*
X0069369Y0310443D01*
X0069482Y0310332D01*
X0069592Y0310218D01*
X0069699Y0310101D01*
X0069803Y0309982D01*
X0069904Y0309860D01*
X0070001Y0309735D01*
X0070096Y0309608D01*
X0070187Y0309479D01*
X0070276Y0309348D01*
X0070360Y0309214D01*
X0070442Y0309078D01*
X0070520Y0308941D01*
X0070594Y0308801D01*
X0070665Y0308659D01*
X0070733Y0308516D01*
X0070797Y0308371D01*
X0070857Y0308225D01*
X0070913Y0308077D01*
X0070966Y0307928D01*
X0071015Y0307777D01*
X0071060Y0307625D01*
X0071101Y0307472D01*
X0071139Y0307319D01*
X0071172Y0307164D01*
X0071202Y0307008D01*
X0071228Y0306852D01*
X0071249Y0306695D01*
X0071267Y0306538D01*
X0071281Y0306380D01*
X0071291Y0306222D01*
X0071297Y0306064D01*
X0071299Y0305906D01*
X0071297Y0305748D01*
X0071291Y0305590D01*
X0071281Y0305432D01*
X0071267Y0305274D01*
X0071249Y0305117D01*
X0071228Y0304960D01*
X0071202Y0304804D01*
X0071172Y0304648D01*
X0071139Y0304493D01*
X0071101Y0304340D01*
X0071060Y0304187D01*
X0071015Y0304035D01*
X0070966Y0303884D01*
X0070913Y0303735D01*
X0070857Y0303587D01*
X0070797Y0303441D01*
X0070733Y0303296D01*
X0070665Y0303153D01*
X0070594Y0303011D01*
X0070520Y0302871D01*
X0070442Y0302734D01*
X0070360Y0302598D01*
X0070276Y0302464D01*
X0070187Y0302333D01*
X0070096Y0302204D01*
X0070001Y0302077D01*
X0069904Y0301952D01*
X0069803Y0301830D01*
X0069699Y0301711D01*
X0069592Y0301594D01*
X0069482Y0301480D01*
X0069369Y0301369D01*
X0069254Y0301260D01*
X0069136Y0301155D01*
X0069015Y0301053D01*
X0068892Y0300953D01*
X0068766Y0300857D01*
X0068638Y0300764D01*
X0068508Y0300674D01*
X0068375Y0300588D01*
X0068240Y0300504D01*
X0068104Y0300425D01*
X0067965Y0300348D01*
X0067824Y0300276D01*
X0067682Y0300206D01*
X0067538Y0300141D01*
X0067392Y0300079D01*
X0067245Y0300021D01*
X0067096Y0299966D01*
X0066946Y0299915D01*
X0066795Y0299868D01*
X0066643Y0299825D01*
X0066490Y0299786D01*
X0066335Y0299750D01*
X0066180Y0299719D01*
X0066024Y0299691D01*
X0065868Y0299667D01*
X0065711Y0299647D01*
X0065553Y0299631D01*
X0065396Y0299619D01*
X0065237Y0299611D01*
X0065079Y0299607D01*
X0064921Y0299607D01*
X0064763Y0299611D01*
X0064604Y0299619D01*
X0064447Y0299631D01*
X0064289Y0299647D01*
X0064132Y0299667D01*
X0063976Y0299691D01*
X0063820Y0299719D01*
X0063665Y0299750D01*
X0063510Y0299786D01*
X0063357Y0299825D01*
X0063205Y0299868D01*
X0063054Y0299915D01*
X0062904Y0299966D01*
X0062755Y0300021D01*
X0062608Y0300079D01*
X0062462Y0300141D01*
X0062318Y0300206D01*
X0062176Y0300276D01*
X0062035Y0300348D01*
X0061896Y0300425D01*
X0061760Y0300504D01*
X0061625Y0300588D01*
X0061492Y0300674D01*
X0061362Y0300764D01*
X0061234Y0300857D01*
X0061108Y0300953D01*
X0060985Y0301053D01*
X0060864Y0301155D01*
X0060746Y0301260D01*
X0060631Y0301369D01*
X0060518Y0301480D01*
X0060408Y0301594D01*
X0060301Y0301711D01*
X0060197Y0301830D01*
X0060096Y0301952D01*
X0059999Y0302077D01*
X0059904Y0302204D01*
X0059813Y0302333D01*
X0059724Y0302464D01*
X0059640Y0302598D01*
X0059558Y0302734D01*
X0059480Y0302871D01*
X0059406Y0303011D01*
X0059335Y0303153D01*
X0059267Y0303296D01*
X0059203Y0303441D01*
X0059143Y0303587D01*
X0059087Y0303735D01*
X0059034Y0303884D01*
X0058985Y0304035D01*
X0058940Y0304187D01*
X0058899Y0304340D01*
X0058861Y0304493D01*
X0058828Y0304648D01*
X0058798Y0304804D01*
X0058772Y0304960D01*
X0058751Y0305117D01*
X0058733Y0305274D01*
X0058719Y0305432D01*
X0058709Y0305590D01*
X0058703Y0305748D01*
X0058701Y0305906D01*
X0293063Y0215906D02*
X0293065Y0216031D01*
X0293071Y0216156D01*
X0293081Y0216280D01*
X0293095Y0216404D01*
X0293112Y0216528D01*
X0293134Y0216651D01*
X0293160Y0216773D01*
X0293189Y0216895D01*
X0293222Y0217015D01*
X0293260Y0217134D01*
X0293300Y0217253D01*
X0293345Y0217369D01*
X0293393Y0217484D01*
X0293445Y0217598D01*
X0293501Y0217710D01*
X0293560Y0217820D01*
X0293622Y0217928D01*
X0293688Y0218035D01*
X0293757Y0218139D01*
X0293830Y0218240D01*
X0293905Y0218340D01*
X0293984Y0218437D01*
X0294066Y0218531D01*
X0294151Y0218623D01*
X0294238Y0218712D01*
X0294329Y0218798D01*
X0294422Y0218881D01*
X0294518Y0218962D01*
X0294616Y0219039D01*
X0294716Y0219113D01*
X0294819Y0219184D01*
X0294924Y0219251D01*
X0295032Y0219316D01*
X0295141Y0219376D01*
X0295252Y0219434D01*
X0295365Y0219487D01*
X0295479Y0219537D01*
X0295595Y0219584D01*
X0295712Y0219626D01*
X0295831Y0219665D01*
X0295951Y0219701D01*
X0296072Y0219732D01*
X0296194Y0219760D01*
X0296316Y0219783D01*
X0296440Y0219803D01*
X0296564Y0219819D01*
X0296688Y0219831D01*
X0296813Y0219839D01*
X0296938Y0219843D01*
X0297062Y0219843D01*
X0297187Y0219839D01*
X0297312Y0219831D01*
X0297436Y0219819D01*
X0297560Y0219803D01*
X0297684Y0219783D01*
X0297806Y0219760D01*
X0297928Y0219732D01*
X0298049Y0219701D01*
X0298169Y0219665D01*
X0298288Y0219626D01*
X0298405Y0219584D01*
X0298521Y0219537D01*
X0298635Y0219487D01*
X0298748Y0219434D01*
X0298859Y0219376D01*
X0298969Y0219316D01*
X0299076Y0219251D01*
X0299181Y0219184D01*
X0299284Y0219113D01*
X0299384Y0219039D01*
X0299482Y0218962D01*
X0299578Y0218881D01*
X0299671Y0218798D01*
X0299762Y0218712D01*
X0299849Y0218623D01*
X0299934Y0218531D01*
X0300016Y0218437D01*
X0300095Y0218340D01*
X0300170Y0218240D01*
X0300243Y0218139D01*
X0300312Y0218035D01*
X0300378Y0217928D01*
X0300440Y0217820D01*
X0300499Y0217710D01*
X0300555Y0217598D01*
X0300607Y0217484D01*
X0300655Y0217369D01*
X0300700Y0217253D01*
X0300740Y0217134D01*
X0300778Y0217015D01*
X0300811Y0216895D01*
X0300840Y0216773D01*
X0300866Y0216651D01*
X0300888Y0216528D01*
X0300905Y0216404D01*
X0300919Y0216280D01*
X0300929Y0216156D01*
X0300935Y0216031D01*
X0300937Y0215906D01*
X0300935Y0215781D01*
X0300929Y0215656D01*
X0300919Y0215532D01*
X0300905Y0215408D01*
X0300888Y0215284D01*
X0300866Y0215161D01*
X0300840Y0215039D01*
X0300811Y0214917D01*
X0300778Y0214797D01*
X0300740Y0214678D01*
X0300700Y0214559D01*
X0300655Y0214443D01*
X0300607Y0214328D01*
X0300555Y0214214D01*
X0300499Y0214102D01*
X0300440Y0213992D01*
X0300378Y0213884D01*
X0300312Y0213777D01*
X0300243Y0213673D01*
X0300170Y0213572D01*
X0300095Y0213472D01*
X0300016Y0213375D01*
X0299934Y0213281D01*
X0299849Y0213189D01*
X0299762Y0213100D01*
X0299671Y0213014D01*
X0299578Y0212931D01*
X0299482Y0212850D01*
X0299384Y0212773D01*
X0299284Y0212699D01*
X0299181Y0212628D01*
X0299076Y0212561D01*
X0298968Y0212496D01*
X0298859Y0212436D01*
X0298748Y0212378D01*
X0298635Y0212325D01*
X0298521Y0212275D01*
X0298405Y0212228D01*
X0298288Y0212186D01*
X0298169Y0212147D01*
X0298049Y0212111D01*
X0297928Y0212080D01*
X0297806Y0212052D01*
X0297684Y0212029D01*
X0297560Y0212009D01*
X0297436Y0211993D01*
X0297312Y0211981D01*
X0297187Y0211973D01*
X0297062Y0211969D01*
X0296938Y0211969D01*
X0296813Y0211973D01*
X0296688Y0211981D01*
X0296564Y0211993D01*
X0296440Y0212009D01*
X0296316Y0212029D01*
X0296194Y0212052D01*
X0296072Y0212080D01*
X0295951Y0212111D01*
X0295831Y0212147D01*
X0295712Y0212186D01*
X0295595Y0212228D01*
X0295479Y0212275D01*
X0295365Y0212325D01*
X0295252Y0212378D01*
X0295141Y0212436D01*
X0295031Y0212496D01*
X0294924Y0212561D01*
X0294819Y0212628D01*
X0294716Y0212699D01*
X0294616Y0212773D01*
X0294518Y0212850D01*
X0294422Y0212931D01*
X0294329Y0213014D01*
X0294238Y0213100D01*
X0294151Y0213189D01*
X0294066Y0213281D01*
X0293984Y0213375D01*
X0293905Y0213472D01*
X0293830Y0213572D01*
X0293757Y0213673D01*
X0293688Y0213777D01*
X0293622Y0213884D01*
X0293560Y0213992D01*
X0293501Y0214102D01*
X0293445Y0214214D01*
X0293393Y0214328D01*
X0293345Y0214443D01*
X0293300Y0214559D01*
X0293260Y0214678D01*
X0293222Y0214797D01*
X0293189Y0214917D01*
X0293160Y0215039D01*
X0293134Y0215161D01*
X0293112Y0215284D01*
X0293095Y0215408D01*
X0293081Y0215532D01*
X0293071Y0215656D01*
X0293065Y0215781D01*
X0293063Y0215906D01*
X0353701Y0305906D02*
X0353703Y0306064D01*
X0353709Y0306222D01*
X0353719Y0306380D01*
X0353733Y0306538D01*
X0353751Y0306695D01*
X0353772Y0306852D01*
X0353798Y0307008D01*
X0353828Y0307164D01*
X0353861Y0307319D01*
X0353899Y0307472D01*
X0353940Y0307625D01*
X0353985Y0307777D01*
X0354034Y0307928D01*
X0354087Y0308077D01*
X0354143Y0308225D01*
X0354203Y0308371D01*
X0354267Y0308516D01*
X0354335Y0308659D01*
X0354406Y0308801D01*
X0354480Y0308941D01*
X0354558Y0309078D01*
X0354640Y0309214D01*
X0354724Y0309348D01*
X0354813Y0309479D01*
X0354904Y0309608D01*
X0354999Y0309735D01*
X0355096Y0309860D01*
X0355197Y0309982D01*
X0355301Y0310101D01*
X0355408Y0310218D01*
X0355518Y0310332D01*
X0355631Y0310443D01*
X0355746Y0310552D01*
X0355864Y0310657D01*
X0355985Y0310759D01*
X0356108Y0310859D01*
X0356234Y0310955D01*
X0356362Y0311048D01*
X0356492Y0311138D01*
X0356625Y0311224D01*
X0356760Y0311308D01*
X0356896Y0311387D01*
X0357035Y0311464D01*
X0357176Y0311536D01*
X0357318Y0311606D01*
X0357462Y0311671D01*
X0357608Y0311733D01*
X0357755Y0311791D01*
X0357904Y0311846D01*
X0358054Y0311897D01*
X0358205Y0311944D01*
X0358357Y0311987D01*
X0358510Y0312026D01*
X0358665Y0312062D01*
X0358820Y0312093D01*
X0358976Y0312121D01*
X0359132Y0312145D01*
X0359289Y0312165D01*
X0359447Y0312181D01*
X0359604Y0312193D01*
X0359763Y0312201D01*
X0359921Y0312205D01*
X0360079Y0312205D01*
X0360237Y0312201D01*
X0360396Y0312193D01*
X0360553Y0312181D01*
X0360711Y0312165D01*
X0360868Y0312145D01*
X0361024Y0312121D01*
X0361180Y0312093D01*
X0361335Y0312062D01*
X0361490Y0312026D01*
X0361643Y0311987D01*
X0361795Y0311944D01*
X0361946Y0311897D01*
X0362096Y0311846D01*
X0362245Y0311791D01*
X0362392Y0311733D01*
X0362538Y0311671D01*
X0362682Y0311606D01*
X0362824Y0311536D01*
X0362965Y0311464D01*
X0363104Y0311387D01*
X0363240Y0311308D01*
X0363375Y0311224D01*
X0363508Y0311138D01*
X0363638Y0311048D01*
X0363766Y0310955D01*
X0363892Y0310859D01*
X0364015Y0310759D01*
X0364136Y0310657D01*
X0364254Y0310552D01*
X0364369Y0310443D01*
X0364482Y0310332D01*
X0364592Y0310218D01*
X0364699Y0310101D01*
X0364803Y0309982D01*
X0364904Y0309860D01*
X0365001Y0309735D01*
X0365096Y0309608D01*
X0365187Y0309479D01*
X0365276Y0309348D01*
X0365360Y0309214D01*
X0365442Y0309078D01*
X0365520Y0308941D01*
X0365594Y0308801D01*
X0365665Y0308659D01*
X0365733Y0308516D01*
X0365797Y0308371D01*
X0365857Y0308225D01*
X0365913Y0308077D01*
X0365966Y0307928D01*
X0366015Y0307777D01*
X0366060Y0307625D01*
X0366101Y0307472D01*
X0366139Y0307319D01*
X0366172Y0307164D01*
X0366202Y0307008D01*
X0366228Y0306852D01*
X0366249Y0306695D01*
X0366267Y0306538D01*
X0366281Y0306380D01*
X0366291Y0306222D01*
X0366297Y0306064D01*
X0366299Y0305906D01*
X0366297Y0305748D01*
X0366291Y0305590D01*
X0366281Y0305432D01*
X0366267Y0305274D01*
X0366249Y0305117D01*
X0366228Y0304960D01*
X0366202Y0304804D01*
X0366172Y0304648D01*
X0366139Y0304493D01*
X0366101Y0304340D01*
X0366060Y0304187D01*
X0366015Y0304035D01*
X0365966Y0303884D01*
X0365913Y0303735D01*
X0365857Y0303587D01*
X0365797Y0303441D01*
X0365733Y0303296D01*
X0365665Y0303153D01*
X0365594Y0303011D01*
X0365520Y0302871D01*
X0365442Y0302734D01*
X0365360Y0302598D01*
X0365276Y0302464D01*
X0365187Y0302333D01*
X0365096Y0302204D01*
X0365001Y0302077D01*
X0364904Y0301952D01*
X0364803Y0301830D01*
X0364699Y0301711D01*
X0364592Y0301594D01*
X0364482Y0301480D01*
X0364369Y0301369D01*
X0364254Y0301260D01*
X0364136Y0301155D01*
X0364015Y0301053D01*
X0363892Y0300953D01*
X0363766Y0300857D01*
X0363638Y0300764D01*
X0363508Y0300674D01*
X0363375Y0300588D01*
X0363240Y0300504D01*
X0363104Y0300425D01*
X0362965Y0300348D01*
X0362824Y0300276D01*
X0362682Y0300206D01*
X0362538Y0300141D01*
X0362392Y0300079D01*
X0362245Y0300021D01*
X0362096Y0299966D01*
X0361946Y0299915D01*
X0361795Y0299868D01*
X0361643Y0299825D01*
X0361490Y0299786D01*
X0361335Y0299750D01*
X0361180Y0299719D01*
X0361024Y0299691D01*
X0360868Y0299667D01*
X0360711Y0299647D01*
X0360553Y0299631D01*
X0360396Y0299619D01*
X0360237Y0299611D01*
X0360079Y0299607D01*
X0359921Y0299607D01*
X0359763Y0299611D01*
X0359604Y0299619D01*
X0359447Y0299631D01*
X0359289Y0299647D01*
X0359132Y0299667D01*
X0358976Y0299691D01*
X0358820Y0299719D01*
X0358665Y0299750D01*
X0358510Y0299786D01*
X0358357Y0299825D01*
X0358205Y0299868D01*
X0358054Y0299915D01*
X0357904Y0299966D01*
X0357755Y0300021D01*
X0357608Y0300079D01*
X0357462Y0300141D01*
X0357318Y0300206D01*
X0357176Y0300276D01*
X0357035Y0300348D01*
X0356896Y0300425D01*
X0356760Y0300504D01*
X0356625Y0300588D01*
X0356492Y0300674D01*
X0356362Y0300764D01*
X0356234Y0300857D01*
X0356108Y0300953D01*
X0355985Y0301053D01*
X0355864Y0301155D01*
X0355746Y0301260D01*
X0355631Y0301369D01*
X0355518Y0301480D01*
X0355408Y0301594D01*
X0355301Y0301711D01*
X0355197Y0301830D01*
X0355096Y0301952D01*
X0354999Y0302077D01*
X0354904Y0302204D01*
X0354813Y0302333D01*
X0354724Y0302464D01*
X0354640Y0302598D01*
X0354558Y0302734D01*
X0354480Y0302871D01*
X0354406Y0303011D01*
X0354335Y0303153D01*
X0354267Y0303296D01*
X0354203Y0303441D01*
X0354143Y0303587D01*
X0354087Y0303735D01*
X0354034Y0303884D01*
X0353985Y0304035D01*
X0353940Y0304187D01*
X0353899Y0304340D01*
X0353861Y0304493D01*
X0353828Y0304648D01*
X0353798Y0304804D01*
X0353772Y0304960D01*
X0353751Y0305117D01*
X0353733Y0305274D01*
X0353719Y0305432D01*
X0353709Y0305590D01*
X0353703Y0305748D01*
X0353701Y0305906D01*
X0378701Y0115906D02*
X0378703Y0116064D01*
X0378709Y0116222D01*
X0378719Y0116380D01*
X0378733Y0116538D01*
X0378751Y0116695D01*
X0378772Y0116852D01*
X0378798Y0117008D01*
X0378828Y0117164D01*
X0378861Y0117319D01*
X0378899Y0117472D01*
X0378940Y0117625D01*
X0378985Y0117777D01*
X0379034Y0117928D01*
X0379087Y0118077D01*
X0379143Y0118225D01*
X0379203Y0118371D01*
X0379267Y0118516D01*
X0379335Y0118659D01*
X0379406Y0118801D01*
X0379480Y0118941D01*
X0379558Y0119078D01*
X0379640Y0119214D01*
X0379724Y0119348D01*
X0379813Y0119479D01*
X0379904Y0119608D01*
X0379999Y0119735D01*
X0380096Y0119860D01*
X0380197Y0119982D01*
X0380301Y0120101D01*
X0380408Y0120218D01*
X0380518Y0120332D01*
X0380631Y0120443D01*
X0380746Y0120552D01*
X0380864Y0120657D01*
X0380985Y0120759D01*
X0381108Y0120859D01*
X0381234Y0120955D01*
X0381362Y0121048D01*
X0381492Y0121138D01*
X0381625Y0121224D01*
X0381760Y0121308D01*
X0381896Y0121387D01*
X0382035Y0121464D01*
X0382176Y0121536D01*
X0382318Y0121606D01*
X0382462Y0121671D01*
X0382608Y0121733D01*
X0382755Y0121791D01*
X0382904Y0121846D01*
X0383054Y0121897D01*
X0383205Y0121944D01*
X0383357Y0121987D01*
X0383510Y0122026D01*
X0383665Y0122062D01*
X0383820Y0122093D01*
X0383976Y0122121D01*
X0384132Y0122145D01*
X0384289Y0122165D01*
X0384447Y0122181D01*
X0384604Y0122193D01*
X0384763Y0122201D01*
X0384921Y0122205D01*
X0385079Y0122205D01*
X0385237Y0122201D01*
X0385396Y0122193D01*
X0385553Y0122181D01*
X0385711Y0122165D01*
X0385868Y0122145D01*
X0386024Y0122121D01*
X0386180Y0122093D01*
X0386335Y0122062D01*
X0386490Y0122026D01*
X0386643Y0121987D01*
X0386795Y0121944D01*
X0386946Y0121897D01*
X0387096Y0121846D01*
X0387245Y0121791D01*
X0387392Y0121733D01*
X0387538Y0121671D01*
X0387682Y0121606D01*
X0387824Y0121536D01*
X0387965Y0121464D01*
X0388104Y0121387D01*
X0388240Y0121308D01*
X0388375Y0121224D01*
X0388508Y0121138D01*
X0388638Y0121048D01*
X0388766Y0120955D01*
X0388892Y0120859D01*
X0389015Y0120759D01*
X0389136Y0120657D01*
X0389254Y0120552D01*
X0389369Y0120443D01*
X0389482Y0120332D01*
X0389592Y0120218D01*
X0389699Y0120101D01*
X0389803Y0119982D01*
X0389904Y0119860D01*
X0390001Y0119735D01*
X0390096Y0119608D01*
X0390187Y0119479D01*
X0390276Y0119348D01*
X0390360Y0119214D01*
X0390442Y0119078D01*
X0390520Y0118941D01*
X0390594Y0118801D01*
X0390665Y0118659D01*
X0390733Y0118516D01*
X0390797Y0118371D01*
X0390857Y0118225D01*
X0390913Y0118077D01*
X0390966Y0117928D01*
X0391015Y0117777D01*
X0391060Y0117625D01*
X0391101Y0117472D01*
X0391139Y0117319D01*
X0391172Y0117164D01*
X0391202Y0117008D01*
X0391228Y0116852D01*
X0391249Y0116695D01*
X0391267Y0116538D01*
X0391281Y0116380D01*
X0391291Y0116222D01*
X0391297Y0116064D01*
X0391299Y0115906D01*
X0391297Y0115748D01*
X0391291Y0115590D01*
X0391281Y0115432D01*
X0391267Y0115274D01*
X0391249Y0115117D01*
X0391228Y0114960D01*
X0391202Y0114804D01*
X0391172Y0114648D01*
X0391139Y0114493D01*
X0391101Y0114340D01*
X0391060Y0114187D01*
X0391015Y0114035D01*
X0390966Y0113884D01*
X0390913Y0113735D01*
X0390857Y0113587D01*
X0390797Y0113441D01*
X0390733Y0113296D01*
X0390665Y0113153D01*
X0390594Y0113011D01*
X0390520Y0112871D01*
X0390442Y0112734D01*
X0390360Y0112598D01*
X0390276Y0112464D01*
X0390187Y0112333D01*
X0390096Y0112204D01*
X0390001Y0112077D01*
X0389904Y0111952D01*
X0389803Y0111830D01*
X0389699Y0111711D01*
X0389592Y0111594D01*
X0389482Y0111480D01*
X0389369Y0111369D01*
X0389254Y0111260D01*
X0389136Y0111155D01*
X0389015Y0111053D01*
X0388892Y0110953D01*
X0388766Y0110857D01*
X0388638Y0110764D01*
X0388508Y0110674D01*
X0388375Y0110588D01*
X0388240Y0110504D01*
X0388104Y0110425D01*
X0387965Y0110348D01*
X0387824Y0110276D01*
X0387682Y0110206D01*
X0387538Y0110141D01*
X0387392Y0110079D01*
X0387245Y0110021D01*
X0387096Y0109966D01*
X0386946Y0109915D01*
X0386795Y0109868D01*
X0386643Y0109825D01*
X0386490Y0109786D01*
X0386335Y0109750D01*
X0386180Y0109719D01*
X0386024Y0109691D01*
X0385868Y0109667D01*
X0385711Y0109647D01*
X0385553Y0109631D01*
X0385396Y0109619D01*
X0385237Y0109611D01*
X0385079Y0109607D01*
X0384921Y0109607D01*
X0384763Y0109611D01*
X0384604Y0109619D01*
X0384447Y0109631D01*
X0384289Y0109647D01*
X0384132Y0109667D01*
X0383976Y0109691D01*
X0383820Y0109719D01*
X0383665Y0109750D01*
X0383510Y0109786D01*
X0383357Y0109825D01*
X0383205Y0109868D01*
X0383054Y0109915D01*
X0382904Y0109966D01*
X0382755Y0110021D01*
X0382608Y0110079D01*
X0382462Y0110141D01*
X0382318Y0110206D01*
X0382176Y0110276D01*
X0382035Y0110348D01*
X0381896Y0110425D01*
X0381760Y0110504D01*
X0381625Y0110588D01*
X0381492Y0110674D01*
X0381362Y0110764D01*
X0381234Y0110857D01*
X0381108Y0110953D01*
X0380985Y0111053D01*
X0380864Y0111155D01*
X0380746Y0111260D01*
X0380631Y0111369D01*
X0380518Y0111480D01*
X0380408Y0111594D01*
X0380301Y0111711D01*
X0380197Y0111830D01*
X0380096Y0111952D01*
X0379999Y0112077D01*
X0379904Y0112204D01*
X0379813Y0112333D01*
X0379724Y0112464D01*
X0379640Y0112598D01*
X0379558Y0112734D01*
X0379480Y0112871D01*
X0379406Y0113011D01*
X0379335Y0113153D01*
X0379267Y0113296D01*
X0379203Y0113441D01*
X0379143Y0113587D01*
X0379087Y0113735D01*
X0379034Y0113884D01*
X0378985Y0114035D01*
X0378940Y0114187D01*
X0378899Y0114340D01*
X0378861Y0114493D01*
X0378828Y0114648D01*
X0378798Y0114804D01*
X0378772Y0114960D01*
X0378751Y0115117D01*
X0378733Y0115274D01*
X0378719Y0115432D01*
X0378709Y0115590D01*
X0378703Y0115748D01*
X0378701Y0115906D01*
M02*
