G75*
%MOIN*%
%OFA0B0*%
%FSLAX25Y25*%
%IPPOS*%
%LPD*%
%AMOC8*
5,1,8,0,0,1.08239X$1,22.5*
%
%ADD10OC8,0.06000*%
%ADD11C,0.09370*%
%ADD12C,0.06000*%
%ADD13C,0.00600*%
%ADD14C,0.05000*%
D10*
X0363031Y0041497D03*
X0373031Y0041497D03*
X0383031Y0041497D03*
X0393031Y0041497D03*
X0403031Y0041497D03*
X0413031Y0041497D03*
X0447756Y0133859D03*
X0447756Y0143859D03*
X0447756Y0153859D03*
X0447756Y0163859D03*
X0447756Y0173859D03*
X0447756Y0183859D03*
X0385000Y0185906D03*
X0375000Y0185906D03*
X0375000Y0175906D03*
X0385000Y0175906D03*
X0385000Y0165906D03*
X0375000Y0165906D03*
X0375000Y0155906D03*
X0385000Y0155906D03*
X0385000Y0145906D03*
X0375000Y0145906D03*
X0375000Y0135906D03*
X0385000Y0135906D03*
X0385000Y0195906D03*
X0375000Y0195906D03*
X0375000Y0205906D03*
X0385000Y0205906D03*
X0385000Y0215906D03*
X0375000Y0215906D03*
X0375000Y0225906D03*
X0385000Y0225906D03*
X0385000Y0235906D03*
X0375000Y0235906D03*
X0375000Y0245906D03*
X0385000Y0245906D03*
X0385000Y0255906D03*
X0375000Y0255906D03*
X0375000Y0265906D03*
X0385000Y0265906D03*
X0385000Y0275906D03*
X0375000Y0275906D03*
X0375000Y0285906D03*
X0385000Y0285906D03*
X0385000Y0295906D03*
X0375000Y0295906D03*
X0375000Y0305906D03*
X0385000Y0305906D03*
X0353622Y0337678D03*
X0343622Y0337678D03*
X0333622Y0337678D03*
X0323622Y0337678D03*
X0313622Y0337678D03*
X0303622Y0337678D03*
X0392756Y0338190D03*
X0402756Y0338190D03*
X0412756Y0338190D03*
X0422756Y0338190D03*
X0432756Y0338190D03*
X0442756Y0338190D03*
D11*
X0453425Y0291261D02*
X0462795Y0291261D01*
X0462795Y0271576D02*
X0453425Y0271576D01*
X0452598Y0250709D02*
X0461969Y0250709D01*
X0461969Y0231024D02*
X0452598Y0231024D01*
D12*
X0345000Y0302906D02*
X0345000Y0308906D01*
X0335000Y0308906D02*
X0335000Y0302906D01*
X0325000Y0302906D02*
X0325000Y0308906D01*
X0315000Y0308906D02*
X0315000Y0302906D01*
X0305000Y0302906D02*
X0305000Y0308906D01*
X0295000Y0308906D02*
X0295000Y0302906D01*
X0285000Y0302906D02*
X0285000Y0308906D01*
X0275000Y0308906D02*
X0275000Y0302906D01*
X0255000Y0302906D02*
X0255000Y0308906D01*
X0245000Y0308906D02*
X0245000Y0302906D01*
X0235000Y0302906D02*
X0235000Y0308906D01*
X0225000Y0308906D02*
X0225000Y0302906D01*
X0215000Y0302906D02*
X0215000Y0308906D01*
X0205000Y0308906D02*
X0205000Y0302906D01*
X0195000Y0302906D02*
X0195000Y0308906D01*
X0185000Y0308906D02*
X0185000Y0302906D01*
X0170000Y0302906D02*
X0170000Y0308906D01*
X0160000Y0308906D02*
X0160000Y0302906D01*
X0150000Y0302906D02*
X0150000Y0308906D01*
X0140000Y0308906D02*
X0140000Y0302906D01*
X0130000Y0302906D02*
X0130000Y0308906D01*
X0120000Y0308906D02*
X0120000Y0302906D01*
X0110000Y0302906D02*
X0110000Y0308906D01*
X0100000Y0308906D02*
X0100000Y0302906D01*
X0135000Y0118906D02*
X0135000Y0112906D01*
X0145000Y0112906D02*
X0145000Y0118906D01*
X0155000Y0118906D02*
X0155000Y0112906D01*
X0165000Y0112906D02*
X0165000Y0118906D01*
X0175000Y0118906D02*
X0175000Y0112906D01*
X0185000Y0112906D02*
X0185000Y0118906D01*
X0205000Y0118906D02*
X0205000Y0112906D01*
X0215000Y0112906D02*
X0215000Y0118906D01*
X0225000Y0118906D02*
X0225000Y0112906D01*
X0235000Y0112906D02*
X0235000Y0118906D01*
X0245000Y0118906D02*
X0245000Y0112906D01*
X0255000Y0112906D02*
X0255000Y0118906D01*
X0265000Y0118906D02*
X0265000Y0112906D01*
X0275000Y0112906D02*
X0275000Y0118906D01*
X0295000Y0118906D02*
X0295000Y0112906D01*
X0305000Y0112906D02*
X0305000Y0118906D01*
X0315000Y0118906D02*
X0315000Y0112906D01*
X0325000Y0112906D02*
X0325000Y0118906D01*
X0335000Y0118906D02*
X0335000Y0112906D01*
X0345000Y0112906D02*
X0345000Y0118906D01*
X0355000Y0118906D02*
X0355000Y0112906D01*
X0365000Y0112906D02*
X0365000Y0118906D01*
X0323543Y0044300D02*
X0323543Y0038300D01*
X0313543Y0038300D02*
X0313543Y0044300D01*
X0303543Y0044300D02*
X0303543Y0038300D01*
X0293543Y0038300D02*
X0293543Y0044300D01*
X0283543Y0044300D02*
X0283543Y0038300D01*
X0273543Y0038300D02*
X0273543Y0044300D01*
X0263543Y0044300D02*
X0263543Y0038300D01*
X0253543Y0038300D02*
X0253543Y0044300D01*
X0243543Y0044300D02*
X0243543Y0038300D01*
X0233543Y0038300D02*
X0233543Y0044300D01*
X0223543Y0044300D02*
X0223543Y0038300D01*
X0213543Y0038300D02*
X0213543Y0044300D01*
X0203543Y0044300D02*
X0203543Y0038300D01*
X0193543Y0038300D02*
X0193543Y0044300D01*
X0183543Y0044300D02*
X0183543Y0038300D01*
X0173543Y0038300D02*
X0173543Y0044300D01*
X0163543Y0044300D02*
X0163543Y0038300D01*
X0153543Y0038300D02*
X0153543Y0044300D01*
X0143543Y0044300D02*
X0143543Y0038300D01*
X0133543Y0038300D02*
X0133543Y0044300D01*
D13*
X0052825Y0005600D02*
X0051287Y0365898D01*
X0499773Y0365898D01*
X0501312Y0005600D01*
X0052825Y0005600D01*
X0052823Y0006088D02*
X0501309Y0006088D01*
X0501307Y0006687D02*
X0052820Y0006687D01*
X0052818Y0007285D02*
X0501304Y0007285D01*
X0501302Y0007884D02*
X0052815Y0007884D01*
X0052813Y0008482D02*
X0501299Y0008482D01*
X0501297Y0009081D02*
X0052810Y0009081D01*
X0052808Y0009679D02*
X0501294Y0009679D01*
X0501292Y0010278D02*
X0052805Y0010278D01*
X0052802Y0010876D02*
X0501289Y0010876D01*
X0501286Y0011475D02*
X0052800Y0011475D01*
X0052797Y0012073D02*
X0501284Y0012073D01*
X0501281Y0012672D02*
X0052795Y0012672D01*
X0052792Y0013270D02*
X0501279Y0013270D01*
X0501276Y0013869D02*
X0052790Y0013869D01*
X0052787Y0014467D02*
X0501274Y0014467D01*
X0501271Y0015066D02*
X0052785Y0015066D01*
X0052782Y0015664D02*
X0501269Y0015664D01*
X0501266Y0016263D02*
X0305350Y0016263D01*
X0305239Y0016217D02*
X0307425Y0017122D01*
X0318587Y0028284D01*
X0319493Y0030471D01*
X0319493Y0035810D01*
X0319714Y0036344D01*
X0319866Y0036046D01*
X0320263Y0035499D01*
X0320742Y0035020D01*
X0321290Y0034622D01*
X0321893Y0034315D01*
X0322536Y0034106D01*
X0323205Y0034000D01*
X0323243Y0034000D01*
X0323243Y0041000D01*
X0323843Y0041000D01*
X0323843Y0034000D01*
X0323882Y0034000D01*
X0324550Y0034106D01*
X0325194Y0034315D01*
X0325797Y0034622D01*
X0326345Y0035020D01*
X0326823Y0035499D01*
X0327221Y0036046D01*
X0327528Y0036649D01*
X0327737Y0037293D01*
X0327843Y0037962D01*
X0327843Y0041000D01*
X0323843Y0041000D01*
X0323843Y0041600D01*
X0323243Y0041600D01*
X0323243Y0048600D01*
X0323205Y0048600D01*
X0322536Y0048494D01*
X0321893Y0048285D01*
X0321290Y0047978D01*
X0320742Y0047580D01*
X0320263Y0047101D01*
X0319866Y0046554D01*
X0319714Y0046256D01*
X0319011Y0047953D01*
X0317197Y0049768D01*
X0314826Y0050750D01*
X0312260Y0050750D01*
X0309890Y0049768D01*
X0309493Y0049371D01*
X0309493Y0050686D01*
X0324236Y0065429D01*
X0372457Y0065429D01*
X0387082Y0050804D01*
X0387082Y0046568D01*
X0385703Y0047946D01*
X0380360Y0047946D01*
X0376582Y0044168D01*
X0376582Y0044028D01*
X0374813Y0045797D01*
X0373331Y0045797D01*
X0373331Y0041797D01*
X0372731Y0041797D01*
X0372731Y0045797D01*
X0371250Y0045797D01*
X0369481Y0044028D01*
X0369481Y0044168D01*
X0365703Y0047946D01*
X0360360Y0047946D01*
X0356582Y0044168D01*
X0356582Y0038825D01*
X0360360Y0035047D01*
X0365703Y0035047D01*
X0369481Y0038825D01*
X0369481Y0038966D01*
X0371250Y0037197D01*
X0372731Y0037197D01*
X0372731Y0041197D01*
X0373331Y0041197D01*
X0373331Y0037197D01*
X0374813Y0037197D01*
X0376582Y0038966D01*
X0376582Y0038825D01*
X0380360Y0035047D01*
X0385703Y0035047D01*
X0388031Y0037376D01*
X0390360Y0035047D01*
X0395703Y0035047D01*
X0398031Y0037376D01*
X0400360Y0035047D01*
X0405703Y0035047D01*
X0408031Y0037376D01*
X0410360Y0035047D01*
X0415703Y0035047D01*
X0419481Y0038825D01*
X0419481Y0039532D01*
X0468843Y0088894D01*
X0470516Y0090568D01*
X0471422Y0092754D01*
X0471422Y0198940D01*
X0470516Y0201127D01*
X0463036Y0208607D01*
X0461362Y0210281D01*
X0459176Y0211187D01*
X0435653Y0211187D01*
X0426934Y0219906D01*
X0426934Y0279376D01*
X0427712Y0277497D01*
X0437200Y0268009D01*
X0438874Y0266335D01*
X0441061Y0265429D01*
X0448068Y0265429D01*
X0448817Y0264679D01*
X0451807Y0263441D01*
X0464413Y0263441D01*
X0467403Y0264679D01*
X0469691Y0266968D01*
X0470930Y0269958D01*
X0470930Y0273194D01*
X0469691Y0276183D01*
X0467403Y0278472D01*
X0464413Y0279710D01*
X0451807Y0279710D01*
X0448817Y0278472D01*
X0447674Y0277328D01*
X0444709Y0277328D01*
X0438705Y0283331D01*
X0438705Y0333119D01*
X0440084Y0331740D01*
X0440791Y0331740D01*
X0452161Y0320371D01*
X0452161Y0299395D01*
X0451807Y0299395D01*
X0448817Y0298157D01*
X0446529Y0295869D01*
X0445291Y0292879D01*
X0445291Y0289643D01*
X0446529Y0286653D01*
X0448817Y0284364D01*
X0451807Y0283126D01*
X0464413Y0283126D01*
X0467403Y0284364D01*
X0469691Y0286653D01*
X0470930Y0289643D01*
X0470930Y0292879D01*
X0469691Y0295869D01*
X0467403Y0298157D01*
X0464413Y0299395D01*
X0464060Y0299395D01*
X0464060Y0324019D01*
X0463154Y0326206D01*
X0461480Y0327879D01*
X0449205Y0340154D01*
X0449205Y0340861D01*
X0445427Y0344639D01*
X0440084Y0344639D01*
X0437756Y0342311D01*
X0435427Y0344639D01*
X0430084Y0344639D01*
X0427756Y0342311D01*
X0425427Y0344639D01*
X0420084Y0344639D01*
X0416306Y0340861D01*
X0416306Y0340720D01*
X0414537Y0342490D01*
X0413056Y0342490D01*
X0413056Y0338490D01*
X0412456Y0338490D01*
X0412456Y0342490D01*
X0410975Y0342490D01*
X0409205Y0340720D01*
X0409205Y0340861D01*
X0405427Y0344639D01*
X0400084Y0344639D01*
X0397756Y0342311D01*
X0395427Y0344639D01*
X0390084Y0344639D01*
X0386306Y0340861D01*
X0386306Y0335518D01*
X0390084Y0331740D01*
X0395427Y0331740D01*
X0397756Y0334069D01*
X0400084Y0331740D01*
X0405427Y0331740D01*
X0409205Y0335518D01*
X0409205Y0335659D01*
X0410975Y0333890D01*
X0412456Y0333890D01*
X0412456Y0337890D01*
X0413056Y0337890D01*
X0413056Y0333890D01*
X0414537Y0333890D01*
X0416306Y0335659D01*
X0416306Y0335518D01*
X0416806Y0335018D01*
X0416806Y0331914D01*
X0396748Y0311856D01*
X0388171Y0311856D01*
X0387672Y0312356D01*
X0382328Y0312356D01*
X0380950Y0310977D01*
X0380950Y0319728D01*
X0380044Y0321914D01*
X0378370Y0323588D01*
X0375142Y0326816D01*
X0372955Y0327722D01*
X0356126Y0327722D01*
X0352620Y0331228D01*
X0356294Y0331228D01*
X0360072Y0335006D01*
X0360072Y0340349D01*
X0356294Y0344128D01*
X0350951Y0344128D01*
X0348622Y0341799D01*
X0346294Y0344128D01*
X0340951Y0344128D01*
X0337172Y0340349D01*
X0337172Y0340209D01*
X0335403Y0341978D01*
X0333922Y0341978D01*
X0333922Y0337978D01*
X0333322Y0337978D01*
X0333322Y0341978D01*
X0331841Y0341978D01*
X0330072Y0340209D01*
X0330072Y0340349D01*
X0329572Y0340849D01*
X0329572Y0345515D01*
X0328666Y0347702D01*
X0323666Y0352702D01*
X0321992Y0354375D01*
X0319805Y0355281D01*
X0263895Y0355281D01*
X0261709Y0354375D01*
X0231394Y0324060D01*
X0229720Y0322387D01*
X0228814Y0320200D01*
X0228814Y0317833D01*
X0229050Y0317263D01*
X0229050Y0313977D01*
X0228653Y0314374D01*
X0226283Y0315356D01*
X0223717Y0315356D01*
X0221347Y0314374D01*
X0220000Y0313027D01*
X0218653Y0314374D01*
X0216283Y0315356D01*
X0213717Y0315356D01*
X0211347Y0314374D01*
X0210000Y0313027D01*
X0208653Y0314374D01*
X0206283Y0315356D01*
X0203717Y0315356D01*
X0201347Y0314374D01*
X0200000Y0313027D01*
X0198653Y0314374D01*
X0196283Y0315356D01*
X0193717Y0315356D01*
X0191347Y0314374D01*
X0190000Y0313027D01*
X0188653Y0314374D01*
X0186283Y0315356D01*
X0183717Y0315356D01*
X0181347Y0314374D01*
X0179532Y0312560D01*
X0178550Y0310189D01*
X0178550Y0301623D01*
X0179532Y0299253D01*
X0181347Y0297439D01*
X0183717Y0296457D01*
X0186283Y0296457D01*
X0188653Y0297439D01*
X0190000Y0298785D01*
X0191347Y0297439D01*
X0193717Y0296457D01*
X0196283Y0296457D01*
X0198653Y0297439D01*
X0200000Y0298785D01*
X0201347Y0297439D01*
X0203717Y0296457D01*
X0206283Y0296457D01*
X0208653Y0297439D01*
X0210000Y0298785D01*
X0211347Y0297439D01*
X0213717Y0296457D01*
X0216283Y0296457D01*
X0218653Y0297439D01*
X0220000Y0298785D01*
X0221347Y0297439D01*
X0223717Y0296457D01*
X0226283Y0296457D01*
X0228653Y0297439D01*
X0230000Y0298785D01*
X0231347Y0297439D01*
X0233717Y0296457D01*
X0236283Y0296457D01*
X0238653Y0297439D01*
X0240000Y0298785D01*
X0241347Y0297439D01*
X0243717Y0296457D01*
X0246283Y0296457D01*
X0248653Y0297439D01*
X0250000Y0298785D01*
X0251347Y0297439D01*
X0253717Y0296457D01*
X0256283Y0296457D01*
X0258653Y0297439D01*
X0260468Y0299253D01*
X0261450Y0301623D01*
X0261450Y0310189D01*
X0260468Y0312560D01*
X0258653Y0314374D01*
X0256283Y0315356D01*
X0253717Y0315356D01*
X0251347Y0314374D01*
X0250000Y0313027D01*
X0248653Y0314374D01*
X0246283Y0315356D01*
X0243717Y0315356D01*
X0241347Y0314374D01*
X0240950Y0313977D01*
X0240950Y0316788D01*
X0267543Y0343382D01*
X0300205Y0343382D01*
X0297172Y0340349D01*
X0297172Y0335006D01*
X0297672Y0334506D01*
X0297672Y0327321D01*
X0298578Y0325135D01*
X0309917Y0313796D01*
X0309917Y0313111D01*
X0308653Y0314374D01*
X0306283Y0315356D01*
X0303717Y0315356D01*
X0301347Y0314374D01*
X0300000Y0313027D01*
X0298653Y0314374D01*
X0296283Y0315356D01*
X0293717Y0315356D01*
X0291347Y0314374D01*
X0290000Y0313027D01*
X0288653Y0314374D01*
X0286283Y0315356D01*
X0283717Y0315356D01*
X0281347Y0314374D01*
X0280000Y0313027D01*
X0278653Y0314374D01*
X0276283Y0315356D01*
X0273717Y0315356D01*
X0271347Y0314374D01*
X0269532Y0312560D01*
X0268550Y0310189D01*
X0268550Y0301623D01*
X0269532Y0299253D01*
X0271347Y0297439D01*
X0273717Y0296457D01*
X0276283Y0296457D01*
X0278653Y0297439D01*
X0280000Y0298785D01*
X0281347Y0297439D01*
X0283717Y0296457D01*
X0286283Y0296457D01*
X0288653Y0297439D01*
X0290000Y0298785D01*
X0291347Y0297439D01*
X0293717Y0296457D01*
X0296283Y0296457D01*
X0298653Y0297439D01*
X0300000Y0298785D01*
X0301347Y0297439D01*
X0303717Y0296457D01*
X0306283Y0296457D01*
X0308653Y0297439D01*
X0310000Y0298785D01*
X0311347Y0297439D01*
X0313717Y0296457D01*
X0316283Y0296457D01*
X0318653Y0297439D01*
X0320000Y0298785D01*
X0321347Y0297439D01*
X0323717Y0296457D01*
X0326283Y0296457D01*
X0328653Y0297439D01*
X0330000Y0298785D01*
X0331347Y0297439D01*
X0333717Y0296457D01*
X0336283Y0296457D01*
X0338653Y0297439D01*
X0340000Y0298785D01*
X0341347Y0297439D01*
X0343717Y0296457D01*
X0346283Y0296457D01*
X0348653Y0297439D01*
X0350468Y0299253D01*
X0350942Y0300397D01*
X0351519Y0299398D01*
X0353492Y0297425D01*
X0355909Y0296029D01*
X0358605Y0295307D01*
X0361395Y0295307D01*
X0364091Y0296029D01*
X0366508Y0297425D01*
X0368481Y0299398D01*
X0369877Y0301815D01*
X0369897Y0301889D01*
X0370879Y0300906D01*
X0368550Y0298578D01*
X0368550Y0293235D01*
X0370879Y0290906D01*
X0368550Y0288578D01*
X0368550Y0283235D01*
X0370879Y0280906D01*
X0368550Y0278578D01*
X0368550Y0273235D01*
X0370879Y0270906D01*
X0368550Y0268578D01*
X0368550Y0263235D01*
X0370879Y0260906D01*
X0368550Y0258578D01*
X0368550Y0253235D01*
X0370879Y0250906D01*
X0368550Y0248578D01*
X0368550Y0243235D01*
X0370879Y0240906D01*
X0368550Y0238578D01*
X0368550Y0233235D01*
X0370879Y0230906D01*
X0368550Y0228578D01*
X0368550Y0223235D01*
X0370879Y0220906D01*
X0368550Y0218578D01*
X0368550Y0213235D01*
X0370879Y0210906D01*
X0368550Y0208578D01*
X0368550Y0203235D01*
X0370879Y0200906D01*
X0368550Y0198578D01*
X0368550Y0193235D01*
X0370879Y0190906D01*
X0368550Y0188578D01*
X0368550Y0183235D01*
X0370879Y0180906D01*
X0368550Y0178578D01*
X0368550Y0173235D01*
X0370879Y0170906D01*
X0368550Y0168578D01*
X0368550Y0163235D01*
X0370879Y0160906D01*
X0368550Y0158578D01*
X0368550Y0153235D01*
X0370879Y0150906D01*
X0368550Y0148578D01*
X0368550Y0143235D01*
X0372328Y0139457D01*
X0372469Y0139457D01*
X0370700Y0137687D01*
X0370700Y0136206D01*
X0374700Y0136206D01*
X0374700Y0135606D01*
X0375300Y0135606D01*
X0375300Y0131606D01*
X0376781Y0131606D01*
X0379300Y0134125D01*
X0379300Y0135606D01*
X0375300Y0135606D01*
X0375300Y0136206D01*
X0379300Y0136206D01*
X0379300Y0137687D01*
X0377531Y0139457D01*
X0377672Y0139457D01*
X0380000Y0141785D01*
X0382328Y0139457D01*
X0382469Y0139457D01*
X0380700Y0137687D01*
X0380700Y0136206D01*
X0384700Y0136206D01*
X0384700Y0135606D01*
X0385300Y0135606D01*
X0385300Y0131606D01*
X0386781Y0131606D01*
X0389300Y0134125D01*
X0389300Y0135606D01*
X0385300Y0135606D01*
X0385300Y0136206D01*
X0389300Y0136206D01*
X0389300Y0137687D01*
X0387531Y0139457D01*
X0387672Y0139457D01*
X0388053Y0139839D01*
X0408782Y0139839D01*
X0410969Y0140744D01*
X0412642Y0142418D01*
X0428134Y0157909D01*
X0442685Y0157909D01*
X0441306Y0156531D01*
X0441306Y0151188D01*
X0443635Y0148859D01*
X0441306Y0146531D01*
X0441306Y0141188D01*
X0443635Y0138859D01*
X0441306Y0136531D01*
X0441306Y0131188D01*
X0445084Y0127409D01*
X0450427Y0127409D01*
X0454205Y0131188D01*
X0454205Y0136531D01*
X0451877Y0138859D01*
X0454205Y0141188D01*
X0454205Y0146531D01*
X0451877Y0148859D01*
X0454205Y0151188D01*
X0454205Y0156531D01*
X0451877Y0158859D01*
X0454205Y0161188D01*
X0454205Y0166531D01*
X0451877Y0168859D01*
X0454205Y0171188D01*
X0454205Y0176531D01*
X0451877Y0178859D01*
X0454205Y0181188D01*
X0454205Y0186531D01*
X0450427Y0190309D01*
X0449720Y0190309D01*
X0449079Y0190950D01*
X0446892Y0191856D01*
X0390071Y0191856D01*
X0391450Y0193235D01*
X0391450Y0198578D01*
X0389121Y0200906D01*
X0391450Y0203235D01*
X0391450Y0208578D01*
X0389121Y0210906D01*
X0391450Y0213235D01*
X0391450Y0218578D01*
X0389121Y0220906D01*
X0391450Y0223235D01*
X0391450Y0228578D01*
X0389121Y0230906D01*
X0391450Y0233235D01*
X0391450Y0238578D01*
X0389121Y0240906D01*
X0391450Y0243235D01*
X0391450Y0248578D01*
X0389121Y0250906D01*
X0391450Y0253235D01*
X0391450Y0258578D01*
X0389121Y0260906D01*
X0391450Y0263235D01*
X0391450Y0268578D01*
X0389121Y0270906D01*
X0391450Y0273235D01*
X0391450Y0278578D01*
X0389121Y0280906D01*
X0391450Y0283235D01*
X0391450Y0288578D01*
X0389121Y0290906D01*
X0391450Y0293235D01*
X0391450Y0298578D01*
X0390071Y0299957D01*
X0396748Y0299957D01*
X0415035Y0281670D01*
X0415035Y0216258D01*
X0415940Y0214072D01*
X0417614Y0212398D01*
X0428145Y0201867D01*
X0429819Y0200193D01*
X0432006Y0199287D01*
X0455528Y0199287D01*
X0459523Y0195292D01*
X0459523Y0096402D01*
X0411067Y0047946D01*
X0410360Y0047946D01*
X0408031Y0045618D01*
X0405703Y0047946D01*
X0400360Y0047946D01*
X0398981Y0046568D01*
X0398981Y0054452D01*
X0398075Y0056639D01*
X0396402Y0058312D01*
X0378291Y0076423D01*
X0376105Y0077328D01*
X0320588Y0077328D01*
X0318401Y0076423D01*
X0316728Y0074749D01*
X0299493Y0057514D01*
X0299493Y0062458D01*
X0310674Y0073638D01*
X0311580Y0075825D01*
X0311580Y0092287D01*
X0310674Y0094473D01*
X0309000Y0096147D01*
X0300950Y0104197D01*
X0300950Y0107836D01*
X0301347Y0107439D01*
X0303717Y0106457D01*
X0306283Y0106457D01*
X0308653Y0107439D01*
X0310000Y0108785D01*
X0311347Y0107439D01*
X0313717Y0106457D01*
X0316283Y0106457D01*
X0318653Y0107439D01*
X0320000Y0108785D01*
X0321347Y0107439D01*
X0323717Y0106457D01*
X0326283Y0106457D01*
X0328653Y0107439D01*
X0330000Y0108785D01*
X0331347Y0107439D01*
X0333717Y0106457D01*
X0336283Y0106457D01*
X0338653Y0107439D01*
X0340000Y0108785D01*
X0341347Y0107439D01*
X0343717Y0106457D01*
X0346283Y0106457D01*
X0348653Y0107439D01*
X0350000Y0108785D01*
X0351347Y0107439D01*
X0353717Y0106457D01*
X0356283Y0106457D01*
X0358653Y0107439D01*
X0360000Y0108785D01*
X0361347Y0107439D01*
X0363717Y0106457D01*
X0366283Y0106457D01*
X0368653Y0107439D01*
X0370468Y0109253D01*
X0371450Y0111623D01*
X0371450Y0120189D01*
X0370468Y0122560D01*
X0368653Y0124374D01*
X0366283Y0125356D01*
X0363717Y0125356D01*
X0361347Y0124374D01*
X0360000Y0123027D01*
X0358653Y0124374D01*
X0356283Y0125356D01*
X0353717Y0125356D01*
X0351347Y0124374D01*
X0350000Y0123027D01*
X0348653Y0124374D01*
X0346283Y0125356D01*
X0343717Y0125356D01*
X0341347Y0124374D01*
X0340000Y0123027D01*
X0338653Y0124374D01*
X0336283Y0125356D01*
X0333717Y0125356D01*
X0331347Y0124374D01*
X0330000Y0123027D01*
X0328653Y0124374D01*
X0326283Y0125356D01*
X0323717Y0125356D01*
X0321347Y0124374D01*
X0320000Y0123027D01*
X0318653Y0124374D01*
X0316283Y0125356D01*
X0313717Y0125356D01*
X0311347Y0124374D01*
X0310000Y0123027D01*
X0308653Y0124374D01*
X0306283Y0125356D01*
X0303717Y0125356D01*
X0301347Y0124374D01*
X0300000Y0123027D01*
X0298653Y0124374D01*
X0296283Y0125356D01*
X0293717Y0125356D01*
X0291347Y0124374D01*
X0289532Y0122560D01*
X0288550Y0120189D01*
X0288550Y0111623D01*
X0289050Y0110416D01*
X0289050Y0100550D01*
X0289956Y0098363D01*
X0291630Y0096689D01*
X0299680Y0088639D01*
X0299680Y0079473D01*
X0290173Y0069966D01*
X0288499Y0068292D01*
X0287594Y0066105D01*
X0287594Y0046790D01*
X0287373Y0046256D01*
X0287221Y0046554D01*
X0286823Y0047101D01*
X0286345Y0047580D01*
X0285797Y0047978D01*
X0285194Y0048285D01*
X0284550Y0048494D01*
X0283882Y0048600D01*
X0283843Y0048600D01*
X0283843Y0041600D01*
X0283243Y0041600D01*
X0283243Y0048600D01*
X0283205Y0048600D01*
X0282536Y0048494D01*
X0281893Y0048285D01*
X0281290Y0047978D01*
X0280742Y0047580D01*
X0280263Y0047101D01*
X0279866Y0046554D01*
X0279714Y0046256D01*
X0279493Y0046790D01*
X0279493Y0052326D01*
X0278587Y0054513D01*
X0270044Y0063056D01*
X0270044Y0082497D01*
X0278291Y0090744D01*
X0279965Y0092418D01*
X0280871Y0094605D01*
X0280871Y0110226D01*
X0281450Y0111623D01*
X0281450Y0120189D01*
X0280468Y0122560D01*
X0278653Y0124374D01*
X0276283Y0125356D01*
X0273717Y0125356D01*
X0271347Y0124374D01*
X0270000Y0123027D01*
X0268653Y0124374D01*
X0266283Y0125356D01*
X0263717Y0125356D01*
X0261347Y0124374D01*
X0260000Y0123027D01*
X0258653Y0124374D01*
X0256283Y0125356D01*
X0253717Y0125356D01*
X0251347Y0124374D01*
X0250000Y0123027D01*
X0248653Y0124374D01*
X0246283Y0125356D01*
X0243717Y0125356D01*
X0241347Y0124374D01*
X0240000Y0123027D01*
X0238653Y0124374D01*
X0236283Y0125356D01*
X0233717Y0125356D01*
X0231347Y0124374D01*
X0230000Y0123027D01*
X0228653Y0124374D01*
X0226283Y0125356D01*
X0223717Y0125356D01*
X0221347Y0124374D01*
X0220000Y0123027D01*
X0218653Y0124374D01*
X0216283Y0125356D01*
X0213717Y0125356D01*
X0211347Y0124374D01*
X0210000Y0123027D01*
X0208653Y0124374D01*
X0206283Y0125356D01*
X0203717Y0125356D01*
X0201347Y0124374D01*
X0199532Y0122560D01*
X0198550Y0120189D01*
X0198550Y0111623D01*
X0199532Y0109253D01*
X0201347Y0107439D01*
X0203717Y0106457D01*
X0206283Y0106457D01*
X0208653Y0107439D01*
X0210000Y0108785D01*
X0211347Y0107439D01*
X0213717Y0106457D01*
X0214184Y0106457D01*
X0213402Y0105675D01*
X0205628Y0105675D01*
X0203441Y0104769D01*
X0188499Y0089828D01*
X0187594Y0087641D01*
X0187594Y0079325D01*
X0160792Y0106127D01*
X0160792Y0110036D01*
X0161171Y0110950D01*
X0161322Y0110653D01*
X0161720Y0110105D01*
X0162199Y0109626D01*
X0162746Y0109229D01*
X0163349Y0108921D01*
X0163993Y0108712D01*
X0164662Y0108606D01*
X0164700Y0108606D01*
X0164700Y0115606D01*
X0165300Y0115606D01*
X0165300Y0108606D01*
X0165338Y0108606D01*
X0166007Y0108712D01*
X0166651Y0108921D01*
X0167254Y0109229D01*
X0167801Y0109626D01*
X0168280Y0110105D01*
X0168678Y0110653D01*
X0168985Y0111256D01*
X0169194Y0111899D01*
X0169300Y0112568D01*
X0169300Y0115606D01*
X0165300Y0115606D01*
X0165300Y0116206D01*
X0169300Y0116206D01*
X0169300Y0119245D01*
X0169194Y0119913D01*
X0168985Y0120557D01*
X0168678Y0121160D01*
X0168280Y0121708D01*
X0167801Y0122186D01*
X0167254Y0122584D01*
X0166651Y0122891D01*
X0166007Y0123100D01*
X0165338Y0123206D01*
X0165300Y0123206D01*
X0165300Y0116206D01*
X0164700Y0116206D01*
X0164700Y0123206D01*
X0164662Y0123206D01*
X0163993Y0123100D01*
X0163349Y0122891D01*
X0162746Y0122584D01*
X0162199Y0122186D01*
X0161720Y0121708D01*
X0161322Y0121160D01*
X0161171Y0120862D01*
X0160468Y0122560D01*
X0158653Y0124374D01*
X0156283Y0125356D01*
X0153717Y0125356D01*
X0151347Y0124374D01*
X0150000Y0123027D01*
X0148653Y0124374D01*
X0146283Y0125356D01*
X0143717Y0125356D01*
X0141347Y0124374D01*
X0140000Y0123027D01*
X0138653Y0124374D01*
X0136283Y0125356D01*
X0133717Y0125356D01*
X0131347Y0124374D01*
X0129532Y0122560D01*
X0128550Y0120189D01*
X0128550Y0111623D01*
X0129532Y0109253D01*
X0131347Y0107439D01*
X0133717Y0106457D01*
X0136283Y0106457D01*
X0138653Y0107439D01*
X0140000Y0108785D01*
X0141347Y0107439D01*
X0143717Y0106457D01*
X0146283Y0106457D01*
X0148653Y0107439D01*
X0148893Y0107678D01*
X0148893Y0102479D01*
X0149799Y0100292D01*
X0151472Y0098618D01*
X0177594Y0072497D01*
X0177594Y0046790D01*
X0177373Y0046256D01*
X0177221Y0046554D01*
X0176823Y0047101D01*
X0176345Y0047580D01*
X0175797Y0047978D01*
X0175194Y0048285D01*
X0174550Y0048494D01*
X0173882Y0048600D01*
X0173843Y0048600D01*
X0173843Y0041600D01*
X0173243Y0041600D01*
X0173243Y0048600D01*
X0173205Y0048600D01*
X0172536Y0048494D01*
X0171893Y0048285D01*
X0171290Y0047978D01*
X0170742Y0047580D01*
X0170263Y0047101D01*
X0169866Y0046554D01*
X0169714Y0046256D01*
X0169011Y0047953D01*
X0167197Y0049768D01*
X0164826Y0050750D01*
X0162260Y0050750D01*
X0159890Y0049768D01*
X0158543Y0048421D01*
X0157197Y0049768D01*
X0154826Y0050750D01*
X0152260Y0050750D01*
X0149890Y0049768D01*
X0148543Y0048421D01*
X0147197Y0049768D01*
X0144826Y0050750D01*
X0142260Y0050750D01*
X0139890Y0049768D01*
X0138543Y0048421D01*
X0137197Y0049768D01*
X0134826Y0050750D01*
X0132260Y0050750D01*
X0129890Y0049768D01*
X0128076Y0047953D01*
X0127094Y0045583D01*
X0127094Y0037017D01*
X0128076Y0034647D01*
X0129890Y0032832D01*
X0132260Y0031850D01*
X0134826Y0031850D01*
X0137197Y0032832D01*
X0138543Y0034179D01*
X0139890Y0032832D01*
X0142260Y0031850D01*
X0144826Y0031850D01*
X0147197Y0032832D01*
X0148543Y0034179D01*
X0149890Y0032832D01*
X0152260Y0031850D01*
X0154826Y0031850D01*
X0157197Y0032832D01*
X0158543Y0034179D01*
X0159890Y0032832D01*
X0162260Y0031850D01*
X0164826Y0031850D01*
X0167197Y0032832D01*
X0169011Y0034647D01*
X0169714Y0036344D01*
X0169866Y0036046D01*
X0170263Y0035499D01*
X0170742Y0035020D01*
X0171290Y0034622D01*
X0171893Y0034315D01*
X0172536Y0034106D01*
X0173205Y0034000D01*
X0173243Y0034000D01*
X0173243Y0041000D01*
X0173843Y0041000D01*
X0173843Y0034000D01*
X0173882Y0034000D01*
X0174550Y0034106D01*
X0175194Y0034315D01*
X0175797Y0034622D01*
X0176345Y0035020D01*
X0176823Y0035499D01*
X0177221Y0036046D01*
X0177373Y0036344D01*
X0177594Y0035810D01*
X0177594Y0027715D01*
X0178499Y0025528D01*
X0185232Y0018796D01*
X0186905Y0017122D01*
X0189092Y0016217D01*
X0305239Y0016217D01*
X0306795Y0016861D02*
X0501263Y0016861D01*
X0501261Y0017460D02*
X0307763Y0017460D01*
X0308361Y0018058D02*
X0501258Y0018058D01*
X0501256Y0018657D02*
X0308960Y0018657D01*
X0309558Y0019255D02*
X0501253Y0019255D01*
X0501251Y0019854D02*
X0310157Y0019854D01*
X0310755Y0020452D02*
X0501248Y0020452D01*
X0501246Y0021051D02*
X0311354Y0021051D01*
X0311952Y0021649D02*
X0501243Y0021649D01*
X0501240Y0022248D02*
X0312551Y0022248D01*
X0313149Y0022846D02*
X0501238Y0022846D01*
X0501235Y0023445D02*
X0313748Y0023445D01*
X0314346Y0024043D02*
X0501233Y0024043D01*
X0501230Y0024642D02*
X0314945Y0024642D01*
X0315543Y0025240D02*
X0501228Y0025240D01*
X0501225Y0025839D02*
X0316142Y0025839D01*
X0316740Y0026437D02*
X0501223Y0026437D01*
X0501220Y0027036D02*
X0317339Y0027036D01*
X0317937Y0027634D02*
X0501217Y0027634D01*
X0501215Y0028233D02*
X0318536Y0028233D01*
X0318814Y0028832D02*
X0501212Y0028832D01*
X0501210Y0029430D02*
X0319062Y0029430D01*
X0319310Y0030029D02*
X0501207Y0030029D01*
X0501205Y0030627D02*
X0319493Y0030627D01*
X0319493Y0031226D02*
X0501202Y0031226D01*
X0501200Y0031824D02*
X0319493Y0031824D01*
X0319493Y0032423D02*
X0501197Y0032423D01*
X0501194Y0033021D02*
X0319493Y0033021D01*
X0319493Y0033620D02*
X0501192Y0033620D01*
X0501189Y0034218D02*
X0324896Y0034218D01*
X0323843Y0034218D02*
X0323243Y0034218D01*
X0323243Y0034817D02*
X0323843Y0034817D01*
X0323843Y0035415D02*
X0323243Y0035415D01*
X0323243Y0036014D02*
X0323843Y0036014D01*
X0323843Y0036612D02*
X0323243Y0036612D01*
X0323243Y0037211D02*
X0323843Y0037211D01*
X0323843Y0037809D02*
X0323243Y0037809D01*
X0323243Y0038408D02*
X0323843Y0038408D01*
X0323843Y0039006D02*
X0323243Y0039006D01*
X0323243Y0039605D02*
X0323843Y0039605D01*
X0323843Y0040203D02*
X0323243Y0040203D01*
X0323243Y0040802D02*
X0323843Y0040802D01*
X0323843Y0041400D02*
X0356582Y0041400D01*
X0356582Y0040802D02*
X0327843Y0040802D01*
X0327843Y0040203D02*
X0356582Y0040203D01*
X0356582Y0039605D02*
X0327843Y0039605D01*
X0327843Y0039006D02*
X0356582Y0039006D01*
X0357000Y0038408D02*
X0327843Y0038408D01*
X0327819Y0037809D02*
X0357598Y0037809D01*
X0358197Y0037211D02*
X0327711Y0037211D01*
X0327509Y0036612D02*
X0358795Y0036612D01*
X0359394Y0036014D02*
X0327197Y0036014D01*
X0326740Y0035415D02*
X0359992Y0035415D01*
X0366071Y0035415D02*
X0379992Y0035415D01*
X0379394Y0036014D02*
X0366669Y0036014D01*
X0367268Y0036612D02*
X0378795Y0036612D01*
X0378197Y0037211D02*
X0374826Y0037211D01*
X0375425Y0037809D02*
X0377598Y0037809D01*
X0377000Y0038408D02*
X0376023Y0038408D01*
X0373331Y0038408D02*
X0372731Y0038408D01*
X0372731Y0039006D02*
X0373331Y0039006D01*
X0373331Y0039605D02*
X0372731Y0039605D01*
X0372731Y0040203D02*
X0373331Y0040203D01*
X0373331Y0040802D02*
X0372731Y0040802D01*
X0372731Y0041999D02*
X0373331Y0041999D01*
X0373331Y0042597D02*
X0372731Y0042597D01*
X0372731Y0043196D02*
X0373331Y0043196D01*
X0373331Y0043794D02*
X0372731Y0043794D01*
X0372731Y0044393D02*
X0373331Y0044393D01*
X0373331Y0044991D02*
X0372731Y0044991D01*
X0372731Y0045590D02*
X0373331Y0045590D01*
X0375020Y0045590D02*
X0378003Y0045590D01*
X0377405Y0044991D02*
X0375618Y0044991D01*
X0376217Y0044393D02*
X0376806Y0044393D01*
X0378602Y0046188D02*
X0367461Y0046188D01*
X0368060Y0045590D02*
X0371043Y0045590D01*
X0370445Y0044991D02*
X0368658Y0044991D01*
X0369257Y0044393D02*
X0369846Y0044393D01*
X0366863Y0046787D02*
X0379200Y0046787D01*
X0379799Y0047385D02*
X0366264Y0047385D01*
X0359799Y0047385D02*
X0326539Y0047385D01*
X0326345Y0047580D02*
X0325797Y0047978D01*
X0325194Y0048285D01*
X0324550Y0048494D01*
X0323882Y0048600D01*
X0323843Y0048600D01*
X0323843Y0041600D01*
X0327843Y0041600D01*
X0327843Y0044638D01*
X0327737Y0045307D01*
X0327528Y0045951D01*
X0327221Y0046554D01*
X0326823Y0047101D01*
X0326345Y0047580D01*
X0325785Y0047984D02*
X0387082Y0047984D01*
X0387082Y0048582D02*
X0323993Y0048582D01*
X0323843Y0048582D02*
X0323243Y0048582D01*
X0323094Y0048582D02*
X0318382Y0048582D01*
X0318981Y0047984D02*
X0321302Y0047984D01*
X0320548Y0047385D02*
X0319246Y0047385D01*
X0319494Y0046787D02*
X0320035Y0046787D01*
X0323243Y0046787D02*
X0323843Y0046787D01*
X0323843Y0047385D02*
X0323243Y0047385D01*
X0323243Y0047984D02*
X0323843Y0047984D01*
X0323843Y0046188D02*
X0323243Y0046188D01*
X0323243Y0045590D02*
X0323843Y0045590D01*
X0323843Y0044991D02*
X0323243Y0044991D01*
X0323243Y0044393D02*
X0323843Y0044393D01*
X0323843Y0043794D02*
X0323243Y0043794D01*
X0323243Y0043196D02*
X0323843Y0043196D01*
X0323843Y0042597D02*
X0323243Y0042597D01*
X0323243Y0041999D02*
X0323843Y0041999D01*
X0327843Y0041999D02*
X0356582Y0041999D01*
X0356582Y0042597D02*
X0327843Y0042597D01*
X0327843Y0043196D02*
X0356582Y0043196D01*
X0356582Y0043794D02*
X0327843Y0043794D01*
X0327843Y0044393D02*
X0356806Y0044393D01*
X0357405Y0044991D02*
X0327787Y0044991D01*
X0327645Y0045590D02*
X0358003Y0045590D01*
X0358602Y0046188D02*
X0327407Y0046188D01*
X0327052Y0046787D02*
X0359200Y0046787D01*
X0368465Y0037809D02*
X0370638Y0037809D01*
X0371237Y0037211D02*
X0367866Y0037211D01*
X0369063Y0038408D02*
X0370040Y0038408D01*
X0372731Y0037809D02*
X0373331Y0037809D01*
X0373331Y0037211D02*
X0372731Y0037211D01*
X0386071Y0035415D02*
X0389992Y0035415D01*
X0389394Y0036014D02*
X0386669Y0036014D01*
X0387268Y0036612D02*
X0388795Y0036612D01*
X0388197Y0037211D02*
X0387866Y0037211D01*
X0396071Y0035415D02*
X0399992Y0035415D01*
X0399394Y0036014D02*
X0396669Y0036014D01*
X0397268Y0036612D02*
X0398795Y0036612D01*
X0398197Y0037211D02*
X0397866Y0037211D01*
X0406071Y0035415D02*
X0409992Y0035415D01*
X0409394Y0036014D02*
X0406669Y0036014D01*
X0407268Y0036612D02*
X0408795Y0036612D01*
X0408197Y0037211D02*
X0407866Y0037211D01*
X0416071Y0035415D02*
X0501184Y0035415D01*
X0501187Y0034817D02*
X0326064Y0034817D01*
X0322191Y0034218D02*
X0319493Y0034218D01*
X0319493Y0034817D02*
X0321022Y0034817D01*
X0320347Y0035415D02*
X0319493Y0035415D01*
X0319577Y0036014D02*
X0319889Y0036014D01*
X0317784Y0049181D02*
X0387082Y0049181D01*
X0387082Y0049779D02*
X0317168Y0049779D01*
X0315723Y0050378D02*
X0387082Y0050378D01*
X0386910Y0050976D02*
X0309783Y0050976D01*
X0309493Y0050378D02*
X0311363Y0050378D01*
X0310382Y0051575D02*
X0386311Y0051575D01*
X0385713Y0052173D02*
X0310980Y0052173D01*
X0311579Y0052772D02*
X0385114Y0052772D01*
X0384515Y0053370D02*
X0312177Y0053370D01*
X0312776Y0053969D02*
X0383917Y0053969D01*
X0383318Y0054568D02*
X0313374Y0054568D01*
X0313973Y0055166D02*
X0382720Y0055166D01*
X0382121Y0055765D02*
X0314571Y0055765D01*
X0315170Y0056363D02*
X0381523Y0056363D01*
X0380924Y0056962D02*
X0315768Y0056962D01*
X0316367Y0057560D02*
X0380326Y0057560D01*
X0379727Y0058159D02*
X0316966Y0058159D01*
X0317564Y0058757D02*
X0379129Y0058757D01*
X0378530Y0059356D02*
X0318163Y0059356D01*
X0318761Y0059954D02*
X0377932Y0059954D01*
X0377333Y0060553D02*
X0319360Y0060553D01*
X0319958Y0061151D02*
X0376735Y0061151D01*
X0376136Y0061750D02*
X0320557Y0061750D01*
X0321155Y0062348D02*
X0375538Y0062348D01*
X0374939Y0062947D02*
X0321754Y0062947D01*
X0322352Y0063545D02*
X0374341Y0063545D01*
X0373742Y0064144D02*
X0322951Y0064144D01*
X0323549Y0064742D02*
X0373144Y0064742D01*
X0372545Y0065341D02*
X0324148Y0065341D01*
X0315699Y0073720D02*
X0310707Y0073720D01*
X0310955Y0074318D02*
X0316297Y0074318D01*
X0316896Y0074917D02*
X0311203Y0074917D01*
X0311451Y0075515D02*
X0317494Y0075515D01*
X0318093Y0076114D02*
X0311580Y0076114D01*
X0311580Y0076712D02*
X0319101Y0076712D01*
X0320546Y0077311D02*
X0311580Y0077311D01*
X0311580Y0077909D02*
X0441030Y0077909D01*
X0440432Y0077311D02*
X0376147Y0077311D01*
X0377592Y0076712D02*
X0439833Y0076712D01*
X0439235Y0076114D02*
X0378600Y0076114D01*
X0379199Y0075515D02*
X0438636Y0075515D01*
X0438038Y0074917D02*
X0379797Y0074917D01*
X0380396Y0074318D02*
X0437439Y0074318D01*
X0436841Y0073720D02*
X0380994Y0073720D01*
X0381593Y0073121D02*
X0436242Y0073121D01*
X0435643Y0072523D02*
X0382191Y0072523D01*
X0382790Y0071924D02*
X0435045Y0071924D01*
X0434446Y0071326D02*
X0383388Y0071326D01*
X0383987Y0070727D02*
X0433848Y0070727D01*
X0433249Y0070129D02*
X0384585Y0070129D01*
X0385184Y0069530D02*
X0432651Y0069530D01*
X0432052Y0068932D02*
X0385782Y0068932D01*
X0386381Y0068333D02*
X0431454Y0068333D01*
X0430855Y0067735D02*
X0386979Y0067735D01*
X0387578Y0067136D02*
X0430257Y0067136D01*
X0429658Y0066538D02*
X0388176Y0066538D01*
X0388775Y0065939D02*
X0429060Y0065939D01*
X0428461Y0065341D02*
X0389373Y0065341D01*
X0389972Y0064742D02*
X0427863Y0064742D01*
X0427264Y0064144D02*
X0390570Y0064144D01*
X0391169Y0063545D02*
X0426666Y0063545D01*
X0426067Y0062947D02*
X0391767Y0062947D01*
X0392366Y0062348D02*
X0425469Y0062348D01*
X0424870Y0061750D02*
X0392964Y0061750D01*
X0393563Y0061151D02*
X0424272Y0061151D01*
X0423673Y0060553D02*
X0394161Y0060553D01*
X0394760Y0059954D02*
X0423075Y0059954D01*
X0422476Y0059356D02*
X0395358Y0059356D01*
X0395957Y0058757D02*
X0421878Y0058757D01*
X0421279Y0058159D02*
X0396555Y0058159D01*
X0397154Y0057560D02*
X0420681Y0057560D01*
X0420082Y0056962D02*
X0397752Y0056962D01*
X0398190Y0056363D02*
X0419484Y0056363D01*
X0418885Y0055765D02*
X0398437Y0055765D01*
X0398685Y0055166D02*
X0418287Y0055166D01*
X0417688Y0054568D02*
X0398933Y0054568D01*
X0398981Y0053969D02*
X0417090Y0053969D01*
X0416491Y0053370D02*
X0398981Y0053370D01*
X0398981Y0052772D02*
X0415893Y0052772D01*
X0415294Y0052173D02*
X0398981Y0052173D01*
X0398981Y0051575D02*
X0414696Y0051575D01*
X0414097Y0050976D02*
X0398981Y0050976D01*
X0398981Y0050378D02*
X0413499Y0050378D01*
X0412900Y0049779D02*
X0398981Y0049779D01*
X0398981Y0049181D02*
X0412302Y0049181D01*
X0411703Y0048582D02*
X0398981Y0048582D01*
X0398981Y0047984D02*
X0411105Y0047984D01*
X0409799Y0047385D02*
X0406264Y0047385D01*
X0406863Y0046787D02*
X0409200Y0046787D01*
X0408602Y0046188D02*
X0407461Y0046188D01*
X0399799Y0047385D02*
X0398981Y0047385D01*
X0398981Y0046787D02*
X0399200Y0046787D01*
X0387082Y0046787D02*
X0386863Y0046787D01*
X0387082Y0047385D02*
X0386264Y0047385D01*
X0416669Y0036014D02*
X0501182Y0036014D01*
X0501179Y0036612D02*
X0417268Y0036612D01*
X0417866Y0037211D02*
X0501177Y0037211D01*
X0501174Y0037809D02*
X0418465Y0037809D01*
X0419063Y0038408D02*
X0501171Y0038408D01*
X0501169Y0039006D02*
X0419481Y0039006D01*
X0419553Y0039605D02*
X0501166Y0039605D01*
X0501164Y0040203D02*
X0420152Y0040203D01*
X0420750Y0040802D02*
X0501161Y0040802D01*
X0501159Y0041400D02*
X0421349Y0041400D01*
X0421947Y0041999D02*
X0501156Y0041999D01*
X0501154Y0042597D02*
X0422546Y0042597D01*
X0423144Y0043196D02*
X0501151Y0043196D01*
X0501148Y0043794D02*
X0423743Y0043794D01*
X0424341Y0044393D02*
X0501146Y0044393D01*
X0501143Y0044991D02*
X0424940Y0044991D01*
X0425538Y0045590D02*
X0501141Y0045590D01*
X0501138Y0046188D02*
X0426137Y0046188D01*
X0426736Y0046787D02*
X0501136Y0046787D01*
X0501133Y0047385D02*
X0427334Y0047385D01*
X0427933Y0047984D02*
X0501131Y0047984D01*
X0501128Y0048582D02*
X0428531Y0048582D01*
X0429130Y0049181D02*
X0501125Y0049181D01*
X0501123Y0049779D02*
X0429728Y0049779D01*
X0430327Y0050378D02*
X0501120Y0050378D01*
X0501118Y0050976D02*
X0430925Y0050976D01*
X0431524Y0051575D02*
X0501115Y0051575D01*
X0501113Y0052173D02*
X0432122Y0052173D01*
X0432721Y0052772D02*
X0501110Y0052772D01*
X0501108Y0053370D02*
X0433319Y0053370D01*
X0433918Y0053969D02*
X0501105Y0053969D01*
X0501102Y0054568D02*
X0434516Y0054568D01*
X0435115Y0055166D02*
X0501100Y0055166D01*
X0501097Y0055765D02*
X0435713Y0055765D01*
X0436312Y0056363D02*
X0501095Y0056363D01*
X0501092Y0056962D02*
X0436910Y0056962D01*
X0437509Y0057560D02*
X0501090Y0057560D01*
X0501087Y0058159D02*
X0438107Y0058159D01*
X0438706Y0058757D02*
X0501085Y0058757D01*
X0501082Y0059356D02*
X0439304Y0059356D01*
X0439903Y0059954D02*
X0501079Y0059954D01*
X0501077Y0060553D02*
X0440501Y0060553D01*
X0441100Y0061151D02*
X0501074Y0061151D01*
X0501072Y0061750D02*
X0441698Y0061750D01*
X0442297Y0062348D02*
X0501069Y0062348D01*
X0501067Y0062947D02*
X0442895Y0062947D01*
X0443494Y0063545D02*
X0501064Y0063545D01*
X0501062Y0064144D02*
X0444092Y0064144D01*
X0444691Y0064742D02*
X0501059Y0064742D01*
X0501056Y0065341D02*
X0445289Y0065341D01*
X0445888Y0065939D02*
X0501054Y0065939D01*
X0501051Y0066538D02*
X0446486Y0066538D01*
X0447085Y0067136D02*
X0501049Y0067136D01*
X0501046Y0067735D02*
X0447683Y0067735D01*
X0448282Y0068333D02*
X0501044Y0068333D01*
X0501041Y0068932D02*
X0448880Y0068932D01*
X0449479Y0069530D02*
X0501039Y0069530D01*
X0501036Y0070129D02*
X0450077Y0070129D01*
X0450676Y0070727D02*
X0501034Y0070727D01*
X0501031Y0071326D02*
X0451274Y0071326D01*
X0451873Y0071924D02*
X0501028Y0071924D01*
X0501026Y0072523D02*
X0452472Y0072523D01*
X0453070Y0073121D02*
X0501023Y0073121D01*
X0501021Y0073720D02*
X0453669Y0073720D01*
X0454267Y0074318D02*
X0501018Y0074318D01*
X0501016Y0074917D02*
X0454866Y0074917D01*
X0455464Y0075515D02*
X0501013Y0075515D01*
X0501011Y0076114D02*
X0456063Y0076114D01*
X0456661Y0076712D02*
X0501008Y0076712D01*
X0501005Y0077311D02*
X0457260Y0077311D01*
X0457858Y0077909D02*
X0501003Y0077909D01*
X0501000Y0078508D02*
X0458457Y0078508D01*
X0459055Y0079106D02*
X0500998Y0079106D01*
X0500995Y0079705D02*
X0459654Y0079705D01*
X0460252Y0080303D02*
X0500993Y0080303D01*
X0500990Y0080902D02*
X0460851Y0080902D01*
X0461449Y0081501D02*
X0500988Y0081501D01*
X0500985Y0082099D02*
X0462048Y0082099D01*
X0462646Y0082698D02*
X0500982Y0082698D01*
X0500980Y0083296D02*
X0463245Y0083296D01*
X0463843Y0083895D02*
X0500977Y0083895D01*
X0500975Y0084493D02*
X0464442Y0084493D01*
X0465040Y0085092D02*
X0500972Y0085092D01*
X0500970Y0085690D02*
X0465639Y0085690D01*
X0466237Y0086289D02*
X0500967Y0086289D01*
X0500965Y0086887D02*
X0466836Y0086887D01*
X0467434Y0087486D02*
X0500962Y0087486D01*
X0500959Y0088084D02*
X0468033Y0088084D01*
X0468631Y0088683D02*
X0500957Y0088683D01*
X0500954Y0089281D02*
X0469230Y0089281D01*
X0469828Y0089880D02*
X0500952Y0089880D01*
X0500949Y0090478D02*
X0470427Y0090478D01*
X0470727Y0091077D02*
X0500947Y0091077D01*
X0500944Y0091675D02*
X0470975Y0091675D01*
X0471223Y0092274D02*
X0500942Y0092274D01*
X0500939Y0092872D02*
X0471422Y0092872D01*
X0471422Y0093471D02*
X0500936Y0093471D01*
X0500934Y0094069D02*
X0471422Y0094069D01*
X0471422Y0094668D02*
X0500931Y0094668D01*
X0500929Y0095266D02*
X0471422Y0095266D01*
X0471422Y0095865D02*
X0500926Y0095865D01*
X0500924Y0096463D02*
X0471422Y0096463D01*
X0471422Y0097062D02*
X0500921Y0097062D01*
X0500919Y0097660D02*
X0471422Y0097660D01*
X0471422Y0098259D02*
X0500916Y0098259D01*
X0500913Y0098857D02*
X0471422Y0098857D01*
X0471422Y0099456D02*
X0500911Y0099456D01*
X0500908Y0100054D02*
X0471422Y0100054D01*
X0471422Y0100653D02*
X0500906Y0100653D01*
X0500903Y0101251D02*
X0471422Y0101251D01*
X0471422Y0101850D02*
X0500901Y0101850D01*
X0500898Y0102448D02*
X0471422Y0102448D01*
X0471422Y0103047D02*
X0500896Y0103047D01*
X0500893Y0103645D02*
X0471422Y0103645D01*
X0471422Y0104244D02*
X0500890Y0104244D01*
X0500888Y0104842D02*
X0471422Y0104842D01*
X0471422Y0105441D02*
X0500885Y0105441D01*
X0500883Y0106039D02*
X0471422Y0106039D01*
X0471422Y0106638D02*
X0500880Y0106638D01*
X0500878Y0107237D02*
X0471422Y0107237D01*
X0471422Y0107835D02*
X0500875Y0107835D01*
X0500873Y0108434D02*
X0471422Y0108434D01*
X0471422Y0109032D02*
X0500870Y0109032D01*
X0500867Y0109631D02*
X0471422Y0109631D01*
X0471422Y0110229D02*
X0500865Y0110229D01*
X0500862Y0110828D02*
X0471422Y0110828D01*
X0471422Y0111426D02*
X0500860Y0111426D01*
X0500857Y0112025D02*
X0471422Y0112025D01*
X0471422Y0112623D02*
X0500855Y0112623D01*
X0500852Y0113222D02*
X0471422Y0113222D01*
X0471422Y0113820D02*
X0500850Y0113820D01*
X0500847Y0114419D02*
X0471422Y0114419D01*
X0471422Y0115017D02*
X0500844Y0115017D01*
X0500842Y0115616D02*
X0471422Y0115616D01*
X0471422Y0116214D02*
X0500839Y0116214D01*
X0500837Y0116813D02*
X0471422Y0116813D01*
X0471422Y0117411D02*
X0500834Y0117411D01*
X0500832Y0118010D02*
X0471422Y0118010D01*
X0471422Y0118608D02*
X0500829Y0118608D01*
X0500827Y0119207D02*
X0471422Y0119207D01*
X0471422Y0119805D02*
X0500824Y0119805D01*
X0500821Y0120404D02*
X0471422Y0120404D01*
X0471422Y0121002D02*
X0500819Y0121002D01*
X0500816Y0121601D02*
X0471422Y0121601D01*
X0471422Y0122199D02*
X0500814Y0122199D01*
X0500811Y0122798D02*
X0471422Y0122798D01*
X0471422Y0123396D02*
X0500809Y0123396D01*
X0500806Y0123995D02*
X0471422Y0123995D01*
X0471422Y0124593D02*
X0500804Y0124593D01*
X0500801Y0125192D02*
X0471422Y0125192D01*
X0471422Y0125790D02*
X0500798Y0125790D01*
X0500796Y0126389D02*
X0471422Y0126389D01*
X0471422Y0126987D02*
X0500793Y0126987D01*
X0500791Y0127586D02*
X0471422Y0127586D01*
X0471422Y0128184D02*
X0500788Y0128184D01*
X0500786Y0128783D02*
X0471422Y0128783D01*
X0471422Y0129381D02*
X0500783Y0129381D01*
X0500781Y0129980D02*
X0471422Y0129980D01*
X0471422Y0130578D02*
X0500778Y0130578D01*
X0500775Y0131177D02*
X0471422Y0131177D01*
X0471422Y0131775D02*
X0500773Y0131775D01*
X0500770Y0132374D02*
X0471422Y0132374D01*
X0471422Y0132972D02*
X0500768Y0132972D01*
X0500765Y0133571D02*
X0471422Y0133571D01*
X0471422Y0134170D02*
X0500763Y0134170D01*
X0500760Y0134768D02*
X0471422Y0134768D01*
X0471422Y0135367D02*
X0500758Y0135367D01*
X0500755Y0135965D02*
X0471422Y0135965D01*
X0471422Y0136564D02*
X0500752Y0136564D01*
X0500750Y0137162D02*
X0471422Y0137162D01*
X0471422Y0137761D02*
X0500747Y0137761D01*
X0500745Y0138359D02*
X0471422Y0138359D01*
X0471422Y0138958D02*
X0500742Y0138958D01*
X0500740Y0139556D02*
X0471422Y0139556D01*
X0471422Y0140155D02*
X0500737Y0140155D01*
X0500735Y0140753D02*
X0471422Y0140753D01*
X0471422Y0141352D02*
X0500732Y0141352D01*
X0500729Y0141950D02*
X0471422Y0141950D01*
X0471422Y0142549D02*
X0500727Y0142549D01*
X0500724Y0143147D02*
X0471422Y0143147D01*
X0471422Y0143746D02*
X0500722Y0143746D01*
X0500719Y0144344D02*
X0471422Y0144344D01*
X0471422Y0144943D02*
X0500717Y0144943D01*
X0500714Y0145541D02*
X0471422Y0145541D01*
X0471422Y0146140D02*
X0500712Y0146140D01*
X0500709Y0146738D02*
X0471422Y0146738D01*
X0471422Y0147337D02*
X0500706Y0147337D01*
X0500704Y0147935D02*
X0471422Y0147935D01*
X0471422Y0148534D02*
X0500701Y0148534D01*
X0500699Y0149132D02*
X0471422Y0149132D01*
X0471422Y0149731D02*
X0500696Y0149731D01*
X0500694Y0150329D02*
X0471422Y0150329D01*
X0471422Y0150928D02*
X0500691Y0150928D01*
X0500689Y0151526D02*
X0471422Y0151526D01*
X0471422Y0152125D02*
X0500686Y0152125D01*
X0500683Y0152723D02*
X0471422Y0152723D01*
X0471422Y0153322D02*
X0500681Y0153322D01*
X0500678Y0153920D02*
X0471422Y0153920D01*
X0471422Y0154519D02*
X0500676Y0154519D01*
X0500673Y0155117D02*
X0471422Y0155117D01*
X0471422Y0155716D02*
X0500671Y0155716D01*
X0500668Y0156314D02*
X0471422Y0156314D01*
X0471422Y0156913D02*
X0500666Y0156913D01*
X0500663Y0157511D02*
X0471422Y0157511D01*
X0471422Y0158110D02*
X0500660Y0158110D01*
X0500658Y0158708D02*
X0471422Y0158708D01*
X0471422Y0159307D02*
X0500655Y0159307D01*
X0500653Y0159905D02*
X0471422Y0159905D01*
X0471422Y0160504D02*
X0500650Y0160504D01*
X0500648Y0161103D02*
X0471422Y0161103D01*
X0471422Y0161701D02*
X0500645Y0161701D01*
X0500643Y0162300D02*
X0471422Y0162300D01*
X0471422Y0162898D02*
X0500640Y0162898D01*
X0500637Y0163497D02*
X0471422Y0163497D01*
X0471422Y0164095D02*
X0500635Y0164095D01*
X0500632Y0164694D02*
X0471422Y0164694D01*
X0471422Y0165292D02*
X0500630Y0165292D01*
X0500627Y0165891D02*
X0471422Y0165891D01*
X0471422Y0166489D02*
X0500625Y0166489D01*
X0500622Y0167088D02*
X0471422Y0167088D01*
X0471422Y0167686D02*
X0500620Y0167686D01*
X0500617Y0168285D02*
X0471422Y0168285D01*
X0471422Y0168883D02*
X0500614Y0168883D01*
X0500612Y0169482D02*
X0471422Y0169482D01*
X0471422Y0170080D02*
X0500609Y0170080D01*
X0500607Y0170679D02*
X0471422Y0170679D01*
X0471422Y0171277D02*
X0500604Y0171277D01*
X0500602Y0171876D02*
X0471422Y0171876D01*
X0471422Y0172474D02*
X0500599Y0172474D01*
X0500597Y0173073D02*
X0471422Y0173073D01*
X0471422Y0173671D02*
X0500594Y0173671D01*
X0500591Y0174270D02*
X0471422Y0174270D01*
X0471422Y0174868D02*
X0500589Y0174868D01*
X0500586Y0175467D02*
X0471422Y0175467D01*
X0471422Y0176065D02*
X0500584Y0176065D01*
X0500581Y0176664D02*
X0471422Y0176664D01*
X0471422Y0177262D02*
X0500579Y0177262D01*
X0500576Y0177861D02*
X0471422Y0177861D01*
X0471422Y0178459D02*
X0500574Y0178459D01*
X0500571Y0179058D02*
X0471422Y0179058D01*
X0471422Y0179656D02*
X0500568Y0179656D01*
X0500566Y0180255D02*
X0471422Y0180255D01*
X0471422Y0180853D02*
X0500563Y0180853D01*
X0500561Y0181452D02*
X0471422Y0181452D01*
X0471422Y0182050D02*
X0500558Y0182050D01*
X0500556Y0182649D02*
X0471422Y0182649D01*
X0471422Y0183247D02*
X0500553Y0183247D01*
X0500551Y0183846D02*
X0471422Y0183846D01*
X0471422Y0184444D02*
X0500548Y0184444D01*
X0500545Y0185043D02*
X0471422Y0185043D01*
X0471422Y0185641D02*
X0500543Y0185641D01*
X0500540Y0186240D02*
X0471422Y0186240D01*
X0471422Y0186839D02*
X0500538Y0186839D01*
X0500535Y0187437D02*
X0471422Y0187437D01*
X0471422Y0188036D02*
X0500533Y0188036D01*
X0500530Y0188634D02*
X0471422Y0188634D01*
X0471422Y0189233D02*
X0500528Y0189233D01*
X0500525Y0189831D02*
X0471422Y0189831D01*
X0471422Y0190430D02*
X0500522Y0190430D01*
X0500520Y0191028D02*
X0471422Y0191028D01*
X0471422Y0191627D02*
X0500517Y0191627D01*
X0500515Y0192225D02*
X0471422Y0192225D01*
X0471422Y0192824D02*
X0500512Y0192824D01*
X0500510Y0193422D02*
X0471422Y0193422D01*
X0471422Y0194021D02*
X0500507Y0194021D01*
X0500505Y0194619D02*
X0471422Y0194619D01*
X0471422Y0195218D02*
X0500502Y0195218D01*
X0500499Y0195816D02*
X0471422Y0195816D01*
X0471422Y0196415D02*
X0500497Y0196415D01*
X0500494Y0197013D02*
X0471422Y0197013D01*
X0471422Y0197612D02*
X0500492Y0197612D01*
X0500489Y0198210D02*
X0471422Y0198210D01*
X0471422Y0198809D02*
X0500487Y0198809D01*
X0500484Y0199407D02*
X0471229Y0199407D01*
X0470981Y0200006D02*
X0500482Y0200006D01*
X0500479Y0200604D02*
X0470733Y0200604D01*
X0470440Y0201203D02*
X0500477Y0201203D01*
X0500474Y0201801D02*
X0469842Y0201801D01*
X0469243Y0202400D02*
X0500471Y0202400D01*
X0500469Y0202998D02*
X0468645Y0202998D01*
X0468046Y0203597D02*
X0500466Y0203597D01*
X0500464Y0204195D02*
X0467448Y0204195D01*
X0466849Y0204794D02*
X0500461Y0204794D01*
X0500459Y0205392D02*
X0466251Y0205392D01*
X0465652Y0205991D02*
X0500456Y0205991D01*
X0500454Y0206589D02*
X0465054Y0206589D01*
X0464455Y0207188D02*
X0500451Y0207188D01*
X0500448Y0207786D02*
X0463857Y0207786D01*
X0463258Y0208385D02*
X0500446Y0208385D01*
X0500443Y0208983D02*
X0462660Y0208983D01*
X0462061Y0209582D02*
X0500441Y0209582D01*
X0500438Y0210180D02*
X0461463Y0210180D01*
X0460160Y0210779D02*
X0500436Y0210779D01*
X0500433Y0211377D02*
X0435463Y0211377D01*
X0434864Y0211976D02*
X0500431Y0211976D01*
X0500428Y0212574D02*
X0434265Y0212574D01*
X0433667Y0213173D02*
X0500425Y0213173D01*
X0500423Y0213772D02*
X0433068Y0213772D01*
X0432470Y0214370D02*
X0500420Y0214370D01*
X0500418Y0214969D02*
X0431871Y0214969D01*
X0431273Y0215567D02*
X0500415Y0215567D01*
X0500413Y0216166D02*
X0430674Y0216166D01*
X0430076Y0216764D02*
X0500410Y0216764D01*
X0500408Y0217363D02*
X0429477Y0217363D01*
X0428879Y0217961D02*
X0500405Y0217961D01*
X0500402Y0218560D02*
X0428280Y0218560D01*
X0427682Y0219158D02*
X0500400Y0219158D01*
X0500397Y0219757D02*
X0427083Y0219757D01*
X0426934Y0220355D02*
X0500395Y0220355D01*
X0500392Y0220954D02*
X0426934Y0220954D01*
X0426934Y0221552D02*
X0500390Y0221552D01*
X0500387Y0222151D02*
X0426934Y0222151D01*
X0426934Y0222749D02*
X0500385Y0222749D01*
X0500382Y0223348D02*
X0464692Y0223348D01*
X0463587Y0222890D02*
X0466576Y0224128D01*
X0468865Y0226416D01*
X0470103Y0229406D01*
X0470103Y0232642D01*
X0468865Y0235632D01*
X0466576Y0237921D01*
X0463587Y0239159D01*
X0450980Y0239159D01*
X0447991Y0237921D01*
X0445702Y0235632D01*
X0444464Y0232642D01*
X0444464Y0229406D01*
X0445702Y0226416D01*
X0447991Y0224128D01*
X0450980Y0222890D01*
X0463587Y0222890D01*
X0466137Y0223946D02*
X0500379Y0223946D01*
X0500377Y0224545D02*
X0466993Y0224545D01*
X0467591Y0225143D02*
X0500374Y0225143D01*
X0500372Y0225742D02*
X0468190Y0225742D01*
X0468788Y0226340D02*
X0500369Y0226340D01*
X0500367Y0226939D02*
X0469081Y0226939D01*
X0469329Y0227537D02*
X0500364Y0227537D01*
X0500362Y0228136D02*
X0469577Y0228136D01*
X0469825Y0228734D02*
X0500359Y0228734D01*
X0500356Y0229333D02*
X0470073Y0229333D01*
X0470103Y0229931D02*
X0500354Y0229931D01*
X0500351Y0230530D02*
X0470103Y0230530D01*
X0470103Y0231128D02*
X0500349Y0231128D01*
X0500346Y0231727D02*
X0470103Y0231727D01*
X0470103Y0232325D02*
X0500344Y0232325D01*
X0500341Y0232924D02*
X0469987Y0232924D01*
X0469739Y0233522D02*
X0500339Y0233522D01*
X0500336Y0234121D02*
X0469491Y0234121D01*
X0469243Y0234719D02*
X0500333Y0234719D01*
X0500331Y0235318D02*
X0468995Y0235318D01*
X0468581Y0235916D02*
X0500328Y0235916D01*
X0500326Y0236515D02*
X0467982Y0236515D01*
X0467384Y0237113D02*
X0500323Y0237113D01*
X0500321Y0237712D02*
X0466785Y0237712D01*
X0465635Y0238310D02*
X0500318Y0238310D01*
X0500316Y0238909D02*
X0464190Y0238909D01*
X0463370Y0244872D02*
X0464266Y0245163D01*
X0465105Y0245591D01*
X0465867Y0246144D01*
X0466534Y0246810D01*
X0467087Y0247573D01*
X0467515Y0248412D01*
X0467806Y0249308D01*
X0467954Y0250238D01*
X0467954Y0250409D01*
X0457584Y0250409D01*
X0457584Y0251009D01*
X0467954Y0251009D01*
X0467954Y0251180D01*
X0467806Y0252111D01*
X0467515Y0253007D01*
X0467087Y0253846D01*
X0466534Y0254608D01*
X0465867Y0255275D01*
X0465105Y0255828D01*
X0464266Y0256256D01*
X0463370Y0256547D01*
X0462440Y0256694D01*
X0457583Y0256694D01*
X0457583Y0251009D01*
X0456983Y0251009D01*
X0456983Y0250409D01*
X0446613Y0250409D01*
X0446613Y0250238D01*
X0446761Y0249308D01*
X0447052Y0248412D01*
X0447480Y0247573D01*
X0448033Y0246810D01*
X0448699Y0246144D01*
X0449462Y0245591D01*
X0450301Y0245163D01*
X0451197Y0244872D01*
X0452127Y0244724D01*
X0456983Y0244724D01*
X0456983Y0250409D01*
X0457583Y0250409D01*
X0457583Y0244724D01*
X0462440Y0244724D01*
X0463370Y0244872D01*
X0463439Y0244894D02*
X0500290Y0244894D01*
X0500293Y0244296D02*
X0426934Y0244296D01*
X0426934Y0244894D02*
X0451128Y0244894D01*
X0449654Y0245493D02*
X0426934Y0245493D01*
X0426934Y0246091D02*
X0448773Y0246091D01*
X0448154Y0246690D02*
X0426934Y0246690D01*
X0426934Y0247288D02*
X0447686Y0247288D01*
X0447320Y0247887D02*
X0426934Y0247887D01*
X0426934Y0248485D02*
X0447028Y0248485D01*
X0446834Y0249084D02*
X0426934Y0249084D01*
X0426934Y0249682D02*
X0446701Y0249682D01*
X0446613Y0250281D02*
X0426934Y0250281D01*
X0426934Y0250879D02*
X0456983Y0250879D01*
X0456983Y0251009D02*
X0446613Y0251009D01*
X0446613Y0251180D01*
X0446761Y0252111D01*
X0447052Y0253007D01*
X0447480Y0253846D01*
X0448033Y0254608D01*
X0448699Y0255275D01*
X0449462Y0255828D01*
X0450301Y0256256D01*
X0451197Y0256547D01*
X0452127Y0256694D01*
X0456983Y0256694D01*
X0456983Y0251009D01*
X0456983Y0251478D02*
X0457583Y0251478D01*
X0457583Y0252076D02*
X0456983Y0252076D01*
X0456983Y0252675D02*
X0457583Y0252675D01*
X0457583Y0253273D02*
X0456983Y0253273D01*
X0456983Y0253872D02*
X0457583Y0253872D01*
X0457583Y0254470D02*
X0456983Y0254470D01*
X0456983Y0255069D02*
X0457583Y0255069D01*
X0457583Y0255667D02*
X0456983Y0255667D01*
X0456983Y0256266D02*
X0457583Y0256266D01*
X0457584Y0250879D02*
X0500264Y0250879D01*
X0500267Y0250281D02*
X0467954Y0250281D01*
X0467865Y0249682D02*
X0500270Y0249682D01*
X0500272Y0249084D02*
X0467733Y0249084D01*
X0467539Y0248485D02*
X0500275Y0248485D01*
X0500277Y0247887D02*
X0467247Y0247887D01*
X0466881Y0247288D02*
X0500280Y0247288D01*
X0500282Y0246690D02*
X0466413Y0246690D01*
X0465794Y0246091D02*
X0500285Y0246091D01*
X0500287Y0245493D02*
X0464913Y0245493D01*
X0457583Y0245493D02*
X0456983Y0245493D01*
X0456983Y0246091D02*
X0457583Y0246091D01*
X0457583Y0246690D02*
X0456983Y0246690D01*
X0456983Y0247288D02*
X0457583Y0247288D01*
X0457583Y0247887D02*
X0456983Y0247887D01*
X0456983Y0248485D02*
X0457583Y0248485D01*
X0457583Y0249084D02*
X0456983Y0249084D01*
X0456983Y0249682D02*
X0457583Y0249682D01*
X0457583Y0250281D02*
X0456983Y0250281D01*
X0456983Y0244894D02*
X0457583Y0244894D01*
X0450377Y0238909D02*
X0426934Y0238909D01*
X0426934Y0239508D02*
X0500313Y0239508D01*
X0500310Y0240106D02*
X0426934Y0240106D01*
X0426934Y0240705D02*
X0500308Y0240705D01*
X0500305Y0241303D02*
X0426934Y0241303D01*
X0426934Y0241902D02*
X0500303Y0241902D01*
X0500300Y0242500D02*
X0426934Y0242500D01*
X0426934Y0243099D02*
X0500298Y0243099D01*
X0500295Y0243697D02*
X0426934Y0243697D01*
X0426934Y0238310D02*
X0448932Y0238310D01*
X0447782Y0237712D02*
X0426934Y0237712D01*
X0426934Y0237113D02*
X0447183Y0237113D01*
X0446585Y0236515D02*
X0426934Y0236515D01*
X0426934Y0235916D02*
X0445986Y0235916D01*
X0445572Y0235318D02*
X0426934Y0235318D01*
X0426934Y0234719D02*
X0445324Y0234719D01*
X0445076Y0234121D02*
X0426934Y0234121D01*
X0426934Y0233522D02*
X0444828Y0233522D01*
X0444580Y0232924D02*
X0426934Y0232924D01*
X0426934Y0232325D02*
X0444464Y0232325D01*
X0444464Y0231727D02*
X0426934Y0231727D01*
X0426934Y0231128D02*
X0444464Y0231128D01*
X0444464Y0230530D02*
X0426934Y0230530D01*
X0426934Y0229931D02*
X0444464Y0229931D01*
X0444494Y0229333D02*
X0426934Y0229333D01*
X0426934Y0228734D02*
X0444742Y0228734D01*
X0444990Y0228136D02*
X0426934Y0228136D01*
X0426934Y0227537D02*
X0445238Y0227537D01*
X0445486Y0226939D02*
X0426934Y0226939D01*
X0426934Y0226340D02*
X0445778Y0226340D01*
X0446377Y0225742D02*
X0426934Y0225742D01*
X0426934Y0225143D02*
X0446975Y0225143D01*
X0447574Y0224545D02*
X0426934Y0224545D01*
X0426934Y0223946D02*
X0448430Y0223946D01*
X0449875Y0223348D02*
X0426934Y0223348D01*
X0415569Y0214969D02*
X0391450Y0214969D01*
X0391450Y0215567D02*
X0415321Y0215567D01*
X0415073Y0216166D02*
X0391450Y0216166D01*
X0391450Y0216764D02*
X0415035Y0216764D01*
X0415035Y0217363D02*
X0391450Y0217363D01*
X0391450Y0217961D02*
X0415035Y0217961D01*
X0415035Y0218560D02*
X0391450Y0218560D01*
X0390869Y0219158D02*
X0415035Y0219158D01*
X0415035Y0219757D02*
X0390271Y0219757D01*
X0389672Y0220355D02*
X0415035Y0220355D01*
X0415035Y0220954D02*
X0389168Y0220954D01*
X0389767Y0221552D02*
X0415035Y0221552D01*
X0415035Y0222151D02*
X0390365Y0222151D01*
X0390964Y0222749D02*
X0415035Y0222749D01*
X0415035Y0223348D02*
X0391450Y0223348D01*
X0391450Y0223946D02*
X0415035Y0223946D01*
X0415035Y0224545D02*
X0391450Y0224545D01*
X0391450Y0225143D02*
X0415035Y0225143D01*
X0415035Y0225742D02*
X0391450Y0225742D01*
X0391450Y0226340D02*
X0415035Y0226340D01*
X0415035Y0226939D02*
X0391450Y0226939D01*
X0391450Y0227537D02*
X0415035Y0227537D01*
X0415035Y0228136D02*
X0391450Y0228136D01*
X0391293Y0228734D02*
X0415035Y0228734D01*
X0415035Y0229333D02*
X0390695Y0229333D01*
X0390096Y0229931D02*
X0415035Y0229931D01*
X0415035Y0230530D02*
X0389498Y0230530D01*
X0389343Y0231128D02*
X0415035Y0231128D01*
X0415035Y0231727D02*
X0389942Y0231727D01*
X0390540Y0232325D02*
X0415035Y0232325D01*
X0415035Y0232924D02*
X0391139Y0232924D01*
X0391450Y0233522D02*
X0415035Y0233522D01*
X0415035Y0234121D02*
X0391450Y0234121D01*
X0391450Y0234719D02*
X0415035Y0234719D01*
X0415035Y0235318D02*
X0391450Y0235318D01*
X0391450Y0235916D02*
X0415035Y0235916D01*
X0415035Y0236515D02*
X0391450Y0236515D01*
X0391450Y0237113D02*
X0415035Y0237113D01*
X0415035Y0237712D02*
X0391450Y0237712D01*
X0391450Y0238310D02*
X0415035Y0238310D01*
X0415035Y0238909D02*
X0391118Y0238909D01*
X0390520Y0239508D02*
X0415035Y0239508D01*
X0415035Y0240106D02*
X0389921Y0240106D01*
X0389323Y0240705D02*
X0415035Y0240705D01*
X0415035Y0241303D02*
X0389518Y0241303D01*
X0390116Y0241902D02*
X0415035Y0241902D01*
X0415035Y0242500D02*
X0390715Y0242500D01*
X0391313Y0243099D02*
X0415035Y0243099D01*
X0415035Y0243697D02*
X0391450Y0243697D01*
X0391450Y0244296D02*
X0415035Y0244296D01*
X0415035Y0244894D02*
X0391450Y0244894D01*
X0391450Y0245493D02*
X0415035Y0245493D01*
X0415035Y0246091D02*
X0391450Y0246091D01*
X0391450Y0246690D02*
X0415035Y0246690D01*
X0415035Y0247288D02*
X0391450Y0247288D01*
X0391450Y0247887D02*
X0415035Y0247887D01*
X0415035Y0248485D02*
X0391450Y0248485D01*
X0390944Y0249084D02*
X0415035Y0249084D01*
X0415035Y0249682D02*
X0390345Y0249682D01*
X0389747Y0250281D02*
X0415035Y0250281D01*
X0415035Y0250879D02*
X0389148Y0250879D01*
X0389693Y0251478D02*
X0415035Y0251478D01*
X0415035Y0252076D02*
X0390291Y0252076D01*
X0390890Y0252675D02*
X0415035Y0252675D01*
X0415035Y0253273D02*
X0391450Y0253273D01*
X0391450Y0253872D02*
X0415035Y0253872D01*
X0415035Y0254470D02*
X0391450Y0254470D01*
X0391450Y0255069D02*
X0415035Y0255069D01*
X0415035Y0255667D02*
X0391450Y0255667D01*
X0391450Y0256266D02*
X0415035Y0256266D01*
X0415035Y0256864D02*
X0391450Y0256864D01*
X0391450Y0257463D02*
X0415035Y0257463D01*
X0415035Y0258061D02*
X0391450Y0258061D01*
X0391368Y0258660D02*
X0415035Y0258660D01*
X0415035Y0259258D02*
X0390769Y0259258D01*
X0390171Y0259857D02*
X0415035Y0259857D01*
X0415035Y0260455D02*
X0389572Y0260455D01*
X0389269Y0261054D02*
X0415035Y0261054D01*
X0415035Y0261652D02*
X0389867Y0261652D01*
X0390466Y0262251D02*
X0415035Y0262251D01*
X0415035Y0262849D02*
X0391064Y0262849D01*
X0391450Y0263448D02*
X0415035Y0263448D01*
X0415035Y0264046D02*
X0391450Y0264046D01*
X0391450Y0264645D02*
X0415035Y0264645D01*
X0415035Y0265243D02*
X0391450Y0265243D01*
X0391450Y0265842D02*
X0415035Y0265842D01*
X0415035Y0266441D02*
X0391450Y0266441D01*
X0391450Y0267039D02*
X0415035Y0267039D01*
X0415035Y0267638D02*
X0391450Y0267638D01*
X0391450Y0268236D02*
X0415035Y0268236D01*
X0415035Y0268835D02*
X0391193Y0268835D01*
X0390594Y0269433D02*
X0415035Y0269433D01*
X0415035Y0270032D02*
X0389996Y0270032D01*
X0389397Y0270630D02*
X0415035Y0270630D01*
X0415035Y0271229D02*
X0389443Y0271229D01*
X0390042Y0271827D02*
X0415035Y0271827D01*
X0415035Y0272426D02*
X0390640Y0272426D01*
X0391239Y0273024D02*
X0415035Y0273024D01*
X0415035Y0273623D02*
X0391450Y0273623D01*
X0391450Y0274221D02*
X0415035Y0274221D01*
X0415035Y0274820D02*
X0391450Y0274820D01*
X0391450Y0275418D02*
X0415035Y0275418D01*
X0415035Y0276017D02*
X0391450Y0276017D01*
X0391450Y0276615D02*
X0415035Y0276615D01*
X0415035Y0277214D02*
X0391450Y0277214D01*
X0391450Y0277812D02*
X0415035Y0277812D01*
X0415035Y0278411D02*
X0391450Y0278411D01*
X0391018Y0279009D02*
X0415035Y0279009D01*
X0415035Y0279608D02*
X0390420Y0279608D01*
X0389821Y0280206D02*
X0415035Y0280206D01*
X0415035Y0280805D02*
X0389223Y0280805D01*
X0389618Y0281403D02*
X0415035Y0281403D01*
X0414703Y0282002D02*
X0390217Y0282002D01*
X0390815Y0282600D02*
X0414105Y0282600D01*
X0413506Y0283199D02*
X0391414Y0283199D01*
X0391450Y0283797D02*
X0412908Y0283797D01*
X0412309Y0284396D02*
X0391450Y0284396D01*
X0391450Y0284994D02*
X0411711Y0284994D01*
X0411112Y0285593D02*
X0391450Y0285593D01*
X0391450Y0286191D02*
X0410513Y0286191D01*
X0409915Y0286790D02*
X0391450Y0286790D01*
X0391450Y0287388D02*
X0409316Y0287388D01*
X0408718Y0287987D02*
X0391450Y0287987D01*
X0391442Y0288585D02*
X0408119Y0288585D01*
X0407521Y0289184D02*
X0390843Y0289184D01*
X0390245Y0289782D02*
X0406922Y0289782D01*
X0406324Y0290381D02*
X0389646Y0290381D01*
X0389194Y0290979D02*
X0405725Y0290979D01*
X0405127Y0291578D02*
X0389793Y0291578D01*
X0390391Y0292177D02*
X0404528Y0292177D01*
X0403930Y0292775D02*
X0390990Y0292775D01*
X0391450Y0293374D02*
X0403331Y0293374D01*
X0402733Y0293972D02*
X0391450Y0293972D01*
X0391450Y0294571D02*
X0402134Y0294571D01*
X0401536Y0295169D02*
X0391450Y0295169D01*
X0391450Y0295768D02*
X0400937Y0295768D01*
X0400339Y0296366D02*
X0391450Y0296366D01*
X0391450Y0296965D02*
X0399740Y0296965D01*
X0399142Y0297563D02*
X0391450Y0297563D01*
X0391450Y0298162D02*
X0398543Y0298162D01*
X0397945Y0298760D02*
X0391267Y0298760D01*
X0390669Y0299359D02*
X0397346Y0299359D01*
X0396820Y0311927D02*
X0388100Y0311927D01*
X0381900Y0311927D02*
X0380950Y0311927D01*
X0380950Y0311329D02*
X0381301Y0311329D01*
X0380950Y0312526D02*
X0397418Y0312526D01*
X0398017Y0313124D02*
X0380950Y0313124D01*
X0380950Y0313723D02*
X0398615Y0313723D01*
X0399214Y0314321D02*
X0380950Y0314321D01*
X0380950Y0314920D02*
X0399812Y0314920D01*
X0400411Y0315518D02*
X0380950Y0315518D01*
X0380950Y0316117D02*
X0401009Y0316117D01*
X0401608Y0316715D02*
X0380950Y0316715D01*
X0380950Y0317314D02*
X0402206Y0317314D01*
X0402805Y0317912D02*
X0380950Y0317912D01*
X0380950Y0318511D02*
X0403403Y0318511D01*
X0404002Y0319110D02*
X0380950Y0319110D01*
X0380950Y0319708D02*
X0404600Y0319708D01*
X0405199Y0320307D02*
X0380710Y0320307D01*
X0380462Y0320905D02*
X0405797Y0320905D01*
X0406396Y0321504D02*
X0380214Y0321504D01*
X0379856Y0322102D02*
X0406994Y0322102D01*
X0407593Y0322701D02*
X0379258Y0322701D01*
X0378659Y0323299D02*
X0408191Y0323299D01*
X0408790Y0323898D02*
X0378060Y0323898D01*
X0377462Y0324496D02*
X0409388Y0324496D01*
X0409987Y0325095D02*
X0376863Y0325095D01*
X0376265Y0325693D02*
X0410585Y0325693D01*
X0411184Y0326292D02*
X0375666Y0326292D01*
X0374963Y0326890D02*
X0411782Y0326890D01*
X0412381Y0327489D02*
X0373519Y0327489D01*
X0386555Y0335269D02*
X0360072Y0335269D01*
X0360072Y0335868D02*
X0386306Y0335868D01*
X0386306Y0336466D02*
X0360072Y0336466D01*
X0360072Y0337065D02*
X0386306Y0337065D01*
X0386306Y0337663D02*
X0360072Y0337663D01*
X0360072Y0338262D02*
X0386306Y0338262D01*
X0386306Y0338860D02*
X0360072Y0338860D01*
X0360072Y0339459D02*
X0386306Y0339459D01*
X0386306Y0340057D02*
X0360072Y0340057D01*
X0359765Y0340656D02*
X0386306Y0340656D01*
X0386699Y0341254D02*
X0359167Y0341254D01*
X0358568Y0341853D02*
X0387298Y0341853D01*
X0387896Y0342451D02*
X0357970Y0342451D01*
X0357371Y0343050D02*
X0388495Y0343050D01*
X0389094Y0343648D02*
X0356773Y0343648D01*
X0350471Y0343648D02*
X0346773Y0343648D01*
X0347371Y0343050D02*
X0349873Y0343050D01*
X0349274Y0342451D02*
X0347970Y0342451D01*
X0348568Y0341853D02*
X0348676Y0341853D01*
X0340471Y0343648D02*
X0329572Y0343648D01*
X0329572Y0343050D02*
X0339873Y0343050D01*
X0339274Y0342451D02*
X0329572Y0342451D01*
X0329572Y0341853D02*
X0331716Y0341853D01*
X0331117Y0341254D02*
X0329572Y0341254D01*
X0329765Y0340656D02*
X0330519Y0340656D01*
X0333322Y0340656D02*
X0333922Y0340656D01*
X0333922Y0341254D02*
X0333322Y0341254D01*
X0333322Y0341853D02*
X0333922Y0341853D01*
X0335528Y0341853D02*
X0338676Y0341853D01*
X0338077Y0341254D02*
X0336127Y0341254D01*
X0336725Y0340656D02*
X0337479Y0340656D01*
X0333922Y0340057D02*
X0333322Y0340057D01*
X0333322Y0339459D02*
X0333922Y0339459D01*
X0333922Y0338860D02*
X0333322Y0338860D01*
X0333322Y0338262D02*
X0333922Y0338262D01*
X0333922Y0337378D02*
X0333922Y0333378D01*
X0335403Y0333378D01*
X0337172Y0335147D01*
X0337172Y0335006D01*
X0337672Y0334506D01*
X0337672Y0330628D01*
X0338578Y0328442D01*
X0350291Y0316729D01*
X0352478Y0315823D01*
X0356057Y0315823D01*
X0355909Y0315783D01*
X0353492Y0314388D01*
X0351519Y0312414D01*
X0350942Y0311415D01*
X0350468Y0312560D01*
X0348653Y0314374D01*
X0346283Y0315356D01*
X0343717Y0315356D01*
X0341347Y0314374D01*
X0340000Y0313027D01*
X0338653Y0314374D01*
X0336283Y0315356D01*
X0333717Y0315356D01*
X0331347Y0314374D01*
X0330950Y0313977D01*
X0330950Y0323665D01*
X0330044Y0325851D01*
X0324667Y0331228D01*
X0326294Y0331228D01*
X0330072Y0335006D01*
X0330072Y0335147D01*
X0331841Y0333378D01*
X0333322Y0333378D01*
X0333322Y0337378D01*
X0333922Y0337378D01*
X0333922Y0337065D02*
X0333322Y0337065D01*
X0333322Y0336466D02*
X0333922Y0336466D01*
X0333922Y0335868D02*
X0333322Y0335868D01*
X0333322Y0335269D02*
X0333922Y0335269D01*
X0333922Y0334671D02*
X0333322Y0334671D01*
X0333322Y0334072D02*
X0333922Y0334072D01*
X0333922Y0333474D02*
X0333322Y0333474D01*
X0331745Y0333474D02*
X0328539Y0333474D01*
X0329138Y0334072D02*
X0331147Y0334072D01*
X0330548Y0334671D02*
X0329736Y0334671D01*
X0327940Y0332875D02*
X0337672Y0332875D01*
X0337672Y0332277D02*
X0327342Y0332277D01*
X0326743Y0331678D02*
X0337672Y0331678D01*
X0337672Y0331080D02*
X0324815Y0331080D01*
X0325414Y0330481D02*
X0337733Y0330481D01*
X0337981Y0329883D02*
X0326012Y0329883D01*
X0326611Y0329284D02*
X0338229Y0329284D01*
X0338477Y0328686D02*
X0327209Y0328686D01*
X0327808Y0328087D02*
X0338933Y0328087D01*
X0339531Y0327489D02*
X0328406Y0327489D01*
X0329005Y0326890D02*
X0340130Y0326890D01*
X0340728Y0326292D02*
X0329603Y0326292D01*
X0330109Y0325693D02*
X0341327Y0325693D01*
X0341925Y0325095D02*
X0330357Y0325095D01*
X0330605Y0324496D02*
X0342524Y0324496D01*
X0343122Y0323898D02*
X0330853Y0323898D01*
X0330950Y0323299D02*
X0343721Y0323299D01*
X0344319Y0322701D02*
X0330950Y0322701D01*
X0330950Y0322102D02*
X0344918Y0322102D01*
X0345516Y0321504D02*
X0330950Y0321504D01*
X0330950Y0320905D02*
X0346115Y0320905D01*
X0346713Y0320307D02*
X0330950Y0320307D01*
X0330950Y0319708D02*
X0347312Y0319708D01*
X0347910Y0319110D02*
X0330950Y0319110D01*
X0330950Y0318511D02*
X0348509Y0318511D01*
X0349107Y0317912D02*
X0330950Y0317912D01*
X0330950Y0317314D02*
X0349706Y0317314D01*
X0350323Y0316715D02*
X0330950Y0316715D01*
X0330950Y0316117D02*
X0351768Y0316117D01*
X0353426Y0314321D02*
X0348706Y0314321D01*
X0349304Y0313723D02*
X0352827Y0313723D01*
X0352229Y0313124D02*
X0349903Y0313124D01*
X0350482Y0312526D02*
X0351630Y0312526D01*
X0351237Y0311927D02*
X0350730Y0311927D01*
X0347335Y0314920D02*
X0354414Y0314920D01*
X0355450Y0315518D02*
X0330950Y0315518D01*
X0330950Y0314920D02*
X0332665Y0314920D01*
X0331294Y0314321D02*
X0330950Y0314321D01*
X0337335Y0314920D02*
X0342665Y0314920D01*
X0341294Y0314321D02*
X0338706Y0314321D01*
X0339304Y0313723D02*
X0340696Y0313723D01*
X0340097Y0313124D02*
X0339903Y0313124D01*
X0339975Y0298760D02*
X0340025Y0298760D01*
X0340624Y0298162D02*
X0339376Y0298162D01*
X0338778Y0297563D02*
X0341222Y0297563D01*
X0342491Y0296965D02*
X0337509Y0296965D01*
X0332491Y0296965D02*
X0327509Y0296965D01*
X0328778Y0297563D02*
X0331222Y0297563D01*
X0330624Y0298162D02*
X0329376Y0298162D01*
X0329975Y0298760D02*
X0330025Y0298760D01*
X0322491Y0296965D02*
X0317509Y0296965D01*
X0318778Y0297563D02*
X0321222Y0297563D01*
X0320624Y0298162D02*
X0319376Y0298162D01*
X0319975Y0298760D02*
X0320025Y0298760D01*
X0312491Y0296965D02*
X0307509Y0296965D01*
X0308778Y0297563D02*
X0311222Y0297563D01*
X0310624Y0298162D02*
X0309376Y0298162D01*
X0309975Y0298760D02*
X0310025Y0298760D01*
X0302491Y0296965D02*
X0297509Y0296965D01*
X0298778Y0297563D02*
X0301222Y0297563D01*
X0300624Y0298162D02*
X0299376Y0298162D01*
X0299975Y0298760D02*
X0300025Y0298760D01*
X0292491Y0296965D02*
X0287509Y0296965D01*
X0288778Y0297563D02*
X0291222Y0297563D01*
X0290624Y0298162D02*
X0289376Y0298162D01*
X0289975Y0298760D02*
X0290025Y0298760D01*
X0282491Y0296965D02*
X0277509Y0296965D01*
X0278778Y0297563D02*
X0281222Y0297563D01*
X0280624Y0298162D02*
X0279376Y0298162D01*
X0279975Y0298760D02*
X0280025Y0298760D01*
X0272491Y0296965D02*
X0257509Y0296965D01*
X0258778Y0297563D02*
X0271222Y0297563D01*
X0270624Y0298162D02*
X0259376Y0298162D01*
X0259975Y0298760D02*
X0270025Y0298760D01*
X0269488Y0299359D02*
X0260512Y0299359D01*
X0260759Y0299957D02*
X0269241Y0299957D01*
X0268993Y0300556D02*
X0261007Y0300556D01*
X0261255Y0301154D02*
X0268745Y0301154D01*
X0268550Y0301753D02*
X0261450Y0301753D01*
X0261450Y0302351D02*
X0268550Y0302351D01*
X0268550Y0302950D02*
X0261450Y0302950D01*
X0261450Y0303548D02*
X0268550Y0303548D01*
X0268550Y0304147D02*
X0261450Y0304147D01*
X0261450Y0304745D02*
X0268550Y0304745D01*
X0268550Y0305344D02*
X0261450Y0305344D01*
X0261450Y0305942D02*
X0268550Y0305942D01*
X0268550Y0306541D02*
X0261450Y0306541D01*
X0261450Y0307139D02*
X0268550Y0307139D01*
X0268550Y0307738D02*
X0261450Y0307738D01*
X0261450Y0308336D02*
X0268550Y0308336D01*
X0268550Y0308935D02*
X0261450Y0308935D01*
X0261450Y0309533D02*
X0268550Y0309533D01*
X0268550Y0310132D02*
X0261450Y0310132D01*
X0261225Y0310730D02*
X0268775Y0310730D01*
X0269022Y0311329D02*
X0260978Y0311329D01*
X0260730Y0311927D02*
X0269270Y0311927D01*
X0269518Y0312526D02*
X0260482Y0312526D01*
X0259903Y0313124D02*
X0270097Y0313124D01*
X0270695Y0313723D02*
X0259304Y0313723D01*
X0258706Y0314321D02*
X0271294Y0314321D01*
X0272665Y0314920D02*
X0257335Y0314920D01*
X0252665Y0314920D02*
X0247335Y0314920D01*
X0248706Y0314321D02*
X0251294Y0314321D01*
X0250696Y0313723D02*
X0249304Y0313723D01*
X0249903Y0313124D02*
X0250097Y0313124D01*
X0242665Y0314920D02*
X0240950Y0314920D01*
X0240950Y0315518D02*
X0308194Y0315518D01*
X0308793Y0314920D02*
X0307335Y0314920D01*
X0307596Y0316117D02*
X0240950Y0316117D01*
X0240950Y0316715D02*
X0306997Y0316715D01*
X0306399Y0317314D02*
X0241475Y0317314D01*
X0242074Y0317912D02*
X0305800Y0317912D01*
X0305202Y0318511D02*
X0242672Y0318511D01*
X0243271Y0319110D02*
X0304603Y0319110D01*
X0304005Y0319708D02*
X0243869Y0319708D01*
X0244468Y0320307D02*
X0303406Y0320307D01*
X0302808Y0320905D02*
X0245066Y0320905D01*
X0245665Y0321504D02*
X0302209Y0321504D01*
X0301611Y0322102D02*
X0246263Y0322102D01*
X0246862Y0322701D02*
X0301012Y0322701D01*
X0300414Y0323299D02*
X0247460Y0323299D01*
X0248059Y0323898D02*
X0299815Y0323898D01*
X0299217Y0324496D02*
X0248657Y0324496D01*
X0249256Y0325095D02*
X0298618Y0325095D01*
X0298347Y0325693D02*
X0249854Y0325693D01*
X0250453Y0326292D02*
X0298099Y0326292D01*
X0297851Y0326890D02*
X0251051Y0326890D01*
X0251650Y0327489D02*
X0297672Y0327489D01*
X0297672Y0328087D02*
X0252248Y0328087D01*
X0252847Y0328686D02*
X0297672Y0328686D01*
X0297672Y0329284D02*
X0253445Y0329284D01*
X0254044Y0329883D02*
X0297672Y0329883D01*
X0297672Y0330481D02*
X0254642Y0330481D01*
X0255241Y0331080D02*
X0297672Y0331080D01*
X0297672Y0331678D02*
X0255840Y0331678D01*
X0256438Y0332277D02*
X0297672Y0332277D01*
X0297672Y0332875D02*
X0257037Y0332875D01*
X0257635Y0333474D02*
X0297672Y0333474D01*
X0297672Y0334072D02*
X0258234Y0334072D01*
X0258832Y0334671D02*
X0297508Y0334671D01*
X0297172Y0335269D02*
X0259431Y0335269D01*
X0260029Y0335868D02*
X0297172Y0335868D01*
X0297172Y0336466D02*
X0260628Y0336466D01*
X0261226Y0337065D02*
X0297172Y0337065D01*
X0297172Y0337663D02*
X0261825Y0337663D01*
X0262423Y0338262D02*
X0297172Y0338262D01*
X0297172Y0338860D02*
X0263022Y0338860D01*
X0263620Y0339459D02*
X0297172Y0339459D01*
X0297172Y0340057D02*
X0264219Y0340057D01*
X0264817Y0340656D02*
X0297479Y0340656D01*
X0298077Y0341254D02*
X0265416Y0341254D01*
X0266014Y0341853D02*
X0298676Y0341853D01*
X0299274Y0342451D02*
X0266613Y0342451D01*
X0267211Y0343050D02*
X0299873Y0343050D01*
X0320435Y0355020D02*
X0499820Y0355020D01*
X0499822Y0354422D02*
X0321880Y0354422D01*
X0322544Y0353823D02*
X0499825Y0353823D01*
X0499828Y0353225D02*
X0323143Y0353225D01*
X0323741Y0352626D02*
X0499830Y0352626D01*
X0499833Y0352028D02*
X0324340Y0352028D01*
X0324938Y0351429D02*
X0499835Y0351429D01*
X0499838Y0350831D02*
X0325537Y0350831D01*
X0326135Y0350232D02*
X0499840Y0350232D01*
X0499843Y0349634D02*
X0326734Y0349634D01*
X0327332Y0349035D02*
X0499845Y0349035D01*
X0499848Y0348437D02*
X0327931Y0348437D01*
X0328529Y0347838D02*
X0499851Y0347838D01*
X0499853Y0347240D02*
X0328857Y0347240D01*
X0329105Y0346641D02*
X0499856Y0346641D01*
X0499858Y0346043D02*
X0329353Y0346043D01*
X0329572Y0345444D02*
X0499861Y0345444D01*
X0499863Y0344845D02*
X0329572Y0344845D01*
X0329572Y0344247D02*
X0389692Y0344247D01*
X0395820Y0344247D02*
X0399692Y0344247D01*
X0399094Y0343648D02*
X0396418Y0343648D01*
X0397017Y0343050D02*
X0398495Y0343050D01*
X0397896Y0342451D02*
X0397615Y0342451D01*
X0405820Y0344247D02*
X0419692Y0344247D01*
X0419094Y0343648D02*
X0406418Y0343648D01*
X0407017Y0343050D02*
X0418495Y0343050D01*
X0417896Y0342451D02*
X0414575Y0342451D01*
X0415174Y0341853D02*
X0417298Y0341853D01*
X0416699Y0341254D02*
X0415772Y0341254D01*
X0413056Y0341254D02*
X0412456Y0341254D01*
X0412456Y0340656D02*
X0413056Y0340656D01*
X0413056Y0340057D02*
X0412456Y0340057D01*
X0412456Y0339459D02*
X0413056Y0339459D01*
X0413056Y0338860D02*
X0412456Y0338860D01*
X0412456Y0337663D02*
X0413056Y0337663D01*
X0413056Y0337065D02*
X0412456Y0337065D01*
X0412456Y0336466D02*
X0413056Y0336466D01*
X0413056Y0335868D02*
X0412456Y0335868D01*
X0412456Y0335269D02*
X0413056Y0335269D01*
X0413056Y0334671D02*
X0412456Y0334671D01*
X0412456Y0334072D02*
X0413056Y0334072D01*
X0414720Y0334072D02*
X0416806Y0334072D01*
X0416806Y0333474D02*
X0407161Y0333474D01*
X0407760Y0334072D02*
X0410792Y0334072D01*
X0410194Y0334671D02*
X0408358Y0334671D01*
X0408957Y0335269D02*
X0409595Y0335269D01*
X0406563Y0332875D02*
X0416806Y0332875D01*
X0416806Y0332277D02*
X0405964Y0332277D01*
X0412979Y0328087D02*
X0355761Y0328087D01*
X0355162Y0328686D02*
X0413578Y0328686D01*
X0414176Y0329284D02*
X0354564Y0329284D01*
X0353965Y0329883D02*
X0414775Y0329883D01*
X0415374Y0330481D02*
X0353367Y0330481D01*
X0352768Y0331080D02*
X0415972Y0331080D01*
X0416571Y0331678D02*
X0356743Y0331678D01*
X0357342Y0332277D02*
X0389548Y0332277D01*
X0388949Y0332875D02*
X0357940Y0332875D01*
X0358539Y0333474D02*
X0388351Y0333474D01*
X0387752Y0334072D02*
X0359137Y0334072D01*
X0359736Y0334671D02*
X0387154Y0334671D01*
X0395964Y0332277D02*
X0399548Y0332277D01*
X0398949Y0332875D02*
X0396563Y0332875D01*
X0397161Y0333474D02*
X0398351Y0333474D01*
X0408214Y0341853D02*
X0410338Y0341853D01*
X0410937Y0342451D02*
X0407615Y0342451D01*
X0408812Y0341254D02*
X0409739Y0341254D01*
X0412456Y0341853D02*
X0413056Y0341853D01*
X0413056Y0342451D02*
X0412456Y0342451D01*
X0415917Y0335269D02*
X0416555Y0335269D01*
X0416806Y0334671D02*
X0415318Y0334671D01*
X0425820Y0344247D02*
X0429692Y0344247D01*
X0429094Y0343648D02*
X0426418Y0343648D01*
X0427017Y0343050D02*
X0428495Y0343050D01*
X0427896Y0342451D02*
X0427615Y0342451D01*
X0435820Y0344247D02*
X0439692Y0344247D01*
X0439094Y0343648D02*
X0436418Y0343648D01*
X0437017Y0343050D02*
X0438495Y0343050D01*
X0437896Y0342451D02*
X0437615Y0342451D01*
X0445820Y0344247D02*
X0499866Y0344247D01*
X0499868Y0343648D02*
X0446418Y0343648D01*
X0447017Y0343050D02*
X0499871Y0343050D01*
X0499874Y0342451D02*
X0447615Y0342451D01*
X0448214Y0341853D02*
X0499876Y0341853D01*
X0499879Y0341254D02*
X0448812Y0341254D01*
X0449205Y0340656D02*
X0499881Y0340656D01*
X0499884Y0340057D02*
X0449302Y0340057D01*
X0449901Y0339459D02*
X0499886Y0339459D01*
X0499889Y0338860D02*
X0450499Y0338860D01*
X0451098Y0338262D02*
X0499891Y0338262D01*
X0499894Y0337663D02*
X0451696Y0337663D01*
X0452295Y0337065D02*
X0499897Y0337065D01*
X0499899Y0336466D02*
X0452893Y0336466D01*
X0453492Y0335868D02*
X0499902Y0335868D01*
X0499904Y0335269D02*
X0454090Y0335269D01*
X0454689Y0334671D02*
X0499907Y0334671D01*
X0499909Y0334072D02*
X0455287Y0334072D01*
X0455886Y0333474D02*
X0499912Y0333474D01*
X0499914Y0332875D02*
X0456484Y0332875D01*
X0457083Y0332277D02*
X0499917Y0332277D01*
X0499920Y0331678D02*
X0457681Y0331678D01*
X0458280Y0331080D02*
X0499922Y0331080D01*
X0499925Y0330481D02*
X0458878Y0330481D01*
X0459477Y0329883D02*
X0499927Y0329883D01*
X0499930Y0329284D02*
X0460075Y0329284D01*
X0460674Y0328686D02*
X0499932Y0328686D01*
X0499935Y0328087D02*
X0461272Y0328087D01*
X0461871Y0327489D02*
X0499937Y0327489D01*
X0499940Y0326890D02*
X0462470Y0326890D01*
X0463068Y0326292D02*
X0499943Y0326292D01*
X0499945Y0325693D02*
X0463366Y0325693D01*
X0463614Y0325095D02*
X0499948Y0325095D01*
X0499950Y0324496D02*
X0463862Y0324496D01*
X0464060Y0323898D02*
X0499953Y0323898D01*
X0499955Y0323299D02*
X0464060Y0323299D01*
X0464060Y0322701D02*
X0499958Y0322701D01*
X0499960Y0322102D02*
X0464060Y0322102D01*
X0464060Y0321504D02*
X0499963Y0321504D01*
X0499966Y0320905D02*
X0464060Y0320905D01*
X0464060Y0320307D02*
X0499968Y0320307D01*
X0499971Y0319708D02*
X0464060Y0319708D01*
X0464060Y0319110D02*
X0499973Y0319110D01*
X0499976Y0318511D02*
X0464060Y0318511D01*
X0464060Y0317912D02*
X0499978Y0317912D01*
X0499981Y0317314D02*
X0464060Y0317314D01*
X0464060Y0316715D02*
X0499983Y0316715D01*
X0499986Y0316117D02*
X0464060Y0316117D01*
X0464060Y0315518D02*
X0499988Y0315518D01*
X0499991Y0314920D02*
X0464060Y0314920D01*
X0464060Y0314321D02*
X0499994Y0314321D01*
X0499996Y0313723D02*
X0464060Y0313723D01*
X0464060Y0313124D02*
X0499999Y0313124D01*
X0500001Y0312526D02*
X0464060Y0312526D01*
X0464060Y0311927D02*
X0500004Y0311927D01*
X0500006Y0311329D02*
X0464060Y0311329D01*
X0464060Y0310730D02*
X0500009Y0310730D01*
X0500011Y0310132D02*
X0464060Y0310132D01*
X0464060Y0309533D02*
X0500014Y0309533D01*
X0500017Y0308935D02*
X0464060Y0308935D01*
X0464060Y0308336D02*
X0500019Y0308336D01*
X0500022Y0307738D02*
X0464060Y0307738D01*
X0464060Y0307139D02*
X0500024Y0307139D01*
X0500027Y0306541D02*
X0464060Y0306541D01*
X0464060Y0305942D02*
X0500029Y0305942D01*
X0500032Y0305344D02*
X0464060Y0305344D01*
X0464060Y0304745D02*
X0500034Y0304745D01*
X0500037Y0304147D02*
X0464060Y0304147D01*
X0464060Y0303548D02*
X0500040Y0303548D01*
X0500042Y0302950D02*
X0464060Y0302950D01*
X0464060Y0302351D02*
X0500045Y0302351D01*
X0500047Y0301753D02*
X0464060Y0301753D01*
X0464060Y0301154D02*
X0500050Y0301154D01*
X0500052Y0300556D02*
X0464060Y0300556D01*
X0464060Y0299957D02*
X0500055Y0299957D01*
X0500057Y0299359D02*
X0464502Y0299359D01*
X0465947Y0298760D02*
X0500060Y0298760D01*
X0500063Y0298162D02*
X0467392Y0298162D01*
X0467997Y0297563D02*
X0500065Y0297563D01*
X0500068Y0296965D02*
X0468595Y0296965D01*
X0469194Y0296366D02*
X0500070Y0296366D01*
X0500073Y0295768D02*
X0469733Y0295768D01*
X0469981Y0295169D02*
X0500075Y0295169D01*
X0500078Y0294571D02*
X0470229Y0294571D01*
X0470477Y0293972D02*
X0500080Y0293972D01*
X0500083Y0293374D02*
X0470725Y0293374D01*
X0470930Y0292775D02*
X0500086Y0292775D01*
X0500088Y0292177D02*
X0470930Y0292177D01*
X0470930Y0291578D02*
X0500091Y0291578D01*
X0500093Y0290979D02*
X0470930Y0290979D01*
X0470930Y0290381D02*
X0500096Y0290381D01*
X0500098Y0289782D02*
X0470930Y0289782D01*
X0470740Y0289184D02*
X0500101Y0289184D01*
X0500103Y0288585D02*
X0470492Y0288585D01*
X0470244Y0287987D02*
X0500106Y0287987D01*
X0500109Y0287388D02*
X0469996Y0287388D01*
X0469748Y0286790D02*
X0500111Y0286790D01*
X0500114Y0286191D02*
X0469230Y0286191D01*
X0468632Y0285593D02*
X0500116Y0285593D01*
X0500119Y0284994D02*
X0468033Y0284994D01*
X0467435Y0284396D02*
X0500121Y0284396D01*
X0500124Y0283797D02*
X0466034Y0283797D01*
X0464589Y0283199D02*
X0500126Y0283199D01*
X0500129Y0282600D02*
X0439437Y0282600D01*
X0440035Y0282002D02*
X0500132Y0282002D01*
X0500134Y0281403D02*
X0440634Y0281403D01*
X0441232Y0280805D02*
X0500137Y0280805D01*
X0500139Y0280206D02*
X0441831Y0280206D01*
X0442429Y0279608D02*
X0451560Y0279608D01*
X0450115Y0279009D02*
X0443028Y0279009D01*
X0443626Y0278411D02*
X0448756Y0278411D01*
X0448158Y0277812D02*
X0444225Y0277812D01*
X0438838Y0283199D02*
X0451631Y0283199D01*
X0450186Y0283797D02*
X0438705Y0283797D01*
X0438705Y0284396D02*
X0448786Y0284396D01*
X0448187Y0284994D02*
X0438705Y0284994D01*
X0438705Y0285593D02*
X0447589Y0285593D01*
X0446990Y0286191D02*
X0438705Y0286191D01*
X0438705Y0286790D02*
X0446472Y0286790D01*
X0446224Y0287388D02*
X0438705Y0287388D01*
X0438705Y0287987D02*
X0445976Y0287987D01*
X0445728Y0288585D02*
X0438705Y0288585D01*
X0438705Y0289184D02*
X0445480Y0289184D01*
X0445291Y0289782D02*
X0438705Y0289782D01*
X0438705Y0290381D02*
X0445291Y0290381D01*
X0445291Y0290979D02*
X0438705Y0290979D01*
X0438705Y0291578D02*
X0445291Y0291578D01*
X0445291Y0292177D02*
X0438705Y0292177D01*
X0438705Y0292775D02*
X0445291Y0292775D01*
X0445496Y0293374D02*
X0438705Y0293374D01*
X0438705Y0293972D02*
X0445743Y0293972D01*
X0445991Y0294571D02*
X0438705Y0294571D01*
X0438705Y0295169D02*
X0446239Y0295169D01*
X0446487Y0295768D02*
X0438705Y0295768D01*
X0438705Y0296366D02*
X0447027Y0296366D01*
X0447625Y0296965D02*
X0438705Y0296965D01*
X0438705Y0297563D02*
X0448224Y0297563D01*
X0448829Y0298162D02*
X0438705Y0298162D01*
X0438705Y0298760D02*
X0450274Y0298760D01*
X0451719Y0299359D02*
X0438705Y0299359D01*
X0438705Y0299957D02*
X0452161Y0299957D01*
X0452161Y0300556D02*
X0438705Y0300556D01*
X0438705Y0301154D02*
X0452161Y0301154D01*
X0452161Y0301753D02*
X0438705Y0301753D01*
X0438705Y0302351D02*
X0452161Y0302351D01*
X0452161Y0302950D02*
X0438705Y0302950D01*
X0438705Y0303548D02*
X0452161Y0303548D01*
X0452161Y0304147D02*
X0438705Y0304147D01*
X0438705Y0304745D02*
X0452161Y0304745D01*
X0452161Y0305344D02*
X0438705Y0305344D01*
X0438705Y0305942D02*
X0452161Y0305942D01*
X0452161Y0306541D02*
X0438705Y0306541D01*
X0438705Y0307139D02*
X0452161Y0307139D01*
X0452161Y0307738D02*
X0438705Y0307738D01*
X0438705Y0308336D02*
X0452161Y0308336D01*
X0452161Y0308935D02*
X0438705Y0308935D01*
X0438705Y0309533D02*
X0452161Y0309533D01*
X0452161Y0310132D02*
X0438705Y0310132D01*
X0438705Y0310730D02*
X0452161Y0310730D01*
X0452161Y0311329D02*
X0438705Y0311329D01*
X0438705Y0311927D02*
X0452161Y0311927D01*
X0452161Y0312526D02*
X0438705Y0312526D01*
X0438705Y0313124D02*
X0452161Y0313124D01*
X0452161Y0313723D02*
X0438705Y0313723D01*
X0438705Y0314321D02*
X0452161Y0314321D01*
X0452161Y0314920D02*
X0438705Y0314920D01*
X0438705Y0315518D02*
X0452161Y0315518D01*
X0452161Y0316117D02*
X0438705Y0316117D01*
X0438705Y0316715D02*
X0452161Y0316715D01*
X0452161Y0317314D02*
X0438705Y0317314D01*
X0438705Y0317912D02*
X0452161Y0317912D01*
X0452161Y0318511D02*
X0438705Y0318511D01*
X0438705Y0319110D02*
X0452161Y0319110D01*
X0452161Y0319708D02*
X0438705Y0319708D01*
X0438705Y0320307D02*
X0452161Y0320307D01*
X0451627Y0320905D02*
X0438705Y0320905D01*
X0438705Y0321504D02*
X0451028Y0321504D01*
X0450430Y0322102D02*
X0438705Y0322102D01*
X0438705Y0322701D02*
X0449831Y0322701D01*
X0449233Y0323299D02*
X0438705Y0323299D01*
X0438705Y0323898D02*
X0448634Y0323898D01*
X0448036Y0324496D02*
X0438705Y0324496D01*
X0438705Y0325095D02*
X0447437Y0325095D01*
X0446839Y0325693D02*
X0438705Y0325693D01*
X0438705Y0326292D02*
X0446240Y0326292D01*
X0445641Y0326890D02*
X0438705Y0326890D01*
X0438705Y0327489D02*
X0445043Y0327489D01*
X0444444Y0328087D02*
X0438705Y0328087D01*
X0438705Y0328686D02*
X0443846Y0328686D01*
X0443247Y0329284D02*
X0438705Y0329284D01*
X0438705Y0329883D02*
X0442649Y0329883D01*
X0442050Y0330481D02*
X0438705Y0330481D01*
X0438705Y0331080D02*
X0441452Y0331080D01*
X0440853Y0331678D02*
X0438705Y0331678D01*
X0438705Y0332277D02*
X0439548Y0332277D01*
X0438949Y0332875D02*
X0438705Y0332875D01*
X0499817Y0355619D02*
X0051331Y0355619D01*
X0051328Y0356217D02*
X0499815Y0356217D01*
X0499812Y0356816D02*
X0051326Y0356816D01*
X0051323Y0357414D02*
X0499810Y0357414D01*
X0499807Y0358013D02*
X0051321Y0358013D01*
X0051318Y0358611D02*
X0499805Y0358611D01*
X0499802Y0359210D02*
X0051315Y0359210D01*
X0051313Y0359808D02*
X0499799Y0359808D01*
X0499797Y0360407D02*
X0051310Y0360407D01*
X0051308Y0361005D02*
X0499794Y0361005D01*
X0499792Y0361604D02*
X0051305Y0361604D01*
X0051303Y0362202D02*
X0499789Y0362202D01*
X0499787Y0362801D02*
X0051300Y0362801D01*
X0051298Y0363399D02*
X0499784Y0363399D01*
X0499782Y0363998D02*
X0051295Y0363998D01*
X0051292Y0364596D02*
X0499779Y0364596D01*
X0499776Y0365195D02*
X0051290Y0365195D01*
X0051287Y0365793D02*
X0499774Y0365793D01*
X0500142Y0279608D02*
X0464661Y0279608D01*
X0466106Y0279009D02*
X0500144Y0279009D01*
X0500147Y0278411D02*
X0467464Y0278411D01*
X0468063Y0277812D02*
X0500149Y0277812D01*
X0500152Y0277214D02*
X0468661Y0277214D01*
X0469260Y0276615D02*
X0500155Y0276615D01*
X0500157Y0276017D02*
X0469761Y0276017D01*
X0470008Y0275418D02*
X0500160Y0275418D01*
X0500162Y0274820D02*
X0470256Y0274820D01*
X0470504Y0274221D02*
X0500165Y0274221D01*
X0500167Y0273623D02*
X0470752Y0273623D01*
X0470930Y0273024D02*
X0500170Y0273024D01*
X0500172Y0272426D02*
X0470930Y0272426D01*
X0470930Y0271827D02*
X0500175Y0271827D01*
X0500178Y0271229D02*
X0470930Y0271229D01*
X0470930Y0270630D02*
X0500180Y0270630D01*
X0500183Y0270032D02*
X0470930Y0270032D01*
X0470713Y0269433D02*
X0500185Y0269433D01*
X0500188Y0268835D02*
X0470465Y0268835D01*
X0470217Y0268236D02*
X0500190Y0268236D01*
X0500193Y0267638D02*
X0469969Y0267638D01*
X0469721Y0267039D02*
X0500195Y0267039D01*
X0500198Y0266441D02*
X0469164Y0266441D01*
X0468566Y0265842D02*
X0500201Y0265842D01*
X0500203Y0265243D02*
X0467967Y0265243D01*
X0467320Y0264645D02*
X0500206Y0264645D01*
X0500208Y0264046D02*
X0465875Y0264046D01*
X0464430Y0263448D02*
X0500211Y0263448D01*
X0500213Y0262849D02*
X0426934Y0262849D01*
X0426934Y0262251D02*
X0500216Y0262251D01*
X0500218Y0261652D02*
X0426934Y0261652D01*
X0426934Y0261054D02*
X0500221Y0261054D01*
X0500224Y0260455D02*
X0426934Y0260455D01*
X0426934Y0259857D02*
X0500226Y0259857D01*
X0500229Y0259258D02*
X0426934Y0259258D01*
X0426934Y0258660D02*
X0500231Y0258660D01*
X0500234Y0258061D02*
X0426934Y0258061D01*
X0426934Y0257463D02*
X0500236Y0257463D01*
X0500239Y0256864D02*
X0426934Y0256864D01*
X0426934Y0256266D02*
X0450331Y0256266D01*
X0449240Y0255667D02*
X0426934Y0255667D01*
X0426934Y0255069D02*
X0448494Y0255069D01*
X0447933Y0254470D02*
X0426934Y0254470D01*
X0426934Y0253872D02*
X0447498Y0253872D01*
X0447188Y0253273D02*
X0426934Y0253273D01*
X0426934Y0252675D02*
X0446944Y0252675D01*
X0446755Y0252076D02*
X0426934Y0252076D01*
X0426934Y0251478D02*
X0446660Y0251478D01*
X0451790Y0263448D02*
X0426934Y0263448D01*
X0426934Y0264046D02*
X0450345Y0264046D01*
X0448900Y0264645D02*
X0426934Y0264645D01*
X0426934Y0265243D02*
X0448253Y0265243D01*
X0440064Y0265842D02*
X0426934Y0265842D01*
X0426934Y0266441D02*
X0438768Y0266441D01*
X0438170Y0267039D02*
X0426934Y0267039D01*
X0426934Y0267638D02*
X0437571Y0267638D01*
X0436973Y0268236D02*
X0426934Y0268236D01*
X0426934Y0268835D02*
X0436374Y0268835D01*
X0435776Y0269433D02*
X0426934Y0269433D01*
X0426934Y0270032D02*
X0435177Y0270032D01*
X0434579Y0270630D02*
X0426934Y0270630D01*
X0426934Y0271229D02*
X0433980Y0271229D01*
X0433382Y0271827D02*
X0426934Y0271827D01*
X0426934Y0272426D02*
X0432783Y0272426D01*
X0432185Y0273024D02*
X0426934Y0273024D01*
X0426934Y0273623D02*
X0431586Y0273623D01*
X0430988Y0274221D02*
X0426934Y0274221D01*
X0426934Y0274820D02*
X0430389Y0274820D01*
X0429791Y0275418D02*
X0426934Y0275418D01*
X0426934Y0276017D02*
X0429192Y0276017D01*
X0428594Y0276615D02*
X0426934Y0276615D01*
X0426934Y0277214D02*
X0427995Y0277214D01*
X0427581Y0277812D02*
X0426934Y0277812D01*
X0426934Y0278411D02*
X0427333Y0278411D01*
X0427086Y0279009D02*
X0426934Y0279009D01*
X0464236Y0256266D02*
X0500241Y0256266D01*
X0500244Y0255667D02*
X0465327Y0255667D01*
X0466073Y0255069D02*
X0500247Y0255069D01*
X0500249Y0254470D02*
X0466634Y0254470D01*
X0467069Y0253872D02*
X0500252Y0253872D01*
X0500254Y0253273D02*
X0467379Y0253273D01*
X0467623Y0252675D02*
X0500257Y0252675D01*
X0500259Y0252076D02*
X0467812Y0252076D01*
X0467906Y0251478D02*
X0500262Y0251478D01*
X0456006Y0198809D02*
X0391219Y0198809D01*
X0391450Y0198210D02*
X0456605Y0198210D01*
X0457203Y0197612D02*
X0391450Y0197612D01*
X0391450Y0197013D02*
X0457802Y0197013D01*
X0458400Y0196415D02*
X0391450Y0196415D01*
X0391450Y0195816D02*
X0458999Y0195816D01*
X0459523Y0195218D02*
X0391450Y0195218D01*
X0391450Y0194619D02*
X0459523Y0194619D01*
X0459523Y0194021D02*
X0391450Y0194021D01*
X0391450Y0193422D02*
X0459523Y0193422D01*
X0459523Y0192824D02*
X0391038Y0192824D01*
X0390440Y0192225D02*
X0459523Y0192225D01*
X0459523Y0191627D02*
X0447446Y0191627D01*
X0448891Y0191028D02*
X0459523Y0191028D01*
X0459523Y0190430D02*
X0449599Y0190430D01*
X0450905Y0189831D02*
X0459523Y0189831D01*
X0459523Y0189233D02*
X0451504Y0189233D01*
X0452102Y0188634D02*
X0459523Y0188634D01*
X0459523Y0188036D02*
X0452701Y0188036D01*
X0453299Y0187437D02*
X0459523Y0187437D01*
X0459523Y0186839D02*
X0453898Y0186839D01*
X0454205Y0186240D02*
X0459523Y0186240D01*
X0459523Y0185641D02*
X0454205Y0185641D01*
X0454205Y0185043D02*
X0459523Y0185043D01*
X0459523Y0184444D02*
X0454205Y0184444D01*
X0454205Y0183846D02*
X0459523Y0183846D01*
X0459523Y0183247D02*
X0454205Y0183247D01*
X0454205Y0182649D02*
X0459523Y0182649D01*
X0459523Y0182050D02*
X0454205Y0182050D01*
X0454205Y0181452D02*
X0459523Y0181452D01*
X0459523Y0180853D02*
X0453871Y0180853D01*
X0453273Y0180255D02*
X0459523Y0180255D01*
X0459523Y0179656D02*
X0452674Y0179656D01*
X0452076Y0179058D02*
X0459523Y0179058D01*
X0459523Y0178459D02*
X0452277Y0178459D01*
X0452875Y0177861D02*
X0459523Y0177861D01*
X0459523Y0177262D02*
X0453474Y0177262D01*
X0454072Y0176664D02*
X0459523Y0176664D01*
X0459523Y0176065D02*
X0454205Y0176065D01*
X0454205Y0175467D02*
X0459523Y0175467D01*
X0459523Y0174868D02*
X0454205Y0174868D01*
X0454205Y0174270D02*
X0459523Y0174270D01*
X0459523Y0173671D02*
X0454205Y0173671D01*
X0454205Y0173073D02*
X0459523Y0173073D01*
X0459523Y0172474D02*
X0454205Y0172474D01*
X0454205Y0171876D02*
X0459523Y0171876D01*
X0459523Y0171277D02*
X0454205Y0171277D01*
X0453697Y0170679D02*
X0459523Y0170679D01*
X0459523Y0170080D02*
X0453098Y0170080D01*
X0452500Y0169482D02*
X0459523Y0169482D01*
X0459523Y0168883D02*
X0451901Y0168883D01*
X0452451Y0168285D02*
X0459523Y0168285D01*
X0459523Y0167686D02*
X0453050Y0167686D01*
X0453648Y0167088D02*
X0459523Y0167088D01*
X0459523Y0166489D02*
X0454205Y0166489D01*
X0454205Y0165891D02*
X0459523Y0165891D01*
X0459523Y0165292D02*
X0454205Y0165292D01*
X0454205Y0164694D02*
X0459523Y0164694D01*
X0459523Y0164095D02*
X0454205Y0164095D01*
X0454205Y0163497D02*
X0459523Y0163497D01*
X0459523Y0162898D02*
X0454205Y0162898D01*
X0454205Y0162300D02*
X0459523Y0162300D01*
X0459523Y0161701D02*
X0454205Y0161701D01*
X0454120Y0161103D02*
X0459523Y0161103D01*
X0459523Y0160504D02*
X0453522Y0160504D01*
X0452923Y0159905D02*
X0459523Y0159905D01*
X0459523Y0159307D02*
X0452325Y0159307D01*
X0452028Y0158708D02*
X0459523Y0158708D01*
X0459523Y0158110D02*
X0452626Y0158110D01*
X0453225Y0157511D02*
X0459523Y0157511D01*
X0459523Y0156913D02*
X0453823Y0156913D01*
X0454205Y0156314D02*
X0459523Y0156314D01*
X0459523Y0155716D02*
X0454205Y0155716D01*
X0454205Y0155117D02*
X0459523Y0155117D01*
X0459523Y0154519D02*
X0454205Y0154519D01*
X0454205Y0153920D02*
X0459523Y0153920D01*
X0459523Y0153322D02*
X0454205Y0153322D01*
X0454205Y0152723D02*
X0459523Y0152723D01*
X0459523Y0152125D02*
X0454205Y0152125D01*
X0454205Y0151526D02*
X0459523Y0151526D01*
X0459523Y0150928D02*
X0453946Y0150928D01*
X0453347Y0150329D02*
X0459523Y0150329D01*
X0459523Y0149731D02*
X0452749Y0149731D01*
X0452150Y0149132D02*
X0459523Y0149132D01*
X0459523Y0148534D02*
X0452202Y0148534D01*
X0452801Y0147935D02*
X0459523Y0147935D01*
X0459523Y0147337D02*
X0453399Y0147337D01*
X0453998Y0146738D02*
X0459523Y0146738D01*
X0459523Y0146140D02*
X0454205Y0146140D01*
X0454205Y0145541D02*
X0459523Y0145541D01*
X0459523Y0144943D02*
X0454205Y0144943D01*
X0454205Y0144344D02*
X0459523Y0144344D01*
X0459523Y0143746D02*
X0454205Y0143746D01*
X0454205Y0143147D02*
X0459523Y0143147D01*
X0459523Y0142549D02*
X0454205Y0142549D01*
X0454205Y0141950D02*
X0459523Y0141950D01*
X0459523Y0141352D02*
X0454205Y0141352D01*
X0453771Y0140753D02*
X0459523Y0140753D01*
X0459523Y0140155D02*
X0453173Y0140155D01*
X0452574Y0139556D02*
X0459523Y0139556D01*
X0459523Y0138958D02*
X0451976Y0138958D01*
X0452377Y0138359D02*
X0459523Y0138359D01*
X0459523Y0137761D02*
X0452975Y0137761D01*
X0453574Y0137162D02*
X0459523Y0137162D01*
X0459523Y0136564D02*
X0454173Y0136564D01*
X0454205Y0135965D02*
X0459523Y0135965D01*
X0459523Y0135367D02*
X0454205Y0135367D01*
X0454205Y0134768D02*
X0459523Y0134768D01*
X0459523Y0134170D02*
X0454205Y0134170D01*
X0454205Y0133571D02*
X0459523Y0133571D01*
X0459523Y0132972D02*
X0454205Y0132972D01*
X0454205Y0132374D02*
X0459523Y0132374D01*
X0459523Y0131775D02*
X0454205Y0131775D01*
X0454195Y0131177D02*
X0459523Y0131177D01*
X0459523Y0130578D02*
X0453596Y0130578D01*
X0452998Y0129980D02*
X0459523Y0129980D01*
X0459523Y0129381D02*
X0452399Y0129381D01*
X0451801Y0128783D02*
X0459523Y0128783D01*
X0459523Y0128184D02*
X0451202Y0128184D01*
X0450604Y0127586D02*
X0459523Y0127586D01*
X0459523Y0126987D02*
X0052307Y0126987D01*
X0052309Y0126389D02*
X0063169Y0126389D01*
X0063605Y0126505D02*
X0060909Y0125783D01*
X0058492Y0124388D01*
X0056519Y0122414D01*
X0055123Y0119997D01*
X0054401Y0117302D01*
X0054401Y0114511D01*
X0055123Y0111815D01*
X0056519Y0109398D01*
X0058492Y0107425D01*
X0060909Y0106029D01*
X0063605Y0105307D01*
X0066395Y0105307D01*
X0069091Y0106029D01*
X0071508Y0107425D01*
X0073481Y0109398D01*
X0074877Y0111815D01*
X0075599Y0114511D01*
X0075599Y0117302D01*
X0074877Y0119997D01*
X0073481Y0122414D01*
X0071508Y0124388D01*
X0069091Y0125783D01*
X0066395Y0126505D01*
X0063605Y0126505D01*
X0060936Y0125790D02*
X0052312Y0125790D01*
X0052314Y0125192D02*
X0059885Y0125192D01*
X0058848Y0124593D02*
X0052317Y0124593D01*
X0052320Y0123995D02*
X0058099Y0123995D01*
X0057500Y0123396D02*
X0052322Y0123396D01*
X0052325Y0122798D02*
X0056902Y0122798D01*
X0056394Y0122199D02*
X0052327Y0122199D01*
X0052330Y0121601D02*
X0056049Y0121601D01*
X0055703Y0121002D02*
X0052332Y0121002D01*
X0052335Y0120404D02*
X0055358Y0120404D01*
X0055072Y0119805D02*
X0052337Y0119805D01*
X0052340Y0119207D02*
X0054911Y0119207D01*
X0054751Y0118608D02*
X0052343Y0118608D01*
X0052345Y0118010D02*
X0054591Y0118010D01*
X0054430Y0117411D02*
X0052348Y0117411D01*
X0052350Y0116813D02*
X0054401Y0116813D01*
X0054401Y0116214D02*
X0052353Y0116214D01*
X0052355Y0115616D02*
X0054401Y0115616D01*
X0054401Y0115017D02*
X0052358Y0115017D01*
X0052360Y0114419D02*
X0054425Y0114419D01*
X0054586Y0113820D02*
X0052363Y0113820D01*
X0052366Y0113222D02*
X0054746Y0113222D01*
X0054907Y0112623D02*
X0052368Y0112623D01*
X0052371Y0112025D02*
X0055067Y0112025D01*
X0055348Y0111426D02*
X0052373Y0111426D01*
X0052376Y0110828D02*
X0055693Y0110828D01*
X0056039Y0110229D02*
X0052378Y0110229D01*
X0052381Y0109631D02*
X0056384Y0109631D01*
X0056885Y0109032D02*
X0052383Y0109032D01*
X0052386Y0108434D02*
X0057483Y0108434D01*
X0058082Y0107835D02*
X0052389Y0107835D01*
X0052391Y0107237D02*
X0058818Y0107237D01*
X0059855Y0106638D02*
X0052394Y0106638D01*
X0052396Y0106039D02*
X0060891Y0106039D01*
X0063105Y0105441D02*
X0052399Y0105441D01*
X0052401Y0104842D02*
X0148893Y0104842D01*
X0148893Y0104244D02*
X0052404Y0104244D01*
X0052406Y0103645D02*
X0148893Y0103645D01*
X0148893Y0103047D02*
X0052409Y0103047D01*
X0052412Y0102448D02*
X0148905Y0102448D01*
X0149153Y0101850D02*
X0052414Y0101850D01*
X0052417Y0101251D02*
X0149401Y0101251D01*
X0149649Y0100653D02*
X0052419Y0100653D01*
X0052422Y0100054D02*
X0150036Y0100054D01*
X0150635Y0099456D02*
X0052424Y0099456D01*
X0052427Y0098857D02*
X0151233Y0098857D01*
X0151832Y0098259D02*
X0052429Y0098259D01*
X0052432Y0097660D02*
X0152430Y0097660D01*
X0153029Y0097062D02*
X0052435Y0097062D01*
X0052437Y0096463D02*
X0153627Y0096463D01*
X0154226Y0095865D02*
X0052440Y0095865D01*
X0052442Y0095266D02*
X0154824Y0095266D01*
X0155423Y0094668D02*
X0052445Y0094668D01*
X0052447Y0094069D02*
X0156021Y0094069D01*
X0156620Y0093471D02*
X0052450Y0093471D01*
X0052452Y0092872D02*
X0157218Y0092872D01*
X0157817Y0092274D02*
X0052455Y0092274D01*
X0052458Y0091675D02*
X0158415Y0091675D01*
X0159014Y0091077D02*
X0052460Y0091077D01*
X0052463Y0090478D02*
X0159613Y0090478D01*
X0160211Y0089880D02*
X0052465Y0089880D01*
X0052468Y0089281D02*
X0160810Y0089281D01*
X0161408Y0088683D02*
X0052470Y0088683D01*
X0052473Y0088084D02*
X0162007Y0088084D01*
X0162605Y0087486D02*
X0052475Y0087486D01*
X0052478Y0086887D02*
X0163204Y0086887D01*
X0163802Y0086289D02*
X0052481Y0086289D01*
X0052483Y0085690D02*
X0164401Y0085690D01*
X0164999Y0085092D02*
X0052486Y0085092D01*
X0052488Y0084493D02*
X0165598Y0084493D01*
X0166196Y0083895D02*
X0052491Y0083895D01*
X0052493Y0083296D02*
X0166795Y0083296D01*
X0167393Y0082698D02*
X0052496Y0082698D01*
X0052498Y0082099D02*
X0167992Y0082099D01*
X0168590Y0081501D02*
X0052501Y0081501D01*
X0052504Y0080902D02*
X0169189Y0080902D01*
X0169787Y0080303D02*
X0052506Y0080303D01*
X0052509Y0079705D02*
X0170386Y0079705D01*
X0170984Y0079106D02*
X0052511Y0079106D01*
X0052514Y0078508D02*
X0171583Y0078508D01*
X0172181Y0077909D02*
X0052516Y0077909D01*
X0052519Y0077311D02*
X0172780Y0077311D01*
X0173378Y0076712D02*
X0052521Y0076712D01*
X0052524Y0076114D02*
X0173977Y0076114D01*
X0174575Y0075515D02*
X0052527Y0075515D01*
X0052529Y0074917D02*
X0175174Y0074917D01*
X0175772Y0074318D02*
X0052532Y0074318D01*
X0052534Y0073720D02*
X0176371Y0073720D01*
X0176969Y0073121D02*
X0052537Y0073121D01*
X0052539Y0072523D02*
X0177568Y0072523D01*
X0177594Y0071924D02*
X0052542Y0071924D01*
X0052544Y0071326D02*
X0177594Y0071326D01*
X0177594Y0070727D02*
X0052547Y0070727D01*
X0052550Y0070129D02*
X0177594Y0070129D01*
X0177594Y0069530D02*
X0052552Y0069530D01*
X0052555Y0068932D02*
X0177594Y0068932D01*
X0177594Y0068333D02*
X0052557Y0068333D01*
X0052560Y0067735D02*
X0177594Y0067735D01*
X0177594Y0067136D02*
X0052562Y0067136D01*
X0052565Y0066538D02*
X0177594Y0066538D01*
X0177594Y0065939D02*
X0052567Y0065939D01*
X0052570Y0065341D02*
X0177594Y0065341D01*
X0177594Y0064742D02*
X0052573Y0064742D01*
X0052575Y0064144D02*
X0177594Y0064144D01*
X0177594Y0063545D02*
X0052578Y0063545D01*
X0052580Y0062947D02*
X0177594Y0062947D01*
X0177594Y0062348D02*
X0052583Y0062348D01*
X0052585Y0061750D02*
X0177594Y0061750D01*
X0177594Y0061151D02*
X0052588Y0061151D01*
X0052590Y0060553D02*
X0177594Y0060553D01*
X0177594Y0059954D02*
X0052593Y0059954D01*
X0052595Y0059356D02*
X0177594Y0059356D01*
X0177594Y0058757D02*
X0052598Y0058757D01*
X0052601Y0058159D02*
X0177594Y0058159D01*
X0177594Y0057560D02*
X0052603Y0057560D01*
X0052606Y0056962D02*
X0177594Y0056962D01*
X0177594Y0056363D02*
X0052608Y0056363D01*
X0052611Y0055765D02*
X0177594Y0055765D01*
X0177594Y0055166D02*
X0052613Y0055166D01*
X0052616Y0054568D02*
X0177594Y0054568D01*
X0177594Y0053969D02*
X0052618Y0053969D01*
X0052621Y0053370D02*
X0177594Y0053370D01*
X0177594Y0052772D02*
X0052624Y0052772D01*
X0052626Y0052173D02*
X0177594Y0052173D01*
X0177594Y0051575D02*
X0052629Y0051575D01*
X0052631Y0050976D02*
X0177594Y0050976D01*
X0177594Y0050378D02*
X0165723Y0050378D01*
X0167168Y0049779D02*
X0177594Y0049779D01*
X0177594Y0049181D02*
X0167784Y0049181D01*
X0168382Y0048582D02*
X0173094Y0048582D01*
X0173243Y0048582D02*
X0173843Y0048582D01*
X0173993Y0048582D02*
X0177594Y0048582D01*
X0177594Y0047984D02*
X0175785Y0047984D01*
X0176539Y0047385D02*
X0177594Y0047385D01*
X0177592Y0046787D02*
X0177052Y0046787D01*
X0173843Y0046787D02*
X0173243Y0046787D01*
X0173243Y0047385D02*
X0173843Y0047385D01*
X0173843Y0047984D02*
X0173243Y0047984D01*
X0173243Y0046188D02*
X0173843Y0046188D01*
X0173843Y0045590D02*
X0173243Y0045590D01*
X0173243Y0044991D02*
X0173843Y0044991D01*
X0173843Y0044393D02*
X0173243Y0044393D01*
X0173243Y0043794D02*
X0173843Y0043794D01*
X0173843Y0043196D02*
X0173243Y0043196D01*
X0173243Y0042597D02*
X0173843Y0042597D01*
X0173843Y0041999D02*
X0173243Y0041999D01*
X0173243Y0040802D02*
X0173843Y0040802D01*
X0173843Y0040203D02*
X0173243Y0040203D01*
X0173243Y0039605D02*
X0173843Y0039605D01*
X0173843Y0039006D02*
X0173243Y0039006D01*
X0173243Y0038408D02*
X0173843Y0038408D01*
X0173843Y0037809D02*
X0173243Y0037809D01*
X0173243Y0037211D02*
X0173843Y0037211D01*
X0173843Y0036612D02*
X0173243Y0036612D01*
X0173243Y0036014D02*
X0173843Y0036014D01*
X0173843Y0035415D02*
X0173243Y0035415D01*
X0173243Y0034817D02*
X0173843Y0034817D01*
X0173843Y0034218D02*
X0173243Y0034218D01*
X0172191Y0034218D02*
X0168583Y0034218D01*
X0169081Y0034817D02*
X0171022Y0034817D01*
X0170347Y0035415D02*
X0169329Y0035415D01*
X0169577Y0036014D02*
X0169889Y0036014D01*
X0167984Y0033620D02*
X0177594Y0033620D01*
X0177594Y0034218D02*
X0174896Y0034218D01*
X0176064Y0034817D02*
X0177594Y0034817D01*
X0177594Y0035415D02*
X0176740Y0035415D01*
X0177197Y0036014D02*
X0177509Y0036014D01*
X0177594Y0033021D02*
X0167386Y0033021D01*
X0166208Y0032423D02*
X0177594Y0032423D01*
X0177594Y0031824D02*
X0052713Y0031824D01*
X0052716Y0031226D02*
X0177594Y0031226D01*
X0177594Y0030627D02*
X0052718Y0030627D01*
X0052721Y0030029D02*
X0177594Y0030029D01*
X0177594Y0029430D02*
X0052723Y0029430D01*
X0052726Y0028832D02*
X0177594Y0028832D01*
X0177594Y0028233D02*
X0052728Y0028233D01*
X0052731Y0027634D02*
X0177627Y0027634D01*
X0177875Y0027036D02*
X0052733Y0027036D01*
X0052736Y0026437D02*
X0178123Y0026437D01*
X0178371Y0025839D02*
X0052739Y0025839D01*
X0052741Y0025240D02*
X0178787Y0025240D01*
X0179386Y0024642D02*
X0052744Y0024642D01*
X0052746Y0024043D02*
X0179984Y0024043D01*
X0180583Y0023445D02*
X0052749Y0023445D01*
X0052751Y0022846D02*
X0181181Y0022846D01*
X0181780Y0022248D02*
X0052754Y0022248D01*
X0052756Y0021649D02*
X0182378Y0021649D01*
X0182977Y0021051D02*
X0052759Y0021051D01*
X0052762Y0020452D02*
X0183575Y0020452D01*
X0184174Y0019854D02*
X0052764Y0019854D01*
X0052767Y0019255D02*
X0184772Y0019255D01*
X0185371Y0018657D02*
X0052769Y0018657D01*
X0052772Y0018058D02*
X0185969Y0018058D01*
X0186568Y0017460D02*
X0052774Y0017460D01*
X0052777Y0016861D02*
X0187536Y0016861D01*
X0188980Y0016263D02*
X0052779Y0016263D01*
X0052710Y0032423D02*
X0130879Y0032423D01*
X0129701Y0033021D02*
X0052708Y0033021D01*
X0052705Y0033620D02*
X0129103Y0033620D01*
X0128504Y0034218D02*
X0052703Y0034218D01*
X0052700Y0034817D02*
X0128005Y0034817D01*
X0127757Y0035415D02*
X0052698Y0035415D01*
X0052695Y0036014D02*
X0127509Y0036014D01*
X0127261Y0036612D02*
X0052693Y0036612D01*
X0052690Y0037211D02*
X0127094Y0037211D01*
X0127094Y0037809D02*
X0052687Y0037809D01*
X0052685Y0038408D02*
X0127094Y0038408D01*
X0127094Y0039006D02*
X0052682Y0039006D01*
X0052680Y0039605D02*
X0127094Y0039605D01*
X0127094Y0040203D02*
X0052677Y0040203D01*
X0052675Y0040802D02*
X0127094Y0040802D01*
X0127094Y0041400D02*
X0052672Y0041400D01*
X0052670Y0041999D02*
X0127094Y0041999D01*
X0127094Y0042597D02*
X0052667Y0042597D01*
X0052664Y0043196D02*
X0127094Y0043196D01*
X0127094Y0043794D02*
X0052662Y0043794D01*
X0052659Y0044393D02*
X0127094Y0044393D01*
X0127094Y0044991D02*
X0052657Y0044991D01*
X0052654Y0045590D02*
X0127097Y0045590D01*
X0127344Y0046188D02*
X0052652Y0046188D01*
X0052649Y0046787D02*
X0127592Y0046787D01*
X0127840Y0047385D02*
X0052647Y0047385D01*
X0052644Y0047984D02*
X0128106Y0047984D01*
X0128705Y0048582D02*
X0052641Y0048582D01*
X0052639Y0049181D02*
X0129303Y0049181D01*
X0129918Y0049779D02*
X0052636Y0049779D01*
X0052634Y0050378D02*
X0131363Y0050378D01*
X0135723Y0050378D02*
X0141363Y0050378D01*
X0139918Y0049779D02*
X0137168Y0049779D01*
X0137784Y0049181D02*
X0139303Y0049181D01*
X0138705Y0048582D02*
X0138382Y0048582D01*
X0145723Y0050378D02*
X0151363Y0050378D01*
X0149918Y0049779D02*
X0147168Y0049779D01*
X0147784Y0049181D02*
X0149303Y0049181D01*
X0148705Y0048582D02*
X0148382Y0048582D01*
X0155723Y0050378D02*
X0161363Y0050378D01*
X0159918Y0049779D02*
X0157168Y0049779D01*
X0157784Y0049181D02*
X0159303Y0049181D01*
X0158705Y0048582D02*
X0158382Y0048582D01*
X0168981Y0047984D02*
X0171302Y0047984D01*
X0170548Y0047385D02*
X0169246Y0047385D01*
X0169494Y0046787D02*
X0170035Y0046787D01*
X0160879Y0032423D02*
X0156208Y0032423D01*
X0157386Y0033021D02*
X0159701Y0033021D01*
X0159103Y0033620D02*
X0157984Y0033620D01*
X0150879Y0032423D02*
X0146208Y0032423D01*
X0147386Y0033021D02*
X0149701Y0033021D01*
X0149103Y0033620D02*
X0147984Y0033620D01*
X0140879Y0032423D02*
X0136208Y0032423D01*
X0137386Y0033021D02*
X0139701Y0033021D01*
X0139103Y0033620D02*
X0137984Y0033620D01*
X0189493Y0033229D02*
X0189493Y0031363D01*
X0192740Y0028116D01*
X0301591Y0028116D01*
X0305678Y0032203D01*
X0304826Y0031850D01*
X0302260Y0031850D01*
X0299890Y0032832D01*
X0298543Y0034179D01*
X0297197Y0032832D01*
X0294826Y0031850D01*
X0292260Y0031850D01*
X0289890Y0032832D01*
X0288076Y0034647D01*
X0287373Y0036344D01*
X0287221Y0036046D01*
X0286823Y0035499D01*
X0286345Y0035020D01*
X0285797Y0034622D01*
X0285194Y0034315D01*
X0284550Y0034106D01*
X0283882Y0034000D01*
X0283843Y0034000D01*
X0283843Y0041000D01*
X0283243Y0041000D01*
X0283243Y0034000D01*
X0283205Y0034000D01*
X0282536Y0034106D01*
X0281893Y0034315D01*
X0281290Y0034622D01*
X0280742Y0035020D01*
X0280263Y0035499D01*
X0279866Y0036046D01*
X0279714Y0036344D01*
X0279011Y0034647D01*
X0277197Y0032832D01*
X0274826Y0031850D01*
X0272260Y0031850D01*
X0269890Y0032832D01*
X0268543Y0034179D01*
X0267197Y0032832D01*
X0264826Y0031850D01*
X0262260Y0031850D01*
X0259890Y0032832D01*
X0258543Y0034179D01*
X0257197Y0032832D01*
X0254826Y0031850D01*
X0252260Y0031850D01*
X0249890Y0032832D01*
X0248543Y0034179D01*
X0247197Y0032832D01*
X0244826Y0031850D01*
X0242260Y0031850D01*
X0239890Y0032832D01*
X0238543Y0034179D01*
X0237197Y0032832D01*
X0234826Y0031850D01*
X0232260Y0031850D01*
X0229890Y0032832D01*
X0228543Y0034179D01*
X0227197Y0032832D01*
X0224826Y0031850D01*
X0222260Y0031850D01*
X0219890Y0032832D01*
X0218543Y0034179D01*
X0217197Y0032832D01*
X0214826Y0031850D01*
X0212260Y0031850D01*
X0209890Y0032832D01*
X0208543Y0034179D01*
X0207197Y0032832D01*
X0204826Y0031850D01*
X0202260Y0031850D01*
X0199890Y0032832D01*
X0198543Y0034179D01*
X0197197Y0032832D01*
X0194826Y0031850D01*
X0192260Y0031850D01*
X0189890Y0032832D01*
X0189493Y0033229D01*
X0189493Y0033021D02*
X0189701Y0033021D01*
X0189493Y0032423D02*
X0190879Y0032423D01*
X0189493Y0031824D02*
X0305299Y0031824D01*
X0304701Y0031226D02*
X0189630Y0031226D01*
X0190229Y0030627D02*
X0304102Y0030627D01*
X0303504Y0030029D02*
X0190827Y0030029D01*
X0191426Y0029430D02*
X0302905Y0029430D01*
X0302306Y0028832D02*
X0192024Y0028832D01*
X0192623Y0028233D02*
X0301708Y0028233D01*
X0300879Y0032423D02*
X0296208Y0032423D01*
X0297386Y0033021D02*
X0299701Y0033021D01*
X0299103Y0033620D02*
X0297984Y0033620D01*
X0290879Y0032423D02*
X0276208Y0032423D01*
X0277386Y0033021D02*
X0289701Y0033021D01*
X0289103Y0033620D02*
X0277984Y0033620D01*
X0278583Y0034218D02*
X0282191Y0034218D01*
X0283243Y0034218D02*
X0283843Y0034218D01*
X0283843Y0034817D02*
X0283243Y0034817D01*
X0283243Y0035415D02*
X0283843Y0035415D01*
X0283843Y0036014D02*
X0283243Y0036014D01*
X0283243Y0036612D02*
X0283843Y0036612D01*
X0283843Y0037211D02*
X0283243Y0037211D01*
X0283243Y0037809D02*
X0283843Y0037809D01*
X0283843Y0038408D02*
X0283243Y0038408D01*
X0283243Y0039006D02*
X0283843Y0039006D01*
X0283843Y0039605D02*
X0283243Y0039605D01*
X0283243Y0040203D02*
X0283843Y0040203D01*
X0283843Y0040802D02*
X0283243Y0040802D01*
X0283243Y0041999D02*
X0283843Y0041999D01*
X0283843Y0042597D02*
X0283243Y0042597D01*
X0283243Y0043196D02*
X0283843Y0043196D01*
X0283843Y0043794D02*
X0283243Y0043794D01*
X0283243Y0044393D02*
X0283843Y0044393D01*
X0283843Y0044991D02*
X0283243Y0044991D01*
X0283243Y0045590D02*
X0283843Y0045590D01*
X0283843Y0046188D02*
X0283243Y0046188D01*
X0283243Y0046787D02*
X0283843Y0046787D01*
X0283843Y0047385D02*
X0283243Y0047385D01*
X0283243Y0047984D02*
X0283843Y0047984D01*
X0283843Y0048582D02*
X0283243Y0048582D01*
X0283094Y0048582D02*
X0279493Y0048582D01*
X0279493Y0047984D02*
X0281302Y0047984D01*
X0280548Y0047385D02*
X0279493Y0047385D01*
X0279494Y0046787D02*
X0280035Y0046787D01*
X0279493Y0049181D02*
X0287594Y0049181D01*
X0287594Y0049779D02*
X0279493Y0049779D01*
X0279493Y0050378D02*
X0287594Y0050378D01*
X0287594Y0050976D02*
X0279493Y0050976D01*
X0279493Y0051575D02*
X0287594Y0051575D01*
X0287594Y0052173D02*
X0279493Y0052173D01*
X0279308Y0052772D02*
X0287594Y0052772D01*
X0287594Y0053370D02*
X0279060Y0053370D01*
X0278812Y0053969D02*
X0287594Y0053969D01*
X0287594Y0054568D02*
X0278532Y0054568D01*
X0277934Y0055166D02*
X0287594Y0055166D01*
X0287594Y0055765D02*
X0277335Y0055765D01*
X0276737Y0056363D02*
X0287594Y0056363D01*
X0287594Y0056962D02*
X0276138Y0056962D01*
X0275540Y0057560D02*
X0287594Y0057560D01*
X0287594Y0058159D02*
X0274941Y0058159D01*
X0274343Y0058757D02*
X0287594Y0058757D01*
X0287594Y0059356D02*
X0273744Y0059356D01*
X0273146Y0059954D02*
X0287594Y0059954D01*
X0287594Y0060553D02*
X0272547Y0060553D01*
X0271949Y0061151D02*
X0287594Y0061151D01*
X0287594Y0061750D02*
X0271350Y0061750D01*
X0270752Y0062348D02*
X0287594Y0062348D01*
X0287594Y0062947D02*
X0270153Y0062947D01*
X0270044Y0063545D02*
X0287594Y0063545D01*
X0287594Y0064144D02*
X0270044Y0064144D01*
X0270044Y0064742D02*
X0287594Y0064742D01*
X0287594Y0065341D02*
X0270044Y0065341D01*
X0270044Y0065939D02*
X0287594Y0065939D01*
X0287773Y0066538D02*
X0270044Y0066538D01*
X0270044Y0067136D02*
X0288021Y0067136D01*
X0288269Y0067735D02*
X0270044Y0067735D01*
X0270044Y0068333D02*
X0288541Y0068333D01*
X0289139Y0068932D02*
X0270044Y0068932D01*
X0270044Y0069530D02*
X0289738Y0069530D01*
X0290336Y0070129D02*
X0270044Y0070129D01*
X0270044Y0070727D02*
X0290935Y0070727D01*
X0291533Y0071326D02*
X0270044Y0071326D01*
X0270044Y0071924D02*
X0292132Y0071924D01*
X0292730Y0072523D02*
X0270044Y0072523D01*
X0270044Y0073121D02*
X0293329Y0073121D01*
X0293927Y0073720D02*
X0270044Y0073720D01*
X0270044Y0074318D02*
X0294526Y0074318D01*
X0295124Y0074917D02*
X0270044Y0074917D01*
X0270044Y0075515D02*
X0295723Y0075515D01*
X0296321Y0076114D02*
X0270044Y0076114D01*
X0270044Y0076712D02*
X0296920Y0076712D01*
X0297518Y0077311D02*
X0270044Y0077311D01*
X0270044Y0077909D02*
X0298117Y0077909D01*
X0298715Y0078508D02*
X0270044Y0078508D01*
X0270044Y0079106D02*
X0299314Y0079106D01*
X0299680Y0079705D02*
X0270044Y0079705D01*
X0270044Y0080303D02*
X0299680Y0080303D01*
X0299680Y0080902D02*
X0270044Y0080902D01*
X0270044Y0081501D02*
X0299680Y0081501D01*
X0299680Y0082099D02*
X0270044Y0082099D01*
X0270245Y0082698D02*
X0299680Y0082698D01*
X0299680Y0083296D02*
X0270843Y0083296D01*
X0271442Y0083895D02*
X0299680Y0083895D01*
X0299680Y0084493D02*
X0272040Y0084493D01*
X0272639Y0085092D02*
X0299680Y0085092D01*
X0299680Y0085690D02*
X0273237Y0085690D01*
X0273836Y0086289D02*
X0299680Y0086289D01*
X0299680Y0086887D02*
X0274434Y0086887D01*
X0275033Y0087486D02*
X0299680Y0087486D01*
X0299680Y0088084D02*
X0275631Y0088084D01*
X0276230Y0088683D02*
X0299636Y0088683D01*
X0299038Y0089281D02*
X0276828Y0089281D01*
X0277427Y0089880D02*
X0298439Y0089880D01*
X0297841Y0090478D02*
X0278025Y0090478D01*
X0278624Y0091077D02*
X0297242Y0091077D01*
X0296644Y0091675D02*
X0279222Y0091675D01*
X0279821Y0092274D02*
X0296045Y0092274D01*
X0295447Y0092872D02*
X0280153Y0092872D01*
X0280401Y0093471D02*
X0294848Y0093471D01*
X0294250Y0094069D02*
X0280649Y0094069D01*
X0280871Y0094668D02*
X0293651Y0094668D01*
X0293053Y0095266D02*
X0280871Y0095266D01*
X0280871Y0095865D02*
X0292454Y0095865D01*
X0291856Y0096463D02*
X0280871Y0096463D01*
X0280871Y0097062D02*
X0291257Y0097062D01*
X0290659Y0097660D02*
X0280871Y0097660D01*
X0280871Y0098259D02*
X0290060Y0098259D01*
X0289751Y0098857D02*
X0280871Y0098857D01*
X0280871Y0099456D02*
X0289503Y0099456D01*
X0289256Y0100054D02*
X0280871Y0100054D01*
X0280871Y0100653D02*
X0289050Y0100653D01*
X0289050Y0101251D02*
X0280871Y0101251D01*
X0280871Y0101850D02*
X0289050Y0101850D01*
X0289050Y0102448D02*
X0280871Y0102448D01*
X0280871Y0103047D02*
X0289050Y0103047D01*
X0289050Y0103645D02*
X0280871Y0103645D01*
X0280871Y0104244D02*
X0289050Y0104244D01*
X0289050Y0104842D02*
X0280871Y0104842D01*
X0280871Y0105441D02*
X0289050Y0105441D01*
X0289050Y0106039D02*
X0280871Y0106039D01*
X0280871Y0106638D02*
X0289050Y0106638D01*
X0289050Y0107237D02*
X0280871Y0107237D01*
X0280871Y0107835D02*
X0289050Y0107835D01*
X0289050Y0108434D02*
X0280871Y0108434D01*
X0280871Y0109032D02*
X0289050Y0109032D01*
X0289050Y0109631D02*
X0280871Y0109631D01*
X0280872Y0110229D02*
X0289050Y0110229D01*
X0288880Y0110828D02*
X0281120Y0110828D01*
X0281368Y0111426D02*
X0288632Y0111426D01*
X0288550Y0112025D02*
X0281450Y0112025D01*
X0281450Y0112623D02*
X0288550Y0112623D01*
X0288550Y0113222D02*
X0281450Y0113222D01*
X0281450Y0113820D02*
X0288550Y0113820D01*
X0288550Y0114419D02*
X0281450Y0114419D01*
X0281450Y0115017D02*
X0288550Y0115017D01*
X0288550Y0115616D02*
X0281450Y0115616D01*
X0281450Y0116214D02*
X0288550Y0116214D01*
X0288550Y0116813D02*
X0281450Y0116813D01*
X0281450Y0117411D02*
X0288550Y0117411D01*
X0288550Y0118010D02*
X0281450Y0118010D01*
X0281450Y0118608D02*
X0288550Y0118608D01*
X0288550Y0119207D02*
X0281450Y0119207D01*
X0281450Y0119805D02*
X0288550Y0119805D01*
X0288639Y0120404D02*
X0281361Y0120404D01*
X0281113Y0121002D02*
X0288887Y0121002D01*
X0289135Y0121601D02*
X0280865Y0121601D01*
X0280617Y0122199D02*
X0289383Y0122199D01*
X0289770Y0122798D02*
X0280230Y0122798D01*
X0279631Y0123396D02*
X0290369Y0123396D01*
X0290967Y0123995D02*
X0279033Y0123995D01*
X0278124Y0124593D02*
X0291876Y0124593D01*
X0293321Y0125192D02*
X0276679Y0125192D01*
X0273321Y0125192D02*
X0266679Y0125192D01*
X0268124Y0124593D02*
X0271876Y0124593D01*
X0270967Y0123995D02*
X0269033Y0123995D01*
X0269631Y0123396D02*
X0270369Y0123396D01*
X0263321Y0125192D02*
X0256679Y0125192D01*
X0258124Y0124593D02*
X0261876Y0124593D01*
X0260967Y0123995D02*
X0259033Y0123995D01*
X0259631Y0123396D02*
X0260369Y0123396D01*
X0253321Y0125192D02*
X0246679Y0125192D01*
X0248124Y0124593D02*
X0251876Y0124593D01*
X0250967Y0123995D02*
X0249033Y0123995D01*
X0249631Y0123396D02*
X0250369Y0123396D01*
X0243321Y0125192D02*
X0236679Y0125192D01*
X0238124Y0124593D02*
X0241876Y0124593D01*
X0240967Y0123995D02*
X0239033Y0123995D01*
X0239631Y0123396D02*
X0240369Y0123396D01*
X0233321Y0125192D02*
X0226679Y0125192D01*
X0228124Y0124593D02*
X0231876Y0124593D01*
X0230967Y0123995D02*
X0229033Y0123995D01*
X0229631Y0123396D02*
X0230369Y0123396D01*
X0223321Y0125192D02*
X0216679Y0125192D01*
X0218124Y0124593D02*
X0221876Y0124593D01*
X0220967Y0123995D02*
X0219033Y0123995D01*
X0219631Y0123396D02*
X0220369Y0123396D01*
X0213321Y0125192D02*
X0206679Y0125192D01*
X0208124Y0124593D02*
X0211876Y0124593D01*
X0210967Y0123995D02*
X0209033Y0123995D01*
X0209631Y0123396D02*
X0210369Y0123396D01*
X0203321Y0125192D02*
X0186679Y0125192D01*
X0186283Y0125356D02*
X0183717Y0125356D01*
X0181347Y0124374D01*
X0179532Y0122560D01*
X0178829Y0120862D01*
X0178678Y0121160D01*
X0178280Y0121708D01*
X0177801Y0122186D01*
X0177254Y0122584D01*
X0176651Y0122891D01*
X0176007Y0123100D01*
X0175338Y0123206D01*
X0175300Y0123206D01*
X0175300Y0116206D01*
X0174700Y0116206D01*
X0174700Y0115606D01*
X0175300Y0115606D01*
X0175300Y0108606D01*
X0175338Y0108606D01*
X0176007Y0108712D01*
X0176651Y0108921D01*
X0177254Y0109229D01*
X0177801Y0109626D01*
X0178280Y0110105D01*
X0178678Y0110653D01*
X0178829Y0110950D01*
X0179532Y0109253D01*
X0181347Y0107439D01*
X0183717Y0106457D01*
X0186283Y0106457D01*
X0188653Y0107439D01*
X0190468Y0109253D01*
X0191450Y0111623D01*
X0191450Y0120189D01*
X0190468Y0122560D01*
X0188653Y0124374D01*
X0186283Y0125356D01*
X0188124Y0124593D02*
X0201876Y0124593D01*
X0200967Y0123995D02*
X0189033Y0123995D01*
X0189631Y0123396D02*
X0200369Y0123396D01*
X0199770Y0122798D02*
X0190230Y0122798D01*
X0190617Y0122199D02*
X0199383Y0122199D01*
X0199135Y0121601D02*
X0190865Y0121601D01*
X0191113Y0121002D02*
X0198887Y0121002D01*
X0198639Y0120404D02*
X0191361Y0120404D01*
X0191450Y0119805D02*
X0198550Y0119805D01*
X0198550Y0119207D02*
X0191450Y0119207D01*
X0191450Y0118608D02*
X0198550Y0118608D01*
X0198550Y0118010D02*
X0191450Y0118010D01*
X0191450Y0117411D02*
X0198550Y0117411D01*
X0198550Y0116813D02*
X0191450Y0116813D01*
X0191450Y0116214D02*
X0198550Y0116214D01*
X0198550Y0115616D02*
X0191450Y0115616D01*
X0191450Y0115017D02*
X0198550Y0115017D01*
X0198550Y0114419D02*
X0191450Y0114419D01*
X0191450Y0113820D02*
X0198550Y0113820D01*
X0198550Y0113222D02*
X0191450Y0113222D01*
X0191450Y0112623D02*
X0198550Y0112623D01*
X0198550Y0112025D02*
X0191450Y0112025D01*
X0191368Y0111426D02*
X0198632Y0111426D01*
X0198880Y0110828D02*
X0191120Y0110828D01*
X0190872Y0110229D02*
X0199128Y0110229D01*
X0199376Y0109631D02*
X0190624Y0109631D01*
X0190247Y0109032D02*
X0199753Y0109032D01*
X0200352Y0108434D02*
X0189648Y0108434D01*
X0189050Y0107835D02*
X0200950Y0107835D01*
X0201834Y0107237D02*
X0188166Y0107237D01*
X0186721Y0106638D02*
X0203279Y0106638D01*
X0203618Y0104842D02*
X0162076Y0104842D01*
X0162675Y0104244D02*
X0202916Y0104244D01*
X0202317Y0103645D02*
X0163273Y0103645D01*
X0163872Y0103047D02*
X0201719Y0103047D01*
X0201120Y0102448D02*
X0164470Y0102448D01*
X0165069Y0101850D02*
X0200522Y0101850D01*
X0199923Y0101251D02*
X0165667Y0101251D01*
X0166266Y0100653D02*
X0199325Y0100653D01*
X0198726Y0100054D02*
X0166864Y0100054D01*
X0167463Y0099456D02*
X0198128Y0099456D01*
X0197529Y0098857D02*
X0168061Y0098857D01*
X0168660Y0098259D02*
X0196931Y0098259D01*
X0196332Y0097660D02*
X0169258Y0097660D01*
X0169857Y0097062D02*
X0195734Y0097062D01*
X0195135Y0096463D02*
X0170455Y0096463D01*
X0171054Y0095865D02*
X0194537Y0095865D01*
X0193938Y0095266D02*
X0171652Y0095266D01*
X0172251Y0094668D02*
X0193340Y0094668D01*
X0192741Y0094069D02*
X0172849Y0094069D01*
X0173448Y0093471D02*
X0192143Y0093471D01*
X0191544Y0092872D02*
X0174046Y0092872D01*
X0174645Y0092274D02*
X0190946Y0092274D01*
X0190347Y0091675D02*
X0175244Y0091675D01*
X0175842Y0091077D02*
X0189749Y0091077D01*
X0189150Y0090478D02*
X0176441Y0090478D01*
X0177039Y0089880D02*
X0188551Y0089880D01*
X0188273Y0089281D02*
X0177638Y0089281D01*
X0178236Y0088683D02*
X0188025Y0088683D01*
X0187777Y0088084D02*
X0178835Y0088084D01*
X0179433Y0087486D02*
X0187594Y0087486D01*
X0187594Y0086887D02*
X0180032Y0086887D01*
X0180630Y0086289D02*
X0187594Y0086289D01*
X0187594Y0085690D02*
X0181229Y0085690D01*
X0181827Y0085092D02*
X0187594Y0085092D01*
X0187594Y0084493D02*
X0182426Y0084493D01*
X0183024Y0083895D02*
X0187594Y0083895D01*
X0187594Y0083296D02*
X0183623Y0083296D01*
X0184221Y0082698D02*
X0187594Y0082698D01*
X0187594Y0082099D02*
X0184820Y0082099D01*
X0185418Y0081501D02*
X0187594Y0081501D01*
X0187594Y0080902D02*
X0186017Y0080902D01*
X0186615Y0080303D02*
X0187594Y0080303D01*
X0187594Y0079705D02*
X0187214Y0079705D01*
X0183279Y0106638D02*
X0160792Y0106638D01*
X0160792Y0107237D02*
X0181834Y0107237D01*
X0180950Y0107835D02*
X0160792Y0107835D01*
X0160792Y0108434D02*
X0180352Y0108434D01*
X0179753Y0109032D02*
X0176868Y0109032D01*
X0177805Y0109631D02*
X0179376Y0109631D01*
X0179128Y0110229D02*
X0178370Y0110229D01*
X0178767Y0110828D02*
X0178880Y0110828D01*
X0175300Y0110828D02*
X0174700Y0110828D01*
X0174700Y0111426D02*
X0175300Y0111426D01*
X0175300Y0112025D02*
X0174700Y0112025D01*
X0174700Y0112623D02*
X0175300Y0112623D01*
X0175300Y0113222D02*
X0174700Y0113222D01*
X0174700Y0113820D02*
X0175300Y0113820D01*
X0175300Y0114419D02*
X0174700Y0114419D01*
X0174700Y0115017D02*
X0175300Y0115017D01*
X0174700Y0115606D02*
X0174700Y0108606D01*
X0174662Y0108606D01*
X0173993Y0108712D01*
X0173349Y0108921D01*
X0172746Y0109229D01*
X0172199Y0109626D01*
X0171720Y0110105D01*
X0171322Y0110653D01*
X0171015Y0111256D01*
X0170806Y0111899D01*
X0170700Y0112568D01*
X0170700Y0115606D01*
X0174700Y0115606D01*
X0174700Y0115616D02*
X0165300Y0115616D01*
X0165300Y0116214D02*
X0164700Y0116214D01*
X0164700Y0116813D02*
X0165300Y0116813D01*
X0165300Y0117411D02*
X0164700Y0117411D01*
X0164700Y0118010D02*
X0165300Y0118010D01*
X0165300Y0118608D02*
X0164700Y0118608D01*
X0164700Y0119207D02*
X0165300Y0119207D01*
X0165300Y0119805D02*
X0164700Y0119805D01*
X0164700Y0120404D02*
X0165300Y0120404D01*
X0165300Y0121002D02*
X0164700Y0121002D01*
X0164700Y0121601D02*
X0165300Y0121601D01*
X0165300Y0122199D02*
X0164700Y0122199D01*
X0164700Y0122798D02*
X0165300Y0122798D01*
X0166834Y0122798D02*
X0173166Y0122798D01*
X0173349Y0122891D02*
X0172746Y0122584D01*
X0172199Y0122186D01*
X0171720Y0121708D01*
X0171322Y0121160D01*
X0171015Y0120557D01*
X0170806Y0119913D01*
X0170700Y0119245D01*
X0170700Y0116206D01*
X0174700Y0116206D01*
X0174700Y0123206D01*
X0174662Y0123206D01*
X0173993Y0123100D01*
X0173349Y0122891D01*
X0172217Y0122199D02*
X0167783Y0122199D01*
X0168357Y0121601D02*
X0171643Y0121601D01*
X0171242Y0121002D02*
X0168758Y0121002D01*
X0169035Y0120404D02*
X0170965Y0120404D01*
X0170789Y0119805D02*
X0169211Y0119805D01*
X0169300Y0119207D02*
X0170700Y0119207D01*
X0170700Y0118608D02*
X0169300Y0118608D01*
X0169300Y0118010D02*
X0170700Y0118010D01*
X0170700Y0117411D02*
X0169300Y0117411D01*
X0169300Y0116813D02*
X0170700Y0116813D01*
X0170700Y0116214D02*
X0169300Y0116214D01*
X0169300Y0115017D02*
X0170700Y0115017D01*
X0170700Y0114419D02*
X0169300Y0114419D01*
X0169300Y0113820D02*
X0170700Y0113820D01*
X0170700Y0113222D02*
X0169300Y0113222D01*
X0169300Y0112623D02*
X0170700Y0112623D01*
X0170786Y0112025D02*
X0169214Y0112025D01*
X0169040Y0111426D02*
X0170960Y0111426D01*
X0171233Y0110828D02*
X0168767Y0110828D01*
X0168370Y0110229D02*
X0171630Y0110229D01*
X0172195Y0109631D02*
X0167805Y0109631D01*
X0166868Y0109032D02*
X0173132Y0109032D01*
X0174700Y0109032D02*
X0175300Y0109032D01*
X0175300Y0109631D02*
X0174700Y0109631D01*
X0174700Y0110229D02*
X0175300Y0110229D01*
X0175300Y0116214D02*
X0174700Y0116214D01*
X0174700Y0116813D02*
X0175300Y0116813D01*
X0175300Y0117411D02*
X0174700Y0117411D01*
X0174700Y0118010D02*
X0175300Y0118010D01*
X0175300Y0118608D02*
X0174700Y0118608D01*
X0174700Y0119207D02*
X0175300Y0119207D01*
X0175300Y0119805D02*
X0174700Y0119805D01*
X0174700Y0120404D02*
X0175300Y0120404D01*
X0175300Y0121002D02*
X0174700Y0121002D01*
X0174700Y0121601D02*
X0175300Y0121601D01*
X0175300Y0122199D02*
X0174700Y0122199D01*
X0174700Y0122798D02*
X0175300Y0122798D01*
X0176834Y0122798D02*
X0179770Y0122798D01*
X0179383Y0122199D02*
X0177783Y0122199D01*
X0178357Y0121601D02*
X0179135Y0121601D01*
X0178887Y0121002D02*
X0178758Y0121002D01*
X0180369Y0123396D02*
X0159631Y0123396D01*
X0160230Y0122798D02*
X0163166Y0122798D01*
X0162217Y0122199D02*
X0160617Y0122199D01*
X0160865Y0121601D02*
X0161643Y0121601D01*
X0161242Y0121002D02*
X0161113Y0121002D01*
X0159033Y0123995D02*
X0180967Y0123995D01*
X0181876Y0124593D02*
X0158124Y0124593D01*
X0156679Y0125192D02*
X0183321Y0125192D01*
X0165300Y0115017D02*
X0164700Y0115017D01*
X0164700Y0114419D02*
X0165300Y0114419D01*
X0165300Y0113820D02*
X0164700Y0113820D01*
X0164700Y0113222D02*
X0165300Y0113222D01*
X0165300Y0112623D02*
X0164700Y0112623D01*
X0164700Y0112025D02*
X0165300Y0112025D01*
X0165300Y0111426D02*
X0164700Y0111426D01*
X0164700Y0110828D02*
X0165300Y0110828D01*
X0165300Y0110229D02*
X0164700Y0110229D01*
X0164700Y0109631D02*
X0165300Y0109631D01*
X0165300Y0109032D02*
X0164700Y0109032D01*
X0163132Y0109032D02*
X0160792Y0109032D01*
X0160792Y0109631D02*
X0162195Y0109631D01*
X0161630Y0110229D02*
X0160872Y0110229D01*
X0161120Y0110828D02*
X0161233Y0110828D01*
X0160879Y0106039D02*
X0213766Y0106039D01*
X0213279Y0106638D02*
X0206721Y0106638D01*
X0208166Y0107237D02*
X0211834Y0107237D01*
X0210950Y0107835D02*
X0209050Y0107835D01*
X0209648Y0108434D02*
X0210352Y0108434D01*
X0205063Y0105441D02*
X0161478Y0105441D01*
X0148893Y0105441D02*
X0066895Y0105441D01*
X0069109Y0106039D02*
X0148893Y0106039D01*
X0148893Y0106638D02*
X0146721Y0106638D01*
X0148166Y0107237D02*
X0148893Y0107237D01*
X0143279Y0106638D02*
X0136721Y0106638D01*
X0138166Y0107237D02*
X0141834Y0107237D01*
X0140950Y0107835D02*
X0139050Y0107835D01*
X0139648Y0108434D02*
X0140352Y0108434D01*
X0133279Y0106638D02*
X0070145Y0106638D01*
X0071182Y0107237D02*
X0131834Y0107237D01*
X0130950Y0107835D02*
X0071918Y0107835D01*
X0072517Y0108434D02*
X0130352Y0108434D01*
X0129753Y0109032D02*
X0073115Y0109032D01*
X0073616Y0109631D02*
X0129376Y0109631D01*
X0129128Y0110229D02*
X0073961Y0110229D01*
X0074307Y0110828D02*
X0128880Y0110828D01*
X0128632Y0111426D02*
X0074652Y0111426D01*
X0074933Y0112025D02*
X0128550Y0112025D01*
X0128550Y0112623D02*
X0075093Y0112623D01*
X0075254Y0113222D02*
X0128550Y0113222D01*
X0128550Y0113820D02*
X0075414Y0113820D01*
X0075574Y0114419D02*
X0128550Y0114419D01*
X0128550Y0115017D02*
X0075599Y0115017D01*
X0075599Y0115616D02*
X0128550Y0115616D01*
X0128550Y0116214D02*
X0075599Y0116214D01*
X0075599Y0116813D02*
X0128550Y0116813D01*
X0128550Y0117411D02*
X0075570Y0117411D01*
X0075409Y0118010D02*
X0128550Y0118010D01*
X0128550Y0118608D02*
X0075249Y0118608D01*
X0075089Y0119207D02*
X0128550Y0119207D01*
X0128550Y0119805D02*
X0074928Y0119805D01*
X0074642Y0120404D02*
X0128639Y0120404D01*
X0128887Y0121002D02*
X0074297Y0121002D01*
X0073951Y0121601D02*
X0129135Y0121601D01*
X0129383Y0122199D02*
X0073606Y0122199D01*
X0073098Y0122798D02*
X0129770Y0122798D01*
X0130369Y0123396D02*
X0072500Y0123396D01*
X0071901Y0123995D02*
X0130967Y0123995D01*
X0131876Y0124593D02*
X0071152Y0124593D01*
X0070115Y0125192D02*
X0133321Y0125192D01*
X0136679Y0125192D02*
X0143321Y0125192D01*
X0141876Y0124593D02*
X0138124Y0124593D01*
X0139033Y0123995D02*
X0140967Y0123995D01*
X0140369Y0123396D02*
X0139631Y0123396D01*
X0146679Y0125192D02*
X0153321Y0125192D01*
X0151876Y0124593D02*
X0148124Y0124593D01*
X0149033Y0123995D02*
X0150967Y0123995D01*
X0150369Y0123396D02*
X0149631Y0123396D01*
X0069064Y0125790D02*
X0380936Y0125790D01*
X0380909Y0125783D02*
X0378492Y0124388D01*
X0376519Y0122414D01*
X0375123Y0119997D01*
X0374401Y0117302D01*
X0374401Y0114511D01*
X0375123Y0111815D01*
X0376519Y0109398D01*
X0378492Y0107425D01*
X0380909Y0106029D01*
X0383605Y0105307D01*
X0386395Y0105307D01*
X0389091Y0106029D01*
X0391508Y0107425D01*
X0393481Y0109398D01*
X0394877Y0111815D01*
X0395599Y0114511D01*
X0395599Y0117302D01*
X0394877Y0119997D01*
X0393481Y0122414D01*
X0391508Y0124388D01*
X0389091Y0125783D01*
X0386395Y0126505D01*
X0383605Y0126505D01*
X0380909Y0125783D01*
X0379885Y0125192D02*
X0366679Y0125192D01*
X0368124Y0124593D02*
X0378848Y0124593D01*
X0378099Y0123995D02*
X0369033Y0123995D01*
X0369631Y0123396D02*
X0377500Y0123396D01*
X0376902Y0122798D02*
X0370230Y0122798D01*
X0370617Y0122199D02*
X0376394Y0122199D01*
X0376049Y0121601D02*
X0370865Y0121601D01*
X0371113Y0121002D02*
X0375703Y0121002D01*
X0375358Y0120404D02*
X0371361Y0120404D01*
X0371450Y0119805D02*
X0375072Y0119805D01*
X0374911Y0119207D02*
X0371450Y0119207D01*
X0371450Y0118608D02*
X0374751Y0118608D01*
X0374591Y0118010D02*
X0371450Y0118010D01*
X0371450Y0117411D02*
X0374430Y0117411D01*
X0374401Y0116813D02*
X0371450Y0116813D01*
X0371450Y0116214D02*
X0374401Y0116214D01*
X0374401Y0115616D02*
X0371450Y0115616D01*
X0371450Y0115017D02*
X0374401Y0115017D01*
X0374425Y0114419D02*
X0371450Y0114419D01*
X0371450Y0113820D02*
X0374586Y0113820D01*
X0374746Y0113222D02*
X0371450Y0113222D01*
X0371450Y0112623D02*
X0374907Y0112623D01*
X0375067Y0112025D02*
X0371450Y0112025D01*
X0371368Y0111426D02*
X0375348Y0111426D01*
X0375693Y0110828D02*
X0371120Y0110828D01*
X0370872Y0110229D02*
X0376039Y0110229D01*
X0376384Y0109631D02*
X0370624Y0109631D01*
X0370247Y0109032D02*
X0376885Y0109032D01*
X0377483Y0108434D02*
X0369648Y0108434D01*
X0369050Y0107835D02*
X0378082Y0107835D01*
X0378818Y0107237D02*
X0368166Y0107237D01*
X0366721Y0106638D02*
X0379855Y0106638D01*
X0380891Y0106039D02*
X0300950Y0106039D01*
X0300950Y0105441D02*
X0383105Y0105441D01*
X0386895Y0105441D02*
X0459523Y0105441D01*
X0459523Y0106039D02*
X0389109Y0106039D01*
X0390145Y0106638D02*
X0459523Y0106638D01*
X0459523Y0107237D02*
X0391182Y0107237D01*
X0391918Y0107835D02*
X0459523Y0107835D01*
X0459523Y0108434D02*
X0392517Y0108434D01*
X0393115Y0109032D02*
X0459523Y0109032D01*
X0459523Y0109631D02*
X0393616Y0109631D01*
X0393961Y0110229D02*
X0459523Y0110229D01*
X0459523Y0110828D02*
X0394307Y0110828D01*
X0394652Y0111426D02*
X0459523Y0111426D01*
X0459523Y0112025D02*
X0394933Y0112025D01*
X0395093Y0112623D02*
X0459523Y0112623D01*
X0459523Y0113222D02*
X0395254Y0113222D01*
X0395414Y0113820D02*
X0459523Y0113820D01*
X0459523Y0114419D02*
X0395574Y0114419D01*
X0395599Y0115017D02*
X0459523Y0115017D01*
X0459523Y0115616D02*
X0395599Y0115616D01*
X0395599Y0116214D02*
X0459523Y0116214D01*
X0459523Y0116813D02*
X0395599Y0116813D01*
X0395570Y0117411D02*
X0459523Y0117411D01*
X0459523Y0118010D02*
X0395409Y0118010D01*
X0395249Y0118608D02*
X0459523Y0118608D01*
X0459523Y0119207D02*
X0395089Y0119207D01*
X0394928Y0119805D02*
X0459523Y0119805D01*
X0459523Y0120404D02*
X0394642Y0120404D01*
X0394297Y0121002D02*
X0459523Y0121002D01*
X0459523Y0121601D02*
X0393951Y0121601D01*
X0393606Y0122199D02*
X0459523Y0122199D01*
X0459523Y0122798D02*
X0393098Y0122798D01*
X0392500Y0123396D02*
X0459523Y0123396D01*
X0459523Y0123995D02*
X0391901Y0123995D01*
X0391152Y0124593D02*
X0459523Y0124593D01*
X0459523Y0125192D02*
X0390115Y0125192D01*
X0389064Y0125790D02*
X0459523Y0125790D01*
X0459523Y0126389D02*
X0386831Y0126389D01*
X0383169Y0126389D02*
X0066831Y0126389D01*
X0052304Y0127586D02*
X0444908Y0127586D01*
X0444309Y0128184D02*
X0052302Y0128184D01*
X0052299Y0128783D02*
X0443711Y0128783D01*
X0443112Y0129381D02*
X0052297Y0129381D01*
X0052294Y0129980D02*
X0442514Y0129980D01*
X0441915Y0130578D02*
X0052291Y0130578D01*
X0052289Y0131177D02*
X0441317Y0131177D01*
X0441306Y0131775D02*
X0386950Y0131775D01*
X0387549Y0132374D02*
X0441306Y0132374D01*
X0441306Y0132972D02*
X0388147Y0132972D01*
X0388746Y0133571D02*
X0441306Y0133571D01*
X0441306Y0134170D02*
X0389300Y0134170D01*
X0389300Y0134768D02*
X0441306Y0134768D01*
X0441306Y0135367D02*
X0389300Y0135367D01*
X0389300Y0136564D02*
X0441339Y0136564D01*
X0441306Y0135965D02*
X0385300Y0135965D01*
X0385300Y0135367D02*
X0384700Y0135367D01*
X0384700Y0135606D02*
X0384700Y0131606D01*
X0383219Y0131606D01*
X0380700Y0134125D01*
X0380700Y0135606D01*
X0384700Y0135606D01*
X0384700Y0135965D02*
X0375300Y0135965D01*
X0375300Y0135367D02*
X0374700Y0135367D01*
X0374700Y0135606D02*
X0374700Y0131606D01*
X0373219Y0131606D01*
X0370700Y0134125D01*
X0370700Y0135606D01*
X0374700Y0135606D01*
X0374700Y0135965D02*
X0052268Y0135965D01*
X0052271Y0135367D02*
X0370700Y0135367D01*
X0370700Y0134768D02*
X0052274Y0134768D01*
X0052276Y0134170D02*
X0370700Y0134170D01*
X0371254Y0133571D02*
X0052279Y0133571D01*
X0052281Y0132972D02*
X0371853Y0132972D01*
X0372451Y0132374D02*
X0052284Y0132374D01*
X0052286Y0131775D02*
X0373050Y0131775D01*
X0374700Y0131775D02*
X0375300Y0131775D01*
X0375300Y0132374D02*
X0374700Y0132374D01*
X0374700Y0132972D02*
X0375300Y0132972D01*
X0375300Y0133571D02*
X0374700Y0133571D01*
X0374700Y0134170D02*
X0375300Y0134170D01*
X0375300Y0134768D02*
X0374700Y0134768D01*
X0377549Y0132374D02*
X0382451Y0132374D01*
X0381853Y0132972D02*
X0378147Y0132972D01*
X0378746Y0133571D02*
X0381254Y0133571D01*
X0380700Y0134170D02*
X0379300Y0134170D01*
X0379300Y0134768D02*
X0380700Y0134768D01*
X0380700Y0135367D02*
X0379300Y0135367D01*
X0379300Y0136564D02*
X0380700Y0136564D01*
X0380700Y0137162D02*
X0379300Y0137162D01*
X0379227Y0137761D02*
X0380773Y0137761D01*
X0381372Y0138359D02*
X0378628Y0138359D01*
X0378030Y0138958D02*
X0381970Y0138958D01*
X0382229Y0139556D02*
X0377771Y0139556D01*
X0378369Y0140155D02*
X0381631Y0140155D01*
X0381032Y0140753D02*
X0378968Y0140753D01*
X0379566Y0141352D02*
X0380434Y0141352D01*
X0387771Y0139556D02*
X0442938Y0139556D01*
X0443536Y0138958D02*
X0388030Y0138958D01*
X0388628Y0138359D02*
X0443135Y0138359D01*
X0442536Y0137761D02*
X0389227Y0137761D01*
X0389300Y0137162D02*
X0441938Y0137162D01*
X0442339Y0140155D02*
X0409545Y0140155D01*
X0410977Y0140753D02*
X0441741Y0140753D01*
X0441306Y0141352D02*
X0411576Y0141352D01*
X0412174Y0141950D02*
X0441306Y0141950D01*
X0441306Y0142549D02*
X0412773Y0142549D01*
X0412642Y0142418D02*
X0412642Y0142418D01*
X0413371Y0143147D02*
X0441306Y0143147D01*
X0441306Y0143746D02*
X0413970Y0143746D01*
X0414568Y0144344D02*
X0441306Y0144344D01*
X0441306Y0144943D02*
X0415167Y0144943D01*
X0415765Y0145541D02*
X0441306Y0145541D01*
X0441306Y0146140D02*
X0416364Y0146140D01*
X0416962Y0146738D02*
X0441514Y0146738D01*
X0442112Y0147337D02*
X0417561Y0147337D01*
X0418160Y0147935D02*
X0442711Y0147935D01*
X0443310Y0148534D02*
X0418758Y0148534D01*
X0419357Y0149132D02*
X0443362Y0149132D01*
X0442763Y0149731D02*
X0419955Y0149731D01*
X0420554Y0150329D02*
X0442165Y0150329D01*
X0441566Y0150928D02*
X0421152Y0150928D01*
X0421751Y0151526D02*
X0441306Y0151526D01*
X0441306Y0152125D02*
X0422349Y0152125D01*
X0422948Y0152723D02*
X0441306Y0152723D01*
X0441306Y0153322D02*
X0423546Y0153322D01*
X0424145Y0153920D02*
X0441306Y0153920D01*
X0441306Y0154519D02*
X0424743Y0154519D01*
X0425342Y0155117D02*
X0441306Y0155117D01*
X0441306Y0155716D02*
X0425940Y0155716D01*
X0426539Y0156314D02*
X0441306Y0156314D01*
X0441689Y0156913D02*
X0427137Y0156913D01*
X0427736Y0157511D02*
X0442287Y0157511D01*
X0431716Y0199407D02*
X0390620Y0199407D01*
X0390022Y0200006D02*
X0430271Y0200006D01*
X0429408Y0200604D02*
X0389423Y0200604D01*
X0389418Y0201203D02*
X0428809Y0201203D01*
X0428211Y0201801D02*
X0390016Y0201801D01*
X0390615Y0202400D02*
X0427612Y0202400D01*
X0427014Y0202998D02*
X0391213Y0202998D01*
X0391450Y0203597D02*
X0426415Y0203597D01*
X0425817Y0204195D02*
X0391450Y0204195D01*
X0391450Y0204794D02*
X0425218Y0204794D01*
X0424620Y0205392D02*
X0391450Y0205392D01*
X0391450Y0205991D02*
X0424021Y0205991D01*
X0423423Y0206589D02*
X0391450Y0206589D01*
X0391450Y0207188D02*
X0422824Y0207188D01*
X0422226Y0207786D02*
X0391450Y0207786D01*
X0391450Y0208385D02*
X0421627Y0208385D01*
X0421029Y0208983D02*
X0391044Y0208983D01*
X0390445Y0209582D02*
X0420430Y0209582D01*
X0419832Y0210180D02*
X0389847Y0210180D01*
X0389248Y0210779D02*
X0419233Y0210779D01*
X0418634Y0211377D02*
X0389592Y0211377D01*
X0390191Y0211976D02*
X0418036Y0211976D01*
X0417437Y0212574D02*
X0390789Y0212574D01*
X0391388Y0213173D02*
X0416839Y0213173D01*
X0416240Y0213772D02*
X0391450Y0213772D01*
X0391450Y0214370D02*
X0415817Y0214370D01*
X0370752Y0210779D02*
X0303522Y0210779D01*
X0303983Y0211240D02*
X0301666Y0208923D01*
X0298638Y0207669D01*
X0295362Y0207669D01*
X0292334Y0208923D01*
X0290017Y0211240D01*
X0288763Y0214268D01*
X0288763Y0217545D01*
X0290017Y0220572D01*
X0292334Y0222889D01*
X0295362Y0224143D01*
X0298638Y0224143D01*
X0301666Y0222889D01*
X0303983Y0220572D01*
X0305237Y0217545D01*
X0305237Y0214268D01*
X0303983Y0211240D01*
X0304040Y0211377D02*
X0370408Y0211377D01*
X0369809Y0211976D02*
X0304288Y0211976D01*
X0304536Y0212574D02*
X0369211Y0212574D01*
X0368612Y0213173D02*
X0304783Y0213173D01*
X0305031Y0213772D02*
X0368550Y0213772D01*
X0368550Y0214370D02*
X0305237Y0214370D01*
X0305237Y0214969D02*
X0368550Y0214969D01*
X0368550Y0215567D02*
X0305237Y0215567D01*
X0305237Y0216166D02*
X0368550Y0216166D01*
X0368550Y0216764D02*
X0305237Y0216764D01*
X0305237Y0217363D02*
X0368550Y0217363D01*
X0368550Y0217961D02*
X0305065Y0217961D01*
X0304817Y0218560D02*
X0368550Y0218560D01*
X0369131Y0219158D02*
X0304569Y0219158D01*
X0304321Y0219757D02*
X0369729Y0219757D01*
X0370328Y0220355D02*
X0304073Y0220355D01*
X0303602Y0220954D02*
X0370832Y0220954D01*
X0370233Y0221552D02*
X0303003Y0221552D01*
X0302404Y0222151D02*
X0369634Y0222151D01*
X0369036Y0222749D02*
X0301806Y0222749D01*
X0300559Y0223348D02*
X0368550Y0223348D01*
X0368550Y0223946D02*
X0299114Y0223946D01*
X0294886Y0223946D02*
X0051893Y0223946D01*
X0051895Y0223348D02*
X0293441Y0223348D01*
X0292194Y0222749D02*
X0051898Y0222749D01*
X0051901Y0222151D02*
X0291595Y0222151D01*
X0290997Y0221552D02*
X0051903Y0221552D01*
X0051906Y0220954D02*
X0290398Y0220954D01*
X0289927Y0220355D02*
X0051908Y0220355D01*
X0051911Y0219757D02*
X0289679Y0219757D01*
X0289431Y0219158D02*
X0051913Y0219158D01*
X0051916Y0218560D02*
X0289183Y0218560D01*
X0288935Y0217961D02*
X0051918Y0217961D01*
X0051921Y0217363D02*
X0288763Y0217363D01*
X0288763Y0216764D02*
X0051924Y0216764D01*
X0051926Y0216166D02*
X0288763Y0216166D01*
X0288763Y0215567D02*
X0051929Y0215567D01*
X0051931Y0214969D02*
X0288763Y0214969D01*
X0288763Y0214370D02*
X0051934Y0214370D01*
X0051936Y0213772D02*
X0288969Y0213772D01*
X0289216Y0213173D02*
X0051939Y0213173D01*
X0051941Y0212574D02*
X0289464Y0212574D01*
X0289712Y0211976D02*
X0051944Y0211976D01*
X0051947Y0211377D02*
X0289960Y0211377D01*
X0290478Y0210779D02*
X0051949Y0210779D01*
X0051952Y0210180D02*
X0291077Y0210180D01*
X0291675Y0209582D02*
X0051954Y0209582D01*
X0051957Y0208983D02*
X0292274Y0208983D01*
X0293634Y0208385D02*
X0051959Y0208385D01*
X0051962Y0207786D02*
X0295079Y0207786D01*
X0298921Y0207786D02*
X0368550Y0207786D01*
X0368550Y0207188D02*
X0051964Y0207188D01*
X0051967Y0206589D02*
X0368550Y0206589D01*
X0368550Y0205991D02*
X0051970Y0205991D01*
X0051972Y0205392D02*
X0368550Y0205392D01*
X0368550Y0204794D02*
X0051975Y0204794D01*
X0051977Y0204195D02*
X0368550Y0204195D01*
X0368550Y0203597D02*
X0051980Y0203597D01*
X0051982Y0202998D02*
X0368787Y0202998D01*
X0369385Y0202400D02*
X0051985Y0202400D01*
X0051987Y0201801D02*
X0369984Y0201801D01*
X0370582Y0201203D02*
X0051990Y0201203D01*
X0051993Y0200604D02*
X0370577Y0200604D01*
X0369978Y0200006D02*
X0051995Y0200006D01*
X0051998Y0199407D02*
X0369380Y0199407D01*
X0368781Y0198809D02*
X0052000Y0198809D01*
X0052003Y0198210D02*
X0368550Y0198210D01*
X0368550Y0197612D02*
X0052005Y0197612D01*
X0052008Y0197013D02*
X0368550Y0197013D01*
X0368550Y0196415D02*
X0052010Y0196415D01*
X0052013Y0195816D02*
X0368550Y0195816D01*
X0368550Y0195218D02*
X0052016Y0195218D01*
X0052018Y0194619D02*
X0368550Y0194619D01*
X0368550Y0194021D02*
X0052021Y0194021D01*
X0052023Y0193422D02*
X0368550Y0193422D01*
X0368962Y0192824D02*
X0052026Y0192824D01*
X0052028Y0192225D02*
X0369560Y0192225D01*
X0370159Y0191627D02*
X0052031Y0191627D01*
X0052033Y0191028D02*
X0370757Y0191028D01*
X0370402Y0190430D02*
X0052036Y0190430D01*
X0052039Y0189831D02*
X0369804Y0189831D01*
X0369205Y0189233D02*
X0052041Y0189233D01*
X0052044Y0188634D02*
X0368607Y0188634D01*
X0368550Y0188036D02*
X0052046Y0188036D01*
X0052049Y0187437D02*
X0368550Y0187437D01*
X0368550Y0186839D02*
X0052051Y0186839D01*
X0052054Y0186240D02*
X0368550Y0186240D01*
X0368550Y0185641D02*
X0052056Y0185641D01*
X0052059Y0185043D02*
X0368550Y0185043D01*
X0368550Y0184444D02*
X0052062Y0184444D01*
X0052064Y0183846D02*
X0368550Y0183846D01*
X0368550Y0183247D02*
X0052067Y0183247D01*
X0052069Y0182649D02*
X0369136Y0182649D01*
X0369735Y0182050D02*
X0052072Y0182050D01*
X0052074Y0181452D02*
X0370333Y0181452D01*
X0370826Y0180853D02*
X0052077Y0180853D01*
X0052079Y0180255D02*
X0370227Y0180255D01*
X0369629Y0179656D02*
X0052082Y0179656D01*
X0052084Y0179058D02*
X0369030Y0179058D01*
X0368550Y0178459D02*
X0052087Y0178459D01*
X0052090Y0177861D02*
X0368550Y0177861D01*
X0368550Y0177262D02*
X0052092Y0177262D01*
X0052095Y0176664D02*
X0368550Y0176664D01*
X0368550Y0176065D02*
X0052097Y0176065D01*
X0052100Y0175467D02*
X0368550Y0175467D01*
X0368550Y0174868D02*
X0052102Y0174868D01*
X0052105Y0174270D02*
X0368550Y0174270D01*
X0368550Y0173671D02*
X0052107Y0173671D01*
X0052110Y0173073D02*
X0368712Y0173073D01*
X0369311Y0172474D02*
X0052113Y0172474D01*
X0052115Y0171876D02*
X0369909Y0171876D01*
X0370508Y0171277D02*
X0052118Y0171277D01*
X0052120Y0170679D02*
X0370651Y0170679D01*
X0370053Y0170080D02*
X0052123Y0170080D01*
X0052125Y0169482D02*
X0369454Y0169482D01*
X0368856Y0168883D02*
X0052128Y0168883D01*
X0052130Y0168285D02*
X0368550Y0168285D01*
X0368550Y0167686D02*
X0052133Y0167686D01*
X0052136Y0167088D02*
X0368550Y0167088D01*
X0368550Y0166489D02*
X0052138Y0166489D01*
X0052141Y0165891D02*
X0368550Y0165891D01*
X0368550Y0165292D02*
X0052143Y0165292D01*
X0052146Y0164694D02*
X0368550Y0164694D01*
X0368550Y0164095D02*
X0052148Y0164095D01*
X0052151Y0163497D02*
X0368550Y0163497D01*
X0368887Y0162898D02*
X0052153Y0162898D01*
X0052156Y0162300D02*
X0369486Y0162300D01*
X0370084Y0161701D02*
X0052159Y0161701D01*
X0052161Y0161103D02*
X0370683Y0161103D01*
X0370477Y0160504D02*
X0052164Y0160504D01*
X0052166Y0159905D02*
X0369878Y0159905D01*
X0369280Y0159307D02*
X0052169Y0159307D01*
X0052171Y0158708D02*
X0368681Y0158708D01*
X0368550Y0158110D02*
X0052174Y0158110D01*
X0052176Y0157511D02*
X0368550Y0157511D01*
X0368550Y0156913D02*
X0052179Y0156913D01*
X0052182Y0156314D02*
X0368550Y0156314D01*
X0368550Y0155716D02*
X0052184Y0155716D01*
X0052187Y0155117D02*
X0368550Y0155117D01*
X0368550Y0154519D02*
X0052189Y0154519D01*
X0052192Y0153920D02*
X0368550Y0153920D01*
X0368550Y0153322D02*
X0052194Y0153322D01*
X0052197Y0152723D02*
X0369062Y0152723D01*
X0369660Y0152125D02*
X0052199Y0152125D01*
X0052202Y0151526D02*
X0370259Y0151526D01*
X0370857Y0150928D02*
X0052205Y0150928D01*
X0052207Y0150329D02*
X0370302Y0150329D01*
X0369703Y0149731D02*
X0052210Y0149731D01*
X0052212Y0149132D02*
X0369105Y0149132D01*
X0368550Y0148534D02*
X0052215Y0148534D01*
X0052217Y0147935D02*
X0368550Y0147935D01*
X0368550Y0147337D02*
X0052220Y0147337D01*
X0052222Y0146738D02*
X0368550Y0146738D01*
X0368550Y0146140D02*
X0052225Y0146140D01*
X0052228Y0145541D02*
X0368550Y0145541D01*
X0368550Y0144943D02*
X0052230Y0144943D01*
X0052233Y0144344D02*
X0368550Y0144344D01*
X0368550Y0143746D02*
X0052235Y0143746D01*
X0052238Y0143147D02*
X0368638Y0143147D01*
X0369237Y0142549D02*
X0052240Y0142549D01*
X0052243Y0141950D02*
X0369835Y0141950D01*
X0370434Y0141352D02*
X0052245Y0141352D01*
X0052248Y0140753D02*
X0371032Y0140753D01*
X0371631Y0140155D02*
X0052251Y0140155D01*
X0052253Y0139556D02*
X0372229Y0139556D01*
X0371970Y0138958D02*
X0052256Y0138958D01*
X0052258Y0138359D02*
X0371372Y0138359D01*
X0370773Y0137761D02*
X0052261Y0137761D01*
X0052263Y0137162D02*
X0370700Y0137162D01*
X0370700Y0136564D02*
X0052266Y0136564D01*
X0051890Y0224545D02*
X0368550Y0224545D01*
X0368550Y0225143D02*
X0051888Y0225143D01*
X0051885Y0225742D02*
X0368550Y0225742D01*
X0368550Y0226340D02*
X0051883Y0226340D01*
X0051880Y0226939D02*
X0368550Y0226939D01*
X0368550Y0227537D02*
X0051878Y0227537D01*
X0051875Y0228136D02*
X0368550Y0228136D01*
X0368707Y0228734D02*
X0051872Y0228734D01*
X0051870Y0229333D02*
X0369305Y0229333D01*
X0369904Y0229931D02*
X0051867Y0229931D01*
X0051865Y0230530D02*
X0370502Y0230530D01*
X0370657Y0231128D02*
X0051862Y0231128D01*
X0051860Y0231727D02*
X0370058Y0231727D01*
X0369460Y0232325D02*
X0051857Y0232325D01*
X0051855Y0232924D02*
X0368861Y0232924D01*
X0368550Y0233522D02*
X0051852Y0233522D01*
X0051849Y0234121D02*
X0368550Y0234121D01*
X0368550Y0234719D02*
X0051847Y0234719D01*
X0051844Y0235318D02*
X0368550Y0235318D01*
X0368550Y0235916D02*
X0051842Y0235916D01*
X0051839Y0236515D02*
X0368550Y0236515D01*
X0368550Y0237113D02*
X0051837Y0237113D01*
X0051834Y0237712D02*
X0368550Y0237712D01*
X0368550Y0238310D02*
X0051832Y0238310D01*
X0051829Y0238909D02*
X0368882Y0238909D01*
X0369480Y0239508D02*
X0051826Y0239508D01*
X0051824Y0240106D02*
X0370079Y0240106D01*
X0370677Y0240705D02*
X0051821Y0240705D01*
X0051819Y0241303D02*
X0370482Y0241303D01*
X0369884Y0241902D02*
X0051816Y0241902D01*
X0051814Y0242500D02*
X0369285Y0242500D01*
X0368687Y0243099D02*
X0051811Y0243099D01*
X0051809Y0243697D02*
X0368550Y0243697D01*
X0368550Y0244296D02*
X0051806Y0244296D01*
X0051803Y0244894D02*
X0368550Y0244894D01*
X0368550Y0245493D02*
X0051801Y0245493D01*
X0051798Y0246091D02*
X0368550Y0246091D01*
X0368550Y0246690D02*
X0051796Y0246690D01*
X0051793Y0247288D02*
X0368550Y0247288D01*
X0368550Y0247887D02*
X0051791Y0247887D01*
X0051788Y0248485D02*
X0368550Y0248485D01*
X0369056Y0249084D02*
X0051786Y0249084D01*
X0051783Y0249682D02*
X0369655Y0249682D01*
X0370253Y0250281D02*
X0051780Y0250281D01*
X0051778Y0250879D02*
X0370852Y0250879D01*
X0370307Y0251478D02*
X0051775Y0251478D01*
X0051773Y0252076D02*
X0369709Y0252076D01*
X0369110Y0252675D02*
X0051770Y0252675D01*
X0051768Y0253273D02*
X0368550Y0253273D01*
X0368550Y0253872D02*
X0051765Y0253872D01*
X0051763Y0254470D02*
X0368550Y0254470D01*
X0368550Y0255069D02*
X0051760Y0255069D01*
X0051757Y0255667D02*
X0368550Y0255667D01*
X0368550Y0256266D02*
X0051755Y0256266D01*
X0051752Y0256864D02*
X0368550Y0256864D01*
X0368550Y0257463D02*
X0051750Y0257463D01*
X0051747Y0258061D02*
X0368550Y0258061D01*
X0368632Y0258660D02*
X0051745Y0258660D01*
X0051742Y0259258D02*
X0369231Y0259258D01*
X0369829Y0259857D02*
X0051740Y0259857D01*
X0051737Y0260455D02*
X0370428Y0260455D01*
X0370731Y0261054D02*
X0051734Y0261054D01*
X0051732Y0261652D02*
X0370133Y0261652D01*
X0369534Y0262251D02*
X0051729Y0262251D01*
X0051727Y0262849D02*
X0368936Y0262849D01*
X0368550Y0263448D02*
X0051724Y0263448D01*
X0051722Y0264046D02*
X0368550Y0264046D01*
X0368550Y0264645D02*
X0051719Y0264645D01*
X0051717Y0265243D02*
X0368550Y0265243D01*
X0368550Y0265842D02*
X0051714Y0265842D01*
X0051711Y0266441D02*
X0368550Y0266441D01*
X0368550Y0267039D02*
X0051709Y0267039D01*
X0051706Y0267638D02*
X0368550Y0267638D01*
X0368550Y0268236D02*
X0051704Y0268236D01*
X0051701Y0268835D02*
X0368807Y0268835D01*
X0369406Y0269433D02*
X0051699Y0269433D01*
X0051696Y0270032D02*
X0370004Y0270032D01*
X0370603Y0270630D02*
X0051694Y0270630D01*
X0051691Y0271229D02*
X0370557Y0271229D01*
X0369958Y0271827D02*
X0051688Y0271827D01*
X0051686Y0272426D02*
X0369360Y0272426D01*
X0368761Y0273024D02*
X0051683Y0273024D01*
X0051681Y0273623D02*
X0368550Y0273623D01*
X0368550Y0274221D02*
X0051678Y0274221D01*
X0051676Y0274820D02*
X0368550Y0274820D01*
X0368550Y0275418D02*
X0051673Y0275418D01*
X0051671Y0276017D02*
X0368550Y0276017D01*
X0368550Y0276615D02*
X0051668Y0276615D01*
X0051665Y0277214D02*
X0368550Y0277214D01*
X0368550Y0277812D02*
X0051663Y0277812D01*
X0051660Y0278411D02*
X0368550Y0278411D01*
X0368982Y0279009D02*
X0051658Y0279009D01*
X0051655Y0279608D02*
X0369580Y0279608D01*
X0370179Y0280206D02*
X0051653Y0280206D01*
X0051650Y0280805D02*
X0370777Y0280805D01*
X0370382Y0281403D02*
X0051648Y0281403D01*
X0051645Y0282002D02*
X0369783Y0282002D01*
X0369185Y0282600D02*
X0051642Y0282600D01*
X0051640Y0283199D02*
X0368586Y0283199D01*
X0368550Y0283797D02*
X0051637Y0283797D01*
X0051635Y0284396D02*
X0368550Y0284396D01*
X0368550Y0284994D02*
X0051632Y0284994D01*
X0051630Y0285593D02*
X0368550Y0285593D01*
X0368550Y0286191D02*
X0051627Y0286191D01*
X0051625Y0286790D02*
X0368550Y0286790D01*
X0368550Y0287388D02*
X0051622Y0287388D01*
X0051619Y0287987D02*
X0368550Y0287987D01*
X0368558Y0288585D02*
X0051617Y0288585D01*
X0051614Y0289184D02*
X0369157Y0289184D01*
X0369755Y0289782D02*
X0051612Y0289782D01*
X0051609Y0290381D02*
X0370354Y0290381D01*
X0370806Y0290979D02*
X0051607Y0290979D01*
X0051604Y0291578D02*
X0370207Y0291578D01*
X0369609Y0292177D02*
X0051602Y0292177D01*
X0051599Y0292775D02*
X0369010Y0292775D01*
X0368550Y0293374D02*
X0051596Y0293374D01*
X0051594Y0293972D02*
X0368550Y0293972D01*
X0368550Y0294571D02*
X0051591Y0294571D01*
X0051589Y0295169D02*
X0368550Y0295169D01*
X0368550Y0295768D02*
X0363114Y0295768D01*
X0364674Y0296366D02*
X0368550Y0296366D01*
X0368550Y0296965D02*
X0365711Y0296965D01*
X0366646Y0297563D02*
X0368550Y0297563D01*
X0368550Y0298162D02*
X0367245Y0298162D01*
X0367843Y0298760D02*
X0368733Y0298760D01*
X0368442Y0299359D02*
X0369331Y0299359D01*
X0368804Y0299957D02*
X0369930Y0299957D01*
X0370528Y0300556D02*
X0369150Y0300556D01*
X0369495Y0301154D02*
X0370631Y0301154D01*
X0370033Y0301753D02*
X0369841Y0301753D01*
X0356886Y0295768D02*
X0068114Y0295768D01*
X0069091Y0296029D02*
X0071508Y0297425D01*
X0073481Y0299398D01*
X0074877Y0301815D01*
X0075599Y0304511D01*
X0075599Y0307302D01*
X0074877Y0309997D01*
X0073481Y0312414D01*
X0071508Y0314388D01*
X0069091Y0315783D01*
X0066395Y0316505D01*
X0063605Y0316505D01*
X0060909Y0315783D01*
X0058492Y0314388D01*
X0056519Y0312414D01*
X0055123Y0309997D01*
X0054401Y0307302D01*
X0054401Y0304511D01*
X0055123Y0301815D01*
X0056519Y0299398D01*
X0058492Y0297425D01*
X0060909Y0296029D01*
X0063605Y0295307D01*
X0066395Y0295307D01*
X0069091Y0296029D01*
X0069674Y0296366D02*
X0355326Y0296366D01*
X0354289Y0296965D02*
X0347509Y0296965D01*
X0348778Y0297563D02*
X0353354Y0297563D01*
X0352755Y0298162D02*
X0349376Y0298162D01*
X0349975Y0298760D02*
X0352157Y0298760D01*
X0351558Y0299359D02*
X0350512Y0299359D01*
X0350759Y0299957D02*
X0351196Y0299957D01*
X0337672Y0333474D02*
X0335499Y0333474D01*
X0336097Y0334072D02*
X0337672Y0334072D01*
X0337508Y0334671D02*
X0336696Y0334671D01*
X0309391Y0314321D02*
X0308706Y0314321D01*
X0309304Y0313723D02*
X0309917Y0313723D01*
X0309903Y0313124D02*
X0309917Y0313124D01*
X0302665Y0314920D02*
X0297335Y0314920D01*
X0298706Y0314321D02*
X0301294Y0314321D01*
X0300696Y0313723D02*
X0299304Y0313723D01*
X0299903Y0313124D02*
X0300097Y0313124D01*
X0292665Y0314920D02*
X0287335Y0314920D01*
X0288706Y0314321D02*
X0291294Y0314321D01*
X0290696Y0313723D02*
X0289304Y0313723D01*
X0289903Y0313124D02*
X0290097Y0313124D01*
X0282665Y0314920D02*
X0277335Y0314920D01*
X0278706Y0314321D02*
X0281294Y0314321D01*
X0280696Y0313723D02*
X0279304Y0313723D01*
X0279903Y0313124D02*
X0280097Y0313124D01*
X0252491Y0296965D02*
X0247509Y0296965D01*
X0248778Y0297563D02*
X0251222Y0297563D01*
X0250624Y0298162D02*
X0249376Y0298162D01*
X0249975Y0298760D02*
X0250025Y0298760D01*
X0242491Y0296965D02*
X0237509Y0296965D01*
X0238778Y0297563D02*
X0241222Y0297563D01*
X0240624Y0298162D02*
X0239376Y0298162D01*
X0239975Y0298760D02*
X0240025Y0298760D01*
X0232491Y0296965D02*
X0227509Y0296965D01*
X0228778Y0297563D02*
X0231222Y0297563D01*
X0230624Y0298162D02*
X0229376Y0298162D01*
X0229975Y0298760D02*
X0230025Y0298760D01*
X0222491Y0296965D02*
X0217509Y0296965D01*
X0218778Y0297563D02*
X0221222Y0297563D01*
X0220624Y0298162D02*
X0219376Y0298162D01*
X0219975Y0298760D02*
X0220025Y0298760D01*
X0212491Y0296965D02*
X0207509Y0296965D01*
X0208778Y0297563D02*
X0211222Y0297563D01*
X0210624Y0298162D02*
X0209376Y0298162D01*
X0209975Y0298760D02*
X0210025Y0298760D01*
X0202491Y0296965D02*
X0197509Y0296965D01*
X0198778Y0297563D02*
X0201222Y0297563D01*
X0200624Y0298162D02*
X0199376Y0298162D01*
X0199975Y0298760D02*
X0200025Y0298760D01*
X0192491Y0296965D02*
X0187509Y0296965D01*
X0188778Y0297563D02*
X0191222Y0297563D01*
X0190624Y0298162D02*
X0189376Y0298162D01*
X0189975Y0298760D02*
X0190025Y0298760D01*
X0182491Y0296965D02*
X0172509Y0296965D01*
X0173653Y0297439D02*
X0175468Y0299253D01*
X0176450Y0301623D01*
X0176450Y0310189D01*
X0175468Y0312560D01*
X0173653Y0314374D01*
X0171283Y0315356D01*
X0168717Y0315356D01*
X0166347Y0314374D01*
X0165000Y0313027D01*
X0163653Y0314374D01*
X0161283Y0315356D01*
X0158717Y0315356D01*
X0156347Y0314374D01*
X0155000Y0313027D01*
X0153653Y0314374D01*
X0151283Y0315356D01*
X0148717Y0315356D01*
X0146347Y0314374D01*
X0145000Y0313027D01*
X0143653Y0314374D01*
X0141283Y0315356D01*
X0138717Y0315356D01*
X0136347Y0314374D01*
X0135000Y0313027D01*
X0133653Y0314374D01*
X0131283Y0315356D01*
X0128717Y0315356D01*
X0126347Y0314374D01*
X0125000Y0313027D01*
X0123653Y0314374D01*
X0121283Y0315356D01*
X0118717Y0315356D01*
X0116347Y0314374D01*
X0114532Y0312560D01*
X0113829Y0310862D01*
X0113678Y0311160D01*
X0113280Y0311708D01*
X0112801Y0312186D01*
X0112254Y0312584D01*
X0111651Y0312891D01*
X0111007Y0313100D01*
X0110338Y0313206D01*
X0110300Y0313206D01*
X0110300Y0306206D01*
X0109700Y0306206D01*
X0109700Y0313206D01*
X0109662Y0313206D01*
X0108993Y0313100D01*
X0108349Y0312891D01*
X0107746Y0312584D01*
X0107199Y0312186D01*
X0106720Y0311708D01*
X0106322Y0311160D01*
X0106171Y0310862D01*
X0105468Y0312560D01*
X0103653Y0314374D01*
X0101283Y0315356D01*
X0098717Y0315356D01*
X0096347Y0314374D01*
X0094532Y0312560D01*
X0093550Y0310189D01*
X0093550Y0301623D01*
X0094532Y0299253D01*
X0096347Y0297439D01*
X0098717Y0296457D01*
X0101283Y0296457D01*
X0103653Y0297439D01*
X0105468Y0299253D01*
X0106171Y0300950D01*
X0106322Y0300653D01*
X0106720Y0300105D01*
X0107199Y0299626D01*
X0107746Y0299229D01*
X0108349Y0298921D01*
X0108993Y0298712D01*
X0109662Y0298606D01*
X0109700Y0298606D01*
X0109700Y0305606D01*
X0110300Y0305606D01*
X0110300Y0298606D01*
X0110338Y0298606D01*
X0111007Y0298712D01*
X0111651Y0298921D01*
X0112254Y0299229D01*
X0112801Y0299626D01*
X0113280Y0300105D01*
X0113678Y0300653D01*
X0113829Y0300950D01*
X0114532Y0299253D01*
X0116347Y0297439D01*
X0118717Y0296457D01*
X0121283Y0296457D01*
X0123653Y0297439D01*
X0125000Y0298785D01*
X0126347Y0297439D01*
X0128717Y0296457D01*
X0131283Y0296457D01*
X0133653Y0297439D01*
X0135000Y0298785D01*
X0136347Y0297439D01*
X0138717Y0296457D01*
X0141283Y0296457D01*
X0143653Y0297439D01*
X0145000Y0298785D01*
X0146347Y0297439D01*
X0148717Y0296457D01*
X0151283Y0296457D01*
X0153653Y0297439D01*
X0155000Y0298785D01*
X0156347Y0297439D01*
X0158717Y0296457D01*
X0161283Y0296457D01*
X0163653Y0297439D01*
X0165000Y0298785D01*
X0166347Y0297439D01*
X0168717Y0296457D01*
X0171283Y0296457D01*
X0173653Y0297439D01*
X0173778Y0297563D02*
X0181222Y0297563D01*
X0180624Y0298162D02*
X0174376Y0298162D01*
X0174975Y0298760D02*
X0180025Y0298760D01*
X0179488Y0299359D02*
X0175512Y0299359D01*
X0175759Y0299957D02*
X0179241Y0299957D01*
X0178993Y0300556D02*
X0176007Y0300556D01*
X0176255Y0301154D02*
X0178745Y0301154D01*
X0178550Y0301753D02*
X0176450Y0301753D01*
X0176450Y0302351D02*
X0178550Y0302351D01*
X0178550Y0302950D02*
X0176450Y0302950D01*
X0176450Y0303548D02*
X0178550Y0303548D01*
X0178550Y0304147D02*
X0176450Y0304147D01*
X0176450Y0304745D02*
X0178550Y0304745D01*
X0178550Y0305344D02*
X0176450Y0305344D01*
X0176450Y0305942D02*
X0178550Y0305942D01*
X0178550Y0306541D02*
X0176450Y0306541D01*
X0176450Y0307139D02*
X0178550Y0307139D01*
X0178550Y0307738D02*
X0176450Y0307738D01*
X0176450Y0308336D02*
X0178550Y0308336D01*
X0178550Y0308935D02*
X0176450Y0308935D01*
X0176450Y0309533D02*
X0178550Y0309533D01*
X0178550Y0310132D02*
X0176450Y0310132D01*
X0176225Y0310730D02*
X0178775Y0310730D01*
X0179022Y0311329D02*
X0175978Y0311329D01*
X0175730Y0311927D02*
X0179270Y0311927D01*
X0179518Y0312526D02*
X0175482Y0312526D01*
X0174903Y0313124D02*
X0180097Y0313124D01*
X0180695Y0313723D02*
X0174304Y0313723D01*
X0173706Y0314321D02*
X0181294Y0314321D01*
X0182665Y0314920D02*
X0172335Y0314920D01*
X0167665Y0314920D02*
X0162335Y0314920D01*
X0163706Y0314321D02*
X0166294Y0314321D01*
X0165696Y0313723D02*
X0164304Y0313723D01*
X0164903Y0313124D02*
X0165097Y0313124D01*
X0157665Y0314920D02*
X0152335Y0314920D01*
X0153706Y0314321D02*
X0156294Y0314321D01*
X0155696Y0313723D02*
X0154304Y0313723D01*
X0154903Y0313124D02*
X0155097Y0313124D01*
X0147665Y0314920D02*
X0142335Y0314920D01*
X0143706Y0314321D02*
X0146294Y0314321D01*
X0145696Y0313723D02*
X0144304Y0313723D01*
X0144903Y0313124D02*
X0145097Y0313124D01*
X0137665Y0314920D02*
X0132335Y0314920D01*
X0133706Y0314321D02*
X0136294Y0314321D01*
X0135696Y0313723D02*
X0134304Y0313723D01*
X0134903Y0313124D02*
X0135097Y0313124D01*
X0127665Y0314920D02*
X0122335Y0314920D01*
X0123706Y0314321D02*
X0126294Y0314321D01*
X0125696Y0313723D02*
X0124304Y0313723D01*
X0124903Y0313124D02*
X0125097Y0313124D01*
X0117665Y0314920D02*
X0102335Y0314920D01*
X0103706Y0314321D02*
X0116294Y0314321D01*
X0115695Y0313723D02*
X0104304Y0313723D01*
X0104903Y0313124D02*
X0109145Y0313124D01*
X0109700Y0313124D02*
X0110300Y0313124D01*
X0110855Y0313124D02*
X0115097Y0313124D01*
X0114518Y0312526D02*
X0112334Y0312526D01*
X0113060Y0311927D02*
X0114270Y0311927D01*
X0114022Y0311329D02*
X0113555Y0311329D01*
X0110300Y0311329D02*
X0109700Y0311329D01*
X0109700Y0311927D02*
X0110300Y0311927D01*
X0110300Y0312526D02*
X0109700Y0312526D01*
X0109700Y0310730D02*
X0110300Y0310730D01*
X0110300Y0310132D02*
X0109700Y0310132D01*
X0109700Y0309533D02*
X0110300Y0309533D01*
X0110300Y0308935D02*
X0109700Y0308935D01*
X0109700Y0308336D02*
X0110300Y0308336D01*
X0110300Y0307738D02*
X0109700Y0307738D01*
X0109700Y0307139D02*
X0110300Y0307139D01*
X0110300Y0306541D02*
X0109700Y0306541D01*
X0109700Y0305344D02*
X0110300Y0305344D01*
X0110300Y0304745D02*
X0109700Y0304745D01*
X0109700Y0304147D02*
X0110300Y0304147D01*
X0110300Y0303548D02*
X0109700Y0303548D01*
X0109700Y0302950D02*
X0110300Y0302950D01*
X0110300Y0302351D02*
X0109700Y0302351D01*
X0109700Y0301753D02*
X0110300Y0301753D01*
X0110300Y0301154D02*
X0109700Y0301154D01*
X0109700Y0300556D02*
X0110300Y0300556D01*
X0110300Y0299957D02*
X0109700Y0299957D01*
X0109700Y0299359D02*
X0110300Y0299359D01*
X0110300Y0298760D02*
X0109700Y0298760D01*
X0108846Y0298760D02*
X0104975Y0298760D01*
X0105512Y0299359D02*
X0107567Y0299359D01*
X0106868Y0299957D02*
X0105759Y0299957D01*
X0106007Y0300556D02*
X0106393Y0300556D01*
X0104376Y0298162D02*
X0115624Y0298162D01*
X0116222Y0297563D02*
X0103778Y0297563D01*
X0102509Y0296965D02*
X0117491Y0296965D01*
X0115025Y0298760D02*
X0111154Y0298760D01*
X0112433Y0299359D02*
X0114488Y0299359D01*
X0114241Y0299957D02*
X0113132Y0299957D01*
X0113607Y0300556D02*
X0113993Y0300556D01*
X0122509Y0296965D02*
X0127491Y0296965D01*
X0126222Y0297563D02*
X0123778Y0297563D01*
X0124376Y0298162D02*
X0125624Y0298162D01*
X0125025Y0298760D02*
X0124975Y0298760D01*
X0132509Y0296965D02*
X0137491Y0296965D01*
X0136222Y0297563D02*
X0133778Y0297563D01*
X0134376Y0298162D02*
X0135624Y0298162D01*
X0135025Y0298760D02*
X0134975Y0298760D01*
X0142509Y0296965D02*
X0147491Y0296965D01*
X0146222Y0297563D02*
X0143778Y0297563D01*
X0144376Y0298162D02*
X0145624Y0298162D01*
X0145025Y0298760D02*
X0144975Y0298760D01*
X0152509Y0296965D02*
X0157491Y0296965D01*
X0156222Y0297563D02*
X0153778Y0297563D01*
X0154376Y0298162D02*
X0155624Y0298162D01*
X0155025Y0298760D02*
X0154975Y0298760D01*
X0162509Y0296965D02*
X0167491Y0296965D01*
X0166222Y0297563D02*
X0163778Y0297563D01*
X0164376Y0298162D02*
X0165624Y0298162D01*
X0165025Y0298760D02*
X0164975Y0298760D01*
X0187335Y0314920D02*
X0192665Y0314920D01*
X0191294Y0314321D02*
X0188706Y0314321D01*
X0189304Y0313723D02*
X0190696Y0313723D01*
X0190097Y0313124D02*
X0189903Y0313124D01*
X0197335Y0314920D02*
X0202665Y0314920D01*
X0201294Y0314321D02*
X0198706Y0314321D01*
X0199304Y0313723D02*
X0200696Y0313723D01*
X0200097Y0313124D02*
X0199903Y0313124D01*
X0207335Y0314920D02*
X0212665Y0314920D01*
X0211294Y0314321D02*
X0208706Y0314321D01*
X0209304Y0313723D02*
X0210696Y0313723D01*
X0210097Y0313124D02*
X0209903Y0313124D01*
X0217335Y0314920D02*
X0222665Y0314920D01*
X0221294Y0314321D02*
X0218706Y0314321D01*
X0219304Y0313723D02*
X0220696Y0313723D01*
X0220097Y0313124D02*
X0219903Y0313124D01*
X0227335Y0314920D02*
X0229050Y0314920D01*
X0229050Y0315518D02*
X0069550Y0315518D01*
X0070586Y0314920D02*
X0097665Y0314920D01*
X0096294Y0314321D02*
X0071574Y0314321D01*
X0072173Y0313723D02*
X0095695Y0313723D01*
X0095097Y0313124D02*
X0072771Y0313124D01*
X0073370Y0312526D02*
X0094518Y0312526D01*
X0094270Y0311927D02*
X0073763Y0311927D01*
X0074108Y0311329D02*
X0094022Y0311329D01*
X0093775Y0310730D02*
X0074454Y0310730D01*
X0074799Y0310132D02*
X0093550Y0310132D01*
X0093550Y0309533D02*
X0075001Y0309533D01*
X0075162Y0308935D02*
X0093550Y0308935D01*
X0093550Y0308336D02*
X0075322Y0308336D01*
X0075482Y0307738D02*
X0093550Y0307738D01*
X0093550Y0307139D02*
X0075599Y0307139D01*
X0075599Y0306541D02*
X0093550Y0306541D01*
X0093550Y0305942D02*
X0075599Y0305942D01*
X0075599Y0305344D02*
X0093550Y0305344D01*
X0093550Y0304745D02*
X0075599Y0304745D01*
X0075502Y0304147D02*
X0093550Y0304147D01*
X0093550Y0303548D02*
X0075341Y0303548D01*
X0075181Y0302950D02*
X0093550Y0302950D01*
X0093550Y0302351D02*
X0075021Y0302351D01*
X0074841Y0301753D02*
X0093550Y0301753D01*
X0093745Y0301154D02*
X0074495Y0301154D01*
X0074150Y0300556D02*
X0093993Y0300556D01*
X0094241Y0299957D02*
X0073804Y0299957D01*
X0073442Y0299359D02*
X0094488Y0299359D01*
X0095025Y0298760D02*
X0072843Y0298760D01*
X0072245Y0298162D02*
X0095624Y0298162D01*
X0096222Y0297563D02*
X0071646Y0297563D01*
X0070711Y0296965D02*
X0097491Y0296965D01*
X0105978Y0311329D02*
X0106445Y0311329D01*
X0106940Y0311927D02*
X0105730Y0311927D01*
X0105482Y0312526D02*
X0107666Y0312526D01*
X0067845Y0316117D02*
X0229050Y0316117D01*
X0229050Y0316715D02*
X0051497Y0316715D01*
X0051499Y0316117D02*
X0062155Y0316117D01*
X0060450Y0315518D02*
X0051502Y0315518D01*
X0051505Y0314920D02*
X0059414Y0314920D01*
X0058426Y0314321D02*
X0051507Y0314321D01*
X0051510Y0313723D02*
X0057827Y0313723D01*
X0057229Y0313124D02*
X0051512Y0313124D01*
X0051515Y0312526D02*
X0056630Y0312526D01*
X0056237Y0311927D02*
X0051517Y0311927D01*
X0051520Y0311329D02*
X0055892Y0311329D01*
X0055546Y0310730D02*
X0051522Y0310730D01*
X0051525Y0310132D02*
X0055201Y0310132D01*
X0054999Y0309533D02*
X0051528Y0309533D01*
X0051530Y0308935D02*
X0054838Y0308935D01*
X0054678Y0308336D02*
X0051533Y0308336D01*
X0051535Y0307738D02*
X0054518Y0307738D01*
X0054401Y0307139D02*
X0051538Y0307139D01*
X0051540Y0306541D02*
X0054401Y0306541D01*
X0054401Y0305942D02*
X0051543Y0305942D01*
X0051545Y0305344D02*
X0054401Y0305344D01*
X0054401Y0304745D02*
X0051548Y0304745D01*
X0051551Y0304147D02*
X0054498Y0304147D01*
X0054659Y0303548D02*
X0051553Y0303548D01*
X0051556Y0302950D02*
X0054819Y0302950D01*
X0054979Y0302351D02*
X0051558Y0302351D01*
X0051561Y0301753D02*
X0055159Y0301753D01*
X0055505Y0301154D02*
X0051563Y0301154D01*
X0051566Y0300556D02*
X0055850Y0300556D01*
X0056196Y0299957D02*
X0051568Y0299957D01*
X0051571Y0299359D02*
X0056558Y0299359D01*
X0057157Y0298760D02*
X0051573Y0298760D01*
X0051576Y0298162D02*
X0057755Y0298162D01*
X0058354Y0297563D02*
X0051579Y0297563D01*
X0051581Y0296965D02*
X0059289Y0296965D01*
X0060326Y0296366D02*
X0051584Y0296366D01*
X0051586Y0295768D02*
X0061886Y0295768D01*
X0051494Y0317314D02*
X0229029Y0317314D01*
X0228814Y0317912D02*
X0051492Y0317912D01*
X0051489Y0318511D02*
X0228814Y0318511D01*
X0228814Y0319110D02*
X0051487Y0319110D01*
X0051484Y0319708D02*
X0228814Y0319708D01*
X0228858Y0320307D02*
X0051482Y0320307D01*
X0051479Y0320905D02*
X0229106Y0320905D01*
X0229354Y0321504D02*
X0051476Y0321504D01*
X0051474Y0322102D02*
X0229602Y0322102D01*
X0230034Y0322701D02*
X0051471Y0322701D01*
X0051469Y0323299D02*
X0230632Y0323299D01*
X0231231Y0323898D02*
X0051466Y0323898D01*
X0051464Y0324496D02*
X0231829Y0324496D01*
X0232428Y0325095D02*
X0051461Y0325095D01*
X0051459Y0325693D02*
X0233026Y0325693D01*
X0233625Y0326292D02*
X0051456Y0326292D01*
X0051453Y0326890D02*
X0234223Y0326890D01*
X0234822Y0327489D02*
X0051451Y0327489D01*
X0051448Y0328087D02*
X0235420Y0328087D01*
X0236019Y0328686D02*
X0051446Y0328686D01*
X0051443Y0329284D02*
X0236617Y0329284D01*
X0237216Y0329883D02*
X0051441Y0329883D01*
X0051438Y0330481D02*
X0237814Y0330481D01*
X0238413Y0331080D02*
X0051436Y0331080D01*
X0051433Y0331678D02*
X0239011Y0331678D01*
X0239610Y0332277D02*
X0051430Y0332277D01*
X0051428Y0332875D02*
X0240209Y0332875D01*
X0240807Y0333474D02*
X0051425Y0333474D01*
X0051423Y0334072D02*
X0241406Y0334072D01*
X0242004Y0334671D02*
X0051420Y0334671D01*
X0051418Y0335269D02*
X0242603Y0335269D01*
X0243201Y0335868D02*
X0051415Y0335868D01*
X0051413Y0336466D02*
X0243800Y0336466D01*
X0244398Y0337065D02*
X0051410Y0337065D01*
X0051407Y0337663D02*
X0244997Y0337663D01*
X0245595Y0338262D02*
X0051405Y0338262D01*
X0051402Y0338860D02*
X0246194Y0338860D01*
X0246792Y0339459D02*
X0051400Y0339459D01*
X0051397Y0340057D02*
X0247391Y0340057D01*
X0247989Y0340656D02*
X0051395Y0340656D01*
X0051392Y0341254D02*
X0248588Y0341254D01*
X0249186Y0341853D02*
X0051390Y0341853D01*
X0051387Y0342451D02*
X0249785Y0342451D01*
X0250383Y0343050D02*
X0051384Y0343050D01*
X0051382Y0343648D02*
X0250982Y0343648D01*
X0251580Y0344247D02*
X0051379Y0344247D01*
X0051377Y0344845D02*
X0252179Y0344845D01*
X0252777Y0345444D02*
X0051374Y0345444D01*
X0051372Y0346043D02*
X0253376Y0346043D01*
X0253974Y0346641D02*
X0051369Y0346641D01*
X0051367Y0347240D02*
X0254573Y0347240D01*
X0255171Y0347838D02*
X0051364Y0347838D01*
X0051361Y0348437D02*
X0255770Y0348437D01*
X0256368Y0349035D02*
X0051359Y0349035D01*
X0051356Y0349634D02*
X0256967Y0349634D01*
X0257565Y0350232D02*
X0051354Y0350232D01*
X0051351Y0350831D02*
X0258164Y0350831D01*
X0258762Y0351429D02*
X0051349Y0351429D01*
X0051346Y0352028D02*
X0259361Y0352028D01*
X0259959Y0352626D02*
X0051344Y0352626D01*
X0051341Y0353225D02*
X0260558Y0353225D01*
X0261156Y0353823D02*
X0051338Y0353823D01*
X0051336Y0354422D02*
X0261820Y0354422D01*
X0263265Y0355020D02*
X0051333Y0355020D01*
X0228706Y0314321D02*
X0229050Y0314321D01*
X0240950Y0314321D02*
X0241294Y0314321D01*
X0302923Y0210180D02*
X0370153Y0210180D01*
X0369555Y0209582D02*
X0302325Y0209582D01*
X0301726Y0208983D02*
X0368956Y0208983D01*
X0368550Y0208385D02*
X0300366Y0208385D01*
X0376950Y0131775D02*
X0383050Y0131775D01*
X0384700Y0131775D02*
X0385300Y0131775D01*
X0385300Y0132374D02*
X0384700Y0132374D01*
X0384700Y0132972D02*
X0385300Y0132972D01*
X0385300Y0133571D02*
X0384700Y0133571D01*
X0384700Y0134170D02*
X0385300Y0134170D01*
X0385300Y0134768D02*
X0384700Y0134768D01*
X0363321Y0125192D02*
X0356679Y0125192D01*
X0358124Y0124593D02*
X0361876Y0124593D01*
X0360967Y0123995D02*
X0359033Y0123995D01*
X0359631Y0123396D02*
X0360369Y0123396D01*
X0353321Y0125192D02*
X0346679Y0125192D01*
X0348124Y0124593D02*
X0351876Y0124593D01*
X0350967Y0123995D02*
X0349033Y0123995D01*
X0349631Y0123396D02*
X0350369Y0123396D01*
X0343321Y0125192D02*
X0336679Y0125192D01*
X0338124Y0124593D02*
X0341876Y0124593D01*
X0340967Y0123995D02*
X0339033Y0123995D01*
X0339631Y0123396D02*
X0340369Y0123396D01*
X0333321Y0125192D02*
X0326679Y0125192D01*
X0328124Y0124593D02*
X0331876Y0124593D01*
X0330967Y0123995D02*
X0329033Y0123995D01*
X0329631Y0123396D02*
X0330369Y0123396D01*
X0323321Y0125192D02*
X0316679Y0125192D01*
X0318124Y0124593D02*
X0321876Y0124593D01*
X0320967Y0123995D02*
X0319033Y0123995D01*
X0319631Y0123396D02*
X0320369Y0123396D01*
X0313321Y0125192D02*
X0306679Y0125192D01*
X0308124Y0124593D02*
X0311876Y0124593D01*
X0310967Y0123995D02*
X0309033Y0123995D01*
X0309631Y0123396D02*
X0310369Y0123396D01*
X0303321Y0125192D02*
X0296679Y0125192D01*
X0298124Y0124593D02*
X0301876Y0124593D01*
X0300967Y0123995D02*
X0299033Y0123995D01*
X0299631Y0123396D02*
X0300369Y0123396D01*
X0300950Y0107835D02*
X0300950Y0107835D01*
X0300950Y0107237D02*
X0301834Y0107237D01*
X0300950Y0106638D02*
X0303279Y0106638D01*
X0300950Y0104842D02*
X0459523Y0104842D01*
X0459523Y0104244D02*
X0300950Y0104244D01*
X0301502Y0103645D02*
X0459523Y0103645D01*
X0459523Y0103047D02*
X0302100Y0103047D01*
X0302699Y0102448D02*
X0459523Y0102448D01*
X0459523Y0101850D02*
X0303297Y0101850D01*
X0303896Y0101251D02*
X0459523Y0101251D01*
X0459523Y0100653D02*
X0304494Y0100653D01*
X0305093Y0100054D02*
X0459523Y0100054D01*
X0459523Y0099456D02*
X0305691Y0099456D01*
X0306290Y0098857D02*
X0459523Y0098857D01*
X0459523Y0098259D02*
X0306888Y0098259D01*
X0307487Y0097660D02*
X0459523Y0097660D01*
X0459523Y0097062D02*
X0308085Y0097062D01*
X0308684Y0096463D02*
X0459523Y0096463D01*
X0458985Y0095865D02*
X0309282Y0095865D01*
X0309000Y0096147D02*
X0309000Y0096147D01*
X0309881Y0095266D02*
X0458387Y0095266D01*
X0457788Y0094668D02*
X0310479Y0094668D01*
X0310841Y0094069D02*
X0457190Y0094069D01*
X0456591Y0093471D02*
X0311089Y0093471D01*
X0311337Y0092872D02*
X0455993Y0092872D01*
X0455394Y0092274D02*
X0311580Y0092274D01*
X0311580Y0091675D02*
X0454796Y0091675D01*
X0454197Y0091077D02*
X0311580Y0091077D01*
X0311580Y0090478D02*
X0453599Y0090478D01*
X0453000Y0089880D02*
X0311580Y0089880D01*
X0311580Y0089281D02*
X0452402Y0089281D01*
X0451803Y0088683D02*
X0311580Y0088683D01*
X0311580Y0088084D02*
X0451205Y0088084D01*
X0450606Y0087486D02*
X0311580Y0087486D01*
X0311580Y0086887D02*
X0450008Y0086887D01*
X0449409Y0086289D02*
X0311580Y0086289D01*
X0311580Y0085690D02*
X0448811Y0085690D01*
X0448212Y0085092D02*
X0311580Y0085092D01*
X0311580Y0084493D02*
X0447614Y0084493D01*
X0447015Y0083895D02*
X0311580Y0083895D01*
X0311580Y0083296D02*
X0446417Y0083296D01*
X0445818Y0082698D02*
X0311580Y0082698D01*
X0311580Y0082099D02*
X0445220Y0082099D01*
X0444621Y0081501D02*
X0311580Y0081501D01*
X0311580Y0080902D02*
X0444023Y0080902D01*
X0443424Y0080303D02*
X0311580Y0080303D01*
X0311580Y0079705D02*
X0442826Y0079705D01*
X0442227Y0079106D02*
X0311580Y0079106D01*
X0311580Y0078508D02*
X0441629Y0078508D01*
X0363279Y0106638D02*
X0356721Y0106638D01*
X0358166Y0107237D02*
X0361834Y0107237D01*
X0360950Y0107835D02*
X0359050Y0107835D01*
X0359648Y0108434D02*
X0360352Y0108434D01*
X0353279Y0106638D02*
X0346721Y0106638D01*
X0348166Y0107237D02*
X0351834Y0107237D01*
X0350950Y0107835D02*
X0349050Y0107835D01*
X0349648Y0108434D02*
X0350352Y0108434D01*
X0343279Y0106638D02*
X0336721Y0106638D01*
X0338166Y0107237D02*
X0341834Y0107237D01*
X0340950Y0107835D02*
X0339050Y0107835D01*
X0339648Y0108434D02*
X0340352Y0108434D01*
X0333279Y0106638D02*
X0326721Y0106638D01*
X0328166Y0107237D02*
X0331834Y0107237D01*
X0330950Y0107835D02*
X0329050Y0107835D01*
X0329648Y0108434D02*
X0330352Y0108434D01*
X0323279Y0106638D02*
X0316721Y0106638D01*
X0318166Y0107237D02*
X0321834Y0107237D01*
X0320950Y0107835D02*
X0319050Y0107835D01*
X0319648Y0108434D02*
X0320352Y0108434D01*
X0313279Y0106638D02*
X0306721Y0106638D01*
X0308166Y0107237D02*
X0311834Y0107237D01*
X0310950Y0107835D02*
X0309050Y0107835D01*
X0309648Y0108434D02*
X0310352Y0108434D01*
X0310157Y0073121D02*
X0315100Y0073121D01*
X0314502Y0072523D02*
X0309558Y0072523D01*
X0308960Y0071924D02*
X0313903Y0071924D01*
X0313305Y0071326D02*
X0308361Y0071326D01*
X0307763Y0070727D02*
X0312706Y0070727D01*
X0312108Y0070129D02*
X0307164Y0070129D01*
X0306566Y0069530D02*
X0311509Y0069530D01*
X0310911Y0068932D02*
X0305967Y0068932D01*
X0305369Y0068333D02*
X0310312Y0068333D01*
X0309714Y0067735D02*
X0304770Y0067735D01*
X0304172Y0067136D02*
X0309115Y0067136D01*
X0308517Y0066538D02*
X0303573Y0066538D01*
X0302974Y0065939D02*
X0307918Y0065939D01*
X0307320Y0065341D02*
X0302376Y0065341D01*
X0301777Y0064742D02*
X0306721Y0064742D01*
X0306123Y0064144D02*
X0301179Y0064144D01*
X0300580Y0063545D02*
X0305524Y0063545D01*
X0304926Y0062947D02*
X0299982Y0062947D01*
X0299493Y0062348D02*
X0304327Y0062348D01*
X0303729Y0061750D02*
X0299493Y0061750D01*
X0299493Y0061151D02*
X0303130Y0061151D01*
X0302532Y0060553D02*
X0299493Y0060553D01*
X0299493Y0059954D02*
X0301933Y0059954D01*
X0301335Y0059356D02*
X0299493Y0059356D01*
X0299493Y0058757D02*
X0300736Y0058757D01*
X0300137Y0058159D02*
X0299493Y0058159D01*
X0299493Y0057560D02*
X0299539Y0057560D01*
X0309493Y0049779D02*
X0309918Y0049779D01*
X0287594Y0048582D02*
X0283993Y0048582D01*
X0285785Y0047984D02*
X0287594Y0047984D01*
X0287594Y0047385D02*
X0286539Y0047385D01*
X0287052Y0046787D02*
X0287592Y0046787D01*
X0287509Y0036014D02*
X0287197Y0036014D01*
X0286740Y0035415D02*
X0287757Y0035415D01*
X0288005Y0034817D02*
X0286064Y0034817D01*
X0284896Y0034218D02*
X0288504Y0034218D01*
X0281022Y0034817D02*
X0279081Y0034817D01*
X0279329Y0035415D02*
X0280347Y0035415D01*
X0279889Y0036014D02*
X0279577Y0036014D01*
X0270879Y0032423D02*
X0266208Y0032423D01*
X0267386Y0033021D02*
X0269701Y0033021D01*
X0269103Y0033620D02*
X0267984Y0033620D01*
X0260879Y0032423D02*
X0256208Y0032423D01*
X0257386Y0033021D02*
X0259701Y0033021D01*
X0259103Y0033620D02*
X0257984Y0033620D01*
X0250879Y0032423D02*
X0246208Y0032423D01*
X0247386Y0033021D02*
X0249701Y0033021D01*
X0249103Y0033620D02*
X0247984Y0033620D01*
X0240879Y0032423D02*
X0236208Y0032423D01*
X0237386Y0033021D02*
X0239701Y0033021D01*
X0239103Y0033620D02*
X0237984Y0033620D01*
X0230879Y0032423D02*
X0226208Y0032423D01*
X0227386Y0033021D02*
X0229701Y0033021D01*
X0229103Y0033620D02*
X0227984Y0033620D01*
X0220879Y0032423D02*
X0216208Y0032423D01*
X0217386Y0033021D02*
X0219701Y0033021D01*
X0219103Y0033620D02*
X0217984Y0033620D01*
X0210879Y0032423D02*
X0206208Y0032423D01*
X0207386Y0033021D02*
X0209701Y0033021D01*
X0209103Y0033620D02*
X0207984Y0033620D01*
X0200879Y0032423D02*
X0196208Y0032423D01*
X0197386Y0033021D02*
X0199701Y0033021D01*
X0199103Y0033620D02*
X0197984Y0033620D01*
D14*
X0193543Y0041300D02*
X0193543Y0086457D01*
X0206811Y0099725D01*
X0215866Y0099725D01*
X0225000Y0108859D01*
X0225000Y0115906D01*
X0235000Y0115906D02*
X0235000Y0102717D01*
X0230039Y0097757D01*
X0227283Y0097757D01*
X0203543Y0074017D01*
X0203543Y0041300D01*
X0213543Y0041300D02*
X0213543Y0067087D01*
X0245000Y0098544D01*
X0245000Y0115906D01*
X0255000Y0115906D02*
X0255236Y0115670D01*
X0255236Y0089883D01*
X0223543Y0058190D01*
X0223543Y0041300D01*
X0190276Y0022166D02*
X0304055Y0022166D01*
X0313543Y0031654D01*
X0313543Y0041300D01*
X0303543Y0041300D02*
X0303543Y0053150D01*
X0321772Y0071379D01*
X0374921Y0071379D01*
X0393031Y0053269D01*
X0393031Y0041497D01*
X0413031Y0041497D02*
X0465472Y0093938D01*
X0465472Y0197757D01*
X0457992Y0205237D01*
X0433189Y0205237D01*
X0420984Y0217442D01*
X0420984Y0284135D01*
X0399213Y0305906D01*
X0422756Y0329450D01*
X0422756Y0338190D01*
X0432756Y0338190D02*
X0432756Y0280867D01*
X0442244Y0271379D01*
X0457913Y0271379D01*
X0458110Y0271576D01*
X0458110Y0291261D02*
X0458110Y0322835D01*
X0442756Y0338190D01*
X0399213Y0305906D02*
X0385000Y0305906D01*
X0375000Y0305906D02*
X0375000Y0318544D01*
X0371772Y0321772D01*
X0353661Y0321772D01*
X0343622Y0331812D01*
X0343622Y0337678D01*
X0325000Y0322481D02*
X0313622Y0333859D01*
X0313622Y0337678D01*
X0303622Y0337678D02*
X0303622Y0328505D01*
X0315866Y0316261D01*
X0315866Y0306772D01*
X0315000Y0305906D01*
X0325000Y0305906D02*
X0325000Y0322481D01*
X0323622Y0337678D02*
X0323622Y0344331D01*
X0318622Y0349331D01*
X0265079Y0349331D01*
X0234764Y0319017D01*
X0235000Y0318780D01*
X0235000Y0305906D01*
X0385000Y0185906D02*
X0445709Y0185906D01*
X0447756Y0183859D01*
X0447756Y0173859D02*
X0447244Y0173347D01*
X0412717Y0173347D01*
X0405236Y0165867D01*
X0385039Y0165867D01*
X0385000Y0165906D01*
X0385000Y0145906D02*
X0385118Y0145788D01*
X0407598Y0145788D01*
X0425669Y0163859D01*
X0447756Y0163859D01*
X0305630Y0091103D02*
X0305630Y0077009D01*
X0293543Y0064922D01*
X0293543Y0041300D01*
X0273543Y0041300D02*
X0273543Y0051143D01*
X0264094Y0060591D01*
X0264094Y0084961D01*
X0274921Y0095788D01*
X0274921Y0115828D01*
X0275000Y0115906D01*
X0295000Y0115906D02*
X0295000Y0101733D01*
X0305630Y0091103D01*
X0190276Y0022166D02*
X0183543Y0028898D01*
X0183543Y0041300D01*
X0183543Y0074961D01*
X0154843Y0103662D01*
X0154843Y0115749D01*
X0155000Y0115906D01*
M02*
