%
M48
M72
T01C0.0400
T02C0.0551
T03C0.0787
T04C0.1260
%
T01
X13354Y4130
X14354Y4130
X15354Y4130
X16354Y4130
X17354Y4130
X18354Y4130
X19354Y4130
X20354Y4130
X21354Y4130
X22354Y4130
X23354Y4130
X24354Y4130
X25354Y4130
X26354Y4130
X27354Y4130
X28354Y4130
X29354Y4130
X30354Y4130
X31354Y4130
X32354Y4130
X36303Y4150
X37303Y4150
X38303Y4150
X39303Y4150
X40303Y4150
X41303Y4150
X36500Y11591
X35500Y11591
X34500Y11591
X33500Y11591
X32500Y11591
X31500Y11591
X30500Y11591
X29500Y11591
X27500Y11591
X26500Y11591
X25500Y11591
X24500Y11591
X23500Y11591
X22500Y11591
X21500Y11591
X20500Y11591
X18500Y11591
X17500Y11591
X16500Y11591
X15500Y11591
X14500Y11591
X13500Y11591
X13000Y30591
X12000Y30591
X11000Y30591
X10000Y30591
X14000Y30591
X15000Y30591
X16000Y30591
X17000Y30591
X18500Y30591
X19500Y30591
X20500Y30591
X21500Y30591
X22500Y30591
X23500Y30591
X24500Y30591
X25500Y30591
X27500Y30591
X28500Y30591
X29500Y30591
X30500Y30591
X31500Y30591
X32500Y30591
X33500Y30591
X34500Y30591
X37500Y30591
X38500Y30591
X38500Y29591
X37500Y29591
X37500Y28591
X38500Y28591
X38500Y27591
X37500Y27591
X37500Y26591
X38500Y26591
X38500Y25591
X37500Y25591
X37500Y24591
X38500Y24591
X38500Y23591
X37500Y23591
X37500Y22591
X38500Y22591
X38500Y21591
X37500Y21591
X37500Y20591
X38500Y20591
X38500Y19591
X37500Y19591
X37500Y18591
X38500Y18591
X38500Y17591
X37500Y17591
X37500Y16591
X38500Y16591
X38500Y15591
X37500Y15591
X37500Y14591
X38500Y14591
X38500Y13591
X37500Y13591
X44776Y13386
X44776Y14386
X44776Y15386
X44776Y16386
X44776Y17386
X44776Y18386
X35362Y33768
X34362Y33768
X33362Y33768
X32362Y33768
X31362Y33768
X30362Y33768
X39276Y33819
X40276Y33819
X41276Y33819
X42276Y33819
X43276Y33819
X44276Y33819
T02
X45811Y29126
X45811Y27158
X45728Y25071
X45728Y23102
T03
X29700Y21591
T04
X36000Y30591
X38500Y11591
X6500Y11591
X6500Y30591
M30
