%
M48
M72
T01C0.0400
T02C0.0551
T03C0.0787
T04C0.1260
%
T01
X17922Y5634
X18922Y5634
X19922Y5634
X20922Y5634
X21922Y5634
X22922Y5634
X24922Y5634
X25922Y5634
X26922Y5634
X27922Y5634
X28922Y5634
X29922Y5634
X30922Y5634
X31922Y5634
X33922Y5634
X34922Y5634
X35922Y5634
X36922Y5634
X37922Y5634
X38922Y5634
X39922Y5634
X40922Y5634
X41922Y7634
X42922Y7634
X42922Y8634
X42922Y9634
X42922Y10634
X42922Y11634
X42922Y12634
X42922Y13634
X42922Y14634
X42922Y15634
X42922Y16634
X42922Y17634
X42922Y18634
X41922Y18634
X41922Y17634
X41922Y16634
X41922Y15634
X41922Y14634
X41922Y13634
X41922Y12634
X41922Y11634
X41922Y10634
X41922Y9634
X41922Y8634
X41922Y19634
X42922Y19634
X42922Y20634
X42922Y21634
X42922Y22634
X42922Y23634
X42922Y24634
X41922Y24634
X41922Y23634
X41922Y22634
X41922Y21634
X41922Y20634
X38922Y24634
X37922Y24634
X36922Y24634
X35922Y24634
X34922Y24634
X33922Y24634
X32922Y24634
X31922Y24634
X29922Y24634
X28922Y24634
X27922Y24634
X26922Y24634
X25922Y24634
X24922Y24634
X23922Y24634
X22922Y24634
X21422Y24634
X20422Y24634
X19422Y24634
X18422Y24634
X17422Y24634
X16422Y24634
X15422Y24634
X14422Y24634
X19768Y32654
X19768Y33654
X19768Y34654
X19768Y35654
X19768Y36654
X19768Y37654
X42922Y32634
X42922Y31634
X42922Y30634
X42922Y29634
X42922Y28634
X42922Y27634
T02
X37969Y33646
X37969Y35615
X37969Y37583
X37930Y40241
X37930Y42209
T03
X34122Y15634
T04
X4166Y4107
X10922Y5634
X10922Y24634
X4048Y25918
X17709Y43201
X40422Y24634
X44520Y43004
X42922Y5634
X44993Y4422
M30
